M48
;Layer_Color=9474304
;FILE_FORMAT=2:4
INCH,LZ
;TYPE=NON_PLATED
T8F00S00C0.0669
T9F00S00C0.0950
T10F00S00C0.1201
%
T08
X001575Y007972
Y010925
Y017717
Y020669
X03146Y049882
X037362
X042874Y049911
X044843
T09
X004982Y049311
X007852
X011762Y049325
X014632
X02024Y049308
X02311
T10
X075Y001772
X032902Y007654
X001772Y001772
X033402Y026654
X053402Y020654
X001772Y049409
X066879Y048791
M30
