M48
;Layer_Color=9474304
;FILE_FORMAT=2:4
INCH,LZ
;TYPE=PLATED
T1F00S00C0.0236
T2F00S00C0.0394
T3F00S00C0.0402
T4F00S00C0.0410
T5F00S00C0.0429
T6F00S00C0.0472
T7F00S00C0.1250
%
T01
X068189Y010709
X069055
X069488Y011575
X068622
X068189Y012441
X069055
X068622Y013307
X069488
X069055Y014173
X072992Y010827
X073012Y008211
X066879Y00878
X066575Y009291
X067244
X065591Y010709
X064724
X063858
X062992
X062126
X062559Y011575
X063425
X064291
X065157
X065591Y012441
X064724
X063858
X062992
X062126
X064291Y013307
X065157
X056024Y013898
X05752Y007717
X058268
X058976
X058633Y007037
X057863
X030419Y002362
X003189Y015551
Y016142
X002559
Y015551
X014173Y02249
X016811Y02248
X019488
X031417Y02437
X030906Y025039
X032419Y023858
X031919Y028031
X034402Y015866
X036173Y016059
X036212Y016783
X035402Y014685
X036826Y015594
X036842Y016303
Y017082
X041339Y017992
Y018663
Y019331
X048402Y017323
X050402Y020157
X051417Y020669
X05998Y02248
X06065
X061319
X060984Y02315
X060315
X06065Y023819
X05998
X060315Y024488
X060984
X061319Y023819
X06065Y025157
X05998
X060591Y02748
X064331Y024488
X065
X063439Y019094
Y018386
X062612Y018701
X062515Y016732
Y015863
X061929Y01631
X070079Y019921
X072992Y018819
Y021063
Y025394
X069606Y025079
Y027717
X07435Y035827
X060669Y03
X053307Y036417
X053583Y03815
X054508Y043976
X055984
X056769Y042579
X050197Y040748
X051614Y037427
X045433Y041811
X043484
X041535
X039402Y038898
X040402Y035669
X035886Y036102
Y037087
Y038071
Y039055
Y040236
Y041378
X034902Y034843
X033228Y03374
X031919Y034626
X030919
X030419Y035217
X031419
X032419
X027913Y037185
X027994Y038465
X028419Y040896
X027638Y04122
X02811Y041831
X023307Y042557
X027137Y03376
X020492Y035689
X01903Y037143
X020571Y040551
X019724Y043954
X014803Y042576
X012092Y040568
X01122Y043974
X010552Y03716
X012014Y035706
X006457Y039114
X00372Y037087
X002854Y040492
X00218Y033679
X003642Y032224
X037795Y047953
X038976
X039567Y049134
X040748
X041929
X04311
X044291
X045472
X046654
X047835
X049016
X050197
X051378
X050787Y047953
X049606
X048425
X046063
X044882
X043701
X04252
X051968
X05315
X054331
X055512
X056693
X057874
X059055
X059646Y046772
X058465
X057283
X056102
X054921
X05374
Y049134
X052559
X054921
X056102
X059646
X060827
T02
X052402Y004654
Y005654
X066929Y01278
Y01378
X051402Y005654
X050402
X049402
X048402
X047402
X046402
X045402
X044402
X043402
X042402
X041402
X040402
X039402
X038402
X037402
X036402
Y004654
X037402
X038402
X039402
X040402
X041402
X042402
X043402
X044402
X045402
X046402
X047402
X048402
X049402
X050402
X051402
X035402
Y005654
X034402
Y004654
Y028654
X035402
Y029654
X034402
X036402
Y028654
X037402
Y029654
X038402
Y028654
X039402
Y029654
X040402
Y028654
X041402
Y029654
X042402
Y028654
X043402
Y029654
X044402
Y028654
X045402
Y029654
X046402
Y028654
X047402
Y029654
X048402
Y028654
X049402
Y029654
X050402
Y028654
X051402
Y029654
X052402
Y028654
X064118Y028071
X065118
X066118
X062717Y025252
Y024252
Y023252
X063543Y01626
X064543
X066929Y01478
X058268Y044803
Y045803
T03
X005827Y04761
X007008
X012606Y047624
X013787
X021085Y047607
X022266
T04
X069904Y040978
Y042058
Y043138
Y044218
Y045298
X071024Y044758
Y043678
Y042598
Y041518
T05
X07126Y031299
Y032299
T06
X005394Y007972
Y008957
Y009941
X005408Y010925
X00441
Y009941
Y008957
Y007972
Y017717
Y018701
Y019685
Y020669
X005408
X005394Y019685
Y018701
Y017717
X03146Y046071
X032444
X033428
X034413
X035397
Y047055
X034432
X033448
X032464
X03148
X036361
Y046071
X037362
Y047055
X042874Y047084
Y0461
X043858
X044843
Y047084
X043858
T07
X070464Y038218
Y048058
M30
