G04*
G04 #@! TF.GenerationSoftware,Altium Limited,Altium Designer,19.0.12 (326)*
G04*
G04 Layer_Physical_Order=3*
G04 Layer_Color=36540*
%FSLAX24Y24*%
%MOIN*%
G70*
G01*
G75*
%ADD71C,0.0197*%
%ADD74C,0.0600*%
%ADD79C,0.0709*%
%ADD83C,0.0594*%
%ADD90C,0.0394*%
G36*
X31019Y50000D02*
X31003Y49882D01*
X31019Y49764D01*
X31064Y49654D01*
X31137Y49559D01*
X31232Y49486D01*
X31342Y49441D01*
X31460Y49425D01*
X31578Y49441D01*
X31688Y49486D01*
X31783Y49559D01*
X31855Y49654D01*
X31901Y49764D01*
X31917Y49882D01*
X31901Y50000D01*
X36921D01*
X36906Y49882D01*
X36921Y49764D01*
X36967Y49654D01*
X37039Y49559D01*
X37134Y49486D01*
X37244Y49441D01*
X37362Y49425D01*
X37480Y49441D01*
X37591Y49486D01*
X37685Y49559D01*
X37758Y49654D01*
X37803Y49764D01*
X37819Y49882D01*
X37803Y50000D01*
X42429Y50000D01*
X42417Y49911D01*
X42433Y49793D01*
X42479Y49682D01*
X42551Y49588D01*
X42646Y49515D01*
X42756Y49470D01*
X42874Y49454D01*
X42992Y49470D01*
X43102Y49515D01*
X43197Y49588D01*
X43270Y49682D01*
X43315Y49793D01*
X43331Y49911D01*
X43319Y50000D01*
X44398D01*
X44386Y49911D01*
X44401Y49793D01*
X44447Y49682D01*
X44520Y49588D01*
X44614Y49515D01*
X44724Y49470D01*
X44843Y49454D01*
X44961Y49470D01*
X45071Y49515D01*
X45165Y49588D01*
X45238Y49682D01*
X45284Y49793D01*
X45299Y49911D01*
X45287Y50000D01*
X74803Y50000D01*
X75748Y49055D01*
X75748Y35413D01*
X75020Y34685D01*
X35177Y34685D01*
X35208Y34760D01*
X35219Y34843D01*
X35208Y34925D01*
X35177Y35001D01*
X35126Y35067D01*
X35060Y35118D01*
X34984Y35149D01*
X34902Y35160D01*
X34819Y35149D01*
X34743Y35118D01*
X34677Y35067D01*
X34626Y35001D01*
X34595Y34925D01*
X34584Y34843D01*
X34595Y34760D01*
X34626Y34685D01*
X32229Y34685D01*
X32226Y34708D01*
X32194Y34785D01*
X32144Y34851D01*
X32078Y34901D01*
X32002Y34933D01*
X31919Y34944D01*
X31837Y34933D01*
X31760Y34901D01*
X31695Y34851D01*
X31644Y34785D01*
X31612Y34708D01*
X31609Y34685D01*
X31229D01*
X31226Y34708D01*
X31194Y34785D01*
X31144Y34851D01*
X31078Y34901D01*
X31002Y34933D01*
X30919Y34944D01*
X30837Y34933D01*
X30760Y34901D01*
X30695Y34851D01*
X30644Y34785D01*
X30612Y34708D01*
X30609Y34685D01*
X2106Y34685D01*
X1181Y35610D01*
Y48819D01*
X1261Y48899D01*
X1371Y48809D01*
X1495Y48742D01*
X1631Y48701D01*
X1772Y48687D01*
X1912Y48701D01*
X2048Y48742D01*
X2173Y48809D01*
X2282Y48899D01*
X2372Y49008D01*
X2439Y49133D01*
X2480Y49269D01*
X2494Y49409D01*
X2480Y49550D01*
X2439Y49686D01*
X2372Y49811D01*
X2282Y49920D01*
X2282Y49920D01*
X2362Y50000D01*
X31019Y50000D01*
D02*
G37*
G36*
X64331Y19291D02*
X64331Y18150D01*
X63819Y17638D01*
X48422Y17638D01*
X48402Y17641D01*
X48381Y17638D01*
X41102Y17638D01*
X40748Y17992D01*
Y19331D01*
X41142Y19724D01*
X63898Y19724D01*
X64331Y19291D01*
D02*
G37*
G36*
X3421Y34134D02*
Y32452D01*
X3417Y32449D01*
X3367Y32383D01*
X3335Y32307D01*
X3324Y32224D01*
X3335Y32142D01*
X3367Y32066D01*
X3417Y32000D01*
X3483Y31949D01*
X3560Y31918D01*
X3642Y31907D01*
X3724Y31918D01*
X3801Y31949D01*
X3866Y32000D01*
X3917Y32066D01*
X3949Y32142D01*
X3959Y32224D01*
X3949Y32307D01*
X3917Y32383D01*
X3866Y32449D01*
X3863Y32452D01*
Y34134D01*
X75106Y34134D01*
X75709Y33322D01*
X75709Y16320D01*
X74788Y15079D01*
X67226Y15079D01*
X67140Y15145D01*
X67038Y15187D01*
X66929Y15201D01*
X66820Y15187D01*
X66718Y15145D01*
X66632Y15079D01*
X63556D01*
X64140Y15663D01*
X64166Y15702D01*
X64176Y15748D01*
X64176Y15748D01*
X64176Y16055D01*
X64178Y16049D01*
X64245Y15962D01*
X64332Y15895D01*
X64434Y15852D01*
X64543Y15838D01*
X64652Y15852D01*
X64754Y15895D01*
X64842Y15962D01*
X64909Y16049D01*
X64951Y16151D01*
X64965Y16260D01*
X64951Y16369D01*
X64909Y16471D01*
X64842Y16558D01*
X64754Y16625D01*
X64652Y16667D01*
X64543Y16682D01*
X64434Y16667D01*
X64332Y16625D01*
X64245Y16558D01*
X64178Y16471D01*
X64176Y16465D01*
X64176Y16850D01*
X64176Y16850D01*
X64166Y16896D01*
X64140Y16936D01*
X64140Y16936D01*
X63558Y17517D01*
X63819D01*
D01*
X63819D01*
X63865Y17527D01*
X63881Y17537D01*
X63904Y17553D01*
X63904Y17553D01*
X64416Y18064D01*
X64416Y18064D01*
X64442Y18104D01*
X64451Y18150D01*
X64451Y18150D01*
X64451Y19291D01*
X64451Y19291D01*
X64442Y19337D01*
X64416Y19376D01*
X64416Y19376D01*
X63983Y19810D01*
X63944Y19836D01*
X63898Y19845D01*
X63898Y19845D01*
X50440Y19845D01*
X50484Y19851D01*
X50560Y19882D01*
X50626Y19933D01*
X50677Y19999D01*
X50708Y20075D01*
X50719Y20157D01*
X50708Y20240D01*
X50677Y20316D01*
X50626Y20382D01*
X50560Y20433D01*
X50484Y20464D01*
X50402Y20475D01*
X50319Y20464D01*
X50243Y20433D01*
X50177Y20382D01*
X50126Y20316D01*
X50095Y20240D01*
X50084Y20157D01*
X50095Y20075D01*
X50126Y19999D01*
X50177Y19933D01*
X50243Y19882D01*
X50319Y19851D01*
X50363Y19845D01*
X41142Y19845D01*
X41096Y19836D01*
X41080Y19825D01*
X41057Y19810D01*
X41057Y19810D01*
X40663Y19416D01*
X40637Y19377D01*
X40628Y19331D01*
X40628Y19331D01*
Y17992D01*
X40637Y17946D01*
X40663Y17907D01*
X40663Y17907D01*
X41008Y17561D01*
X35984D01*
X35938Y17552D01*
X35899Y17526D01*
X35663Y17290D01*
X35663Y17290D01*
X35647Y17266D01*
X35637Y17251D01*
X35628Y17205D01*
X35628Y17205D01*
X35628Y15354D01*
X35628Y15354D01*
X35637Y15308D01*
X35647Y15293D01*
X35663Y15269D01*
X35663Y15269D01*
X35853Y15079D01*
X2038Y15079D01*
X1181Y16234D01*
Y17486D01*
X1252Y17394D01*
X1346Y17321D01*
X1457Y17275D01*
X1575Y17260D01*
X1693Y17275D01*
X1803Y17321D01*
X1898Y17394D01*
X1970Y17488D01*
X2016Y17598D01*
X2031Y17717D01*
X2016Y17835D01*
X1970Y17945D01*
X1898Y18039D01*
X1803Y18112D01*
X1693Y18158D01*
X1575Y18173D01*
X1457Y18158D01*
X1346Y18112D01*
X1252Y18039D01*
X1181Y17947D01*
Y20439D01*
X1252Y20346D01*
X1346Y20274D01*
X1457Y20228D01*
X1575Y20213D01*
X1693Y20228D01*
X1803Y20274D01*
X1898Y20346D01*
X1970Y20441D01*
X2016Y20551D01*
X2031Y20669D01*
X2016Y20787D01*
X1970Y20898D01*
X1898Y20992D01*
X1803Y21065D01*
X1693Y21110D01*
X1575Y21126D01*
X1457Y21110D01*
X1346Y21065D01*
X1252Y20992D01*
X1181Y20900D01*
X1181Y32943D01*
X2065Y34134D01*
X3421D01*
D02*
G37*
G36*
X48110Y17441D02*
X48095Y17405D01*
X48084Y17323D01*
X48095Y17241D01*
X48126Y17164D01*
X48177Y17098D01*
X48243Y17048D01*
X48319Y17016D01*
X48402Y17005D01*
X48484Y17016D01*
X48560Y17048D01*
X48626Y17098D01*
X48677Y17164D01*
X48708Y17241D01*
X48719Y17323D01*
X48708Y17405D01*
X48694Y17441D01*
X63465Y17441D01*
X64055Y16850D01*
X64055Y15748D01*
X63465Y15157D01*
X35945Y15157D01*
X35748Y15354D01*
X35748Y17205D01*
X35984Y17441D01*
X48110Y17441D01*
D02*
G37*
G36*
X75591Y12525D02*
X75591Y3267D01*
X75022Y2491D01*
X75000Y2494D01*
X74859Y2480D01*
X74724Y2439D01*
X74599Y2372D01*
X74489Y2282D01*
X74400Y2173D01*
X74333Y2048D01*
X74292Y1912D01*
X74278Y1772D01*
X74292Y1631D01*
X74321Y1535D01*
X74062Y1181D01*
X2545Y1181D01*
X2387Y1398D01*
X2439Y1495D01*
X2480Y1631D01*
X2494Y1772D01*
X2480Y1912D01*
X2439Y2048D01*
X2372Y2173D01*
X2282Y2282D01*
X2173Y2372D01*
X2048Y2439D01*
X1912Y2480D01*
X1772Y2494D01*
X1631Y2480D01*
X1601Y2471D01*
X1181Y3043D01*
X1181Y7742D01*
X1252Y7650D01*
X1346Y7577D01*
X1457Y7531D01*
X1575Y7516D01*
X1693Y7531D01*
X1803Y7577D01*
X1898Y7650D01*
X1970Y7744D01*
X2016Y7854D01*
X2031Y7972D01*
X2016Y8091D01*
X1970Y8201D01*
X1898Y8295D01*
X1803Y8368D01*
X1693Y8414D01*
X1575Y8429D01*
X1457Y8414D01*
X1346Y8368D01*
X1252Y8295D01*
X1181Y8203D01*
Y10695D01*
X1252Y10602D01*
X1346Y10530D01*
X1457Y10484D01*
X1575Y10469D01*
X1693Y10484D01*
X1803Y10530D01*
X1898Y10602D01*
X1970Y10697D01*
X2016Y10807D01*
X2031Y10925D01*
X2016Y11043D01*
X1970Y11154D01*
X1898Y11248D01*
X1803Y11321D01*
X1693Y11366D01*
X1575Y11382D01*
X1457Y11366D01*
X1346Y11321D01*
X1252Y11248D01*
X1181Y11156D01*
X1181Y13324D01*
X2207Y14724D01*
X35089Y14724D01*
X35084Y14685D01*
X35095Y14603D01*
X35126Y14526D01*
X35177Y14460D01*
X35243Y14410D01*
X35319Y14378D01*
X35402Y14367D01*
X35484Y14378D01*
X35560Y14410D01*
X35626Y14460D01*
X35677Y14526D01*
X35708Y14603D01*
X35719Y14685D01*
X35714Y14724D01*
X66515Y14724D01*
X66522Y14670D01*
X66564Y14569D01*
X66631Y14481D01*
X66718Y14414D01*
X66820Y14372D01*
X66929Y14358D01*
X67038Y14372D01*
X67140Y14414D01*
X67227Y14481D01*
X67294Y14569D01*
X67336Y14670D01*
X67344Y14724D01*
X73979D01*
X75591Y12525D01*
D02*
G37*
%LPC*%
G36*
X14632Y49921D02*
X14516Y49910D01*
X14404Y49876D01*
X14301Y49821D01*
X14210Y49747D01*
X14136Y49656D01*
X14081Y49553D01*
X14047Y49441D01*
X14036Y49325D01*
X14047Y49209D01*
X14081Y49097D01*
X14136Y48994D01*
X14210Y48904D01*
X14301Y48830D01*
X14404Y48775D01*
X14516Y48741D01*
X14632Y48729D01*
X14748Y48741D01*
X14860Y48775D01*
X14963Y48830D01*
X15053Y48904D01*
X15127Y48994D01*
X15182Y49097D01*
X15216Y49209D01*
X15228Y49325D01*
X15216Y49441D01*
X15182Y49553D01*
X15127Y49656D01*
X15053Y49747D01*
X14963Y49821D01*
X14860Y49876D01*
X14748Y49910D01*
X14632Y49921D01*
D02*
G37*
G36*
X11762D02*
X11646Y49910D01*
X11534Y49876D01*
X11431Y49821D01*
X11340Y49747D01*
X11266Y49656D01*
X11211Y49553D01*
X11177Y49441D01*
X11166Y49325D01*
X11177Y49209D01*
X11211Y49097D01*
X11266Y48994D01*
X11340Y48904D01*
X11431Y48830D01*
X11534Y48775D01*
X11646Y48741D01*
X11762Y48729D01*
X11878Y48741D01*
X11990Y48775D01*
X12093Y48830D01*
X12183Y48904D01*
X12257Y48994D01*
X12312Y49097D01*
X12346Y49209D01*
X12358Y49325D01*
X12346Y49441D01*
X12312Y49553D01*
X12257Y49656D01*
X12183Y49747D01*
X12093Y49821D01*
X11990Y49876D01*
X11878Y49910D01*
X11762Y49921D01*
D02*
G37*
G36*
X7852Y49907D02*
X7736Y49896D01*
X7624Y49862D01*
X7521Y49807D01*
X7431Y49732D01*
X7357Y49642D01*
X7302Y49539D01*
X7268Y49427D01*
X7256Y49311D01*
X7268Y49195D01*
X7302Y49083D01*
X7357Y48980D01*
X7431Y48890D01*
X7521Y48815D01*
X7624Y48760D01*
X7736Y48727D01*
X7852Y48715D01*
X7969Y48727D01*
X8080Y48760D01*
X8183Y48815D01*
X8274Y48890D01*
X8348Y48980D01*
X8403Y49083D01*
X8437Y49195D01*
X8448Y49311D01*
X8437Y49427D01*
X8403Y49539D01*
X8348Y49642D01*
X8274Y49732D01*
X8183Y49807D01*
X8080Y49862D01*
X7969Y49896D01*
X7852Y49907D01*
D02*
G37*
G36*
X4982D02*
X4866Y49896D01*
X4754Y49862D01*
X4651Y49807D01*
X4561Y49732D01*
X4487Y49642D01*
X4432Y49539D01*
X4398Y49427D01*
X4386Y49311D01*
X4398Y49195D01*
X4432Y49083D01*
X4487Y48980D01*
X4561Y48890D01*
X4651Y48815D01*
X4754Y48760D01*
X4866Y48727D01*
X4982Y48715D01*
X5099Y48727D01*
X5210Y48760D01*
X5313Y48815D01*
X5404Y48890D01*
X5478Y48980D01*
X5533Y49083D01*
X5567Y49195D01*
X5578Y49311D01*
X5567Y49427D01*
X5533Y49539D01*
X5478Y49642D01*
X5404Y49732D01*
X5313Y49807D01*
X5210Y49862D01*
X5099Y49896D01*
X4982Y49907D01*
D02*
G37*
G36*
X23110Y49904D02*
X22994Y49893D01*
X22882Y49859D01*
X22779Y49804D01*
X22689Y49730D01*
X22615Y49639D01*
X22560Y49536D01*
X22526Y49425D01*
X22514Y49308D01*
X22526Y49192D01*
X22560Y49080D01*
X22615Y48977D01*
X22689Y48887D01*
X22779Y48813D01*
X22882Y48758D01*
X22994Y48724D01*
X23110Y48712D01*
X23227Y48724D01*
X23338Y48758D01*
X23441Y48813D01*
X23532Y48887D01*
X23606Y48977D01*
X23661Y49080D01*
X23695Y49192D01*
X23706Y49308D01*
X23695Y49425D01*
X23661Y49536D01*
X23606Y49639D01*
X23532Y49730D01*
X23441Y49804D01*
X23338Y49859D01*
X23227Y49893D01*
X23110Y49904D01*
D02*
G37*
G36*
X20240D02*
X20124Y49893D01*
X20012Y49859D01*
X19909Y49804D01*
X19819Y49730D01*
X19745Y49639D01*
X19690Y49536D01*
X19656Y49425D01*
X19644Y49308D01*
X19656Y49192D01*
X19690Y49080D01*
X19745Y48977D01*
X19819Y48887D01*
X19909Y48813D01*
X20012Y48758D01*
X20124Y48724D01*
X20240Y48712D01*
X20357Y48724D01*
X20468Y48758D01*
X20571Y48813D01*
X20662Y48887D01*
X20736Y48977D01*
X20791Y49080D01*
X20825Y49192D01*
X20836Y49308D01*
X20825Y49425D01*
X20791Y49536D01*
X20736Y49639D01*
X20662Y49730D01*
X20571Y49804D01*
X20468Y49859D01*
X20357Y49893D01*
X20240Y49904D01*
D02*
G37*
G36*
X66879Y49513D02*
X66738Y49499D01*
X66603Y49458D01*
X66478Y49392D01*
X66369Y49302D01*
X66279Y49192D01*
X66212Y49068D01*
X66171Y48932D01*
X66157Y48791D01*
X66171Y48650D01*
X66212Y48515D01*
X66279Y48390D01*
X66369Y48281D01*
X66478Y48191D01*
X66603Y48124D01*
X66738Y48083D01*
X66879Y48069D01*
X67020Y48083D01*
X67155Y48124D01*
X67280Y48191D01*
X67390Y48281D01*
X67479Y48390D01*
X67546Y48515D01*
X67587Y48650D01*
X67601Y48791D01*
X67587Y48932D01*
X67546Y49068D01*
X67479Y49192D01*
X67390Y49302D01*
X67280Y49392D01*
X67155Y49458D01*
X67020Y49499D01*
X66879Y49513D01*
D02*
G37*
G36*
X13026Y48044D02*
X12187D01*
Y47205D01*
X13026D01*
Y48044D01*
D02*
G37*
G36*
X13787Y48047D02*
X13678Y48033D01*
X13576Y47991D01*
X13488Y47923D01*
X13421Y47836D01*
X13379Y47734D01*
X13364Y47624D01*
X13379Y47515D01*
X13421Y47413D01*
X13488Y47325D01*
X13576Y47258D01*
X13678Y47216D01*
X13787Y47202D01*
X13897Y47216D01*
X13999Y47258D01*
X14086Y47325D01*
X14154Y47413D01*
X14196Y47515D01*
X14210Y47624D01*
X14196Y47734D01*
X14154Y47836D01*
X14086Y47923D01*
X13999Y47991D01*
X13897Y48033D01*
X13787Y48047D01*
D02*
G37*
G36*
X6246Y48030D02*
X5407D01*
Y47191D01*
X6246D01*
Y48030D01*
D02*
G37*
G36*
X21504Y48027D02*
X20665D01*
Y47188D01*
X21504D01*
Y48027D01*
D02*
G37*
G36*
X7008Y48033D02*
X6898Y48019D01*
X6796Y47976D01*
X6709Y47909D01*
X6642Y47822D01*
X6599Y47720D01*
X6585Y47610D01*
X6599Y47501D01*
X6642Y47399D01*
X6709Y47311D01*
X6796Y47244D01*
X6898Y47202D01*
X7008Y47187D01*
X7117Y47202D01*
X7219Y47244D01*
X7307Y47311D01*
X7374Y47399D01*
X7416Y47501D01*
X7431Y47610D01*
X7416Y47720D01*
X7374Y47822D01*
X7307Y47909D01*
X7219Y47976D01*
X7117Y48019D01*
X7008Y48033D01*
D02*
G37*
G36*
X22266Y48030D02*
X22156Y48016D01*
X22054Y47974D01*
X21967Y47907D01*
X21900Y47819D01*
X21857Y47717D01*
X21843Y47607D01*
X21857Y47498D01*
X21900Y47396D01*
X21967Y47308D01*
X22054Y47241D01*
X22156Y47199D01*
X22266Y47185D01*
X22375Y47199D01*
X22477Y47241D01*
X22565Y47308D01*
X22632Y47396D01*
X22674Y47498D01*
X22689Y47607D01*
X22674Y47717D01*
X22632Y47819D01*
X22565Y47907D01*
X22477Y47974D01*
X22375Y48016D01*
X22266Y48030D01*
D02*
G37*
G36*
X42924Y47536D02*
Y47134D01*
X43326D01*
X43317Y47203D01*
X43271Y47313D01*
X43198Y47408D01*
X43103Y47481D01*
X42993Y47527D01*
X42924Y47536D01*
D02*
G37*
G36*
X44893D02*
Y47134D01*
X45294D01*
X45285Y47203D01*
X45239Y47313D01*
X45167Y47408D01*
X45072Y47481D01*
X44961Y47527D01*
X44893Y47536D01*
D02*
G37*
G36*
X43908D02*
Y47134D01*
X44310D01*
X44301Y47203D01*
X44255Y47313D01*
X44182Y47408D01*
X44087Y47481D01*
X43977Y47527D01*
X43908Y47536D01*
D02*
G37*
G36*
X43808Y47536D02*
X43740Y47527D01*
X43629Y47481D01*
X43534Y47408D01*
X43461Y47313D01*
X43416Y47203D01*
X43407Y47134D01*
X43808D01*
Y47536D01*
D02*
G37*
G36*
X42824D02*
X42755Y47527D01*
X42645Y47481D01*
X42550Y47408D01*
X42477Y47313D01*
X42431Y47203D01*
X42422Y47134D01*
X42824D01*
Y47536D01*
D02*
G37*
G36*
X44793D02*
X44724Y47527D01*
X44613Y47481D01*
X44518Y47408D01*
X44446Y47313D01*
X44400Y47203D01*
X44391Y47134D01*
X44793D01*
Y47536D01*
D02*
G37*
G36*
X70464Y49006D02*
X70279Y48988D01*
X70101Y48934D01*
X69937Y48846D01*
X69794Y48729D01*
X69676Y48585D01*
X69588Y48421D01*
X69534Y48243D01*
X69516Y48058D01*
X69534Y47874D01*
X69588Y47696D01*
X69676Y47532D01*
X69794Y47388D01*
X69937Y47270D01*
X70101Y47183D01*
X70279Y47129D01*
X70464Y47111D01*
X70648Y47129D01*
X70826Y47183D01*
X70990Y47270D01*
X71134Y47388D01*
X71252Y47532D01*
X71339Y47696D01*
X71393Y47874D01*
X71411Y48058D01*
X71393Y48243D01*
X71339Y48421D01*
X71252Y48585D01*
X71134Y48729D01*
X70990Y48846D01*
X70826Y48934D01*
X70648Y48988D01*
X70464Y49006D01*
D02*
G37*
G36*
X37412Y47507D02*
Y47105D01*
X37814D01*
X37805Y47174D01*
X37759Y47284D01*
X37686Y47379D01*
X37591Y47452D01*
X37481Y47498D01*
X37412Y47507D01*
D02*
G37*
G36*
X37312Y47507D02*
X37244Y47498D01*
X37133Y47452D01*
X37038Y47379D01*
X36965Y47284D01*
X36920Y47174D01*
X36911Y47105D01*
X37312D01*
Y47507D01*
D02*
G37*
G36*
X44793Y47034D02*
X44391D01*
X44400Y46965D01*
X44446Y46855D01*
X44518Y46760D01*
X44613Y46687D01*
X44724Y46641D01*
X44793Y46632D01*
Y47034D01*
D02*
G37*
G36*
X43808D02*
X43407D01*
X43416Y46965D01*
X43461Y46855D01*
X43534Y46760D01*
X43629Y46687D01*
X43740Y46641D01*
X43808Y46632D01*
Y47034D01*
D02*
G37*
G36*
X42824D02*
X42422D01*
X42431Y46965D01*
X42477Y46855D01*
X42550Y46760D01*
X42645Y46687D01*
X42755Y46641D01*
X42824Y46632D01*
Y47034D01*
D02*
G37*
G36*
X45294D02*
X44893D01*
Y46632D01*
X44961Y46641D01*
X45072Y46687D01*
X45167Y46760D01*
X45239Y46855D01*
X45285Y46965D01*
X45294Y47034D01*
D02*
G37*
G36*
X44310D02*
X43908D01*
Y46632D01*
X43977Y46641D01*
X44087Y46687D01*
X44182Y46760D01*
X44255Y46855D01*
X44301Y46965D01*
X44310Y47034D01*
D02*
G37*
G36*
X43326D02*
X42924D01*
Y46632D01*
X42993Y46641D01*
X43103Y46687D01*
X43198Y46760D01*
X43271Y46855D01*
X43317Y46965D01*
X43326Y47034D01*
D02*
G37*
G36*
X37814Y47005D02*
X37412D01*
Y46603D01*
X37481Y46612D01*
X37591Y46658D01*
X37686Y46731D01*
X37759Y46826D01*
X37805Y46937D01*
X37814Y47005D01*
D02*
G37*
G36*
X37312D02*
X36911D01*
X36920Y46937D01*
X36965Y46826D01*
X37038Y46731D01*
X37133Y46658D01*
X37244Y46612D01*
X37312Y46603D01*
Y47005D01*
D02*
G37*
G36*
X36361Y47532D02*
X36238Y47515D01*
X36123Y47468D01*
X36024Y47392D01*
X35949Y47293D01*
X35901Y47178D01*
X35885Y47055D01*
X35901Y46932D01*
X35949Y46817D01*
X36024Y46718D01*
X36123Y46642D01*
X36238Y46595D01*
X36361Y46579D01*
X36485Y46595D01*
X36600Y46642D01*
X36698Y46718D01*
X36774Y46817D01*
X36822Y46932D01*
X36838Y47055D01*
X36822Y47178D01*
X36774Y47293D01*
X36698Y47392D01*
X36600Y47468D01*
X36485Y47515D01*
X36361Y47532D01*
D02*
G37*
G36*
X35397D02*
X35274Y47515D01*
X35159Y47468D01*
X35060Y47392D01*
X34984Y47293D01*
X34937Y47178D01*
X34920Y47055D01*
X34937Y46932D01*
X34984Y46817D01*
X35060Y46718D01*
X35159Y46642D01*
X35274Y46595D01*
X35397Y46579D01*
X35520Y46595D01*
X35635Y46642D01*
X35734Y46718D01*
X35810Y46817D01*
X35857Y46932D01*
X35873Y47055D01*
X35857Y47178D01*
X35810Y47293D01*
X35734Y47392D01*
X35635Y47468D01*
X35520Y47515D01*
X35397Y47532D01*
D02*
G37*
G36*
X34432D02*
X34309Y47515D01*
X34194Y47468D01*
X34095Y47392D01*
X34020Y47293D01*
X33972Y47178D01*
X33956Y47055D01*
X33972Y46932D01*
X34020Y46817D01*
X34095Y46718D01*
X34194Y46642D01*
X34309Y46595D01*
X34432Y46579D01*
X34556Y46595D01*
X34671Y46642D01*
X34769Y46718D01*
X34845Y46817D01*
X34893Y46932D01*
X34909Y47055D01*
X34893Y47178D01*
X34845Y47293D01*
X34769Y47392D01*
X34671Y47468D01*
X34556Y47515D01*
X34432Y47532D01*
D02*
G37*
G36*
X33448D02*
X33325Y47515D01*
X33210Y47468D01*
X33111Y47392D01*
X33035Y47293D01*
X32988Y47178D01*
X32972Y47055D01*
X32988Y46932D01*
X33035Y46817D01*
X33111Y46718D01*
X33210Y46642D01*
X33325Y46595D01*
X33448Y46579D01*
X33571Y46595D01*
X33686Y46642D01*
X33785Y46718D01*
X33861Y46817D01*
X33908Y46932D01*
X33925Y47055D01*
X33908Y47178D01*
X33861Y47293D01*
X33785Y47392D01*
X33686Y47468D01*
X33571Y47515D01*
X33448Y47532D01*
D02*
G37*
G36*
X32464D02*
X32340Y47515D01*
X32226Y47468D01*
X32127Y47392D01*
X32051Y47293D01*
X32004Y47178D01*
X31987Y47055D01*
X32004Y46932D01*
X32051Y46817D01*
X32127Y46718D01*
X32226Y46642D01*
X32340Y46595D01*
X32464Y46579D01*
X32587Y46595D01*
X32702Y46642D01*
X32801Y46718D01*
X32876Y46817D01*
X32924Y46932D01*
X32940Y47055D01*
X32924Y47178D01*
X32876Y47293D01*
X32801Y47392D01*
X32702Y47468D01*
X32587Y47515D01*
X32464Y47532D01*
D02*
G37*
G36*
X31480D02*
X31356Y47515D01*
X31241Y47468D01*
X31143Y47392D01*
X31067Y47293D01*
X31019Y47178D01*
X31003Y47055D01*
X31019Y46932D01*
X31067Y46817D01*
X31143Y46718D01*
X31241Y46642D01*
X31356Y46595D01*
X31480Y46579D01*
X31603Y46595D01*
X31718Y46642D01*
X31816Y46718D01*
X31892Y46817D01*
X31940Y46932D01*
X31956Y47055D01*
X31940Y47178D01*
X31892Y47293D01*
X31816Y47392D01*
X31718Y47468D01*
X31603Y47515D01*
X31480Y47532D01*
D02*
G37*
G36*
X58318Y46200D02*
Y45853D01*
X58665D01*
X58657Y45908D01*
X58617Y46005D01*
X58553Y46088D01*
X58469Y46153D01*
X58372Y46193D01*
X58318Y46200D01*
D02*
G37*
G36*
X58218Y46200D02*
X58163Y46193D01*
X58066Y46153D01*
X57982Y46088D01*
X57918Y46005D01*
X57878Y45908D01*
X57871Y45853D01*
X58218D01*
Y46200D01*
D02*
G37*
G36*
X43346Y46572D02*
X42402D01*
Y45627D01*
X43346D01*
Y46572D01*
D02*
G37*
G36*
X44843Y46576D02*
X44719Y46560D01*
X44604Y46512D01*
X44506Y46437D01*
X44430Y46338D01*
X44382Y46223D01*
X44366Y46100D01*
X44382Y45976D01*
X44430Y45861D01*
X44506Y45763D01*
X44604Y45687D01*
X44719Y45639D01*
X44843Y45623D01*
X44966Y45639D01*
X45081Y45687D01*
X45179Y45763D01*
X45255Y45861D01*
X45303Y45976D01*
X45319Y46100D01*
X45303Y46223D01*
X45255Y46338D01*
X45179Y46437D01*
X45081Y46512D01*
X44966Y46560D01*
X44843Y46576D01*
D02*
G37*
G36*
X43858D02*
X43735Y46560D01*
X43620Y46512D01*
X43521Y46437D01*
X43446Y46338D01*
X43398Y46223D01*
X43382Y46100D01*
X43398Y45976D01*
X43446Y45861D01*
X43521Y45763D01*
X43620Y45687D01*
X43735Y45639D01*
X43858Y45623D01*
X43982Y45639D01*
X44097Y45687D01*
X44195Y45763D01*
X44271Y45861D01*
X44319Y45976D01*
X44335Y46100D01*
X44319Y46223D01*
X44271Y46338D01*
X44195Y46437D01*
X44097Y46512D01*
X43982Y46560D01*
X43858Y46576D01*
D02*
G37*
G36*
X31932Y46543D02*
X30987D01*
Y45598D01*
X31932D01*
Y46543D01*
D02*
G37*
G36*
X37362Y46547D02*
X37239Y46531D01*
X37124Y46484D01*
X37025Y46408D01*
X36950Y46309D01*
X36902Y46194D01*
X36886Y46071D01*
X36902Y45948D01*
X36950Y45833D01*
X37025Y45734D01*
X37124Y45658D01*
X37239Y45611D01*
X37362Y45594D01*
X37486Y45611D01*
X37600Y45658D01*
X37699Y45734D01*
X37775Y45833D01*
X37822Y45948D01*
X37839Y46071D01*
X37822Y46194D01*
X37775Y46309D01*
X37699Y46408D01*
X37600Y46484D01*
X37486Y46531D01*
X37362Y46547D01*
D02*
G37*
G36*
X36361D02*
X36238Y46531D01*
X36123Y46484D01*
X36024Y46408D01*
X35949Y46309D01*
X35901Y46194D01*
X35885Y46071D01*
X35901Y45948D01*
X35949Y45833D01*
X36024Y45734D01*
X36123Y45658D01*
X36238Y45611D01*
X36361Y45594D01*
X36485Y45611D01*
X36600Y45658D01*
X36698Y45734D01*
X36774Y45833D01*
X36822Y45948D01*
X36838Y46071D01*
X36822Y46194D01*
X36774Y46309D01*
X36698Y46408D01*
X36600Y46484D01*
X36485Y46531D01*
X36361Y46547D01*
D02*
G37*
G36*
X35397D02*
X35274Y46531D01*
X35159Y46484D01*
X35060Y46408D01*
X34984Y46309D01*
X34937Y46194D01*
X34920Y46071D01*
X34937Y45948D01*
X34984Y45833D01*
X35060Y45734D01*
X35159Y45658D01*
X35274Y45611D01*
X35397Y45594D01*
X35520Y45611D01*
X35635Y45658D01*
X35734Y45734D01*
X35810Y45833D01*
X35857Y45948D01*
X35873Y46071D01*
X35857Y46194D01*
X35810Y46309D01*
X35734Y46408D01*
X35635Y46484D01*
X35520Y46531D01*
X35397Y46547D01*
D02*
G37*
G36*
X34413D02*
X34289Y46531D01*
X34174Y46484D01*
X34076Y46408D01*
X34000Y46309D01*
X33952Y46194D01*
X33936Y46071D01*
X33952Y45948D01*
X34000Y45833D01*
X34076Y45734D01*
X34174Y45658D01*
X34289Y45611D01*
X34413Y45594D01*
X34536Y45611D01*
X34651Y45658D01*
X34750Y45734D01*
X34825Y45833D01*
X34873Y45948D01*
X34889Y46071D01*
X34873Y46194D01*
X34825Y46309D01*
X34750Y46408D01*
X34651Y46484D01*
X34536Y46531D01*
X34413Y46547D01*
D02*
G37*
G36*
X33428D02*
X33305Y46531D01*
X33190Y46484D01*
X33091Y46408D01*
X33016Y46309D01*
X32968Y46194D01*
X32952Y46071D01*
X32968Y45948D01*
X33016Y45833D01*
X33091Y45734D01*
X33190Y45658D01*
X33305Y45611D01*
X33428Y45594D01*
X33552Y45611D01*
X33667Y45658D01*
X33765Y45734D01*
X33841Y45833D01*
X33889Y45948D01*
X33905Y46071D01*
X33889Y46194D01*
X33841Y46309D01*
X33765Y46408D01*
X33667Y46484D01*
X33552Y46531D01*
X33428Y46547D01*
D02*
G37*
G36*
X32444D02*
X32321Y46531D01*
X32206Y46484D01*
X32107Y46408D01*
X32031Y46309D01*
X31984Y46194D01*
X31968Y46071D01*
X31984Y45948D01*
X32031Y45833D01*
X32107Y45734D01*
X32206Y45658D01*
X32321Y45611D01*
X32444Y45594D01*
X32567Y45611D01*
X32682Y45658D01*
X32781Y45734D01*
X32857Y45833D01*
X32904Y45948D01*
X32921Y46071D01*
X32904Y46194D01*
X32857Y46309D01*
X32781Y46408D01*
X32682Y46484D01*
X32567Y46531D01*
X32444Y46547D01*
D02*
G37*
G36*
X58665Y45753D02*
X58318D01*
Y45406D01*
X58372Y45413D01*
X58469Y45454D01*
X58553Y45518D01*
X58617Y45601D01*
X58657Y45699D01*
X58665Y45753D01*
D02*
G37*
G36*
X58218D02*
X57871D01*
X57878Y45699D01*
X57918Y45601D01*
X57982Y45518D01*
X58066Y45454D01*
X58163Y45413D01*
X58218Y45406D01*
Y45753D01*
D02*
G37*
G36*
X69904Y45728D02*
X69793Y45713D01*
X69689Y45670D01*
X69600Y45602D01*
X69532Y45513D01*
X69489Y45410D01*
X69474Y45298D01*
X69489Y45187D01*
X69532Y45084D01*
X69600Y44995D01*
X69689Y44927D01*
X69793Y44884D01*
X69904Y44869D01*
X70015Y44884D01*
X70118Y44927D01*
X70207Y44995D01*
X70275Y45084D01*
X70318Y45187D01*
X70333Y45298D01*
X70318Y45410D01*
X70275Y45513D01*
X70207Y45602D01*
X70118Y45670D01*
X70015Y45713D01*
X69904Y45728D01*
D02*
G37*
G36*
X58268Y45225D02*
X58159Y45210D01*
X58057Y45168D01*
X57970Y45101D01*
X57902Y45014D01*
X57860Y44912D01*
X57846Y44803D01*
X57860Y44694D01*
X57902Y44592D01*
X57970Y44505D01*
X58057Y44438D01*
X58159Y44396D01*
X58268Y44381D01*
X58377Y44396D01*
X58479Y44438D01*
X58566Y44505D01*
X58633Y44592D01*
X58675Y44694D01*
X58689Y44803D01*
X58675Y44912D01*
X58633Y45014D01*
X58566Y45101D01*
X58479Y45168D01*
X58377Y45210D01*
X58268Y45225D01*
D02*
G37*
G36*
X71024Y45188D02*
X70913Y45173D01*
X70809Y45130D01*
X70720Y45062D01*
X70652Y44973D01*
X70609Y44870D01*
X70594Y44758D01*
X70609Y44647D01*
X70652Y44544D01*
X70720Y44455D01*
X70809Y44387D01*
X70913Y44344D01*
X71024Y44329D01*
X71135Y44344D01*
X71238Y44387D01*
X71327Y44455D01*
X71395Y44544D01*
X71438Y44647D01*
X71453Y44758D01*
X71438Y44870D01*
X71395Y44973D01*
X71327Y45062D01*
X71238Y45130D01*
X71135Y45173D01*
X71024Y45188D01*
D02*
G37*
G36*
X69904Y44648D02*
X69793Y44633D01*
X69689Y44590D01*
X69600Y44522D01*
X69532Y44433D01*
X69489Y44330D01*
X69474Y44218D01*
X69489Y44107D01*
X69532Y44004D01*
X69600Y43915D01*
X69689Y43847D01*
X69793Y43804D01*
X69904Y43789D01*
X70015Y43804D01*
X70118Y43847D01*
X70207Y43915D01*
X70275Y44004D01*
X70318Y44107D01*
X70333Y44218D01*
X70318Y44330D01*
X70275Y44433D01*
X70207Y44522D01*
X70118Y44590D01*
X70015Y44633D01*
X69904Y44648D01*
D02*
G37*
G36*
X55984Y44294D02*
X55902Y44283D01*
X55825Y44251D01*
X55760Y44201D01*
X55709Y44135D01*
X55677Y44059D01*
X55667Y43976D01*
X55677Y43894D01*
X55709Y43818D01*
X55760Y43752D01*
X55825Y43701D01*
X55902Y43670D01*
X55984Y43659D01*
X56066Y43670D01*
X56143Y43701D01*
X56209Y43752D01*
X56259Y43818D01*
X56291Y43894D01*
X56302Y43976D01*
X56291Y44059D01*
X56259Y44135D01*
X56209Y44201D01*
X56143Y44251D01*
X56066Y44283D01*
X55984Y44294D01*
D02*
G37*
G36*
X54508D02*
X54426Y44283D01*
X54349Y44251D01*
X54283Y44201D01*
X54233Y44135D01*
X54201Y44059D01*
X54190Y43976D01*
X54201Y43894D01*
X54233Y43818D01*
X54283Y43752D01*
X54349Y43701D01*
X54426Y43670D01*
X54508Y43659D01*
X54590Y43670D01*
X54667Y43701D01*
X54733Y43752D01*
X54783Y43818D01*
X54815Y43894D01*
X54826Y43976D01*
X54815Y44059D01*
X54783Y44135D01*
X54733Y44201D01*
X54667Y44251D01*
X54590Y44283D01*
X54508Y44294D01*
D02*
G37*
G36*
X11220Y44291D02*
X11138Y44280D01*
X11062Y44249D01*
X10996Y44198D01*
X10945Y44132D01*
X10914Y44056D01*
X10903Y43974D01*
X10914Y43891D01*
X10945Y43815D01*
X10996Y43749D01*
X11062Y43699D01*
X11138Y43667D01*
X11220Y43656D01*
X11303Y43667D01*
X11379Y43699D01*
X11445Y43749D01*
X11496Y43815D01*
X11527Y43891D01*
X11538Y43974D01*
X11527Y44056D01*
X11496Y44132D01*
X11445Y44198D01*
X11379Y44249D01*
X11303Y44280D01*
X11220Y44291D01*
D02*
G37*
G36*
X19724Y44272D02*
X19642Y44261D01*
X19566Y44229D01*
X19500Y44179D01*
X19449Y44113D01*
X19418Y44036D01*
X19407Y43954D01*
X19418Y43872D01*
X19449Y43795D01*
X19500Y43730D01*
X19566Y43679D01*
X19642Y43647D01*
X19724Y43637D01*
X19807Y43647D01*
X19883Y43679D01*
X19949Y43730D01*
X20000Y43795D01*
X20031Y43872D01*
X20042Y43954D01*
X20031Y44036D01*
X20000Y44113D01*
X19949Y44179D01*
X19883Y44229D01*
X19807Y44261D01*
X19724Y44272D01*
D02*
G37*
G36*
X71024Y44108D02*
X70913Y44093D01*
X70809Y44050D01*
X70720Y43982D01*
X70652Y43893D01*
X70609Y43790D01*
X70594Y43678D01*
X70609Y43567D01*
X70652Y43464D01*
X70720Y43375D01*
X70809Y43307D01*
X70913Y43264D01*
X71024Y43249D01*
X71135Y43264D01*
X71238Y43307D01*
X71327Y43375D01*
X71395Y43464D01*
X71438Y43567D01*
X71453Y43678D01*
X71438Y43790D01*
X71395Y43893D01*
X71327Y43982D01*
X71238Y44050D01*
X71135Y44093D01*
X71024Y44108D01*
D02*
G37*
G36*
X69904Y43568D02*
X69793Y43553D01*
X69689Y43510D01*
X69600Y43442D01*
X69532Y43353D01*
X69489Y43250D01*
X69474Y43138D01*
X69489Y43027D01*
X69532Y42924D01*
X69600Y42835D01*
X69689Y42767D01*
X69793Y42724D01*
X69904Y42709D01*
X70015Y42724D01*
X70118Y42767D01*
X70207Y42835D01*
X70275Y42924D01*
X70318Y43027D01*
X70333Y43138D01*
X70318Y43250D01*
X70275Y43353D01*
X70207Y43442D01*
X70118Y43510D01*
X70015Y43553D01*
X69904Y43568D01*
D02*
G37*
G36*
X56769Y42896D02*
X56687Y42886D01*
X56610Y42854D01*
X56545Y42803D01*
X56494Y42738D01*
X56462Y42661D01*
X56452Y42579D01*
X56462Y42497D01*
X56494Y42420D01*
X56545Y42354D01*
X56610Y42304D01*
X56687Y42272D01*
X56769Y42261D01*
X56852Y42272D01*
X56928Y42304D01*
X56994Y42354D01*
X57044Y42420D01*
X57076Y42497D01*
X57087Y42579D01*
X57076Y42661D01*
X57044Y42738D01*
X56994Y42803D01*
X56928Y42854D01*
X56852Y42886D01*
X56769Y42896D01*
D02*
G37*
G36*
X14803Y42894D02*
X14721Y42883D01*
X14644Y42851D01*
X14579Y42801D01*
X14528Y42735D01*
X14496Y42658D01*
X14485Y42576D01*
X14496Y42494D01*
X14528Y42417D01*
X14579Y42351D01*
X14644Y42301D01*
X14721Y42269D01*
X14803Y42258D01*
X14885Y42269D01*
X14962Y42301D01*
X15028Y42351D01*
X15078Y42417D01*
X15110Y42494D01*
X15121Y42576D01*
X15110Y42658D01*
X15078Y42735D01*
X15028Y42801D01*
X14962Y42851D01*
X14885Y42883D01*
X14803Y42894D01*
D02*
G37*
G36*
X23307Y42874D02*
X23225Y42863D01*
X23148Y42832D01*
X23082Y42781D01*
X23032Y42715D01*
X23000Y42639D01*
X22989Y42557D01*
X23000Y42474D01*
X23032Y42398D01*
X23082Y42332D01*
X23148Y42281D01*
X23225Y42250D01*
X23307Y42239D01*
X23389Y42250D01*
X23466Y42281D01*
X23532Y42332D01*
X23582Y42398D01*
X23614Y42474D01*
X23625Y42557D01*
X23614Y42639D01*
X23582Y42715D01*
X23532Y42781D01*
X23466Y42832D01*
X23389Y42863D01*
X23307Y42874D01*
D02*
G37*
G36*
X71024Y43028D02*
X70913Y43013D01*
X70809Y42970D01*
X70720Y42902D01*
X70652Y42813D01*
X70609Y42710D01*
X70594Y42598D01*
X70609Y42487D01*
X70652Y42384D01*
X70720Y42295D01*
X70809Y42227D01*
X70913Y42184D01*
X71024Y42169D01*
X71135Y42184D01*
X71238Y42227D01*
X71327Y42295D01*
X71395Y42384D01*
X71438Y42487D01*
X71453Y42598D01*
X71438Y42710D01*
X71395Y42813D01*
X71327Y42902D01*
X71238Y42970D01*
X71135Y43013D01*
X71024Y43028D01*
D02*
G37*
G36*
X69904Y42488D02*
X69793Y42473D01*
X69689Y42430D01*
X69600Y42362D01*
X69532Y42273D01*
X69489Y42170D01*
X69474Y42058D01*
X69489Y41947D01*
X69532Y41844D01*
X69600Y41755D01*
X69689Y41687D01*
X69793Y41644D01*
X69904Y41629D01*
X70015Y41644D01*
X70118Y41687D01*
X70207Y41755D01*
X70275Y41844D01*
X70318Y41947D01*
X70333Y42058D01*
X70318Y42170D01*
X70275Y42273D01*
X70207Y42362D01*
X70118Y42430D01*
X70015Y42473D01*
X69904Y42488D01*
D02*
G37*
G36*
X28110Y42148D02*
X28028Y42138D01*
X27951Y42106D01*
X27886Y42055D01*
X27835Y41990D01*
X27803Y41913D01*
X27793Y41831D01*
X27803Y41748D01*
X27835Y41672D01*
X27886Y41606D01*
X27951Y41556D01*
X28028Y41524D01*
X28110Y41513D01*
X28192Y41524D01*
X28269Y41556D01*
X28335Y41606D01*
X28385Y41672D01*
X28417Y41748D01*
X28428Y41831D01*
X28417Y41913D01*
X28385Y41990D01*
X28335Y42055D01*
X28269Y42106D01*
X28192Y42138D01*
X28110Y42148D01*
D02*
G37*
G36*
X45433Y42129D02*
X45351Y42118D01*
X45274Y42086D01*
X45208Y42036D01*
X45158Y41970D01*
X45126Y41893D01*
X45115Y41811D01*
X45126Y41729D01*
X45158Y41652D01*
X45208Y41586D01*
X45274Y41536D01*
X45351Y41504D01*
X45433Y41493D01*
X45515Y41504D01*
X45592Y41536D01*
X45658Y41586D01*
X45708Y41652D01*
X45740Y41729D01*
X45751Y41811D01*
X45740Y41893D01*
X45708Y41970D01*
X45658Y42036D01*
X45592Y42086D01*
X45515Y42118D01*
X45433Y42129D01*
D02*
G37*
G36*
X43484D02*
X43402Y42118D01*
X43325Y42086D01*
X43260Y42036D01*
X43209Y41970D01*
X43177Y41893D01*
X43167Y41811D01*
X43177Y41729D01*
X43209Y41652D01*
X43260Y41586D01*
X43325Y41536D01*
X43402Y41504D01*
X43484Y41493D01*
X43566Y41504D01*
X43643Y41536D01*
X43709Y41586D01*
X43759Y41652D01*
X43791Y41729D01*
X43802Y41811D01*
X43791Y41893D01*
X43759Y41970D01*
X43709Y42036D01*
X43643Y42086D01*
X43566Y42118D01*
X43484Y42129D01*
D02*
G37*
G36*
X41535D02*
X41453Y42118D01*
X41377Y42086D01*
X41311Y42036D01*
X41260Y41970D01*
X41229Y41893D01*
X41218Y41811D01*
X41229Y41729D01*
X41260Y41652D01*
X41311Y41586D01*
X41377Y41536D01*
X41453Y41504D01*
X41535Y41493D01*
X41618Y41504D01*
X41694Y41536D01*
X41760Y41586D01*
X41811Y41652D01*
X41842Y41729D01*
X41853Y41811D01*
X41842Y41893D01*
X41811Y41970D01*
X41760Y42036D01*
X41694Y42086D01*
X41618Y42118D01*
X41535Y42129D01*
D02*
G37*
G36*
X71024Y41948D02*
X70913Y41933D01*
X70809Y41890D01*
X70720Y41822D01*
X70652Y41733D01*
X70609Y41630D01*
X70594Y41518D01*
X70609Y41407D01*
X70652Y41304D01*
X70720Y41215D01*
X70809Y41147D01*
X70913Y41104D01*
X71024Y41089D01*
X71135Y41104D01*
X71238Y41147D01*
X71327Y41215D01*
X71395Y41304D01*
X71438Y41407D01*
X71453Y41518D01*
X71438Y41630D01*
X71395Y41733D01*
X71327Y41822D01*
X71238Y41890D01*
X71135Y41933D01*
X71024Y41948D01*
D02*
G37*
G36*
X35886Y41696D02*
X35804Y41685D01*
X35727Y41653D01*
X35661Y41603D01*
X35611Y41537D01*
X35579Y41460D01*
X35568Y41378D01*
X35579Y41296D01*
X35611Y41219D01*
X35661Y41153D01*
X35727Y41103D01*
X35804Y41071D01*
X35886Y41060D01*
X35968Y41071D01*
X36045Y41103D01*
X36110Y41153D01*
X36161Y41219D01*
X36193Y41296D01*
X36204Y41378D01*
X36193Y41460D01*
X36161Y41537D01*
X36110Y41603D01*
X36045Y41653D01*
X35968Y41685D01*
X35886Y41696D01*
D02*
G37*
G36*
X27638Y41538D02*
X27556Y41527D01*
X27479Y41496D01*
X27413Y41445D01*
X27363Y41379D01*
X27331Y41303D01*
X27320Y41220D01*
X27331Y41138D01*
X27363Y41062D01*
X27413Y40996D01*
X27479Y40945D01*
X27556Y40914D01*
X27638Y40903D01*
X27720Y40914D01*
X27797Y40945D01*
X27862Y40996D01*
X27913Y41062D01*
X27945Y41138D01*
X27955Y41220D01*
X27945Y41303D01*
X27913Y41379D01*
X27862Y41445D01*
X27797Y41496D01*
X27720Y41527D01*
X27638Y41538D01*
D02*
G37*
G36*
X28419Y41213D02*
X28337Y41203D01*
X28260Y41171D01*
X28195Y41120D01*
X28144Y41055D01*
X28112Y40978D01*
X28102Y40896D01*
X28112Y40813D01*
X28144Y40737D01*
X28195Y40671D01*
X28260Y40621D01*
X28337Y40589D01*
X28419Y40578D01*
X28502Y40589D01*
X28578Y40621D01*
X28644Y40671D01*
X28694Y40737D01*
X28726Y40813D01*
X28737Y40896D01*
X28726Y40978D01*
X28694Y41055D01*
X28644Y41120D01*
X28578Y41171D01*
X28502Y41203D01*
X28419Y41213D01*
D02*
G37*
G36*
X70329Y41404D02*
X69478D01*
Y40553D01*
X70329D01*
Y41404D01*
D02*
G37*
G36*
X50197Y41066D02*
X50115Y41055D01*
X50038Y41023D01*
X49972Y40973D01*
X49922Y40907D01*
X49890Y40830D01*
X49879Y40748D01*
X49890Y40666D01*
X49922Y40589D01*
X49972Y40523D01*
X50038Y40473D01*
X50115Y40441D01*
X50197Y40430D01*
X50279Y40441D01*
X50356Y40473D01*
X50421Y40523D01*
X50472Y40589D01*
X50504Y40666D01*
X50515Y40748D01*
X50504Y40830D01*
X50472Y40907D01*
X50421Y40973D01*
X50356Y41023D01*
X50279Y41055D01*
X50197Y41066D01*
D02*
G37*
G36*
X12092Y40886D02*
X12010Y40875D01*
X11934Y40843D01*
X11868Y40793D01*
X11817Y40727D01*
X11786Y40650D01*
X11775Y40568D01*
X11786Y40486D01*
X11817Y40409D01*
X11868Y40343D01*
X11934Y40293D01*
X12010Y40261D01*
X12092Y40250D01*
X12175Y40261D01*
X12251Y40293D01*
X12317Y40343D01*
X12368Y40409D01*
X12399Y40486D01*
X12410Y40568D01*
X12399Y40650D01*
X12368Y40727D01*
X12317Y40793D01*
X12251Y40843D01*
X12175Y40875D01*
X12092Y40886D01*
D02*
G37*
G36*
X20571Y40869D02*
X20489Y40858D01*
X20412Y40826D01*
X20346Y40776D01*
X20296Y40710D01*
X20264Y40633D01*
X20253Y40551D01*
X20264Y40469D01*
X20296Y40392D01*
X20346Y40327D01*
X20412Y40276D01*
X20489Y40244D01*
X20571Y40233D01*
X20653Y40244D01*
X20730Y40276D01*
X20796Y40327D01*
X20846Y40392D01*
X20878Y40469D01*
X20889Y40551D01*
X20878Y40633D01*
X20846Y40710D01*
X20796Y40776D01*
X20730Y40826D01*
X20653Y40858D01*
X20571Y40869D01*
D02*
G37*
G36*
X2854Y40810D02*
X2772Y40799D01*
X2695Y40767D01*
X2630Y40717D01*
X2579Y40651D01*
X2547Y40574D01*
X2537Y40492D01*
X2547Y40410D01*
X2579Y40333D01*
X2630Y40267D01*
X2695Y40217D01*
X2772Y40185D01*
X2854Y40174D01*
X2937Y40185D01*
X3013Y40217D01*
X3079Y40267D01*
X3129Y40333D01*
X3161Y40410D01*
X3172Y40492D01*
X3161Y40574D01*
X3129Y40651D01*
X3079Y40717D01*
X3013Y40767D01*
X2937Y40799D01*
X2854Y40810D01*
D02*
G37*
G36*
X35886Y40554D02*
X35804Y40543D01*
X35727Y40511D01*
X35661Y40461D01*
X35611Y40395D01*
X35579Y40318D01*
X35568Y40236D01*
X35579Y40154D01*
X35611Y40077D01*
X35661Y40012D01*
X35727Y39961D01*
X35804Y39929D01*
X35886Y39919D01*
X35968Y39929D01*
X36045Y39961D01*
X36110Y40012D01*
X36161Y40077D01*
X36193Y40154D01*
X36204Y40236D01*
X36193Y40318D01*
X36161Y40395D01*
X36110Y40461D01*
X36045Y40511D01*
X35968Y40543D01*
X35886Y40554D01*
D02*
G37*
G36*
X6457Y39432D02*
X6374Y39421D01*
X6298Y39389D01*
X6232Y39339D01*
X6182Y39273D01*
X6150Y39196D01*
X6139Y39114D01*
X6150Y39032D01*
X6182Y38955D01*
X6232Y38890D01*
X6298Y38839D01*
X6374Y38807D01*
X6457Y38796D01*
X6539Y38807D01*
X6616Y38839D01*
X6681Y38890D01*
X6732Y38955D01*
X6764Y39032D01*
X6774Y39114D01*
X6764Y39196D01*
X6732Y39273D01*
X6681Y39339D01*
X6616Y39389D01*
X6539Y39421D01*
X6457Y39432D01*
D02*
G37*
G36*
X35886Y39373D02*
X35804Y39362D01*
X35727Y39330D01*
X35661Y39280D01*
X35611Y39214D01*
X35579Y39137D01*
X35568Y39055D01*
X35579Y38973D01*
X35611Y38896D01*
X35661Y38830D01*
X35727Y38780D01*
X35804Y38748D01*
X35886Y38737D01*
X35968Y38748D01*
X36045Y38780D01*
X36110Y38830D01*
X36161Y38896D01*
X36193Y38973D01*
X36204Y39055D01*
X36193Y39137D01*
X36161Y39214D01*
X36110Y39280D01*
X36045Y39330D01*
X35968Y39362D01*
X35886Y39373D01*
D02*
G37*
G36*
X39402Y39215D02*
X39319Y39204D01*
X39243Y39173D01*
X39177Y39122D01*
X39126Y39056D01*
X39095Y38980D01*
X39084Y38898D01*
X39095Y38815D01*
X39126Y38739D01*
X39177Y38673D01*
X39243Y38623D01*
X39319Y38591D01*
X39402Y38580D01*
X39484Y38591D01*
X39560Y38623D01*
X39626Y38673D01*
X39677Y38739D01*
X39708Y38815D01*
X39719Y38898D01*
X39708Y38980D01*
X39677Y39056D01*
X39626Y39122D01*
X39560Y39173D01*
X39484Y39204D01*
X39402Y39215D01*
D02*
G37*
G36*
X27994Y38782D02*
X27911Y38771D01*
X27835Y38740D01*
X27769Y38689D01*
X27719Y38623D01*
X27687Y38547D01*
X27676Y38465D01*
X27687Y38382D01*
X27719Y38306D01*
X27769Y38240D01*
X27835Y38189D01*
X27911Y38158D01*
X27994Y38147D01*
X28076Y38158D01*
X28152Y38189D01*
X28218Y38240D01*
X28269Y38306D01*
X28300Y38382D01*
X28311Y38465D01*
X28300Y38547D01*
X28269Y38623D01*
X28218Y38689D01*
X28152Y38740D01*
X28076Y38771D01*
X27994Y38782D01*
D02*
G37*
G36*
X53583Y38467D02*
X53500Y38456D01*
X53424Y38425D01*
X53358Y38374D01*
X53308Y38308D01*
X53276Y38232D01*
X53265Y38150D01*
X53276Y38067D01*
X53308Y37991D01*
X53358Y37925D01*
X53424Y37874D01*
X53500Y37843D01*
X53583Y37832D01*
X53665Y37843D01*
X53742Y37874D01*
X53807Y37925D01*
X53858Y37991D01*
X53890Y38067D01*
X53900Y38150D01*
X53890Y38232D01*
X53858Y38308D01*
X53807Y38374D01*
X53742Y38425D01*
X53665Y38456D01*
X53583Y38467D01*
D02*
G37*
G36*
X35886Y38389D02*
X35804Y38378D01*
X35727Y38346D01*
X35661Y38296D01*
X35611Y38230D01*
X35579Y38153D01*
X35568Y38071D01*
X35579Y37989D01*
X35611Y37912D01*
X35661Y37846D01*
X35727Y37796D01*
X35804Y37764D01*
X35886Y37753D01*
X35968Y37764D01*
X36045Y37796D01*
X36110Y37846D01*
X36161Y37912D01*
X36193Y37989D01*
X36204Y38071D01*
X36193Y38153D01*
X36161Y38230D01*
X36110Y38296D01*
X36045Y38346D01*
X35968Y38378D01*
X35886Y38389D01*
D02*
G37*
G36*
X70464Y39166D02*
X70279Y39148D01*
X70101Y39094D01*
X69937Y39006D01*
X69794Y38889D01*
X69676Y38745D01*
X69588Y38581D01*
X69534Y38403D01*
X69516Y38218D01*
X69534Y38034D01*
X69588Y37856D01*
X69676Y37692D01*
X69794Y37548D01*
X69937Y37430D01*
X70101Y37343D01*
X70279Y37289D01*
X70464Y37271D01*
X70648Y37289D01*
X70826Y37343D01*
X70990Y37430D01*
X71134Y37548D01*
X71252Y37692D01*
X71339Y37856D01*
X71393Y38034D01*
X71411Y38218D01*
X71393Y38403D01*
X71339Y38581D01*
X71252Y38745D01*
X71134Y38889D01*
X70990Y39006D01*
X70826Y39094D01*
X70648Y39148D01*
X70464Y39166D01*
D02*
G37*
G36*
X51614Y37745D02*
X51532Y37734D01*
X51455Y37702D01*
X51390Y37652D01*
X51339Y37586D01*
X51307Y37509D01*
X51297Y37427D01*
X51307Y37345D01*
X51339Y37268D01*
X51390Y37203D01*
X51455Y37152D01*
X51532Y37120D01*
X51614Y37109D01*
X51696Y37120D01*
X51773Y37152D01*
X51839Y37203D01*
X51889Y37268D01*
X51921Y37345D01*
X51932Y37427D01*
X51921Y37509D01*
X51889Y37586D01*
X51839Y37652D01*
X51773Y37702D01*
X51696Y37734D01*
X51614Y37745D01*
D02*
G37*
G36*
X27913Y37503D02*
X27831Y37492D01*
X27755Y37460D01*
X27689Y37410D01*
X27638Y37344D01*
X27607Y37267D01*
X27596Y37185D01*
X27607Y37103D01*
X27638Y37026D01*
X27689Y36960D01*
X27755Y36910D01*
X27831Y36878D01*
X27913Y36867D01*
X27996Y36878D01*
X28072Y36910D01*
X28138Y36960D01*
X28189Y37026D01*
X28220Y37103D01*
X28231Y37185D01*
X28220Y37267D01*
X28189Y37344D01*
X28138Y37410D01*
X28072Y37460D01*
X27996Y37492D01*
X27913Y37503D01*
D02*
G37*
G36*
X10552Y37478D02*
X10470Y37467D01*
X10393Y37435D01*
X10327Y37385D01*
X10277Y37319D01*
X10245Y37242D01*
X10234Y37160D01*
X10245Y37078D01*
X10277Y37001D01*
X10327Y36936D01*
X10393Y36885D01*
X10470Y36853D01*
X10552Y36843D01*
X10634Y36853D01*
X10711Y36885D01*
X10777Y36936D01*
X10827Y37001D01*
X10859Y37078D01*
X10870Y37160D01*
X10859Y37242D01*
X10827Y37319D01*
X10777Y37385D01*
X10711Y37435D01*
X10634Y37467D01*
X10552Y37478D01*
D02*
G37*
G36*
X19030Y37461D02*
X18948Y37450D01*
X18871Y37418D01*
X18806Y37368D01*
X18755Y37302D01*
X18723Y37226D01*
X18713Y37143D01*
X18723Y37061D01*
X18755Y36984D01*
X18806Y36919D01*
X18871Y36868D01*
X18948Y36836D01*
X19030Y36826D01*
X19113Y36836D01*
X19189Y36868D01*
X19255Y36919D01*
X19305Y36984D01*
X19337Y37061D01*
X19348Y37143D01*
X19337Y37226D01*
X19305Y37302D01*
X19255Y37368D01*
X19189Y37418D01*
X19113Y37450D01*
X19030Y37461D01*
D02*
G37*
G36*
X35886Y37404D02*
X35804Y37393D01*
X35727Y37362D01*
X35661Y37311D01*
X35611Y37245D01*
X35579Y37169D01*
X35568Y37087D01*
X35579Y37004D01*
X35611Y36928D01*
X35661Y36862D01*
X35727Y36811D01*
X35804Y36780D01*
X35886Y36769D01*
X35968Y36780D01*
X36045Y36811D01*
X36110Y36862D01*
X36161Y36928D01*
X36193Y37004D01*
X36204Y37087D01*
X36193Y37169D01*
X36161Y37245D01*
X36110Y37311D01*
X36045Y37362D01*
X35968Y37393D01*
X35886Y37404D01*
D02*
G37*
G36*
X3720D02*
X3638Y37393D01*
X3562Y37362D01*
X3496Y37311D01*
X3445Y37245D01*
X3414Y37169D01*
X3403Y37087D01*
X3414Y37004D01*
X3445Y36928D01*
X3496Y36862D01*
X3562Y36811D01*
X3638Y36780D01*
X3720Y36769D01*
X3803Y36780D01*
X3879Y36811D01*
X3945Y36862D01*
X3996Y36928D01*
X4027Y37004D01*
X4038Y37087D01*
X4027Y37169D01*
X3996Y37245D01*
X3945Y37311D01*
X3879Y37362D01*
X3803Y37393D01*
X3720Y37404D01*
D02*
G37*
G36*
X53307Y36735D02*
X53225Y36724D01*
X53148Y36692D01*
X53082Y36642D01*
X53032Y36576D01*
X53000Y36500D01*
X52989Y36417D01*
X53000Y36335D01*
X53032Y36258D01*
X53082Y36193D01*
X53148Y36142D01*
X53225Y36110D01*
X53307Y36100D01*
X53389Y36110D01*
X53466Y36142D01*
X53532Y36193D01*
X53582Y36258D01*
X53614Y36335D01*
X53625Y36417D01*
X53614Y36500D01*
X53582Y36576D01*
X53532Y36642D01*
X53466Y36692D01*
X53389Y36724D01*
X53307Y36735D01*
D02*
G37*
G36*
X35886Y36420D02*
X35804Y36409D01*
X35727Y36377D01*
X35661Y36327D01*
X35611Y36261D01*
X35579Y36185D01*
X35568Y36102D01*
X35579Y36020D01*
X35611Y35944D01*
X35661Y35878D01*
X35727Y35827D01*
X35804Y35796D01*
X35886Y35785D01*
X35968Y35796D01*
X36045Y35827D01*
X36110Y35878D01*
X36161Y35944D01*
X36193Y36020D01*
X36204Y36102D01*
X36193Y36185D01*
X36161Y36261D01*
X36110Y36327D01*
X36045Y36377D01*
X35968Y36409D01*
X35886Y36420D01*
D02*
G37*
G36*
X40402Y35987D02*
X40319Y35976D01*
X40243Y35944D01*
X40177Y35894D01*
X40126Y35828D01*
X40095Y35752D01*
X40084Y35669D01*
X40095Y35587D01*
X40126Y35510D01*
X40177Y35445D01*
X40243Y35394D01*
X40319Y35362D01*
X40402Y35352D01*
X40484Y35362D01*
X40560Y35394D01*
X40626Y35445D01*
X40677Y35510D01*
X40708Y35587D01*
X40719Y35669D01*
X40708Y35752D01*
X40677Y35828D01*
X40626Y35894D01*
X40560Y35944D01*
X40484Y35976D01*
X40402Y35987D01*
D02*
G37*
G36*
X32419Y35534D02*
X32337Y35523D01*
X32260Y35492D01*
X32195Y35441D01*
X32144Y35375D01*
X32112Y35299D01*
X32102Y35217D01*
X32112Y35134D01*
X32144Y35058D01*
X32195Y34992D01*
X32260Y34941D01*
X32337Y34910D01*
X32419Y34899D01*
X32502Y34910D01*
X32578Y34941D01*
X32644Y34992D01*
X32694Y35058D01*
X32726Y35134D01*
X32737Y35217D01*
X32726Y35299D01*
X32694Y35375D01*
X32644Y35441D01*
X32578Y35492D01*
X32502Y35523D01*
X32419Y35534D01*
D02*
G37*
G36*
X31419D02*
X31337Y35523D01*
X31260Y35492D01*
X31195Y35441D01*
X31144Y35375D01*
X31112Y35299D01*
X31102Y35217D01*
X31112Y35134D01*
X31144Y35058D01*
X31195Y34992D01*
X31260Y34941D01*
X31337Y34910D01*
X31419Y34899D01*
X31502Y34910D01*
X31578Y34941D01*
X31644Y34992D01*
X31694Y35058D01*
X31726Y35134D01*
X31737Y35217D01*
X31726Y35299D01*
X31694Y35375D01*
X31644Y35441D01*
X31578Y35492D01*
X31502Y35523D01*
X31419Y35534D01*
D02*
G37*
G36*
X30419D02*
X30337Y35523D01*
X30260Y35492D01*
X30195Y35441D01*
X30144Y35375D01*
X30112Y35299D01*
X30102Y35217D01*
X30112Y35134D01*
X30144Y35058D01*
X30195Y34992D01*
X30260Y34941D01*
X30337Y34910D01*
X30419Y34899D01*
X30502Y34910D01*
X30578Y34941D01*
X30644Y34992D01*
X30694Y35058D01*
X30726Y35134D01*
X30737Y35217D01*
X30726Y35299D01*
X30694Y35375D01*
X30644Y35441D01*
X30578Y35492D01*
X30502Y35523D01*
X30419Y35534D01*
D02*
G37*
G36*
X27137Y34078D02*
X27055Y34067D01*
X26978Y34035D01*
X26912Y33984D01*
X26862Y33919D01*
X26830Y33842D01*
X26819Y33760D01*
X26830Y33678D01*
X26862Y33601D01*
X26912Y33535D01*
X26978Y33485D01*
X27055Y33453D01*
X27137Y33442D01*
X27219Y33453D01*
X27296Y33485D01*
X27361Y33535D01*
X27412Y33601D01*
X27444Y33678D01*
X27454Y33760D01*
X27444Y33842D01*
X27412Y33919D01*
X27361Y33984D01*
X27296Y34035D01*
X27219Y34067D01*
X27137Y34078D01*
D02*
G37*
G36*
X2180Y33996D02*
X2098Y33986D01*
X2021Y33954D01*
X1955Y33903D01*
X1905Y33838D01*
X1873Y33761D01*
X1862Y33679D01*
X1873Y33597D01*
X1905Y33520D01*
X1955Y33454D01*
X2021Y33404D01*
X2098Y33372D01*
X2180Y33361D01*
X2262Y33372D01*
X2339Y33404D01*
X2405Y33454D01*
X2455Y33520D01*
X2487Y33597D01*
X2498Y33679D01*
X2487Y33761D01*
X2455Y33838D01*
X2405Y33903D01*
X2339Y33954D01*
X2262Y33986D01*
X2180Y33996D01*
D02*
G37*
G36*
X71260Y32743D02*
X71145Y32728D01*
X71038Y32684D01*
X70946Y32613D01*
X70876Y32521D01*
X70831Y32414D01*
X70816Y32299D01*
X70831Y32184D01*
X70876Y32077D01*
X70946Y31985D01*
X71038Y31915D01*
X71145Y31871D01*
X71260Y31855D01*
X71375Y31871D01*
X71482Y31915D01*
X71574Y31985D01*
X71644Y32077D01*
X71688Y32184D01*
X71704Y32299D01*
X71688Y32414D01*
X71644Y32521D01*
X71574Y32613D01*
X71482Y32684D01*
X71375Y32728D01*
X71260Y32743D01*
D02*
G37*
G36*
X71700Y31739D02*
X70820D01*
Y30859D01*
X71700D01*
Y31739D01*
D02*
G37*
G36*
X60669Y30318D02*
X60587Y30307D01*
X60510Y30275D01*
X60445Y30225D01*
X60394Y30159D01*
X60362Y30082D01*
X60352Y30000D01*
X60362Y29918D01*
X60394Y29841D01*
X60445Y29775D01*
X60510Y29725D01*
X60587Y29693D01*
X60669Y29682D01*
X60752Y29693D01*
X60828Y29725D01*
X60894Y29775D01*
X60944Y29841D01*
X60976Y29918D01*
X60987Y30000D01*
X60976Y30082D01*
X60944Y30159D01*
X60894Y30225D01*
X60828Y30275D01*
X60752Y30307D01*
X60669Y30318D01*
D02*
G37*
G36*
X52402Y30072D02*
X52293Y30058D01*
X52192Y30016D01*
X52106Y29950D01*
X52039Y29863D01*
X51997Y29762D01*
X51983Y29654D01*
X51997Y29545D01*
X52039Y29444D01*
X52106Y29358D01*
X52192Y29291D01*
X52293Y29249D01*
X52402Y29235D01*
X52510Y29249D01*
X52611Y29291D01*
X52698Y29358D01*
X52764Y29444D01*
X52806Y29545D01*
X52820Y29654D01*
X52806Y29762D01*
X52764Y29863D01*
X52698Y29950D01*
X52611Y30016D01*
X52510Y30058D01*
X52402Y30072D01*
D02*
G37*
G36*
X51402D02*
X51293Y30058D01*
X51192Y30016D01*
X51106Y29950D01*
X51039Y29863D01*
X50997Y29762D01*
X50983Y29654D01*
X50997Y29545D01*
X51039Y29444D01*
X51106Y29358D01*
X51192Y29291D01*
X51293Y29249D01*
X51402Y29235D01*
X51510Y29249D01*
X51611Y29291D01*
X51698Y29358D01*
X51764Y29444D01*
X51806Y29545D01*
X51820Y29654D01*
X51806Y29762D01*
X51764Y29863D01*
X51698Y29950D01*
X51611Y30016D01*
X51510Y30058D01*
X51402Y30072D01*
D02*
G37*
G36*
X50402D02*
X50293Y30058D01*
X50192Y30016D01*
X50106Y29950D01*
X50039Y29863D01*
X49997Y29762D01*
X49983Y29654D01*
X49997Y29545D01*
X50039Y29444D01*
X50106Y29358D01*
X50192Y29291D01*
X50293Y29249D01*
X50402Y29235D01*
X50510Y29249D01*
X50611Y29291D01*
X50698Y29358D01*
X50764Y29444D01*
X50806Y29545D01*
X50820Y29654D01*
X50806Y29762D01*
X50764Y29863D01*
X50698Y29950D01*
X50611Y30016D01*
X50510Y30058D01*
X50402Y30072D01*
D02*
G37*
G36*
X49402D02*
X49293Y30058D01*
X49192Y30016D01*
X49106Y29950D01*
X49039Y29863D01*
X48997Y29762D01*
X48983Y29654D01*
X48997Y29545D01*
X49039Y29444D01*
X49106Y29358D01*
X49192Y29291D01*
X49293Y29249D01*
X49402Y29235D01*
X49510Y29249D01*
X49611Y29291D01*
X49698Y29358D01*
X49764Y29444D01*
X49806Y29545D01*
X49820Y29654D01*
X49806Y29762D01*
X49764Y29863D01*
X49698Y29950D01*
X49611Y30016D01*
X49510Y30058D01*
X49402Y30072D01*
D02*
G37*
G36*
X48402D02*
X48293Y30058D01*
X48192Y30016D01*
X48106Y29950D01*
X48039Y29863D01*
X47997Y29762D01*
X47983Y29654D01*
X47997Y29545D01*
X48039Y29444D01*
X48106Y29358D01*
X48192Y29291D01*
X48293Y29249D01*
X48402Y29235D01*
X48510Y29249D01*
X48611Y29291D01*
X48698Y29358D01*
X48764Y29444D01*
X48806Y29545D01*
X48820Y29654D01*
X48806Y29762D01*
X48764Y29863D01*
X48698Y29950D01*
X48611Y30016D01*
X48510Y30058D01*
X48402Y30072D01*
D02*
G37*
G36*
X47402D02*
X47293Y30058D01*
X47192Y30016D01*
X47106Y29950D01*
X47039Y29863D01*
X46997Y29762D01*
X46983Y29654D01*
X46997Y29545D01*
X47039Y29444D01*
X47106Y29358D01*
X47192Y29291D01*
X47293Y29249D01*
X47402Y29235D01*
X47510Y29249D01*
X47611Y29291D01*
X47698Y29358D01*
X47764Y29444D01*
X47806Y29545D01*
X47820Y29654D01*
X47806Y29762D01*
X47764Y29863D01*
X47698Y29950D01*
X47611Y30016D01*
X47510Y30058D01*
X47402Y30072D01*
D02*
G37*
G36*
X46402D02*
X46293Y30058D01*
X46192Y30016D01*
X46106Y29950D01*
X46039Y29863D01*
X45997Y29762D01*
X45983Y29654D01*
X45997Y29545D01*
X46039Y29444D01*
X46106Y29358D01*
X46192Y29291D01*
X46293Y29249D01*
X46402Y29235D01*
X46510Y29249D01*
X46611Y29291D01*
X46698Y29358D01*
X46764Y29444D01*
X46806Y29545D01*
X46820Y29654D01*
X46806Y29762D01*
X46764Y29863D01*
X46698Y29950D01*
X46611Y30016D01*
X46510Y30058D01*
X46402Y30072D01*
D02*
G37*
G36*
X45402D02*
X45293Y30058D01*
X45192Y30016D01*
X45106Y29950D01*
X45039Y29863D01*
X44997Y29762D01*
X44983Y29654D01*
X44997Y29545D01*
X45039Y29444D01*
X45106Y29358D01*
X45192Y29291D01*
X45293Y29249D01*
X45402Y29235D01*
X45510Y29249D01*
X45611Y29291D01*
X45698Y29358D01*
X45764Y29444D01*
X45806Y29545D01*
X45820Y29654D01*
X45806Y29762D01*
X45764Y29863D01*
X45698Y29950D01*
X45611Y30016D01*
X45510Y30058D01*
X45402Y30072D01*
D02*
G37*
G36*
X44402D02*
X44293Y30058D01*
X44192Y30016D01*
X44106Y29950D01*
X44039Y29863D01*
X43997Y29762D01*
X43983Y29654D01*
X43997Y29545D01*
X44039Y29444D01*
X44106Y29358D01*
X44192Y29291D01*
X44293Y29249D01*
X44402Y29235D01*
X44510Y29249D01*
X44611Y29291D01*
X44698Y29358D01*
X44764Y29444D01*
X44806Y29545D01*
X44820Y29654D01*
X44806Y29762D01*
X44764Y29863D01*
X44698Y29950D01*
X44611Y30016D01*
X44510Y30058D01*
X44402Y30072D01*
D02*
G37*
G36*
X43402D02*
X43293Y30058D01*
X43192Y30016D01*
X43106Y29950D01*
X43039Y29863D01*
X42997Y29762D01*
X42983Y29654D01*
X42997Y29545D01*
X43039Y29444D01*
X43106Y29358D01*
X43192Y29291D01*
X43293Y29249D01*
X43402Y29235D01*
X43510Y29249D01*
X43611Y29291D01*
X43698Y29358D01*
X43764Y29444D01*
X43806Y29545D01*
X43820Y29654D01*
X43806Y29762D01*
X43764Y29863D01*
X43698Y29950D01*
X43611Y30016D01*
X43510Y30058D01*
X43402Y30072D01*
D02*
G37*
G36*
X42402D02*
X42293Y30058D01*
X42192Y30016D01*
X42106Y29950D01*
X42039Y29863D01*
X41997Y29762D01*
X41983Y29654D01*
X41997Y29545D01*
X42039Y29444D01*
X42106Y29358D01*
X42192Y29291D01*
X42293Y29249D01*
X42402Y29235D01*
X42510Y29249D01*
X42611Y29291D01*
X42698Y29358D01*
X42764Y29444D01*
X42806Y29545D01*
X42820Y29654D01*
X42806Y29762D01*
X42764Y29863D01*
X42698Y29950D01*
X42611Y30016D01*
X42510Y30058D01*
X42402Y30072D01*
D02*
G37*
G36*
X41402D02*
X41293Y30058D01*
X41192Y30016D01*
X41106Y29950D01*
X41039Y29863D01*
X40997Y29762D01*
X40983Y29654D01*
X40997Y29545D01*
X41039Y29444D01*
X41106Y29358D01*
X41192Y29291D01*
X41293Y29249D01*
X41402Y29235D01*
X41510Y29249D01*
X41611Y29291D01*
X41698Y29358D01*
X41764Y29444D01*
X41806Y29545D01*
X41820Y29654D01*
X41806Y29762D01*
X41764Y29863D01*
X41698Y29950D01*
X41611Y30016D01*
X41510Y30058D01*
X41402Y30072D01*
D02*
G37*
G36*
X40402D02*
X40293Y30058D01*
X40192Y30016D01*
X40106Y29950D01*
X40039Y29863D01*
X39997Y29762D01*
X39983Y29654D01*
X39997Y29545D01*
X40039Y29444D01*
X40106Y29358D01*
X40192Y29291D01*
X40293Y29249D01*
X40402Y29235D01*
X40510Y29249D01*
X40611Y29291D01*
X40698Y29358D01*
X40764Y29444D01*
X40806Y29545D01*
X40820Y29654D01*
X40806Y29762D01*
X40764Y29863D01*
X40698Y29950D01*
X40611Y30016D01*
X40510Y30058D01*
X40402Y30072D01*
D02*
G37*
G36*
X39402D02*
X39293Y30058D01*
X39192Y30016D01*
X39106Y29950D01*
X39039Y29863D01*
X38997Y29762D01*
X38983Y29654D01*
X38997Y29545D01*
X39039Y29444D01*
X39106Y29358D01*
X39192Y29291D01*
X39293Y29249D01*
X39402Y29235D01*
X39510Y29249D01*
X39611Y29291D01*
X39698Y29358D01*
X39764Y29444D01*
X39806Y29545D01*
X39820Y29654D01*
X39806Y29762D01*
X39764Y29863D01*
X39698Y29950D01*
X39611Y30016D01*
X39510Y30058D01*
X39402Y30072D01*
D02*
G37*
G36*
X38402D02*
X38293Y30058D01*
X38192Y30016D01*
X38106Y29950D01*
X38039Y29863D01*
X37997Y29762D01*
X37983Y29654D01*
X37997Y29545D01*
X38039Y29444D01*
X38106Y29358D01*
X38192Y29291D01*
X38293Y29249D01*
X38402Y29235D01*
X38510Y29249D01*
X38611Y29291D01*
X38698Y29358D01*
X38764Y29444D01*
X38806Y29545D01*
X38820Y29654D01*
X38806Y29762D01*
X38764Y29863D01*
X38698Y29950D01*
X38611Y30016D01*
X38510Y30058D01*
X38402Y30072D01*
D02*
G37*
G36*
X37402D02*
X37293Y30058D01*
X37192Y30016D01*
X37106Y29950D01*
X37039Y29863D01*
X36997Y29762D01*
X36983Y29654D01*
X36997Y29545D01*
X37039Y29444D01*
X37106Y29358D01*
X37192Y29291D01*
X37293Y29249D01*
X37402Y29235D01*
X37510Y29249D01*
X37611Y29291D01*
X37698Y29358D01*
X37764Y29444D01*
X37806Y29545D01*
X37820Y29654D01*
X37806Y29762D01*
X37764Y29863D01*
X37698Y29950D01*
X37611Y30016D01*
X37510Y30058D01*
X37402Y30072D01*
D02*
G37*
G36*
X36402D02*
X36293Y30058D01*
X36192Y30016D01*
X36106Y29950D01*
X36039Y29863D01*
X35997Y29762D01*
X35983Y29654D01*
X35997Y29545D01*
X36039Y29444D01*
X36106Y29358D01*
X36192Y29291D01*
X36293Y29249D01*
X36402Y29235D01*
X36510Y29249D01*
X36611Y29291D01*
X36698Y29358D01*
X36764Y29444D01*
X36806Y29545D01*
X36820Y29654D01*
X36806Y29762D01*
X36764Y29863D01*
X36698Y29950D01*
X36611Y30016D01*
X36510Y30058D01*
X36402Y30072D01*
D02*
G37*
G36*
X35402D02*
X35293Y30058D01*
X35192Y30016D01*
X35106Y29950D01*
X35039Y29863D01*
X34997Y29762D01*
X34983Y29654D01*
X34997Y29545D01*
X35039Y29444D01*
X35106Y29358D01*
X35192Y29291D01*
X35293Y29249D01*
X35402Y29235D01*
X35510Y29249D01*
X35611Y29291D01*
X35698Y29358D01*
X35764Y29444D01*
X35806Y29545D01*
X35820Y29654D01*
X35806Y29762D01*
X35764Y29863D01*
X35698Y29950D01*
X35611Y30016D01*
X35510Y30058D01*
X35402Y30072D01*
D02*
G37*
G36*
X34402D02*
X34293Y30058D01*
X34192Y30016D01*
X34106Y29950D01*
X34039Y29863D01*
X33997Y29762D01*
X33983Y29654D01*
X33997Y29545D01*
X34039Y29444D01*
X34106Y29358D01*
X34192Y29291D01*
X34293Y29249D01*
X34402Y29235D01*
X34510Y29249D01*
X34611Y29291D01*
X34698Y29358D01*
X34764Y29444D01*
X34806Y29545D01*
X34820Y29654D01*
X34806Y29762D01*
X34764Y29863D01*
X34698Y29950D01*
X34611Y30016D01*
X34510Y30058D01*
X34402Y30072D01*
D02*
G37*
G36*
X34817Y29069D02*
X33987D01*
Y28239D01*
X34817D01*
Y29069D01*
D02*
G37*
G36*
X52402Y29072D02*
X52293Y29058D01*
X52192Y29016D01*
X52106Y28949D01*
X52039Y28863D01*
X51997Y28762D01*
X51983Y28654D01*
X51997Y28545D01*
X52039Y28444D01*
X52106Y28358D01*
X52192Y28291D01*
X52293Y28249D01*
X52402Y28235D01*
X52510Y28249D01*
X52611Y28291D01*
X52698Y28358D01*
X52764Y28444D01*
X52806Y28545D01*
X52820Y28654D01*
X52806Y28762D01*
X52764Y28863D01*
X52698Y28949D01*
X52611Y29016D01*
X52510Y29058D01*
X52402Y29072D01*
D02*
G37*
G36*
X51402D02*
X51293Y29058D01*
X51192Y29016D01*
X51106Y28949D01*
X51039Y28863D01*
X50997Y28762D01*
X50983Y28654D01*
X50997Y28545D01*
X51039Y28444D01*
X51106Y28358D01*
X51192Y28291D01*
X51293Y28249D01*
X51402Y28235D01*
X51510Y28249D01*
X51611Y28291D01*
X51698Y28358D01*
X51764Y28444D01*
X51806Y28545D01*
X51820Y28654D01*
X51806Y28762D01*
X51764Y28863D01*
X51698Y28949D01*
X51611Y29016D01*
X51510Y29058D01*
X51402Y29072D01*
D02*
G37*
G36*
X50402D02*
X50293Y29058D01*
X50192Y29016D01*
X50106Y28949D01*
X50039Y28863D01*
X49997Y28762D01*
X49983Y28654D01*
X49997Y28545D01*
X50039Y28444D01*
X50106Y28358D01*
X50192Y28291D01*
X50293Y28249D01*
X50402Y28235D01*
X50510Y28249D01*
X50611Y28291D01*
X50698Y28358D01*
X50764Y28444D01*
X50806Y28545D01*
X50820Y28654D01*
X50806Y28762D01*
X50764Y28863D01*
X50698Y28949D01*
X50611Y29016D01*
X50510Y29058D01*
X50402Y29072D01*
D02*
G37*
G36*
X49402D02*
X49293Y29058D01*
X49192Y29016D01*
X49106Y28949D01*
X49039Y28863D01*
X48997Y28762D01*
X48983Y28654D01*
X48997Y28545D01*
X49039Y28444D01*
X49106Y28358D01*
X49192Y28291D01*
X49293Y28249D01*
X49402Y28235D01*
X49510Y28249D01*
X49611Y28291D01*
X49698Y28358D01*
X49764Y28444D01*
X49806Y28545D01*
X49820Y28654D01*
X49806Y28762D01*
X49764Y28863D01*
X49698Y28949D01*
X49611Y29016D01*
X49510Y29058D01*
X49402Y29072D01*
D02*
G37*
G36*
X48402D02*
X48293Y29058D01*
X48192Y29016D01*
X48106Y28949D01*
X48039Y28863D01*
X47997Y28762D01*
X47983Y28654D01*
X47997Y28545D01*
X48039Y28444D01*
X48106Y28358D01*
X48192Y28291D01*
X48293Y28249D01*
X48402Y28235D01*
X48510Y28249D01*
X48611Y28291D01*
X48698Y28358D01*
X48764Y28444D01*
X48806Y28545D01*
X48820Y28654D01*
X48806Y28762D01*
X48764Y28863D01*
X48698Y28949D01*
X48611Y29016D01*
X48510Y29058D01*
X48402Y29072D01*
D02*
G37*
G36*
X47402D02*
X47293Y29058D01*
X47192Y29016D01*
X47106Y28949D01*
X47039Y28863D01*
X46997Y28762D01*
X46983Y28654D01*
X46997Y28545D01*
X47039Y28444D01*
X47106Y28358D01*
X47192Y28291D01*
X47293Y28249D01*
X47402Y28235D01*
X47510Y28249D01*
X47611Y28291D01*
X47698Y28358D01*
X47764Y28444D01*
X47806Y28545D01*
X47820Y28654D01*
X47806Y28762D01*
X47764Y28863D01*
X47698Y28949D01*
X47611Y29016D01*
X47510Y29058D01*
X47402Y29072D01*
D02*
G37*
G36*
X46402D02*
X46293Y29058D01*
X46192Y29016D01*
X46106Y28949D01*
X46039Y28863D01*
X45997Y28762D01*
X45983Y28654D01*
X45997Y28545D01*
X46039Y28444D01*
X46106Y28358D01*
X46192Y28291D01*
X46293Y28249D01*
X46402Y28235D01*
X46510Y28249D01*
X46611Y28291D01*
X46698Y28358D01*
X46764Y28444D01*
X46806Y28545D01*
X46820Y28654D01*
X46806Y28762D01*
X46764Y28863D01*
X46698Y28949D01*
X46611Y29016D01*
X46510Y29058D01*
X46402Y29072D01*
D02*
G37*
G36*
X45402D02*
X45293Y29058D01*
X45192Y29016D01*
X45106Y28949D01*
X45039Y28863D01*
X44997Y28762D01*
X44983Y28654D01*
X44997Y28545D01*
X45039Y28444D01*
X45106Y28358D01*
X45192Y28291D01*
X45293Y28249D01*
X45402Y28235D01*
X45510Y28249D01*
X45611Y28291D01*
X45698Y28358D01*
X45764Y28444D01*
X45806Y28545D01*
X45820Y28654D01*
X45806Y28762D01*
X45764Y28863D01*
X45698Y28949D01*
X45611Y29016D01*
X45510Y29058D01*
X45402Y29072D01*
D02*
G37*
G36*
X44402D02*
X44293Y29058D01*
X44192Y29016D01*
X44106Y28949D01*
X44039Y28863D01*
X43997Y28762D01*
X43983Y28654D01*
X43997Y28545D01*
X44039Y28444D01*
X44106Y28358D01*
X44192Y28291D01*
X44293Y28249D01*
X44402Y28235D01*
X44510Y28249D01*
X44611Y28291D01*
X44698Y28358D01*
X44764Y28444D01*
X44806Y28545D01*
X44820Y28654D01*
X44806Y28762D01*
X44764Y28863D01*
X44698Y28949D01*
X44611Y29016D01*
X44510Y29058D01*
X44402Y29072D01*
D02*
G37*
G36*
X43402D02*
X43293Y29058D01*
X43192Y29016D01*
X43106Y28949D01*
X43039Y28863D01*
X42997Y28762D01*
X42983Y28654D01*
X42997Y28545D01*
X43039Y28444D01*
X43106Y28358D01*
X43192Y28291D01*
X43293Y28249D01*
X43402Y28235D01*
X43510Y28249D01*
X43611Y28291D01*
X43698Y28358D01*
X43764Y28444D01*
X43806Y28545D01*
X43820Y28654D01*
X43806Y28762D01*
X43764Y28863D01*
X43698Y28949D01*
X43611Y29016D01*
X43510Y29058D01*
X43402Y29072D01*
D02*
G37*
G36*
X42402D02*
X42293Y29058D01*
X42192Y29016D01*
X42106Y28949D01*
X42039Y28863D01*
X41997Y28762D01*
X41983Y28654D01*
X41997Y28545D01*
X42039Y28444D01*
X42106Y28358D01*
X42192Y28291D01*
X42293Y28249D01*
X42402Y28235D01*
X42510Y28249D01*
X42611Y28291D01*
X42698Y28358D01*
X42764Y28444D01*
X42806Y28545D01*
X42820Y28654D01*
X42806Y28762D01*
X42764Y28863D01*
X42698Y28949D01*
X42611Y29016D01*
X42510Y29058D01*
X42402Y29072D01*
D02*
G37*
G36*
X41402D02*
X41293Y29058D01*
X41192Y29016D01*
X41106Y28949D01*
X41039Y28863D01*
X40997Y28762D01*
X40983Y28654D01*
X40997Y28545D01*
X41039Y28444D01*
X41106Y28358D01*
X41192Y28291D01*
X41293Y28249D01*
X41402Y28235D01*
X41510Y28249D01*
X41611Y28291D01*
X41698Y28358D01*
X41764Y28444D01*
X41806Y28545D01*
X41820Y28654D01*
X41806Y28762D01*
X41764Y28863D01*
X41698Y28949D01*
X41611Y29016D01*
X41510Y29058D01*
X41402Y29072D01*
D02*
G37*
G36*
X40402D02*
X40293Y29058D01*
X40192Y29016D01*
X40106Y28949D01*
X40039Y28863D01*
X39997Y28762D01*
X39983Y28654D01*
X39997Y28545D01*
X40039Y28444D01*
X40106Y28358D01*
X40192Y28291D01*
X40293Y28249D01*
X40402Y28235D01*
X40510Y28249D01*
X40611Y28291D01*
X40698Y28358D01*
X40764Y28444D01*
X40806Y28545D01*
X40820Y28654D01*
X40806Y28762D01*
X40764Y28863D01*
X40698Y28949D01*
X40611Y29016D01*
X40510Y29058D01*
X40402Y29072D01*
D02*
G37*
G36*
X39402D02*
X39293Y29058D01*
X39192Y29016D01*
X39106Y28949D01*
X39039Y28863D01*
X38997Y28762D01*
X38983Y28654D01*
X38997Y28545D01*
X39039Y28444D01*
X39106Y28358D01*
X39192Y28291D01*
X39293Y28249D01*
X39402Y28235D01*
X39510Y28249D01*
X39611Y28291D01*
X39698Y28358D01*
X39764Y28444D01*
X39806Y28545D01*
X39820Y28654D01*
X39806Y28762D01*
X39764Y28863D01*
X39698Y28949D01*
X39611Y29016D01*
X39510Y29058D01*
X39402Y29072D01*
D02*
G37*
G36*
X38402D02*
X38293Y29058D01*
X38192Y29016D01*
X38106Y28949D01*
X38039Y28863D01*
X37997Y28762D01*
X37983Y28654D01*
X37997Y28545D01*
X38039Y28444D01*
X38106Y28358D01*
X38192Y28291D01*
X38293Y28249D01*
X38402Y28235D01*
X38510Y28249D01*
X38611Y28291D01*
X38698Y28358D01*
X38764Y28444D01*
X38806Y28545D01*
X38820Y28654D01*
X38806Y28762D01*
X38764Y28863D01*
X38698Y28949D01*
X38611Y29016D01*
X38510Y29058D01*
X38402Y29072D01*
D02*
G37*
G36*
X37402D02*
X37293Y29058D01*
X37192Y29016D01*
X37106Y28949D01*
X37039Y28863D01*
X36997Y28762D01*
X36983Y28654D01*
X36997Y28545D01*
X37039Y28444D01*
X37106Y28358D01*
X37192Y28291D01*
X37293Y28249D01*
X37402Y28235D01*
X37510Y28249D01*
X37611Y28291D01*
X37698Y28358D01*
X37764Y28444D01*
X37806Y28545D01*
X37820Y28654D01*
X37806Y28762D01*
X37764Y28863D01*
X37698Y28949D01*
X37611Y29016D01*
X37510Y29058D01*
X37402Y29072D01*
D02*
G37*
G36*
X36402D02*
X36293Y29058D01*
X36192Y29016D01*
X36106Y28949D01*
X36039Y28863D01*
X35997Y28762D01*
X35983Y28654D01*
X35997Y28545D01*
X36039Y28444D01*
X36106Y28358D01*
X36192Y28291D01*
X36293Y28249D01*
X36402Y28235D01*
X36510Y28249D01*
X36611Y28291D01*
X36698Y28358D01*
X36764Y28444D01*
X36806Y28545D01*
X36820Y28654D01*
X36806Y28762D01*
X36764Y28863D01*
X36698Y28949D01*
X36611Y29016D01*
X36510Y29058D01*
X36402Y29072D01*
D02*
G37*
G36*
X35402D02*
X35293Y29058D01*
X35192Y29016D01*
X35106Y28949D01*
X35039Y28863D01*
X34997Y28762D01*
X34983Y28654D01*
X34997Y28545D01*
X35039Y28444D01*
X35106Y28358D01*
X35192Y28291D01*
X35293Y28249D01*
X35402Y28235D01*
X35510Y28249D01*
X35611Y28291D01*
X35698Y28358D01*
X35764Y28444D01*
X35806Y28545D01*
X35820Y28654D01*
X35806Y28762D01*
X35764Y28863D01*
X35698Y28949D01*
X35611Y29016D01*
X35510Y29058D01*
X35402Y29072D01*
D02*
G37*
G36*
X31919Y28349D02*
X31837Y28338D01*
X31760Y28307D01*
X31695Y28256D01*
X31644Y28190D01*
X31612Y28114D01*
X31602Y28031D01*
X31612Y27949D01*
X31644Y27873D01*
X31695Y27807D01*
X31760Y27756D01*
X31837Y27725D01*
X31919Y27714D01*
X32002Y27725D01*
X32078Y27756D01*
X32144Y27807D01*
X32194Y27873D01*
X32226Y27949D01*
X32237Y28031D01*
X32226Y28114D01*
X32194Y28190D01*
X32144Y28256D01*
X32078Y28307D01*
X32002Y28338D01*
X31919Y28349D01*
D02*
G37*
G36*
X66118Y28493D02*
X66009Y28478D01*
X65907Y28436D01*
X65820Y28369D01*
X65753Y28282D01*
X65711Y28180D01*
X65696Y28071D01*
X65711Y27962D01*
X65753Y27860D01*
X65820Y27773D01*
X65907Y27706D01*
X66009Y27664D01*
X66118Y27649D01*
X66227Y27664D01*
X66329Y27706D01*
X66416Y27773D01*
X66483Y27860D01*
X66525Y27962D01*
X66540Y28071D01*
X66525Y28180D01*
X66483Y28282D01*
X66416Y28369D01*
X66329Y28436D01*
X66227Y28478D01*
X66118Y28493D01*
D02*
G37*
G36*
X65118D02*
X65009Y28478D01*
X64907Y28436D01*
X64820Y28369D01*
X64753Y28282D01*
X64711Y28180D01*
X64696Y28071D01*
X64711Y27962D01*
X64753Y27860D01*
X64820Y27773D01*
X64907Y27706D01*
X65009Y27664D01*
X65118Y27649D01*
X65227Y27664D01*
X65329Y27706D01*
X65416Y27773D01*
X65483Y27860D01*
X65525Y27962D01*
X65540Y28071D01*
X65525Y28180D01*
X65483Y28282D01*
X65416Y28369D01*
X65329Y28436D01*
X65227Y28478D01*
X65118Y28493D01*
D02*
G37*
G36*
X64118D02*
X64009Y28478D01*
X63907Y28436D01*
X63820Y28369D01*
X63753Y28282D01*
X63711Y28180D01*
X63696Y28071D01*
X63711Y27962D01*
X63753Y27860D01*
X63820Y27773D01*
X63907Y27706D01*
X64009Y27664D01*
X64118Y27649D01*
X64227Y27664D01*
X64329Y27706D01*
X64416Y27773D01*
X64483Y27860D01*
X64525Y27962D01*
X64540Y28071D01*
X64525Y28180D01*
X64483Y28282D01*
X64416Y28369D01*
X64329Y28436D01*
X64227Y28478D01*
X64118Y28493D01*
D02*
G37*
G36*
X69606Y28034D02*
X69524Y28023D01*
X69447Y27992D01*
X69382Y27941D01*
X69331Y27875D01*
X69299Y27799D01*
X69289Y27717D01*
X69299Y27634D01*
X69331Y27558D01*
X69382Y27492D01*
X69447Y27441D01*
X69524Y27410D01*
X69606Y27399D01*
X69689Y27410D01*
X69765Y27441D01*
X69831Y27492D01*
X69881Y27558D01*
X69913Y27634D01*
X69924Y27717D01*
X69913Y27799D01*
X69881Y27875D01*
X69831Y27941D01*
X69765Y27992D01*
X69689Y28023D01*
X69606Y28034D01*
D02*
G37*
G36*
X60591Y27798D02*
X60508Y27787D01*
X60432Y27755D01*
X60366Y27705D01*
X60315Y27639D01*
X60284Y27563D01*
X60273Y27480D01*
X60284Y27398D01*
X60315Y27321D01*
X60366Y27256D01*
X60432Y27205D01*
X60508Y27173D01*
X60591Y27163D01*
X60673Y27173D01*
X60749Y27205D01*
X60815Y27256D01*
X60866Y27321D01*
X60897Y27398D01*
X60908Y27480D01*
X60897Y27563D01*
X60866Y27639D01*
X60815Y27705D01*
X60749Y27755D01*
X60673Y27787D01*
X60591Y27798D01*
D02*
G37*
G36*
X33402Y27376D02*
X33261Y27362D01*
X33125Y27321D01*
X33000Y27254D01*
X32891Y27164D01*
X32801Y27055D01*
X32735Y26930D01*
X32693Y26794D01*
X32680Y26654D01*
X32693Y26513D01*
X32735Y26377D01*
X32801Y26252D01*
X32891Y26143D01*
X33000Y26053D01*
X33125Y25987D01*
X33261Y25945D01*
X33402Y25932D01*
X33542Y25945D01*
X33678Y25987D01*
X33803Y26053D01*
X33912Y26143D01*
X34002Y26252D01*
X34069Y26377D01*
X34110Y26513D01*
X34124Y26654D01*
X34110Y26794D01*
X34069Y26930D01*
X34002Y27055D01*
X33912Y27164D01*
X33803Y27254D01*
X33678Y27321D01*
X33542Y27362D01*
X33402Y27376D01*
D02*
G37*
G36*
X72992Y25711D02*
X72910Y25701D01*
X72833Y25669D01*
X72767Y25618D01*
X72717Y25553D01*
X72685Y25476D01*
X72674Y25394D01*
X72685Y25311D01*
X72717Y25235D01*
X72767Y25169D01*
X72833Y25119D01*
X72910Y25087D01*
X72992Y25076D01*
X73074Y25087D01*
X73151Y25119D01*
X73217Y25169D01*
X73267Y25235D01*
X73299Y25311D01*
X73310Y25394D01*
X73299Y25476D01*
X73267Y25553D01*
X73217Y25618D01*
X73151Y25669D01*
X73074Y25701D01*
X72992Y25711D01*
D02*
G37*
G36*
X62717Y25674D02*
X62607Y25659D01*
X62506Y25617D01*
X62418Y25550D01*
X62351Y25463D01*
X62309Y25361D01*
X62295Y25252D01*
X62309Y25143D01*
X62351Y25041D01*
X62418Y24954D01*
X62506Y24887D01*
X62607Y24845D01*
X62717Y24830D01*
X62826Y24845D01*
X62927Y24887D01*
X63015Y24954D01*
X63082Y25041D01*
X63124Y25143D01*
X63138Y25252D01*
X63124Y25361D01*
X63082Y25463D01*
X63015Y25550D01*
X62927Y25617D01*
X62826Y25659D01*
X62717Y25674D01*
D02*
G37*
G36*
X69606Y25396D02*
X69524Y25386D01*
X69447Y25354D01*
X69382Y25303D01*
X69331Y25238D01*
X69299Y25161D01*
X69289Y25079D01*
X69299Y24997D01*
X69331Y24920D01*
X69382Y24854D01*
X69447Y24804D01*
X69524Y24772D01*
X69606Y24761D01*
X69689Y24772D01*
X69765Y24804D01*
X69831Y24854D01*
X69881Y24920D01*
X69913Y24997D01*
X69924Y25079D01*
X69913Y25161D01*
X69881Y25238D01*
X69831Y25303D01*
X69765Y25354D01*
X69689Y25386D01*
X69606Y25396D01*
D02*
G37*
G36*
X30906Y25357D02*
X30823Y25346D01*
X30747Y25314D01*
X30681Y25264D01*
X30630Y25198D01*
X30599Y25122D01*
X30588Y25039D01*
X30599Y24957D01*
X30630Y24881D01*
X30681Y24815D01*
X30747Y24764D01*
X30823Y24733D01*
X30906Y24722D01*
X30988Y24733D01*
X31064Y24764D01*
X31130Y24815D01*
X31181Y24881D01*
X31212Y24957D01*
X31223Y25039D01*
X31212Y25122D01*
X31181Y25198D01*
X31130Y25264D01*
X31064Y25314D01*
X30988Y25346D01*
X30906Y25357D01*
D02*
G37*
G36*
X62767Y24649D02*
Y24302D01*
X63113D01*
X63106Y24356D01*
X63066Y24454D01*
X63002Y24537D01*
X62918Y24601D01*
X62821Y24642D01*
X62767Y24649D01*
D02*
G37*
G36*
X62667Y24649D02*
X62612Y24642D01*
X62515Y24601D01*
X62431Y24537D01*
X62367Y24454D01*
X62327Y24356D01*
X62320Y24302D01*
X62667D01*
Y24649D01*
D02*
G37*
G36*
X31417Y24688D02*
X31335Y24677D01*
X31258Y24645D01*
X31193Y24595D01*
X31142Y24529D01*
X31110Y24452D01*
X31100Y24370D01*
X31110Y24288D01*
X31142Y24211D01*
X31193Y24145D01*
X31258Y24095D01*
X31335Y24063D01*
X31417Y24052D01*
X31500Y24063D01*
X31576Y24095D01*
X31642Y24145D01*
X31692Y24211D01*
X31724Y24288D01*
X31735Y24370D01*
X31724Y24452D01*
X31692Y24529D01*
X31642Y24595D01*
X31576Y24645D01*
X31500Y24677D01*
X31417Y24688D01*
D02*
G37*
G36*
X62667Y24202D02*
X62320D01*
X62327Y24148D01*
X62367Y24050D01*
X62431Y23967D01*
X62515Y23903D01*
X62612Y23862D01*
X62667Y23855D01*
Y24202D01*
D02*
G37*
G36*
X63113D02*
X62767D01*
Y23855D01*
X62821Y23862D01*
X62918Y23903D01*
X63002Y23967D01*
X63066Y24050D01*
X63106Y24148D01*
X63113Y24202D01*
D02*
G37*
G36*
X32419Y24176D02*
X32337Y24165D01*
X32260Y24133D01*
X32195Y24083D01*
X32144Y24017D01*
X32112Y23940D01*
X32102Y23858D01*
X32112Y23776D01*
X32144Y23699D01*
X32195Y23634D01*
X32260Y23583D01*
X32337Y23551D01*
X32419Y23541D01*
X32502Y23551D01*
X32578Y23583D01*
X32644Y23634D01*
X32694Y23699D01*
X32726Y23776D01*
X32737Y23858D01*
X32726Y23940D01*
X32694Y24017D01*
X32644Y24083D01*
X32578Y24133D01*
X32502Y24165D01*
X32419Y24176D01*
D02*
G37*
G36*
X62717Y23674D02*
X62607Y23659D01*
X62506Y23617D01*
X62418Y23550D01*
X62351Y23463D01*
X62309Y23361D01*
X62295Y23252D01*
X62309Y23143D01*
X62351Y23041D01*
X62418Y22954D01*
X62506Y22887D01*
X62607Y22845D01*
X62717Y22830D01*
X62826Y22845D01*
X62927Y22887D01*
X63015Y22954D01*
X63082Y23041D01*
X63124Y23143D01*
X63138Y23252D01*
X63124Y23361D01*
X63082Y23463D01*
X63015Y23550D01*
X62927Y23617D01*
X62826Y23659D01*
X62717Y23674D01*
D02*
G37*
G36*
X51417Y20987D02*
X51335Y20976D01*
X51258Y20944D01*
X51193Y20894D01*
X51142Y20828D01*
X51110Y20752D01*
X51100Y20669D01*
X51110Y20587D01*
X51142Y20510D01*
X51193Y20445D01*
X51258Y20394D01*
X51335Y20362D01*
X51417Y20352D01*
X51500Y20362D01*
X51576Y20394D01*
X51642Y20445D01*
X51692Y20510D01*
X51724Y20587D01*
X51735Y20669D01*
X51724Y20752D01*
X51692Y20828D01*
X51642Y20894D01*
X51576Y20944D01*
X51500Y20976D01*
X51417Y20987D01*
D02*
G37*
G36*
X5408Y21146D02*
X5285Y21130D01*
X5170Y21082D01*
X5072Y21006D01*
X4996Y20908D01*
X4948Y20793D01*
X4932Y20669D01*
X4948Y20546D01*
X4996Y20431D01*
X5072Y20332D01*
X5170Y20257D01*
X5285Y20209D01*
X5408Y20193D01*
X5532Y20209D01*
X5647Y20257D01*
X5745Y20332D01*
X5821Y20431D01*
X5869Y20546D01*
X5885Y20669D01*
X5869Y20793D01*
X5821Y20908D01*
X5745Y21006D01*
X5647Y21082D01*
X5532Y21130D01*
X5408Y21146D01*
D02*
G37*
G36*
X4410D02*
X4286Y21130D01*
X4171Y21082D01*
X4073Y21006D01*
X3997Y20908D01*
X3949Y20793D01*
X3933Y20669D01*
X3949Y20546D01*
X3997Y20431D01*
X4073Y20332D01*
X4171Y20257D01*
X4286Y20209D01*
X4410Y20193D01*
X4533Y20209D01*
X4648Y20257D01*
X4747Y20332D01*
X4822Y20431D01*
X4870Y20546D01*
X4886Y20669D01*
X4870Y20793D01*
X4822Y20908D01*
X4747Y21006D01*
X4648Y21082D01*
X4533Y21130D01*
X4410Y21146D01*
D02*
G37*
G36*
X53402Y21376D02*
X53261Y21362D01*
X53125Y21321D01*
X53000Y21254D01*
X52891Y21164D01*
X52801Y21055D01*
X52735Y20930D01*
X52693Y20794D01*
X52680Y20654D01*
X52693Y20513D01*
X52735Y20377D01*
X52801Y20252D01*
X52891Y20143D01*
X53000Y20053D01*
X53125Y19987D01*
X53261Y19945D01*
X53402Y19932D01*
X53542Y19945D01*
X53678Y19987D01*
X53803Y20053D01*
X53912Y20143D01*
X54002Y20252D01*
X54069Y20377D01*
X54110Y20513D01*
X54124Y20654D01*
X54110Y20794D01*
X54069Y20930D01*
X54002Y21055D01*
X53912Y21164D01*
X53803Y21254D01*
X53678Y21321D01*
X53542Y21362D01*
X53402Y21376D01*
D02*
G37*
G36*
X70079Y20239D02*
X69997Y20228D01*
X69920Y20196D01*
X69854Y20146D01*
X69804Y20080D01*
X69772Y20003D01*
X69761Y19921D01*
X69772Y19839D01*
X69804Y19762D01*
X69854Y19697D01*
X69920Y19646D01*
X69997Y19614D01*
X70079Y19604D01*
X70161Y19614D01*
X70238Y19646D01*
X70303Y19697D01*
X70354Y19762D01*
X70386Y19839D01*
X70396Y19921D01*
X70386Y20003D01*
X70354Y20080D01*
X70303Y20146D01*
X70238Y20196D01*
X70161Y20228D01*
X70079Y20239D01*
D02*
G37*
G36*
X5394Y20162D02*
X5271Y20145D01*
X5156Y20098D01*
X5057Y20022D01*
X4981Y19923D01*
X4934Y19808D01*
X4917Y19685D01*
X4934Y19562D01*
X4981Y19447D01*
X5057Y19348D01*
X5156Y19272D01*
X5271Y19225D01*
X5394Y19209D01*
X5517Y19225D01*
X5632Y19272D01*
X5731Y19348D01*
X5807Y19447D01*
X5854Y19562D01*
X5870Y19685D01*
X5854Y19808D01*
X5807Y19923D01*
X5731Y20022D01*
X5632Y20098D01*
X5517Y20145D01*
X5394Y20162D01*
D02*
G37*
G36*
X4410D02*
X4286Y20145D01*
X4171Y20098D01*
X4073Y20022D01*
X3997Y19923D01*
X3949Y19808D01*
X3933Y19685D01*
X3949Y19562D01*
X3997Y19447D01*
X4073Y19348D01*
X4171Y19272D01*
X4286Y19225D01*
X4410Y19209D01*
X4533Y19225D01*
X4648Y19272D01*
X4747Y19348D01*
X4822Y19447D01*
X4870Y19562D01*
X4886Y19685D01*
X4870Y19808D01*
X4822Y19923D01*
X4747Y20022D01*
X4648Y20098D01*
X4533Y20145D01*
X4410Y20162D01*
D02*
G37*
G36*
X72992Y19137D02*
X72910Y19126D01*
X72833Y19094D01*
X72767Y19044D01*
X72717Y18978D01*
X72685Y18901D01*
X72674Y18819D01*
X72685Y18737D01*
X72717Y18660D01*
X72767Y18594D01*
X72833Y18544D01*
X72910Y18512D01*
X72992Y18501D01*
X73074Y18512D01*
X73151Y18544D01*
X73217Y18594D01*
X73267Y18660D01*
X73299Y18737D01*
X73310Y18819D01*
X73299Y18901D01*
X73267Y18978D01*
X73217Y19044D01*
X73151Y19094D01*
X73074Y19126D01*
X72992Y19137D01*
D02*
G37*
G36*
X5394Y19177D02*
X5271Y19161D01*
X5156Y19113D01*
X5057Y19038D01*
X4981Y18939D01*
X4934Y18824D01*
X4917Y18701D01*
X4934Y18577D01*
X4981Y18463D01*
X5057Y18364D01*
X5156Y18288D01*
X5271Y18241D01*
X5394Y18224D01*
X5517Y18241D01*
X5632Y18288D01*
X5731Y18364D01*
X5807Y18463D01*
X5854Y18577D01*
X5870Y18701D01*
X5854Y18824D01*
X5807Y18939D01*
X5731Y19038D01*
X5632Y19113D01*
X5517Y19161D01*
X5394Y19177D01*
D02*
G37*
G36*
X4410D02*
X4286Y19161D01*
X4171Y19113D01*
X4073Y19038D01*
X3997Y18939D01*
X3949Y18824D01*
X3933Y18701D01*
X3949Y18577D01*
X3997Y18463D01*
X4073Y18364D01*
X4171Y18288D01*
X4286Y18241D01*
X4410Y18224D01*
X4533Y18241D01*
X4648Y18288D01*
X4747Y18364D01*
X4822Y18463D01*
X4870Y18577D01*
X4886Y18701D01*
X4870Y18824D01*
X4822Y18939D01*
X4747Y19038D01*
X4648Y19113D01*
X4533Y19161D01*
X4410Y19177D01*
D02*
G37*
G36*
X4460Y18168D02*
Y17767D01*
X4861D01*
X4852Y17835D01*
X4807Y17946D01*
X4734Y18041D01*
X4639Y18113D01*
X4528Y18159D01*
X4460Y18168D01*
D02*
G37*
G36*
X4360Y18168D02*
X4291Y18159D01*
X4181Y18113D01*
X4086Y18041D01*
X4013Y17946D01*
X3967Y17835D01*
X3958Y17767D01*
X4360D01*
Y18168D01*
D02*
G37*
G36*
X4861Y17667D02*
X4460D01*
Y17265D01*
X4528Y17274D01*
X4639Y17320D01*
X4734Y17392D01*
X4807Y17487D01*
X4852Y17598D01*
X4861Y17667D01*
D02*
G37*
G36*
X4360D02*
X3958D01*
X3967Y17598D01*
X4013Y17487D01*
X4086Y17392D01*
X4181Y17320D01*
X4291Y17274D01*
X4360Y17265D01*
Y17667D01*
D02*
G37*
G36*
X5866Y18189D02*
X4921D01*
Y17244D01*
X5866D01*
Y18189D01*
D02*
G37*
G36*
X34402Y16184D02*
X34319Y16173D01*
X34243Y16141D01*
X34177Y16091D01*
X34126Y16025D01*
X34095Y15948D01*
X34084Y15866D01*
X34095Y15784D01*
X34126Y15707D01*
X34177Y15642D01*
X34243Y15591D01*
X34319Y15559D01*
X34402Y15548D01*
X34484Y15559D01*
X34560Y15591D01*
X34626Y15642D01*
X34677Y15707D01*
X34708Y15784D01*
X34719Y15866D01*
X34708Y15948D01*
X34677Y16025D01*
X34626Y16091D01*
X34560Y16141D01*
X34484Y16173D01*
X34402Y16184D01*
D02*
G37*
G36*
X63593Y16657D02*
Y16310D01*
X63940D01*
X63933Y16364D01*
X63893Y16462D01*
X63829Y16545D01*
X63745Y16609D01*
X63648Y16650D01*
X63593Y16657D01*
D02*
G37*
G36*
X63493Y16657D02*
X63439Y16650D01*
X63342Y16609D01*
X63258Y16545D01*
X63194Y16462D01*
X63154Y16364D01*
X63146Y16310D01*
X63493D01*
Y16657D01*
D02*
G37*
G36*
X63940Y16210D02*
X63593D01*
Y15863D01*
X63648Y15870D01*
X63745Y15910D01*
X63829Y15975D01*
X63893Y16058D01*
X63933Y16155D01*
X63940Y16210D01*
D02*
G37*
G36*
X63493D02*
X63146D01*
X63154Y16155D01*
X63194Y16058D01*
X63258Y15975D01*
X63342Y15910D01*
X63439Y15870D01*
X63493Y15863D01*
Y16210D01*
D02*
G37*
G36*
X66979Y14176D02*
Y13830D01*
X67326D01*
X67319Y13884D01*
X67279Y13981D01*
X67214Y14065D01*
X67131Y14129D01*
X67034Y14169D01*
X66979Y14176D01*
D02*
G37*
G36*
X66879Y14176D02*
X66825Y14169D01*
X66727Y14129D01*
X66644Y14065D01*
X66580Y13981D01*
X66539Y13884D01*
X66532Y13830D01*
X66879D01*
Y14176D01*
D02*
G37*
G36*
X67326Y13730D02*
X66979D01*
Y13383D01*
X67034Y13390D01*
X67131Y13430D01*
X67214Y13494D01*
X67279Y13578D01*
X67319Y13675D01*
X67326Y13730D01*
D02*
G37*
G36*
X66879D02*
X66532D01*
X66539Y13675D01*
X66580Y13578D01*
X66644Y13494D01*
X66727Y13430D01*
X66825Y13390D01*
X66879Y13383D01*
Y13730D01*
D02*
G37*
G36*
X66929Y13201D02*
X66820Y13187D01*
X66718Y13145D01*
X66631Y13078D01*
X66564Y12990D01*
X66522Y12889D01*
X66507Y12780D01*
X66522Y12670D01*
X66564Y12569D01*
X66631Y12481D01*
X66718Y12414D01*
X66820Y12372D01*
X66929Y12358D01*
X67038Y12372D01*
X67140Y12414D01*
X67227Y12481D01*
X67294Y12569D01*
X67336Y12670D01*
X67351Y12780D01*
X67336Y12889D01*
X67294Y12990D01*
X67227Y13078D01*
X67140Y13145D01*
X67038Y13187D01*
X66929Y13201D01*
D02*
G37*
G36*
X5408Y11402D02*
X5285Y11385D01*
X5170Y11338D01*
X5072Y11262D01*
X4996Y11163D01*
X4948Y11049D01*
X4932Y10925D01*
X4948Y10802D01*
X4996Y10687D01*
X5072Y10588D01*
X5170Y10513D01*
X5285Y10465D01*
X5408Y10449D01*
X5532Y10465D01*
X5647Y10513D01*
X5745Y10588D01*
X5821Y10687D01*
X5869Y10802D01*
X5885Y10925D01*
X5869Y11049D01*
X5821Y11163D01*
X5745Y11262D01*
X5647Y11338D01*
X5532Y11385D01*
X5408Y11402D01*
D02*
G37*
G36*
X4410D02*
X4286Y11385D01*
X4171Y11338D01*
X4073Y11262D01*
X3997Y11163D01*
X3949Y11049D01*
X3933Y10925D01*
X3949Y10802D01*
X3997Y10687D01*
X4073Y10588D01*
X4171Y10513D01*
X4286Y10465D01*
X4410Y10449D01*
X4533Y10465D01*
X4648Y10513D01*
X4747Y10588D01*
X4822Y10687D01*
X4870Y10802D01*
X4886Y10925D01*
X4870Y11049D01*
X4822Y11163D01*
X4747Y11262D01*
X4648Y11338D01*
X4533Y11385D01*
X4410Y11402D01*
D02*
G37*
G36*
X5394Y10417D02*
X5271Y10401D01*
X5156Y10354D01*
X5057Y10278D01*
X4981Y10179D01*
X4934Y10064D01*
X4917Y9941D01*
X4934Y9818D01*
X4981Y9703D01*
X5057Y9604D01*
X5156Y9528D01*
X5271Y9481D01*
X5394Y9464D01*
X5517Y9481D01*
X5632Y9528D01*
X5731Y9604D01*
X5807Y9703D01*
X5854Y9818D01*
X5870Y9941D01*
X5854Y10064D01*
X5807Y10179D01*
X5731Y10278D01*
X5632Y10354D01*
X5517Y10401D01*
X5394Y10417D01*
D02*
G37*
G36*
X4410D02*
X4286Y10401D01*
X4171Y10354D01*
X4073Y10278D01*
X3997Y10179D01*
X3949Y10064D01*
X3933Y9941D01*
X3949Y9818D01*
X3997Y9703D01*
X4073Y9604D01*
X4171Y9528D01*
X4286Y9481D01*
X4410Y9464D01*
X4533Y9481D01*
X4648Y9528D01*
X4747Y9604D01*
X4822Y9703D01*
X4870Y9818D01*
X4886Y9941D01*
X4870Y10064D01*
X4822Y10179D01*
X4747Y10278D01*
X4648Y10354D01*
X4533Y10401D01*
X4410Y10417D01*
D02*
G37*
G36*
X5394Y9433D02*
X5271Y9417D01*
X5156Y9369D01*
X5057Y9294D01*
X4981Y9195D01*
X4934Y9080D01*
X4917Y8957D01*
X4934Y8833D01*
X4981Y8718D01*
X5057Y8620D01*
X5156Y8544D01*
X5271Y8496D01*
X5394Y8480D01*
X5517Y8496D01*
X5632Y8544D01*
X5731Y8620D01*
X5807Y8718D01*
X5854Y8833D01*
X5870Y8957D01*
X5854Y9080D01*
X5807Y9195D01*
X5731Y9294D01*
X5632Y9369D01*
X5517Y9417D01*
X5394Y9433D01*
D02*
G37*
G36*
X4410D02*
X4286Y9417D01*
X4171Y9369D01*
X4073Y9294D01*
X3997Y9195D01*
X3949Y9080D01*
X3933Y8957D01*
X3949Y8833D01*
X3997Y8718D01*
X4073Y8620D01*
X4171Y8544D01*
X4286Y8496D01*
X4410Y8480D01*
X4533Y8496D01*
X4648Y8544D01*
X4747Y8620D01*
X4822Y8718D01*
X4870Y8833D01*
X4886Y8957D01*
X4870Y9080D01*
X4822Y9195D01*
X4747Y9294D01*
X4648Y9369D01*
X4533Y9417D01*
X4410Y9433D01*
D02*
G37*
G36*
X73012Y8529D02*
X72930Y8518D01*
X72853Y8487D01*
X72787Y8436D01*
X72737Y8370D01*
X72705Y8294D01*
X72694Y8211D01*
X72705Y8129D01*
X72737Y8053D01*
X72787Y7987D01*
X72853Y7936D01*
X72930Y7905D01*
X73012Y7894D01*
X73094Y7905D01*
X73171Y7936D01*
X73236Y7987D01*
X73287Y8053D01*
X73319Y8129D01*
X73329Y8211D01*
X73319Y8294D01*
X73287Y8370D01*
X73236Y8436D01*
X73171Y8487D01*
X73094Y8518D01*
X73012Y8529D01*
D02*
G37*
G36*
X5866Y8445D02*
X4921D01*
Y7500D01*
X5866D01*
Y8445D01*
D02*
G37*
G36*
X4410Y8449D02*
X4286Y8433D01*
X4171Y8385D01*
X4073Y8309D01*
X3997Y8211D01*
X3949Y8096D01*
X3933Y7972D01*
X3949Y7849D01*
X3997Y7734D01*
X4073Y7635D01*
X4171Y7560D01*
X4286Y7512D01*
X4410Y7496D01*
X4533Y7512D01*
X4648Y7560D01*
X4747Y7635D01*
X4822Y7734D01*
X4870Y7849D01*
X4886Y7972D01*
X4870Y8096D01*
X4822Y8211D01*
X4747Y8309D01*
X4648Y8385D01*
X4533Y8433D01*
X4410Y8449D01*
D02*
G37*
G36*
X32902Y8376D02*
X32761Y8362D01*
X32625Y8321D01*
X32500Y8254D01*
X32391Y8164D01*
X32301Y8055D01*
X32235Y7930D01*
X32193Y7794D01*
X32180Y7654D01*
X32193Y7513D01*
X32235Y7377D01*
X32301Y7252D01*
X32391Y7143D01*
X32500Y7053D01*
X32625Y6987D01*
X32761Y6945D01*
X32902Y6932D01*
X33042Y6945D01*
X33178Y6987D01*
X33303Y7053D01*
X33412Y7143D01*
X33502Y7252D01*
X33569Y7377D01*
X33610Y7513D01*
X33624Y7654D01*
X33610Y7794D01*
X33569Y7930D01*
X33502Y8055D01*
X33412Y8164D01*
X33303Y8254D01*
X33178Y8321D01*
X33042Y8362D01*
X32902Y8376D01*
D02*
G37*
G36*
X67441Y9766D02*
X67441Y9766D01*
X43543Y9766D01*
X43497Y9757D01*
X43482Y9746D01*
X43458Y9731D01*
X43458Y9731D01*
X41844Y8117D01*
X41818Y8078D01*
X41809Y8031D01*
X41809Y8031D01*
X41809Y5740D01*
X41806Y5762D01*
X41764Y5863D01*
X41698Y5950D01*
X41611Y6016D01*
X41510Y6058D01*
X41402Y6072D01*
X41293Y6058D01*
X41192Y6016D01*
X41106Y5950D01*
X41039Y5863D01*
X40997Y5762D01*
X40983Y5654D01*
X40997Y5545D01*
X41039Y5444D01*
X41106Y5358D01*
X41192Y5291D01*
X41293Y5249D01*
X41402Y5235D01*
X41510Y5249D01*
X41611Y5291D01*
X41698Y5358D01*
X41764Y5444D01*
X41806Y5545D01*
X41809Y5567D01*
Y5354D01*
X41818Y5308D01*
X41828Y5293D01*
X41844Y5269D01*
X41844Y5269D01*
X42001Y5112D01*
X42041Y5086D01*
X42087Y5076D01*
X42087Y5076D01*
X42677D01*
X42677Y5076D01*
X42723Y5086D01*
X42762Y5112D01*
X42959Y5309D01*
X42985Y5348D01*
X42994Y5394D01*
X42994Y5394D01*
Y5567D01*
X42997Y5545D01*
X43039Y5444D01*
X43106Y5358D01*
X43192Y5291D01*
X43293Y5249D01*
X43402Y5235D01*
X43510Y5249D01*
X43611Y5291D01*
X43698Y5358D01*
X43764Y5444D01*
X43806Y5545D01*
X43820Y5654D01*
X43806Y5762D01*
X43764Y5863D01*
X43698Y5950D01*
X43611Y6016D01*
X43510Y6058D01*
X43402Y6072D01*
X43293Y6058D01*
X43192Y6016D01*
X43106Y5950D01*
X43039Y5863D01*
X42997Y5762D01*
X42994Y5740D01*
Y6997D01*
X44262Y8265D01*
X45757D01*
X44757Y7266D01*
X44757Y7266D01*
X44740Y7240D01*
X44731Y7227D01*
X44722Y7181D01*
X44722Y7181D01*
X44722Y5917D01*
X44698Y5950D01*
X44611Y6016D01*
X44510Y6058D01*
X44402Y6072D01*
X44293Y6058D01*
X44192Y6016D01*
X44106Y5950D01*
X44039Y5863D01*
X43997Y5762D01*
X43983Y5654D01*
X43997Y5545D01*
X44039Y5444D01*
X44106Y5358D01*
X44192Y5291D01*
X44293Y5249D01*
X44402Y5235D01*
X44510Y5249D01*
X44611Y5291D01*
X44698Y5358D01*
X44723Y5390D01*
X44731Y5348D01*
X44731Y5348D01*
Y5348D01*
X44757Y5309D01*
X44757Y5309D01*
X45033Y5033D01*
X45033D01*
Y5033D01*
X45052Y5020D01*
X45072Y5007D01*
X45072D01*
X45072Y5007D01*
X45086Y5004D01*
X45118Y4998D01*
X45118Y4998D01*
X45168D01*
X45106Y4949D01*
X45039Y4863D01*
X44997Y4762D01*
X44983Y4654D01*
X44997Y4545D01*
X45039Y4444D01*
X45106Y4358D01*
X45192Y4291D01*
X45293Y4249D01*
X45402Y4235D01*
X45510Y4249D01*
X45611Y4291D01*
X45698Y4358D01*
X45764Y4444D01*
X45806Y4545D01*
X45820Y4654D01*
X45806Y4762D01*
X45764Y4863D01*
X45698Y4949D01*
X45635Y4998D01*
X45748D01*
D01*
X45748D01*
X45794Y5007D01*
X45810Y5017D01*
X45833Y5033D01*
X45833Y5033D01*
X46069Y5269D01*
X46069Y5269D01*
X46096Y5308D01*
X46105Y5354D01*
X46105Y5354D01*
Y5359D01*
X46106Y5358D01*
X46192Y5291D01*
X46293Y5249D01*
X46402Y5235D01*
X46510Y5249D01*
X46611Y5291D01*
X46698Y5358D01*
X46764Y5444D01*
X46806Y5545D01*
X46820Y5654D01*
X46806Y5762D01*
X46764Y5863D01*
X46698Y5950D01*
X46611Y6016D01*
X46510Y6058D01*
X46402Y6072D01*
X46293Y6058D01*
X46192Y6016D01*
X46106Y5950D01*
X46105Y5948D01*
Y6052D01*
X46546Y6494D01*
X59331D01*
X59377Y6503D01*
X59416Y6529D01*
X59731Y6844D01*
X59757Y6883D01*
X59766Y6929D01*
X59766Y6929D01*
Y7992D01*
X59766Y7992D01*
X59757Y8038D01*
X59731Y8077D01*
X59731Y8077D01*
X59543Y8265D01*
X67480D01*
X67526Y8275D01*
X67542Y8285D01*
X67565Y8301D01*
X67565Y8301D01*
X67762Y8498D01*
X67788Y8537D01*
X67798Y8583D01*
X67798Y8583D01*
X67798Y9409D01*
X67798Y9409D01*
X67788Y9456D01*
X67762Y9495D01*
X67526Y9731D01*
X67526Y9731D01*
X67487Y9757D01*
X67441Y9766D01*
D02*
G37*
G36*
X52402Y6072D02*
X52293Y6058D01*
X52192Y6016D01*
X52106Y5950D01*
X52039Y5863D01*
X51997Y5762D01*
X51983Y5654D01*
X51997Y5545D01*
X52039Y5444D01*
X52106Y5358D01*
X52192Y5291D01*
X52293Y5249D01*
X52402Y5235D01*
X52510Y5249D01*
X52611Y5291D01*
X52698Y5358D01*
X52764Y5444D01*
X52806Y5545D01*
X52820Y5654D01*
X52806Y5762D01*
X52764Y5863D01*
X52698Y5950D01*
X52611Y6016D01*
X52510Y6058D01*
X52402Y6072D01*
D02*
G37*
G36*
X51402D02*
X51293Y6058D01*
X51192Y6016D01*
X51106Y5950D01*
X51039Y5863D01*
X50997Y5762D01*
X50983Y5654D01*
X50997Y5545D01*
X51039Y5444D01*
X51106Y5358D01*
X51192Y5291D01*
X51293Y5249D01*
X51402Y5235D01*
X51510Y5249D01*
X51611Y5291D01*
X51698Y5358D01*
X51764Y5444D01*
X51806Y5545D01*
X51820Y5654D01*
X51806Y5762D01*
X51764Y5863D01*
X51698Y5950D01*
X51611Y6016D01*
X51510Y6058D01*
X51402Y6072D01*
D02*
G37*
G36*
X50402D02*
X50293Y6058D01*
X50192Y6016D01*
X50106Y5950D01*
X50039Y5863D01*
X49997Y5762D01*
X49983Y5654D01*
X49997Y5545D01*
X50039Y5444D01*
X50106Y5358D01*
X50192Y5291D01*
X50293Y5249D01*
X50402Y5235D01*
X50510Y5249D01*
X50611Y5291D01*
X50698Y5358D01*
X50764Y5444D01*
X50806Y5545D01*
X50820Y5654D01*
X50806Y5762D01*
X50764Y5863D01*
X50698Y5950D01*
X50611Y6016D01*
X50510Y6058D01*
X50402Y6072D01*
D02*
G37*
G36*
X49402D02*
X49293Y6058D01*
X49192Y6016D01*
X49106Y5950D01*
X49039Y5863D01*
X48997Y5762D01*
X48983Y5654D01*
X48997Y5545D01*
X49039Y5444D01*
X49106Y5358D01*
X49192Y5291D01*
X49293Y5249D01*
X49402Y5235D01*
X49510Y5249D01*
X49611Y5291D01*
X49698Y5358D01*
X49764Y5444D01*
X49806Y5545D01*
X49820Y5654D01*
X49806Y5762D01*
X49764Y5863D01*
X49698Y5950D01*
X49611Y6016D01*
X49510Y6058D01*
X49402Y6072D01*
D02*
G37*
G36*
X48402D02*
X48293Y6058D01*
X48192Y6016D01*
X48106Y5950D01*
X48039Y5863D01*
X47997Y5762D01*
X47983Y5654D01*
X47997Y5545D01*
X48039Y5444D01*
X48106Y5358D01*
X48192Y5291D01*
X48293Y5249D01*
X48402Y5235D01*
X48510Y5249D01*
X48611Y5291D01*
X48698Y5358D01*
X48764Y5444D01*
X48806Y5545D01*
X48820Y5654D01*
X48806Y5762D01*
X48764Y5863D01*
X48698Y5950D01*
X48611Y6016D01*
X48510Y6058D01*
X48402Y6072D01*
D02*
G37*
G36*
X47402D02*
X47293Y6058D01*
X47192Y6016D01*
X47106Y5950D01*
X47039Y5863D01*
X46997Y5762D01*
X46983Y5654D01*
X46997Y5545D01*
X47039Y5444D01*
X47106Y5358D01*
X47192Y5291D01*
X47293Y5249D01*
X47402Y5235D01*
X47510Y5249D01*
X47611Y5291D01*
X47698Y5358D01*
X47764Y5444D01*
X47806Y5545D01*
X47820Y5654D01*
X47806Y5762D01*
X47764Y5863D01*
X47698Y5950D01*
X47611Y6016D01*
X47510Y6058D01*
X47402Y6072D01*
D02*
G37*
G36*
X40402D02*
X40293Y6058D01*
X40192Y6016D01*
X40106Y5950D01*
X40039Y5863D01*
X39997Y5762D01*
X39983Y5654D01*
X39997Y5545D01*
X40039Y5444D01*
X40106Y5358D01*
X40192Y5291D01*
X40293Y5249D01*
X40402Y5235D01*
X40510Y5249D01*
X40611Y5291D01*
X40698Y5358D01*
X40764Y5444D01*
X40806Y5545D01*
X40820Y5654D01*
X40806Y5762D01*
X40764Y5863D01*
X40698Y5950D01*
X40611Y6016D01*
X40510Y6058D01*
X40402Y6072D01*
D02*
G37*
G36*
X39402D02*
X39293Y6058D01*
X39192Y6016D01*
X39106Y5950D01*
X39039Y5863D01*
X38997Y5762D01*
X38983Y5654D01*
X38997Y5545D01*
X39039Y5444D01*
X39106Y5358D01*
X39192Y5291D01*
X39293Y5249D01*
X39402Y5235D01*
X39510Y5249D01*
X39611Y5291D01*
X39698Y5358D01*
X39764Y5444D01*
X39806Y5545D01*
X39820Y5654D01*
X39806Y5762D01*
X39764Y5863D01*
X39698Y5950D01*
X39611Y6016D01*
X39510Y6058D01*
X39402Y6072D01*
D02*
G37*
G36*
X38402D02*
X38293Y6058D01*
X38192Y6016D01*
X38106Y5950D01*
X38039Y5863D01*
X37997Y5762D01*
X37983Y5654D01*
X37997Y5545D01*
X38039Y5444D01*
X38106Y5358D01*
X38192Y5291D01*
X38293Y5249D01*
X38402Y5235D01*
X38510Y5249D01*
X38611Y5291D01*
X38698Y5358D01*
X38764Y5444D01*
X38806Y5545D01*
X38820Y5654D01*
X38806Y5762D01*
X38764Y5863D01*
X38698Y5950D01*
X38611Y6016D01*
X38510Y6058D01*
X38402Y6072D01*
D02*
G37*
G36*
X37402D02*
X37293Y6058D01*
X37192Y6016D01*
X37106Y5950D01*
X37039Y5863D01*
X36997Y5762D01*
X36983Y5654D01*
X36997Y5545D01*
X37039Y5444D01*
X37106Y5358D01*
X37192Y5291D01*
X37293Y5249D01*
X37402Y5235D01*
X37510Y5249D01*
X37611Y5291D01*
X37698Y5358D01*
X37764Y5444D01*
X37806Y5545D01*
X37820Y5654D01*
X37806Y5762D01*
X37764Y5863D01*
X37698Y5950D01*
X37611Y6016D01*
X37510Y6058D01*
X37402Y6072D01*
D02*
G37*
G36*
X36402D02*
X36293Y6058D01*
X36192Y6016D01*
X36106Y5950D01*
X36039Y5863D01*
X35997Y5762D01*
X35983Y5654D01*
X35997Y5545D01*
X36039Y5444D01*
X36106Y5358D01*
X36192Y5291D01*
X36293Y5249D01*
X36402Y5235D01*
X36510Y5249D01*
X36611Y5291D01*
X36698Y5358D01*
X36764Y5444D01*
X36806Y5545D01*
X36820Y5654D01*
X36806Y5762D01*
X36764Y5863D01*
X36698Y5950D01*
X36611Y6016D01*
X36510Y6058D01*
X36402Y6072D01*
D02*
G37*
G36*
X35402D02*
X35293Y6058D01*
X35192Y6016D01*
X35106Y5950D01*
X35039Y5863D01*
X34997Y5762D01*
X34983Y5654D01*
X34997Y5545D01*
X35039Y5444D01*
X35106Y5358D01*
X35192Y5291D01*
X35293Y5249D01*
X35402Y5235D01*
X35510Y5249D01*
X35611Y5291D01*
X35698Y5358D01*
X35764Y5444D01*
X35806Y5545D01*
X35820Y5654D01*
X35806Y5762D01*
X35764Y5863D01*
X35698Y5950D01*
X35611Y6016D01*
X35510Y6058D01*
X35402Y6072D01*
D02*
G37*
G36*
X34402D02*
X34293Y6058D01*
X34192Y6016D01*
X34106Y5950D01*
X34039Y5863D01*
X33997Y5762D01*
X33983Y5654D01*
X33997Y5545D01*
X34039Y5444D01*
X34106Y5358D01*
X34192Y5291D01*
X34293Y5249D01*
X34402Y5235D01*
X34510Y5249D01*
X34611Y5291D01*
X34698Y5358D01*
X34764Y5444D01*
X34806Y5545D01*
X34820Y5654D01*
X34806Y5762D01*
X34764Y5863D01*
X34698Y5950D01*
X34611Y6016D01*
X34510Y6058D01*
X34402Y6072D01*
D02*
G37*
G36*
X34817Y5069D02*
X33987D01*
Y4239D01*
X34817D01*
Y5069D01*
D02*
G37*
G36*
X52402Y5072D02*
X52293Y5058D01*
X52192Y5016D01*
X52106Y4949D01*
X52039Y4863D01*
X51997Y4762D01*
X51983Y4654D01*
X51997Y4545D01*
X52039Y4444D01*
X52106Y4358D01*
X52192Y4291D01*
X52293Y4249D01*
X52402Y4235D01*
X52510Y4249D01*
X52611Y4291D01*
X52698Y4358D01*
X52764Y4444D01*
X52806Y4545D01*
X52820Y4654D01*
X52806Y4762D01*
X52764Y4863D01*
X52698Y4949D01*
X52611Y5016D01*
X52510Y5058D01*
X52402Y5072D01*
D02*
G37*
G36*
X51402D02*
X51293Y5058D01*
X51192Y5016D01*
X51106Y4949D01*
X51039Y4863D01*
X50997Y4762D01*
X50983Y4654D01*
X50997Y4545D01*
X51039Y4444D01*
X51106Y4358D01*
X51192Y4291D01*
X51293Y4249D01*
X51402Y4235D01*
X51510Y4249D01*
X51611Y4291D01*
X51698Y4358D01*
X51764Y4444D01*
X51806Y4545D01*
X51820Y4654D01*
X51806Y4762D01*
X51764Y4863D01*
X51698Y4949D01*
X51611Y5016D01*
X51510Y5058D01*
X51402Y5072D01*
D02*
G37*
G36*
X50402D02*
X50293Y5058D01*
X50192Y5016D01*
X50106Y4949D01*
X50039Y4863D01*
X49997Y4762D01*
X49983Y4654D01*
X49997Y4545D01*
X50039Y4444D01*
X50106Y4358D01*
X50192Y4291D01*
X50293Y4249D01*
X50402Y4235D01*
X50510Y4249D01*
X50611Y4291D01*
X50698Y4358D01*
X50764Y4444D01*
X50806Y4545D01*
X50820Y4654D01*
X50806Y4762D01*
X50764Y4863D01*
X50698Y4949D01*
X50611Y5016D01*
X50510Y5058D01*
X50402Y5072D01*
D02*
G37*
G36*
X49402D02*
X49293Y5058D01*
X49192Y5016D01*
X49106Y4949D01*
X49039Y4863D01*
X48997Y4762D01*
X48983Y4654D01*
X48997Y4545D01*
X49039Y4444D01*
X49106Y4358D01*
X49192Y4291D01*
X49293Y4249D01*
X49402Y4235D01*
X49510Y4249D01*
X49611Y4291D01*
X49698Y4358D01*
X49764Y4444D01*
X49806Y4545D01*
X49820Y4654D01*
X49806Y4762D01*
X49764Y4863D01*
X49698Y4949D01*
X49611Y5016D01*
X49510Y5058D01*
X49402Y5072D01*
D02*
G37*
G36*
X48402D02*
X48293Y5058D01*
X48192Y5016D01*
X48106Y4949D01*
X48039Y4863D01*
X47997Y4762D01*
X47983Y4654D01*
X47997Y4545D01*
X48039Y4444D01*
X48106Y4358D01*
X48192Y4291D01*
X48293Y4249D01*
X48402Y4235D01*
X48510Y4249D01*
X48611Y4291D01*
X48698Y4358D01*
X48764Y4444D01*
X48806Y4545D01*
X48820Y4654D01*
X48806Y4762D01*
X48764Y4863D01*
X48698Y4949D01*
X48611Y5016D01*
X48510Y5058D01*
X48402Y5072D01*
D02*
G37*
G36*
X47402D02*
X47293Y5058D01*
X47192Y5016D01*
X47106Y4949D01*
X47039Y4863D01*
X46997Y4762D01*
X46983Y4654D01*
X46997Y4545D01*
X47039Y4444D01*
X47106Y4358D01*
X47192Y4291D01*
X47293Y4249D01*
X47402Y4235D01*
X47510Y4249D01*
X47611Y4291D01*
X47698Y4358D01*
X47764Y4444D01*
X47806Y4545D01*
X47820Y4654D01*
X47806Y4762D01*
X47764Y4863D01*
X47698Y4949D01*
X47611Y5016D01*
X47510Y5058D01*
X47402Y5072D01*
D02*
G37*
G36*
X46402D02*
X46293Y5058D01*
X46192Y5016D01*
X46106Y4949D01*
X46039Y4863D01*
X45997Y4762D01*
X45983Y4654D01*
X45997Y4545D01*
X46039Y4444D01*
X46106Y4358D01*
X46192Y4291D01*
X46293Y4249D01*
X46402Y4235D01*
X46510Y4249D01*
X46611Y4291D01*
X46698Y4358D01*
X46764Y4444D01*
X46806Y4545D01*
X46820Y4654D01*
X46806Y4762D01*
X46764Y4863D01*
X46698Y4949D01*
X46611Y5016D01*
X46510Y5058D01*
X46402Y5072D01*
D02*
G37*
G36*
X44402D02*
X44293Y5058D01*
X44192Y5016D01*
X44106Y4949D01*
X44039Y4863D01*
X43997Y4762D01*
X43983Y4654D01*
X43997Y4545D01*
X44039Y4444D01*
X44106Y4358D01*
X44192Y4291D01*
X44293Y4249D01*
X44402Y4235D01*
X44510Y4249D01*
X44611Y4291D01*
X44698Y4358D01*
X44764Y4444D01*
X44806Y4545D01*
X44820Y4654D01*
X44806Y4762D01*
X44764Y4863D01*
X44698Y4949D01*
X44611Y5016D01*
X44510Y5058D01*
X44402Y5072D01*
D02*
G37*
G36*
X43402D02*
X43293Y5058D01*
X43192Y5016D01*
X43106Y4949D01*
X43039Y4863D01*
X42997Y4762D01*
X42983Y4654D01*
X42997Y4545D01*
X43039Y4444D01*
X43106Y4358D01*
X43192Y4291D01*
X43293Y4249D01*
X43402Y4235D01*
X43510Y4249D01*
X43611Y4291D01*
X43698Y4358D01*
X43764Y4444D01*
X43806Y4545D01*
X43820Y4654D01*
X43806Y4762D01*
X43764Y4863D01*
X43698Y4949D01*
X43611Y5016D01*
X43510Y5058D01*
X43402Y5072D01*
D02*
G37*
G36*
X42402D02*
X42293Y5058D01*
X42192Y5016D01*
X42106Y4949D01*
X42039Y4863D01*
X41997Y4762D01*
X41983Y4654D01*
X41997Y4545D01*
X42039Y4444D01*
X42106Y4358D01*
X42192Y4291D01*
X42293Y4249D01*
X42402Y4235D01*
X42510Y4249D01*
X42611Y4291D01*
X42698Y4358D01*
X42764Y4444D01*
X42806Y4545D01*
X42820Y4654D01*
X42806Y4762D01*
X42764Y4863D01*
X42698Y4949D01*
X42611Y5016D01*
X42510Y5058D01*
X42402Y5072D01*
D02*
G37*
G36*
X41402D02*
X41293Y5058D01*
X41192Y5016D01*
X41106Y4949D01*
X41039Y4863D01*
X40997Y4762D01*
X40983Y4654D01*
X40997Y4545D01*
X41039Y4444D01*
X41106Y4358D01*
X41192Y4291D01*
X41293Y4249D01*
X41402Y4235D01*
X41510Y4249D01*
X41611Y4291D01*
X41698Y4358D01*
X41764Y4444D01*
X41806Y4545D01*
X41820Y4654D01*
X41806Y4762D01*
X41764Y4863D01*
X41698Y4949D01*
X41611Y5016D01*
X41510Y5058D01*
X41402Y5072D01*
D02*
G37*
G36*
X40402D02*
X40293Y5058D01*
X40192Y5016D01*
X40106Y4949D01*
X40039Y4863D01*
X39997Y4762D01*
X39983Y4654D01*
X39997Y4545D01*
X40039Y4444D01*
X40106Y4358D01*
X40192Y4291D01*
X40293Y4249D01*
X40402Y4235D01*
X40510Y4249D01*
X40611Y4291D01*
X40698Y4358D01*
X40764Y4444D01*
X40806Y4545D01*
X40820Y4654D01*
X40806Y4762D01*
X40764Y4863D01*
X40698Y4949D01*
X40611Y5016D01*
X40510Y5058D01*
X40402Y5072D01*
D02*
G37*
G36*
X39402D02*
X39293Y5058D01*
X39192Y5016D01*
X39106Y4949D01*
X39039Y4863D01*
X38997Y4762D01*
X38983Y4654D01*
X38997Y4545D01*
X39039Y4444D01*
X39106Y4358D01*
X39192Y4291D01*
X39293Y4249D01*
X39402Y4235D01*
X39510Y4249D01*
X39611Y4291D01*
X39698Y4358D01*
X39764Y4444D01*
X39806Y4545D01*
X39820Y4654D01*
X39806Y4762D01*
X39764Y4863D01*
X39698Y4949D01*
X39611Y5016D01*
X39510Y5058D01*
X39402Y5072D01*
D02*
G37*
G36*
X38402D02*
X38293Y5058D01*
X38192Y5016D01*
X38106Y4949D01*
X38039Y4863D01*
X37997Y4762D01*
X37983Y4654D01*
X37997Y4545D01*
X38039Y4444D01*
X38106Y4358D01*
X38192Y4291D01*
X38293Y4249D01*
X38402Y4235D01*
X38510Y4249D01*
X38611Y4291D01*
X38698Y4358D01*
X38764Y4444D01*
X38806Y4545D01*
X38820Y4654D01*
X38806Y4762D01*
X38764Y4863D01*
X38698Y4949D01*
X38611Y5016D01*
X38510Y5058D01*
X38402Y5072D01*
D02*
G37*
G36*
X37402D02*
X37293Y5058D01*
X37192Y5016D01*
X37106Y4949D01*
X37039Y4863D01*
X36997Y4762D01*
X36983Y4654D01*
X36997Y4545D01*
X37039Y4444D01*
X37106Y4358D01*
X37192Y4291D01*
X37293Y4249D01*
X37402Y4235D01*
X37510Y4249D01*
X37611Y4291D01*
X37698Y4358D01*
X37764Y4444D01*
X37806Y4545D01*
X37820Y4654D01*
X37806Y4762D01*
X37764Y4863D01*
X37698Y4949D01*
X37611Y5016D01*
X37510Y5058D01*
X37402Y5072D01*
D02*
G37*
G36*
X36402D02*
X36293Y5058D01*
X36192Y5016D01*
X36106Y4949D01*
X36039Y4863D01*
X35997Y4762D01*
X35983Y4654D01*
X35997Y4545D01*
X36039Y4444D01*
X36106Y4358D01*
X36192Y4291D01*
X36293Y4249D01*
X36402Y4235D01*
X36510Y4249D01*
X36611Y4291D01*
X36698Y4358D01*
X36764Y4444D01*
X36806Y4545D01*
X36820Y4654D01*
X36806Y4762D01*
X36764Y4863D01*
X36698Y4949D01*
X36611Y5016D01*
X36510Y5058D01*
X36402Y5072D01*
D02*
G37*
G36*
X35402D02*
X35293Y5058D01*
X35192Y5016D01*
X35106Y4949D01*
X35039Y4863D01*
X34997Y4762D01*
X34983Y4654D01*
X34997Y4545D01*
X35039Y4444D01*
X35106Y4358D01*
X35192Y4291D01*
X35293Y4249D01*
X35402Y4235D01*
X35510Y4249D01*
X35611Y4291D01*
X35698Y4358D01*
X35764Y4444D01*
X35806Y4545D01*
X35820Y4654D01*
X35806Y4762D01*
X35764Y4863D01*
X35698Y4949D01*
X35611Y5016D01*
X35510Y5058D01*
X35402Y5072D01*
D02*
G37*
G36*
X30419Y2680D02*
X30337Y2669D01*
X30260Y2637D01*
X30195Y2587D01*
X30144Y2521D01*
X30112Y2444D01*
X30102Y2362D01*
X30112Y2280D01*
X30144Y2203D01*
X30195Y2138D01*
X30260Y2087D01*
X30337Y2055D01*
X30419Y2045D01*
X30502Y2055D01*
X30578Y2087D01*
X30644Y2138D01*
X30694Y2203D01*
X30726Y2280D01*
X30737Y2362D01*
X30726Y2444D01*
X30694Y2521D01*
X30644Y2587D01*
X30578Y2637D01*
X30502Y2669D01*
X30419Y2680D01*
D02*
G37*
%LPD*%
G36*
X67677Y9409D02*
X67677Y8583D01*
X67480Y8386D01*
X59382D01*
X59370Y8388D01*
X59370Y8388D01*
X45929D01*
X45929Y8388D01*
X45918Y8386D01*
X44213D01*
X42874Y7047D01*
Y5394D01*
X42677Y5197D01*
X42087D01*
X41929Y5354D01*
X41929Y8031D01*
X43543Y9646D01*
X67441Y9646D01*
X67677Y9409D01*
D02*
G37*
G36*
X59646Y7992D02*
Y6929D01*
X59331Y6614D01*
X46496D01*
X45984Y6102D01*
X45984Y5663D01*
X45983Y5654D01*
X45984Y5644D01*
X45984Y5354D01*
X45748Y5118D01*
X45118Y5118D01*
X44843Y5394D01*
X44843Y7181D01*
X45929Y8268D01*
X59370D01*
X59646Y7992D01*
D02*
G37*
%LPC*%
G36*
X42452Y6047D02*
Y5704D01*
X42795D01*
X42788Y5757D01*
X42748Y5854D01*
X42685Y5937D01*
X42602Y6000D01*
X42505Y6040D01*
X42452Y6047D01*
D02*
G37*
G36*
X42352Y6047D02*
X42298Y6040D01*
X42201Y6000D01*
X42119Y5937D01*
X42055Y5854D01*
X42015Y5757D01*
X42008Y5704D01*
X42352D01*
Y6047D01*
D02*
G37*
G36*
Y5604D02*
X42008D01*
X42015Y5550D01*
X42055Y5453D01*
X42119Y5371D01*
X42201Y5307D01*
X42298Y5267D01*
X42352Y5260D01*
Y5604D01*
D02*
G37*
G36*
X42795D02*
X42452D01*
Y5260D01*
X42505Y5267D01*
X42602Y5307D01*
X42685Y5371D01*
X42748Y5453D01*
X42788Y5550D01*
X42795Y5604D01*
D02*
G37*
G36*
X45452Y6047D02*
Y5704D01*
X45795D01*
X45788Y5757D01*
X45748Y5854D01*
X45685Y5937D01*
X45602Y6000D01*
X45505Y6040D01*
X45452Y6047D01*
D02*
G37*
G36*
X45352Y6047D02*
X45298Y6040D01*
X45201Y6000D01*
X45119Y5937D01*
X45055Y5854D01*
X45015Y5757D01*
X45008Y5704D01*
X45352D01*
Y6047D01*
D02*
G37*
G36*
Y5604D02*
X45008D01*
X45015Y5550D01*
X45055Y5453D01*
X45119Y5371D01*
X45201Y5307D01*
X45298Y5267D01*
X45352Y5260D01*
Y5604D01*
D02*
G37*
G36*
X45795D02*
X45452D01*
Y5260D01*
X45505Y5267D01*
X45602Y5307D01*
X45685Y5371D01*
X45748Y5453D01*
X45788Y5550D01*
X45795Y5604D01*
D02*
G37*
%LPD*%
D71*
X3642Y32224D02*
Y34862D01*
D74*
X58268Y45803D02*
D03*
X66929Y13780D02*
D03*
X63543Y16260D02*
D03*
X62717Y24252D02*
D03*
D79*
X42874Y47084D02*
D03*
X43858D02*
D03*
X44843D02*
D03*
X37362Y47055D02*
D03*
X4410Y17717D02*
D03*
D83*
X42402Y5654D02*
D03*
X45402D02*
D03*
D90*
X20492Y35689D02*
D03*
X12014Y35706D02*
D03*
X3642Y32224D02*
D03*
X56102Y46772D02*
D03*
X46063Y47953D02*
D03*
X52559Y49134D02*
D03*
X48425Y47953D02*
D03*
X41929Y49134D02*
D03*
X60827D02*
D03*
X57283Y46772D02*
D03*
X56693Y47953D02*
D03*
X38976D02*
D03*
X50197Y49134D02*
D03*
X50787Y47953D02*
D03*
X54331D02*
D03*
X37795D02*
D03*
X53740Y49134D02*
D03*
X46654D02*
D03*
X49016D02*
D03*
X51968Y47953D02*
D03*
X53150D02*
D03*
X47835Y49134D02*
D03*
X54921Y46772D02*
D03*
X44882Y47953D02*
D03*
X42520D02*
D03*
X44291Y49134D02*
D03*
X56102D02*
D03*
X59646Y46772D02*
D03*
Y49134D02*
D03*
X57874Y47953D02*
D03*
X43110Y49134D02*
D03*
X59055Y47953D02*
D03*
X55512D02*
D03*
X54921Y49134D02*
D03*
X43701Y47953D02*
D03*
X40748Y49134D02*
D03*
X58465Y46772D02*
D03*
X49606Y47953D02*
D03*
X53740Y46772D02*
D03*
X51378Y49134D02*
D03*
X39567D02*
D03*
X45472D02*
D03*
X65591Y12441D02*
D03*
X62126D02*
D03*
X68189Y10709D02*
D03*
X64724D02*
D03*
X65157Y11575D02*
D03*
X64724Y12441D02*
D03*
X63858D02*
D03*
X69488Y11575D02*
D03*
X63858Y10709D02*
D03*
X65157Y13307D02*
D03*
X69055Y10709D02*
D03*
X62126D02*
D03*
X62559Y11575D02*
D03*
X68622Y13307D02*
D03*
X63425Y11575D02*
D03*
X68189Y12441D02*
D03*
X69055Y14173D02*
D03*
X69488Y13307D02*
D03*
X65591Y10709D02*
D03*
X68622Y11575D02*
D03*
X62992Y10709D02*
D03*
Y12441D02*
D03*
X64291Y13307D02*
D03*
X69055Y12441D02*
D03*
X64291Y11575D02*
D03*
X59980Y23819D02*
D03*
Y22480D02*
D03*
X60650Y23819D02*
D03*
X64331Y24488D02*
D03*
X60315Y23150D02*
D03*
X65000Y24488D02*
D03*
X61319Y22480D02*
D03*
X60984Y23150D02*
D03*
X60315Y24488D02*
D03*
X60650Y25157D02*
D03*
Y22480D02*
D03*
X61319Y23819D02*
D03*
X60984Y24488D02*
D03*
X59980Y25157D02*
D03*
X74350Y35827D02*
D03*
X14173Y22490D02*
D03*
X16811Y22480D02*
D03*
X19488D02*
D03*
X41339Y17992D02*
D03*
Y18663D02*
D03*
Y19331D02*
D03*
X36842Y17082D02*
D03*
Y16303D02*
D03*
X36212Y16783D02*
D03*
X3189Y15551D02*
D03*
X2559D02*
D03*
X3189Y16142D02*
D03*
X2559D02*
D03*
X56024Y13898D02*
D03*
X61929Y16310D02*
D03*
X33228Y33740D02*
D03*
X72992Y10827D02*
D03*
Y21063D02*
D03*
X66879Y8780D02*
D03*
X67244Y9291D02*
D03*
X66575D02*
D03*
X62515Y15863D02*
D03*
Y16732D02*
D03*
X62612Y18701D02*
D03*
X63439Y18386D02*
D03*
Y19094D02*
D03*
X58633Y7037D02*
D03*
X57863D02*
D03*
X58976Y7717D02*
D03*
X58268D02*
D03*
X57520D02*
D03*
X36173Y16059D02*
D03*
X36826Y15594D02*
D03*
M02*
