G04*
G04 #@! TF.GenerationSoftware,Altium Limited,Altium Designer,18.0.7 (293)*
G04*
G04 Layer_Color=2752767*
%FSLAX44Y44*%
%MOMM*%
G71*
G01*
G75*
%ADD10C,0.1524*%
%ADD11C,0.2540*%
%ADD13C,0.4000*%
%ADD14C,0.2000*%
%ADD15C,0.1000*%
%ADD16C,0.1270*%
%ADD17C,0.1520*%
%ADD19R,0.5080X1.7780*%
%ADD20R,2.5400X0.6350*%
%ADD21R,1.7780X0.5080*%
%ADD22R,0.5080X1.5240*%
%ADD23R,1.5240X0.5080*%
%ADD24C,0.0800*%
%ADD25C,0.1016*%
%ADD109C,0.0508*%
%ADD110C,0.0677*%
%ADD111C,0.0339*%
D10*
X547646Y918548D02*
G03*
X547646Y912452I0J-3048D01*
G01*
X332295Y918978D02*
G03*
X332295Y912882I0J-3048D01*
G01*
X119646Y830548D02*
G03*
X119646Y824452I0J-3048D01*
G01*
X844024Y975048D02*
G03*
X844024Y968952I0J-3048D01*
G01*
X1410952Y982146D02*
G03*
X1417048Y982146I3048J0D01*
G01*
X497100Y876130D02*
Y953600D01*
X547646Y876130D02*
Y912452D01*
Y918548D01*
Y953600D01*
X281749Y876560D02*
Y954030D01*
X332295Y876560D02*
Y912882D01*
Y918978D01*
Y954030D01*
X69100Y788130D02*
Y865600D01*
X119646Y788130D02*
Y824452D01*
Y830548D01*
Y865600D01*
X714230Y913580D02*
Y1030420D01*
X844024Y913580D02*
Y1030420D01*
X1375900Y931600D02*
X1453370D01*
X1417048Y982146D02*
X1453370D01*
X1410952D02*
X1417048D01*
X1375900D02*
X1410952D01*
D11*
X1757140Y526300D02*
Y552970D01*
Y526300D02*
X1802860D01*
Y552970D01*
X1757140D02*
X1802860D01*
X1252140Y1063300D02*
Y1089970D01*
Y1063300D02*
X1297860D01*
Y1089970D01*
X1252140D02*
X1297860D01*
X1630140Y872300D02*
Y898970D01*
Y872300D02*
X1675860D01*
Y898970D01*
X1630140D02*
X1675860D01*
X1570140Y342300D02*
Y368970D01*
Y342300D02*
X1615860D01*
Y368970D01*
X1570140D02*
X1615860D01*
X1525030Y512140D02*
X1551700D01*
Y557860D01*
X1525030D02*
X1551700D01*
X1525030Y512140D02*
Y557860D01*
X1447242Y1239300D02*
Y1265970D01*
Y1239300D02*
X1492961D01*
Y1265970D01*
X1447242D02*
X1492961D01*
X449300Y1024360D02*
X475970D01*
X449300Y978640D02*
Y1024360D01*
Y978640D02*
X475970D01*
Y1024360D01*
X233949Y1024790D02*
X260619D01*
X233949Y979070D02*
Y1024790D01*
Y979070D02*
X260619D01*
Y1024790D01*
X21300Y936360D02*
X47970D01*
X21300Y890640D02*
Y936360D01*
Y890640D02*
X47970D01*
Y936360D01*
X510640Y832800D02*
Y859470D01*
Y832800D02*
X556360D01*
Y859470D01*
X510640D02*
X556360D01*
X295289Y833230D02*
Y859900D01*
Y833230D02*
X341009D01*
Y859900D01*
X295289D02*
X341009D01*
X82640Y744800D02*
Y771470D01*
Y744800D02*
X128360D01*
Y771470D01*
X82640D02*
X128360D01*
X626360Y925530D02*
Y952200D01*
X580640D02*
X626360D01*
X580640Y925530D02*
Y952200D01*
Y925530D02*
X626360D01*
X411009Y925960D02*
Y952630D01*
X365289D02*
X411009D01*
X365289Y925960D02*
Y952630D01*
Y925960D02*
X411009D01*
X198360Y837530D02*
Y864200D01*
X152640D02*
X198360D01*
X152640Y837530D02*
Y864200D01*
Y837530D02*
X198360D01*
X502351Y1199430D02*
Y1287430D01*
X515551Y1298430D02*
X585551D01*
X598751Y1199430D02*
Y1287430D01*
X590551Y1199430D02*
X598751D01*
X575551D02*
X585551D01*
X545551D02*
X561551D01*
X515551D02*
X531551D01*
X502351D02*
X510551D01*
X585551Y1298430D02*
X598751Y1287430D01*
X502351D02*
X515551Y1298430D01*
X585551Y1199430D02*
X590551D01*
X510551D02*
X515551D01*
X561551D02*
X575551D01*
X531551D02*
X545551D01*
X287000Y1199860D02*
Y1287860D01*
X300200Y1298860D02*
X370200D01*
X383400Y1199860D02*
Y1287860D01*
X375200Y1199860D02*
X383400D01*
X360200D02*
X370200D01*
X330200D02*
X346200D01*
X300200D02*
X316200D01*
X287000D02*
X295200D01*
X370200Y1298860D02*
X383400Y1287860D01*
X287000D02*
X300200Y1298860D01*
X370200Y1199860D02*
X375200D01*
X295200D02*
X300200D01*
X346200D02*
X360200D01*
X316200D02*
X330200D01*
X114800Y1199500D02*
Y1287500D01*
X128000Y1298500D02*
X198000D01*
X211200Y1199500D02*
Y1287500D01*
X203000Y1199500D02*
X211200D01*
X188000D02*
X198000D01*
X158000D02*
X174000D01*
X128000D02*
X144000D01*
X114800D02*
X123000D01*
X198000Y1298500D02*
X211200Y1287500D01*
X114800D02*
X128000Y1298500D01*
X198000Y1199500D02*
X203000D01*
X123000D02*
X128000D01*
X174000D02*
X188000D01*
X144000D02*
X158000D01*
X1078125Y120737D02*
Y115658D01*
Y118198D01*
X1090821D01*
X1093360Y115658D01*
Y113119D01*
X1090821Y110580D01*
X1078125Y125815D02*
Y135972D01*
X1080664D01*
X1090821Y125815D01*
X1093360D01*
Y141050D02*
X1083203D01*
X1078125Y146129D01*
X1083203Y151207D01*
X1093360D01*
X1085742D01*
Y141050D01*
X1081935Y729067D02*
Y723988D01*
Y726528D01*
X1094631D01*
X1097170Y723988D01*
Y721449D01*
X1094631Y718910D01*
X1081935Y734145D02*
Y744302D01*
X1084474D01*
X1094631Y734145D01*
X1097170D01*
X1081935Y749380D02*
X1097170D01*
Y756998D01*
X1094631Y759537D01*
X1092092D01*
X1089553Y756998D01*
Y749380D01*
Y756998D01*
X1087013Y759537D01*
X1084474D01*
X1081935Y756998D01*
Y749380D01*
D13*
X1751352Y1036016D02*
G03*
X1751352Y1036016I-2000J0D01*
G01*
D14*
X19500Y1183000D02*
X39500D01*
Y1149000D02*
Y1183000D01*
X19500Y1149000D02*
X39500D01*
X19500D02*
Y1183000D01*
X1915000Y690876D02*
Y710876D01*
X1881000Y690876D02*
X1915000D01*
X1881000D02*
Y710876D01*
X1915000D01*
Y264000D02*
Y284000D01*
X1881000Y264000D02*
X1915000D01*
X1881000D02*
Y284000D01*
X1915000D01*
X1881000Y525000D02*
Y545000D01*
X1915000D01*
Y525000D02*
Y545000D01*
X1881000Y525000D02*
X1915000D01*
X1163000Y985500D02*
X1183000D01*
Y1019500D01*
X1163000D02*
X1183000D01*
X1163000Y985500D02*
Y1019500D01*
X1064000Y985500D02*
X1084000D01*
Y1019500D01*
X1064000D02*
X1084000D01*
X1064000Y985500D02*
Y1019500D01*
X1113500Y985500D02*
X1133500D01*
Y1019500D01*
X1113500D02*
X1133500D01*
X1113500Y985500D02*
Y1019500D01*
X1022000Y1209000D02*
Y1229000D01*
Y1209000D02*
X1056000D01*
Y1229000D01*
X1022000D02*
X1056000D01*
X1290000Y1165500D02*
X1310000D01*
X1290000D02*
Y1199500D01*
X1310000D01*
Y1165500D02*
Y1199500D01*
X1208500Y1209000D02*
Y1229000D01*
X1174500D02*
X1208500D01*
X1174500Y1209000D02*
Y1229000D01*
Y1209000D02*
X1208500D01*
X1474000Y940000D02*
X1494000D01*
X1474000D02*
Y974000D01*
X1494000D01*
Y940000D02*
Y974000D01*
X518500Y1109000D02*
X538500D01*
X518500D02*
Y1143000D01*
X538500D01*
Y1109000D02*
Y1143000D01*
X303149Y1109430D02*
X323149D01*
X303149D02*
Y1143430D01*
X323149D01*
Y1109430D02*
Y1143430D01*
X90500Y1021000D02*
X110500D01*
X90500D02*
Y1055000D01*
X110500D01*
Y1021000D02*
Y1055000D01*
X530000Y994000D02*
Y1014000D01*
X496000Y994000D02*
X530000D01*
X496000D02*
Y1014000D01*
X530000D01*
X314649Y994430D02*
Y1014430D01*
X280649Y994430D02*
X314649D01*
X280649D02*
Y1014430D01*
X314649D01*
X102000Y906000D02*
Y926000D01*
X68000Y906000D02*
X102000D01*
X68000D02*
Y926000D01*
X102000D01*
X448000Y1081500D02*
X468000D01*
Y1047500D02*
Y1081500D01*
X448000Y1047500D02*
X468000D01*
X448000D02*
Y1081500D01*
X232649Y1081930D02*
X252649D01*
Y1047930D02*
Y1081930D01*
X232649Y1047930D02*
X252649D01*
X232649D02*
Y1081930D01*
X20000Y993500D02*
X40000D01*
Y959500D02*
Y993500D01*
X20000Y959500D02*
X40000D01*
X20000D02*
Y993500D01*
X558936Y1188500D02*
X578937D01*
Y1154500D02*
Y1188500D01*
X558936Y1154500D02*
X578937D01*
X558936D02*
Y1188500D01*
X343586Y1188930D02*
X363586D01*
Y1154930D02*
Y1188930D01*
X343586Y1154930D02*
X363586D01*
X343586D02*
Y1188930D01*
X48000Y1095367D02*
Y1115367D01*
X82000D01*
Y1095367D02*
Y1115367D01*
X48000Y1095367D02*
X82000D01*
X453500Y1171000D02*
Y1191000D01*
X487500D01*
Y1171000D02*
Y1191000D01*
X453500Y1171000D02*
X487500D01*
X238149Y1171430D02*
Y1191430D01*
X272149D01*
Y1171430D02*
Y1191430D01*
X238149Y1171430D02*
X272149D01*
X487500Y1209500D02*
Y1229500D01*
X453500Y1209500D02*
X487500D01*
X453500D02*
Y1229500D01*
X487500D01*
X272149Y1209930D02*
Y1229930D01*
X238149Y1209930D02*
X272149D01*
X238149D02*
Y1229930D01*
X272149D01*
X119500Y1165500D02*
Y1185500D01*
X85500Y1165500D02*
X119500D01*
X85500D02*
Y1185500D01*
X119500D01*
X584500Y1095500D02*
Y1115500D01*
X618500D01*
Y1095500D02*
Y1115500D01*
X584500Y1095500D02*
X618500D01*
X369149Y1095930D02*
Y1115930D01*
X403149D01*
Y1095930D02*
Y1115930D01*
X369149Y1095930D02*
X403149D01*
X156500Y1007500D02*
Y1027500D01*
X190500D01*
Y1007500D02*
Y1027500D01*
X156500Y1007500D02*
X190500D01*
X574000Y906500D02*
X594000D01*
Y872500D02*
Y906500D01*
X574000Y872500D02*
X594000D01*
X574000D02*
Y906500D01*
X358649Y906930D02*
X378649D01*
Y872930D02*
Y906930D01*
X358649Y872930D02*
X378649D01*
X358649D02*
Y906930D01*
X146000Y818500D02*
X166000D01*
Y784500D02*
Y818500D01*
X146000Y784500D02*
X166000D01*
X146000D02*
Y818500D01*
X618000Y993000D02*
Y1013000D01*
X584000Y993000D02*
X618000D01*
X584000D02*
Y1013000D01*
X618000D01*
X402649Y993430D02*
Y1013430D01*
X368649Y993430D02*
X402649D01*
X368649D02*
Y1013430D01*
X402649D01*
X190000Y905000D02*
Y925000D01*
X156000Y905000D02*
X190000D01*
X156000D02*
Y925000D01*
X190000D01*
X624000Y1173500D02*
X644000D01*
Y1139500D02*
Y1173500D01*
X624000Y1139500D02*
X644000D01*
X624000D02*
Y1173500D01*
X408649Y1173930D02*
X428649D01*
Y1139930D02*
Y1173930D01*
X408649Y1139930D02*
X428649D01*
X408649D02*
Y1173930D01*
X170500Y1078500D02*
Y1098500D01*
X204500D01*
Y1078500D02*
Y1098500D01*
X170500Y1078500D02*
X204500D01*
X624000Y1234500D02*
X644000D01*
Y1200500D02*
Y1234500D01*
X624000Y1200500D02*
X644000D01*
X624000D02*
Y1234500D01*
X408649Y1234930D02*
X428649D01*
Y1200930D02*
Y1234930D01*
X408649Y1200930D02*
X428649D01*
X408649D02*
Y1234930D01*
X204500Y1122000D02*
Y1142000D01*
X170500Y1122000D02*
X204500D01*
X170500D02*
Y1142000D01*
X204500D01*
X624000Y1290000D02*
X644000D01*
Y1256000D02*
Y1290000D01*
X624000Y1256000D02*
X644000D01*
X624000D02*
Y1290000D01*
X408649Y1290430D02*
X428649D01*
Y1256430D02*
Y1290430D01*
X408649Y1256430D02*
X428649D01*
X408649D02*
Y1290430D01*
X170500Y1171000D02*
Y1191000D01*
X204500D01*
Y1171000D02*
Y1191000D01*
X170500Y1171000D02*
X204500D01*
X1047500Y1030852D02*
Y1050852D01*
Y1030852D02*
X1081500D01*
Y1050852D01*
X1047500D02*
X1081500D01*
X1097000Y1030852D02*
Y1050852D01*
Y1030852D02*
X1131000D01*
Y1050852D01*
X1097000D02*
X1131000D01*
X1146500Y1032000D02*
Y1052000D01*
Y1032000D02*
X1180500D01*
Y1052000D01*
X1146500D02*
X1180500D01*
X350000Y629000D02*
X370000D01*
Y595000D02*
Y629000D01*
X350000Y595000D02*
X370000D01*
X350000D02*
Y629000D01*
X417500D02*
X437500D01*
Y595000D02*
Y629000D01*
X417500Y595000D02*
X437500D01*
X417500D02*
Y629000D01*
X485000D02*
X505000D01*
Y595000D02*
Y629000D01*
X485000Y595000D02*
X505000D01*
X485000D02*
Y629000D01*
X1431940Y1019000D02*
X1451940D01*
X1431940D02*
Y1053000D01*
X1451940D01*
Y1019000D02*
Y1053000D01*
X1047330Y1074380D02*
Y1109940D01*
X1081620D01*
Y1074380D02*
Y1109940D01*
X1047330Y1074380D02*
X1081620D01*
X1096830Y1074380D02*
Y1109940D01*
X1131120D01*
Y1074380D02*
Y1109940D01*
X1096830Y1074380D02*
X1131120D01*
X1146330Y1074380D02*
Y1109940D01*
X1180620D01*
Y1074380D02*
Y1109940D01*
X1146330Y1074380D02*
X1180620D01*
X1798570Y770850D02*
Y844550D01*
Y770850D02*
X1940810D01*
X1941730Y789275D02*
Y826125D01*
X1798570Y844550D02*
X1941730D01*
Y770850D02*
Y789275D01*
Y826125D02*
Y844550D01*
X1534151Y1156711D02*
Y1173856D01*
Y1105276D02*
Y1122421D01*
X1673851Y1105276D02*
Y1173856D01*
X1534151D02*
X1673851D01*
X1534151Y1105276D02*
X1673851D01*
X1534151Y1122421D02*
Y1156711D01*
X1762850Y774710D02*
Y791855D01*
Y826145D02*
Y843290D01*
X1623150Y774710D02*
Y843290D01*
Y774710D02*
X1762850D01*
X1623150Y843290D02*
X1762850D01*
Y791855D02*
Y826145D01*
X1877810Y653890D02*
X1919720D01*
X1877810Y636110D02*
Y653890D01*
Y636110D02*
X1919720D01*
Y653890D01*
X1877810Y217390D02*
X1919720D01*
X1877810Y199610D02*
Y217390D01*
Y199610D02*
X1919720D01*
Y217390D01*
X1877810Y486890D02*
X1919720D01*
X1877810Y469110D02*
Y486890D01*
Y469110D02*
X1919720D01*
Y486890D01*
X1046700Y1149250D02*
Y1207670D01*
X1021300D02*
X1046700D01*
X1021300Y1149250D02*
Y1207670D01*
Y1149250D02*
X1046700D01*
X1242728Y1148294D02*
Y1206714D01*
X1217328D02*
X1242728D01*
X1217328Y1148294D02*
Y1206714D01*
Y1148294D02*
X1242728D01*
X1196700D02*
Y1206714D01*
X1171300D02*
X1196700D01*
X1171300Y1148294D02*
Y1206714D01*
Y1148294D02*
X1196700D01*
X367890Y669140D02*
Y711050D01*
X350110D02*
X367890D01*
X350110Y669140D02*
Y711050D01*
Y669140D02*
X367890D01*
X435390Y670140D02*
Y712050D01*
X417610D02*
X435390D01*
X417610Y670140D02*
Y712050D01*
Y670140D02*
X435390D01*
X502890D02*
Y712050D01*
X485110D02*
X502890D01*
X485110Y670140D02*
Y712050D01*
Y670140D02*
X502890D01*
X1713220Y629380D02*
Y644620D01*
Y629380D02*
X1752590D01*
Y644620D01*
X1713220D02*
X1752590D01*
X1567780Y664380D02*
Y679620D01*
X1528410D02*
X1567780D01*
X1528410Y664380D02*
Y679620D01*
Y664380D02*
X1567780D01*
X1414380Y1168780D02*
X1429620D01*
X1414380Y1129410D02*
Y1168780D01*
Y1129410D02*
X1429620D01*
Y1168780D01*
X1056500Y1151000D02*
Y1171000D01*
X1020500D02*
X1056500D01*
X1020500Y1151000D02*
Y1171000D01*
Y1151000D02*
X1056500D01*
X1249500Y1153534D02*
Y1173534D01*
X1285500D01*
Y1153534D02*
Y1173534D01*
X1249500Y1153534D02*
X1285500D01*
X1173500Y1150865D02*
Y1170865D01*
Y1150865D02*
X1209500D01*
Y1170865D01*
X1173500D02*
X1209500D01*
X485500Y1106436D02*
Y1126437D01*
X449500Y1106436D02*
X485500D01*
X449500D02*
Y1126437D01*
X485500D01*
X270149Y1106867D02*
Y1126867D01*
X234149Y1106867D02*
X270149D01*
X234149D02*
Y1126867D01*
X270149D01*
X57500Y1018437D02*
Y1038437D01*
X21500Y1018437D02*
X57500D01*
X21500D02*
Y1038437D01*
X57500D01*
X531000Y1045000D02*
Y1065000D01*
X495000Y1045000D02*
X531000D01*
X495000D02*
Y1065000D01*
X531000D01*
X315649Y1045430D02*
Y1065430D01*
X279649Y1045430D02*
X315649D01*
X279649D02*
Y1065430D01*
X315649D01*
X103000Y957000D02*
Y977000D01*
X67000Y957000D02*
X103000D01*
X67000D02*
Y977000D01*
X103000D01*
X449500Y848500D02*
Y868500D01*
X485500D01*
Y848500D02*
Y868500D01*
X449500Y848500D02*
X485500D01*
X234149Y848930D02*
Y868930D01*
X270149D01*
Y848930D02*
Y868930D01*
X234149Y848930D02*
X270149D01*
X21500Y760500D02*
Y780500D01*
X57500D01*
Y760500D02*
Y780500D01*
X21500Y760500D02*
X57500D01*
X463190Y927000D02*
X483190D01*
Y891000D02*
Y927000D01*
X463190Y891000D02*
X483190D01*
X463190D02*
Y927000D01*
X247839Y927430D02*
X267839D01*
Y891430D02*
Y927430D01*
X247839Y891430D02*
X267839D01*
X247839D02*
Y927430D01*
X35190Y839000D02*
X55190D01*
Y803000D02*
Y839000D01*
X35190Y803000D02*
X55190D01*
X35190D02*
Y839000D01*
X583000Y1045000D02*
Y1065000D01*
X619000D01*
Y1045000D02*
Y1065000D01*
X583000Y1045000D02*
X619000D01*
X367649Y1045430D02*
Y1065430D01*
X403649D01*
Y1045430D02*
Y1065430D01*
X367649Y1045430D02*
X403649D01*
X155000Y957000D02*
Y977000D01*
X191000D01*
Y957000D02*
Y977000D01*
X155000Y957000D02*
X191000D01*
X614500Y907500D02*
X634500D01*
Y871500D02*
Y907500D01*
X614500Y871500D02*
X634500D01*
X614500D02*
Y907500D01*
X399149Y907930D02*
X419149D01*
Y871930D02*
Y907930D01*
X399149Y871930D02*
X419149D01*
X399149D02*
Y907930D01*
X186500Y819500D02*
X206500D01*
Y783500D02*
Y819500D01*
X186500Y783500D02*
X206500D01*
X186500D02*
Y819500D01*
X679274Y870000D02*
X699274D01*
X679274D02*
Y906000D01*
X699274D01*
Y870000D02*
Y906000D01*
X679000Y953000D02*
X699000D01*
Y917000D02*
Y953000D01*
X679000Y917000D02*
X699000D01*
X679000D02*
Y953000D01*
Y1054000D02*
X699000D01*
X679000D02*
Y1090000D01*
X699000D01*
Y1054000D02*
Y1090000D01*
X679000Y1044500D02*
X699000D01*
Y1008500D02*
Y1044500D01*
X679000Y1008500D02*
X699000D01*
X679000D02*
Y1044500D01*
Y964000D02*
X699000D01*
X679000D02*
Y1000000D01*
X699000D01*
Y964000D02*
Y1000000D01*
X902500Y907000D02*
Y927000D01*
X866500Y907000D02*
X902500D01*
X866500D02*
Y927000D01*
X902500D01*
Y932000D02*
Y952000D01*
X866500Y932000D02*
X902500D01*
X866500D02*
Y952000D01*
X902500D01*
Y957000D02*
Y977000D01*
X866500Y957000D02*
X902500D01*
X866500D02*
Y977000D01*
X902500D01*
Y982000D02*
Y1002000D01*
X866500Y982000D02*
X902500D01*
X866500D02*
Y1002000D01*
X902500D01*
Y1012000D02*
Y1032000D01*
X866500Y1012000D02*
X902500D01*
X866500D02*
Y1032000D01*
X902500D01*
X903000Y1041000D02*
Y1061000D01*
X867000Y1041000D02*
X903000D01*
X867000D02*
Y1061000D01*
X903000D01*
X871500Y875000D02*
Y895000D01*
X835500Y875000D02*
X871500D01*
X835500D02*
Y895000D01*
X871500D01*
X1326000Y940650D02*
Y960650D01*
X1362000D01*
Y940650D02*
Y960650D01*
X1326000Y940650D02*
X1362000D01*
X1749500Y694000D02*
Y714000D01*
X1713500Y694000D02*
X1749500D01*
X1713500D02*
Y714000D01*
X1749500D01*
X1532500Y719500D02*
Y739500D01*
X1568500D01*
Y719500D02*
Y739500D01*
X1532500Y719500D02*
X1568500D01*
X1374500Y1133500D02*
X1394500D01*
X1374500D02*
Y1169500D01*
X1394500D01*
Y1133500D02*
Y1169500D01*
X1123664Y132997D02*
X1120332D01*
X1121998D01*
Y124666D01*
X1120332Y123000D01*
X1118666D01*
X1117000Y124666D01*
X1126997Y132997D02*
X1133661D01*
Y131331D01*
X1126997Y124666D01*
Y123000D01*
X1136994D02*
Y129664D01*
X1140326Y132997D01*
X1143658Y129664D01*
Y123000D01*
Y127998D01*
X1136994D01*
X1117664Y746997D02*
X1114332D01*
X1115998D01*
Y738666D01*
X1114332Y737000D01*
X1112666D01*
X1111000Y738666D01*
X1120997Y746997D02*
X1127661D01*
Y745331D01*
X1120997Y738666D01*
Y737000D01*
X1130993Y746997D02*
Y737000D01*
X1135992D01*
X1137658Y738666D01*
Y740332D01*
X1135992Y741998D01*
X1130993D01*
X1135992D01*
X1137658Y743664D01*
Y745331D01*
X1135992Y746997D01*
X1130993D01*
D15*
X1467300Y1125300D02*
Y1150700D01*
Y1176100D02*
X1492700D01*
X1467300Y1149430D02*
Y1176100D01*
Y1125300D02*
X1492700D01*
Y1176100D01*
X1687300Y311900D02*
Y388100D01*
X1712700D01*
Y311900D02*
Y363970D01*
X1687300Y311900D02*
X1712700D01*
Y362700D02*
Y388100D01*
X1626700Y400300D02*
X1652100D01*
X1601300D02*
Y425700D01*
Y400300D02*
X1627970D01*
X1652100D02*
Y425700D01*
X1601300D02*
X1652100D01*
X1580300Y577900D02*
Y654100D01*
X1605700D01*
Y577900D02*
Y629970D01*
X1580300Y577900D02*
X1605700D01*
Y628700D02*
Y654100D01*
X1615900Y700300D02*
X1692100D01*
X1615900D02*
Y725700D01*
X1640030D02*
X1692100D01*
Y700300D02*
Y725700D01*
X1615900D02*
X1641300D01*
X784220Y1008322D02*
X778388D01*
X777222Y1007156D01*
Y1004823D01*
X778388Y1003657D01*
X784220D01*
X777222Y996659D02*
Y1001324D01*
X781887Y996659D01*
X783054D01*
X784220Y997825D01*
Y1000158D01*
X783054Y1001324D01*
X1062133Y1080252D02*
X1065465D01*
X1066298Y1079419D01*
Y1077753D01*
X1065465Y1076920D01*
X1062133D01*
X1061300Y1077753D01*
Y1079419D01*
X1062966Y1078586D02*
X1061300Y1080252D01*
Y1079419D02*
X1062133Y1080252D01*
X1065465Y1081918D02*
X1066298Y1082751D01*
Y1084417D01*
X1065465Y1085251D01*
X1064632D01*
X1063799Y1084417D01*
Y1083585D01*
Y1084417D01*
X1062966Y1085251D01*
X1062133D01*
X1061300Y1084417D01*
Y1082751D01*
X1062133Y1081918D01*
X1111633Y1080252D02*
X1114965D01*
X1115798Y1079419D01*
Y1077753D01*
X1114965Y1076920D01*
X1111633D01*
X1110800Y1077753D01*
Y1079419D01*
X1112466Y1078586D02*
X1110800Y1080252D01*
Y1079419D02*
X1111633Y1080252D01*
X1110800Y1085251D02*
Y1081918D01*
X1114132Y1085251D01*
X1114965D01*
X1115798Y1084417D01*
Y1082751D01*
X1114965Y1081918D01*
X1161133Y1080252D02*
X1164465D01*
X1165298Y1079419D01*
Y1077753D01*
X1164465Y1076920D01*
X1161133D01*
X1160300Y1077753D01*
Y1079419D01*
X1161966Y1078586D02*
X1160300Y1080252D01*
Y1079419D02*
X1161133Y1080252D01*
X1160300Y1081918D02*
Y1083585D01*
Y1082751D01*
X1165298D01*
X1164465Y1081918D01*
X1860152Y774265D02*
Y771933D01*
Y773099D01*
X1865984D01*
X1867150Y771933D01*
Y770766D01*
X1865984Y769600D01*
X1867150Y776598D02*
Y778930D01*
Y777764D01*
X1860152D01*
X1861319Y776598D01*
X1602221Y1148962D02*
X1597651D01*
Y1145534D01*
X1599936D01*
X1597651D01*
Y1142106D01*
X1609077D02*
X1604506D01*
X1609077Y1146676D01*
Y1147819D01*
X1607934Y1148962D01*
X1605649D01*
X1604506Y1147819D01*
X1694780Y799604D02*
X1699350D01*
Y803032D01*
X1697065D01*
X1699350D01*
Y806460D01*
X1692494D02*
X1690209D01*
X1691352D01*
Y799604D01*
X1692494Y800747D01*
X1912100Y643050D02*
Y648048D01*
X1909601D01*
X1908768Y647215D01*
Y643883D01*
X1909601Y643050D01*
X1912100D01*
X1907102Y648048D02*
X1905435D01*
X1906269D01*
Y643050D01*
X1907102Y643883D01*
X1899604Y648048D02*
X1902936D01*
X1899604Y644716D01*
Y643883D01*
X1900437Y643050D01*
X1902103D01*
X1902936Y643883D01*
X1912100Y206550D02*
Y211548D01*
X1909601D01*
X1908768Y210715D01*
Y207383D01*
X1909601Y206550D01*
X1912100D01*
X1907102Y211548D02*
X1905435D01*
X1906269D01*
Y206550D01*
X1907102Y207383D01*
X1902936Y211548D02*
X1901270D01*
X1902103D01*
Y206550D01*
X1902936Y207383D01*
X1912100Y476050D02*
Y481048D01*
X1909601D01*
X1908768Y480215D01*
Y476883D01*
X1909601Y476050D01*
X1912100D01*
X1907102Y481048D02*
X1905435D01*
X1906269D01*
Y476050D01*
X1907102Y476883D01*
X1902936D02*
X1902103Y476050D01*
X1900437D01*
X1899604Y476883D01*
Y480215D01*
X1900437Y481048D01*
X1902103D01*
X1902936Y480215D01*
Y476883D01*
X357050Y676760D02*
X362048D01*
Y679259D01*
X361215Y680092D01*
X357883D01*
X357050Y679259D01*
Y676760D01*
Y685091D02*
X357883Y683425D01*
X359549Y681758D01*
X361215D01*
X362048Y682591D01*
Y684258D01*
X361215Y685091D01*
X360382D01*
X359549Y684258D01*
Y681758D01*
X424550Y677760D02*
X429548D01*
Y680259D01*
X428715Y681092D01*
X425383D01*
X424550Y680259D01*
Y677760D01*
Y686091D02*
Y682758D01*
X427049D01*
X426216Y684425D01*
Y685258D01*
X427049Y686091D01*
X428715D01*
X429548Y685258D01*
Y683591D01*
X428715Y682758D01*
X492050Y677760D02*
X497048D01*
Y680259D01*
X496215Y681092D01*
X492883D01*
X492050Y680259D01*
Y677760D01*
X497048Y685258D02*
X492050D01*
X494549Y682758D01*
Y686091D01*
X1746240Y635812D02*
Y640810D01*
X1743741D01*
X1742908Y639977D01*
Y636645D01*
X1743741Y635812D01*
X1746240D01*
X1741242Y636645D02*
X1740409Y635812D01*
X1738742D01*
X1737909Y636645D01*
Y637478D01*
X1738742Y638311D01*
X1739576D01*
X1738742D01*
X1737909Y639144D01*
Y639977D01*
X1738742Y640810D01*
X1740409D01*
X1741242Y639977D01*
X1534760Y673188D02*
Y668190D01*
X1537259D01*
X1538092Y669023D01*
Y672355D01*
X1537259Y673188D01*
X1534760D01*
X1543091Y668190D02*
X1539758D01*
X1543091Y671522D01*
Y672355D01*
X1542258Y673188D01*
X1540591D01*
X1539758Y672355D01*
X1420812Y1135760D02*
X1425810D01*
Y1138259D01*
X1424977Y1139092D01*
X1421645D01*
X1420812Y1138259D01*
Y1135760D01*
X1425810Y1140758D02*
Y1142424D01*
Y1141591D01*
X1420812D01*
X1421645Y1140758D01*
D16*
X1156200Y1157862D02*
Y1299763D01*
X1071800D02*
X1156200D01*
X1071800Y1157862D02*
Y1299763D01*
Y1157862D02*
X1156200D01*
X781880Y1298978D02*
X966200Y1298978D01*
X781880Y1157500D02*
Y1298978D01*
Y1157500D02*
X897120D01*
X966200D02*
Y1298978D01*
X897120Y1157500D02*
X966200D01*
X8272Y294810D02*
X149750D01*
X8272Y185590D02*
Y294810D01*
Y185590D02*
X149750D01*
Y294810D01*
X8272Y542310D02*
X149750D01*
X8272Y433090D02*
Y542310D01*
Y433090D02*
X149750D01*
Y542310D01*
X556400Y85700D02*
X1381400D01*
Y785700D01*
X556400D02*
X1381400D01*
X556400Y85700D02*
Y785700D01*
X1884752Y1239861D02*
X1940652D01*
Y1201507D02*
Y1239861D01*
X1884752Y1201507D02*
X1940652D01*
X1884752Y989925D02*
X1940652D01*
Y951571D02*
Y989925D01*
X1884752Y951571D02*
X1940652D01*
X1884752Y1011116D02*
X1944452D01*
Y1180316D01*
X1884752D02*
X1944452D01*
X1758252Y941666D02*
X1884752D01*
Y951571D01*
Y989925D01*
Y1011116D01*
Y1180316D01*
Y1201507D01*
Y1239861D01*
Y1249766D01*
X1758252D02*
X1884752D01*
X1758252Y941666D02*
Y1249766D01*
D17*
X497100Y953600D02*
X547646D01*
X497100Y876130D02*
X547646D01*
X281749Y954030D02*
X332295D01*
X281749Y876560D02*
X332295D01*
X69100Y865600D02*
X119646D01*
X69100Y788130D02*
X119646D01*
X714230Y1030420D02*
X844024D01*
X714230Y913580D02*
X844024D01*
X1375900Y931600D02*
Y982146D01*
X1453370Y931600D02*
Y982146D01*
X857140Y104230D02*
Y157570D01*
X1347360D01*
Y104230D02*
Y157570D01*
X857140Y104230D02*
X1347360D01*
X857140Y713830D02*
X1347360D01*
Y767170D01*
X857140D02*
X1347360D01*
X857140Y713830D02*
Y767170D01*
D19*
X1917180Y645000D02*
D03*
Y208500D02*
D03*
Y478000D02*
D03*
D20*
X1034000Y1152425D02*
D03*
X1230028Y1151469D02*
D03*
X1184000D02*
D03*
D21*
X359000Y671680D02*
D03*
X426500Y672680D02*
D03*
X494000D02*
D03*
D22*
X1750050Y637000D02*
D03*
X1530950Y672000D02*
D03*
D23*
X1422000Y1131950D02*
D03*
D24*
X28230Y1180986D02*
X31229D01*
Y1179486D01*
X30729Y1178987D01*
X29729D01*
X29230Y1179486D01*
Y1180986D01*
Y1179986D02*
X28230Y1178987D01*
Y1177987D02*
Y1176987D01*
Y1177487D01*
X31229D01*
X30729Y1177987D01*
X31229Y1173488D02*
Y1175488D01*
X29729D01*
X30229Y1174488D01*
Y1173988D01*
X29729Y1173488D01*
X28730D01*
X28230Y1173988D01*
Y1174988D01*
X28730Y1175488D01*
X27730Y1172489D02*
Y1170489D01*
X31229Y1169490D02*
X29230D01*
X28230Y1168490D01*
X29230Y1167490D01*
X31229D01*
X30729Y1164491D02*
X31229Y1164991D01*
Y1165991D01*
X30729Y1166491D01*
X30229D01*
X29729Y1165991D01*
Y1164991D01*
X29230Y1164491D01*
X28730D01*
X28230Y1164991D01*
Y1165991D01*
X28730Y1166491D01*
X31229Y1163492D02*
X28730D01*
X28230Y1162992D01*
Y1161992D01*
X28730Y1161492D01*
X31229D01*
X28230Y1160493D02*
Y1159493D01*
Y1159993D01*
X31229D01*
X30729Y1160493D01*
X1912986Y702146D02*
Y699147D01*
X1911487D01*
X1910987Y699647D01*
Y700647D01*
X1911487Y701146D01*
X1912986D01*
X1911986D02*
X1910987Y702146D01*
X1907988D02*
X1909987D01*
X1907988Y700147D01*
Y699647D01*
X1908488Y699147D01*
X1909487D01*
X1909987Y699647D01*
X1906988Y701646D02*
X1906488Y702146D01*
X1905488D01*
X1904989Y701646D01*
Y699647D01*
X1905488Y699147D01*
X1906488D01*
X1906988Y699647D01*
Y700147D01*
X1906488Y700647D01*
X1904989D01*
X1912986Y275270D02*
Y272271D01*
X1911487D01*
X1910987Y272771D01*
Y273771D01*
X1911487Y274270D01*
X1912986D01*
X1911986D02*
X1910987Y275270D01*
X1907988D02*
X1909987D01*
X1907988Y273271D01*
Y272771D01*
X1908488Y272271D01*
X1909487D01*
X1909987Y272771D01*
X1906988D02*
X1906488Y272271D01*
X1905488D01*
X1904989Y272771D01*
Y273271D01*
X1905488Y273771D01*
X1904989Y274270D01*
Y274770D01*
X1905488Y275270D01*
X1906488D01*
X1906988Y274770D01*
Y274270D01*
X1906488Y273771D01*
X1906988Y273271D01*
Y272771D01*
X1906488Y273771D02*
X1905488D01*
X1883014Y533730D02*
Y536729D01*
X1884514D01*
X1885013Y536229D01*
Y535229D01*
X1884514Y534730D01*
X1883014D01*
X1884014D02*
X1885013Y533730D01*
X1888012D02*
X1886013D01*
X1888012Y535729D01*
Y536229D01*
X1887513Y536729D01*
X1886513D01*
X1886013Y536229D01*
X1889012Y536729D02*
X1891011D01*
Y536229D01*
X1889012Y534230D01*
Y533730D01*
X1171730Y987514D02*
X1174729D01*
Y989014D01*
X1174229Y989513D01*
X1173230D01*
X1172730Y989014D01*
Y987514D01*
Y988514D02*
X1171730Y989513D01*
Y992512D02*
Y990513D01*
X1173729Y992512D01*
X1174229D01*
X1174729Y992012D01*
Y991013D01*
X1174229Y990513D01*
X1174729Y995511D02*
X1174229Y994512D01*
X1173230Y993512D01*
X1172230D01*
X1171730Y994012D01*
Y995012D01*
X1172230Y995511D01*
X1172730D01*
X1173230Y995012D01*
Y993512D01*
X1072730Y987514D02*
X1075729D01*
Y989014D01*
X1075229Y989513D01*
X1074230D01*
X1073730Y989014D01*
Y987514D01*
Y988514D02*
X1072730Y989513D01*
Y992512D02*
Y990513D01*
X1074729Y992512D01*
X1075229D01*
X1075729Y992012D01*
Y991013D01*
X1075229Y990513D01*
X1075729Y995511D02*
Y993512D01*
X1074230D01*
X1074729Y994512D01*
Y995012D01*
X1074230Y995511D01*
X1073230D01*
X1072730Y995012D01*
Y994012D01*
X1073230Y993512D01*
X1122230Y987514D02*
X1125229D01*
Y989014D01*
X1124729Y989513D01*
X1123729D01*
X1123230Y989014D01*
Y987514D01*
Y988514D02*
X1122230Y989513D01*
Y992512D02*
Y990513D01*
X1124229Y992512D01*
X1124729D01*
X1125229Y992012D01*
Y991013D01*
X1124729Y990513D01*
X1122230Y995012D02*
X1125229D01*
X1123729Y993512D01*
Y995511D01*
X1024014Y1220270D02*
Y1217271D01*
X1025514D01*
X1026013Y1217771D01*
Y1218771D01*
X1025514Y1219270D01*
X1024014D01*
X1025014D02*
X1026013Y1220270D01*
X1029012D02*
X1027013D01*
X1029012Y1218271D01*
Y1217771D01*
X1028512Y1217271D01*
X1027513D01*
X1027013Y1217771D01*
X1030012D02*
X1030512Y1217271D01*
X1031512D01*
X1032011Y1217771D01*
Y1218271D01*
X1031512Y1218771D01*
X1031012D01*
X1031512D01*
X1032011Y1219270D01*
Y1219770D01*
X1031512Y1220270D01*
X1030512D01*
X1030012Y1219770D01*
X1301270Y1167514D02*
X1298271D01*
Y1169014D01*
X1298771Y1169513D01*
X1299771D01*
X1300270Y1169014D01*
Y1167514D01*
Y1168514D02*
X1301270Y1169513D01*
Y1172512D02*
Y1170513D01*
X1299271Y1172512D01*
X1298771D01*
X1298271Y1172012D01*
Y1171013D01*
X1298771Y1170513D01*
X1301270Y1175511D02*
Y1173512D01*
X1299271Y1175511D01*
X1298771D01*
X1298271Y1175012D01*
Y1174012D01*
X1298771Y1173512D01*
X1206486Y1217730D02*
Y1220729D01*
X1204986D01*
X1204487Y1220229D01*
Y1219230D01*
X1204986Y1218730D01*
X1206486D01*
X1205486D02*
X1204487Y1217730D01*
X1201488D02*
X1203487D01*
X1201488Y1219729D01*
Y1220229D01*
X1201988Y1220729D01*
X1202987D01*
X1203487Y1220229D01*
X1200488Y1217730D02*
X1199488D01*
X1199988D01*
Y1220729D01*
X1200488Y1220229D01*
X1485270Y942014D02*
X1482271D01*
Y943513D01*
X1482771Y944013D01*
X1483770D01*
X1484270Y943513D01*
Y942014D01*
Y943014D02*
X1485270Y944013D01*
Y947012D02*
Y945013D01*
X1483271Y947012D01*
X1482771D01*
X1482271Y946513D01*
Y945513D01*
X1482771Y945013D01*
Y948012D02*
X1482271Y948512D01*
Y949512D01*
X1482771Y950011D01*
X1484770D01*
X1485270Y949512D01*
Y948512D01*
X1484770Y948012D01*
X1482771D01*
X529770Y1111014D02*
X526771D01*
Y1112514D01*
X527271Y1113013D01*
X528270D01*
X528770Y1112514D01*
Y1111014D01*
Y1112014D02*
X529770Y1113013D01*
Y1114013D02*
Y1115013D01*
Y1114513D01*
X526771D01*
X527271Y1114013D01*
X529270Y1116512D02*
X529770Y1117012D01*
Y1118012D01*
X529270Y1118512D01*
X527271D01*
X526771Y1118012D01*
Y1117012D01*
X527271Y1116512D01*
X527771D01*
X528270Y1117012D01*
Y1118512D01*
X530270Y1119511D02*
Y1121511D01*
X526771Y1122510D02*
X528770D01*
X529770Y1123510D01*
X528770Y1124510D01*
X526771D01*
X527271Y1127509D02*
X526771Y1127009D01*
Y1126009D01*
X527271Y1125509D01*
X527771D01*
X528270Y1126009D01*
Y1127009D01*
X528770Y1127509D01*
X529270D01*
X529770Y1127009D01*
Y1126009D01*
X529270Y1125509D01*
X526771Y1128508D02*
X529270D01*
X529770Y1129008D01*
Y1130008D01*
X529270Y1130508D01*
X526771D01*
X527271Y1131507D02*
X526771Y1132007D01*
Y1133007D01*
X527271Y1133507D01*
X527771D01*
X528270Y1133007D01*
Y1132507D01*
Y1133007D01*
X528770Y1133507D01*
X529270D01*
X529770Y1133007D01*
Y1132007D01*
X529270Y1131507D01*
X314419Y1111444D02*
X311420D01*
Y1112944D01*
X311920Y1113443D01*
X312920D01*
X313419Y1112944D01*
Y1111444D01*
Y1112444D02*
X314419Y1113443D01*
Y1114443D02*
Y1115443D01*
Y1114943D01*
X311420D01*
X311920Y1114443D01*
X313919Y1116942D02*
X314419Y1117442D01*
Y1118442D01*
X313919Y1118942D01*
X311920D01*
X311420Y1118442D01*
Y1117442D01*
X311920Y1116942D01*
X312420D01*
X312920Y1117442D01*
Y1118942D01*
X314919Y1119941D02*
Y1121941D01*
X311420Y1122940D02*
X313419D01*
X314419Y1123940D01*
X313419Y1124940D01*
X311420D01*
X311920Y1127939D02*
X311420Y1127439D01*
Y1126439D01*
X311920Y1125939D01*
X312420D01*
X312920Y1126439D01*
Y1127439D01*
X313419Y1127939D01*
X313919D01*
X314419Y1127439D01*
Y1126439D01*
X313919Y1125939D01*
X311420Y1128938D02*
X313919D01*
X314419Y1129438D01*
Y1130438D01*
X313919Y1130938D01*
X311420D01*
X314419Y1133937D02*
Y1131937D01*
X312420Y1133937D01*
X311920D01*
X311420Y1133437D01*
Y1132437D01*
X311920Y1131937D01*
X101770Y1023014D02*
X98771D01*
Y1024513D01*
X99271Y1025013D01*
X100271D01*
X100770Y1024513D01*
Y1023014D01*
Y1024014D02*
X101770Y1025013D01*
Y1026013D02*
Y1027013D01*
Y1026513D01*
X98771D01*
X99271Y1026013D01*
X101270Y1028512D02*
X101770Y1029012D01*
Y1030012D01*
X101270Y1030512D01*
X99271D01*
X98771Y1030012D01*
Y1029012D01*
X99271Y1028512D01*
X99771D01*
X100271Y1029012D01*
Y1030512D01*
X102270Y1031511D02*
Y1033511D01*
X98771Y1034510D02*
X100770D01*
X101770Y1035510D01*
X100770Y1036510D01*
X98771D01*
X99271Y1039509D02*
X98771Y1039009D01*
Y1038009D01*
X99271Y1037509D01*
X99771D01*
X100271Y1038009D01*
Y1039009D01*
X100770Y1039509D01*
X101270D01*
X101770Y1039009D01*
Y1038009D01*
X101270Y1037509D01*
X98771Y1040508D02*
X101270D01*
X101770Y1041008D01*
Y1042008D01*
X101270Y1042508D01*
X98771D01*
X101770Y1043507D02*
Y1044507D01*
Y1044007D01*
X98771D01*
X99271Y1043507D01*
X527986Y1005270D02*
Y1002271D01*
X526487D01*
X525987Y1002771D01*
Y1003771D01*
X526487Y1004270D01*
X527986D01*
X526986D02*
X525987Y1005270D01*
X524987D02*
X523987D01*
X524487D01*
Y1002271D01*
X524987Y1002771D01*
X522488D02*
X521988Y1002271D01*
X520988D01*
X520488Y1002771D01*
Y1003271D01*
X520988Y1003771D01*
X520488Y1004270D01*
Y1004770D01*
X520988Y1005270D01*
X521988D01*
X522488Y1004770D01*
Y1004270D01*
X521988Y1003771D01*
X522488Y1003271D01*
Y1002771D01*
X521988Y1003771D02*
X520988D01*
X519489Y1005770D02*
X517489D01*
X516490Y1002271D02*
Y1004270D01*
X515490Y1005270D01*
X514490Y1004270D01*
Y1002271D01*
X511491Y1002771D02*
X511991Y1002271D01*
X512991D01*
X513491Y1002771D01*
Y1003271D01*
X512991Y1003771D01*
X511991D01*
X511491Y1004270D01*
Y1004770D01*
X511991Y1005270D01*
X512991D01*
X513491Y1004770D01*
X510492Y1002271D02*
Y1004770D01*
X509992Y1005270D01*
X508992D01*
X508492Y1004770D01*
Y1002271D01*
X507493Y1002771D02*
X506993Y1002271D01*
X505993D01*
X505493Y1002771D01*
Y1003271D01*
X505993Y1003771D01*
X506493D01*
X505993D01*
X505493Y1004270D01*
Y1004770D01*
X505993Y1005270D01*
X506993D01*
X507493Y1004770D01*
X312635Y1005700D02*
Y1002701D01*
X311136D01*
X310636Y1003201D01*
Y1004201D01*
X311136Y1004700D01*
X312635D01*
X311635D02*
X310636Y1005700D01*
X309636D02*
X308636D01*
X309136D01*
Y1002701D01*
X309636Y1003201D01*
X307137D02*
X306637Y1002701D01*
X305637D01*
X305138Y1003201D01*
Y1003701D01*
X305637Y1004201D01*
X305138Y1004700D01*
Y1005200D01*
X305637Y1005700D01*
X306637D01*
X307137Y1005200D01*
Y1004700D01*
X306637Y1004201D01*
X307137Y1003701D01*
Y1003201D01*
X306637Y1004201D02*
X305637D01*
X304138Y1006200D02*
X302139D01*
X301139Y1002701D02*
Y1004700D01*
X300139Y1005700D01*
X299139Y1004700D01*
Y1002701D01*
X296140Y1003201D02*
X296640Y1002701D01*
X297640D01*
X298140Y1003201D01*
Y1003701D01*
X297640Y1004201D01*
X296640D01*
X296140Y1004700D01*
Y1005200D01*
X296640Y1005700D01*
X297640D01*
X298140Y1005200D01*
X295141Y1002701D02*
Y1005200D01*
X294641Y1005700D01*
X293641D01*
X293141Y1005200D01*
Y1002701D01*
X290142Y1005700D02*
X292142D01*
X290142Y1003701D01*
Y1003201D01*
X290642Y1002701D01*
X291642D01*
X292142Y1003201D01*
X99986Y917270D02*
Y914271D01*
X98486D01*
X97987Y914771D01*
Y915770D01*
X98486Y916270D01*
X99986D01*
X98986D02*
X97987Y917270D01*
X96987D02*
X95987D01*
X96487D01*
Y914271D01*
X96987Y914771D01*
X94488D02*
X93988Y914271D01*
X92988D01*
X92488Y914771D01*
Y915271D01*
X92988Y915770D01*
X92488Y916270D01*
Y916770D01*
X92988Y917270D01*
X93988D01*
X94488Y916770D01*
Y916270D01*
X93988Y915770D01*
X94488Y915271D01*
Y914771D01*
X93988Y915770D02*
X92988D01*
X91489Y917770D02*
X89489D01*
X88490Y914271D02*
Y916270D01*
X87490Y917270D01*
X86490Y916270D01*
Y914271D01*
X83491Y914771D02*
X83991Y914271D01*
X84991D01*
X85491Y914771D01*
Y915271D01*
X84991Y915770D01*
X83991D01*
X83491Y916270D01*
Y916770D01*
X83991Y917270D01*
X84991D01*
X85491Y916770D01*
X82492Y914271D02*
Y916770D01*
X81992Y917270D01*
X80992D01*
X80492Y916770D01*
Y914271D01*
X79493Y917270D02*
X78493D01*
X78993D01*
Y914271D01*
X79493Y914771D01*
X456730Y1079486D02*
X459729D01*
Y1077987D01*
X459229Y1077487D01*
X458229D01*
X457730Y1077987D01*
Y1079486D01*
Y1078486D02*
X456730Y1077487D01*
Y1076487D02*
Y1075487D01*
Y1075987D01*
X459729D01*
X459229Y1076487D01*
X459729Y1073988D02*
Y1071989D01*
X459229D01*
X457230Y1073988D01*
X456730D01*
X456230Y1070989D02*
Y1068989D01*
X459729Y1067990D02*
X457730D01*
X456730Y1066990D01*
X457730Y1065990D01*
X459729D01*
X459229Y1062991D02*
X459729Y1063491D01*
Y1064491D01*
X459229Y1064991D01*
X458729D01*
X458229Y1064491D01*
Y1063491D01*
X457730Y1062991D01*
X457230D01*
X456730Y1063491D01*
Y1064491D01*
X457230Y1064991D01*
X459729Y1061992D02*
X457230D01*
X456730Y1061492D01*
Y1060492D01*
X457230Y1059992D01*
X459729D01*
X459229Y1058993D02*
X459729Y1058493D01*
Y1057493D01*
X459229Y1056993D01*
X458729D01*
X458229Y1057493D01*
Y1057993D01*
Y1057493D01*
X457730Y1056993D01*
X457230D01*
X456730Y1057493D01*
Y1058493D01*
X457230Y1058993D01*
X241379Y1079916D02*
X244378D01*
Y1078417D01*
X243878Y1077917D01*
X242879D01*
X242379Y1078417D01*
Y1079916D01*
Y1078916D02*
X241379Y1077917D01*
Y1076917D02*
Y1075917D01*
Y1076417D01*
X244378D01*
X243878Y1076917D01*
X244378Y1074418D02*
Y1072419D01*
X243878D01*
X241879Y1074418D01*
X241379D01*
X240879Y1071419D02*
Y1069419D01*
X244378Y1068420D02*
X242379D01*
X241379Y1067420D01*
X242379Y1066420D01*
X244378D01*
X243878Y1063421D02*
X244378Y1063921D01*
Y1064921D01*
X243878Y1065421D01*
X243378D01*
X242879Y1064921D01*
Y1063921D01*
X242379Y1063421D01*
X241879D01*
X241379Y1063921D01*
Y1064921D01*
X241879Y1065421D01*
X244378Y1062422D02*
X241879D01*
X241379Y1061922D01*
Y1060922D01*
X241879Y1060422D01*
X244378D01*
X241379Y1057423D02*
Y1059423D01*
X243378Y1057423D01*
X243878D01*
X244378Y1057923D01*
Y1058923D01*
X243878Y1059423D01*
X28730Y991486D02*
X31729D01*
Y989986D01*
X31229Y989487D01*
X30229D01*
X29730Y989986D01*
Y991486D01*
Y990486D02*
X28730Y989487D01*
Y988487D02*
Y987487D01*
Y987987D01*
X31729D01*
X31229Y988487D01*
X31729Y985988D02*
Y983988D01*
X31229D01*
X29230Y985988D01*
X28730D01*
X28230Y982989D02*
Y980989D01*
X31729Y979990D02*
X29730D01*
X28730Y978990D01*
X29730Y977990D01*
X31729D01*
X31229Y974991D02*
X31729Y975491D01*
Y976491D01*
X31229Y976991D01*
X30729D01*
X30229Y976491D01*
Y975491D01*
X29730Y974991D01*
X29230D01*
X28730Y975491D01*
Y976491D01*
X29230Y976991D01*
X31729Y973992D02*
X29230D01*
X28730Y973492D01*
Y972492D01*
X29230Y971992D01*
X31729D01*
X28730Y970993D02*
Y969993D01*
Y970493D01*
X31729D01*
X31229Y970993D01*
X567667Y1186486D02*
X570666D01*
Y1184986D01*
X570166Y1184487D01*
X569166D01*
X568666Y1184986D01*
Y1186486D01*
Y1185486D02*
X567667Y1184487D01*
Y1183487D02*
Y1182487D01*
Y1182987D01*
X570666D01*
X570166Y1183487D01*
X570666Y1178988D02*
X570166Y1179988D01*
X569166Y1180988D01*
X568166D01*
X567667Y1180488D01*
Y1179488D01*
X568166Y1178988D01*
X568666D01*
X569166Y1179488D01*
Y1180988D01*
X567167Y1177989D02*
Y1175989D01*
X570666Y1174990D02*
X568666D01*
X567667Y1173990D01*
X568666Y1172990D01*
X570666D01*
X570166Y1169991D02*
X570666Y1170491D01*
Y1171491D01*
X570166Y1171991D01*
X569666D01*
X569166Y1171491D01*
Y1170491D01*
X568666Y1169991D01*
X568166D01*
X567667Y1170491D01*
Y1171491D01*
X568166Y1171991D01*
X570666Y1168992D02*
X568166D01*
X567667Y1168492D01*
Y1167492D01*
X568166Y1166992D01*
X570666D01*
X570166Y1165993D02*
X570666Y1165493D01*
Y1164493D01*
X570166Y1163993D01*
X569666D01*
X569166Y1164493D01*
Y1164993D01*
Y1164493D01*
X568666Y1163993D01*
X568166D01*
X567667Y1164493D01*
Y1165493D01*
X568166Y1165993D01*
X352315Y1186916D02*
X355315D01*
Y1185417D01*
X354815Y1184917D01*
X353815D01*
X353315Y1185417D01*
Y1186916D01*
Y1185916D02*
X352315Y1184917D01*
Y1183917D02*
Y1182917D01*
Y1183417D01*
X355315D01*
X354815Y1183917D01*
X355315Y1179418D02*
X354815Y1180418D01*
X353815Y1181418D01*
X352815D01*
X352315Y1180918D01*
Y1179918D01*
X352815Y1179418D01*
X353315D01*
X353815Y1179918D01*
Y1181418D01*
X351816Y1178419D02*
Y1176420D01*
X355315Y1175420D02*
X353315D01*
X352315Y1174420D01*
X353315Y1173420D01*
X355315D01*
X354815Y1170421D02*
X355315Y1170921D01*
Y1171921D01*
X354815Y1172421D01*
X354315D01*
X353815Y1171921D01*
Y1170921D01*
X353315Y1170421D01*
X352815D01*
X352315Y1170921D01*
Y1171921D01*
X352815Y1172421D01*
X355315Y1169422D02*
X352815D01*
X352315Y1168922D01*
Y1167922D01*
X352815Y1167422D01*
X355315D01*
X352315Y1164423D02*
Y1166423D01*
X354315Y1164423D01*
X354815D01*
X355315Y1164923D01*
Y1165923D01*
X354815Y1166423D01*
X50014Y1104097D02*
Y1107096D01*
X51514D01*
X52013Y1106596D01*
Y1105596D01*
X51514Y1105096D01*
X50014D01*
X51014D02*
X52013Y1104097D01*
X53013D02*
X54013D01*
X53513D01*
Y1107096D01*
X53013Y1106596D01*
X57512Y1107096D02*
X56512Y1106596D01*
X55512Y1105596D01*
Y1104596D01*
X56012Y1104097D01*
X57012D01*
X57512Y1104596D01*
Y1105096D01*
X57012Y1105596D01*
X55512D01*
X58511Y1103597D02*
X60511D01*
X61510Y1107096D02*
Y1105096D01*
X62510Y1104097D01*
X63510Y1105096D01*
Y1107096D01*
X66509Y1106596D02*
X66009Y1107096D01*
X65009D01*
X64509Y1106596D01*
Y1106096D01*
X65009Y1105596D01*
X66009D01*
X66509Y1105096D01*
Y1104596D01*
X66009Y1104097D01*
X65009D01*
X64509Y1104596D01*
X67508Y1107096D02*
Y1104596D01*
X68008Y1104097D01*
X69008D01*
X69508Y1104596D01*
Y1107096D01*
X70507Y1104097D02*
X71507D01*
X71007D01*
Y1107096D01*
X70507Y1106596D01*
X455514Y1179730D02*
Y1182729D01*
X457014D01*
X457513Y1182229D01*
Y1181229D01*
X457014Y1180730D01*
X455514D01*
X456514D02*
X457513Y1179730D01*
X458513D02*
X459513D01*
X459013D01*
Y1182729D01*
X458513Y1182229D01*
X463012Y1182729D02*
X461012D01*
Y1181229D01*
X462012Y1181729D01*
X462512D01*
X463012Y1181229D01*
Y1180230D01*
X462512Y1179730D01*
X461512D01*
X461012Y1180230D01*
X464011Y1179230D02*
X466011D01*
X467010Y1182729D02*
Y1180730D01*
X468010Y1179730D01*
X469010Y1180730D01*
Y1182729D01*
X472009Y1182229D02*
X471509Y1182729D01*
X470509D01*
X470009Y1182229D01*
Y1181729D01*
X470509Y1181229D01*
X471509D01*
X472009Y1180730D01*
Y1180230D01*
X471509Y1179730D01*
X470509D01*
X470009Y1180230D01*
X473008Y1182729D02*
Y1180230D01*
X473508Y1179730D01*
X474508D01*
X475008Y1180230D01*
Y1182729D01*
X476007Y1182229D02*
X476507Y1182729D01*
X477507D01*
X478007Y1182229D01*
Y1181729D01*
X477507Y1181229D01*
X477007D01*
X477507D01*
X478007Y1180730D01*
Y1180230D01*
X477507Y1179730D01*
X476507D01*
X476007Y1180230D01*
X240163Y1180160D02*
Y1183159D01*
X241663D01*
X242162Y1182659D01*
Y1181660D01*
X241663Y1181160D01*
X240163D01*
X241163D02*
X242162Y1180160D01*
X243162D02*
X244162D01*
X243662D01*
Y1183159D01*
X243162Y1182659D01*
X247661Y1183159D02*
X245661D01*
Y1181660D01*
X246661Y1182159D01*
X247161D01*
X247661Y1181660D01*
Y1180660D01*
X247161Y1180160D01*
X246161D01*
X245661Y1180660D01*
X248660Y1179660D02*
X250660D01*
X251659Y1183159D02*
Y1181160D01*
X252659Y1180160D01*
X253659Y1181160D01*
Y1183159D01*
X256658Y1182659D02*
X256158Y1183159D01*
X255158D01*
X254658Y1182659D01*
Y1182159D01*
X255158Y1181660D01*
X256158D01*
X256658Y1181160D01*
Y1180660D01*
X256158Y1180160D01*
X255158D01*
X254658Y1180660D01*
X257657Y1183159D02*
Y1180660D01*
X258157Y1180160D01*
X259157D01*
X259657Y1180660D01*
Y1183159D01*
X262656Y1180160D02*
X260656D01*
X262656Y1182159D01*
Y1182659D01*
X262156Y1183159D01*
X261156D01*
X260656Y1182659D01*
X485486Y1220770D02*
Y1217771D01*
X483987D01*
X483487Y1218271D01*
Y1219270D01*
X483987Y1219770D01*
X485486D01*
X484486D02*
X483487Y1220770D01*
X482487D02*
X481487D01*
X481987D01*
Y1217771D01*
X482487Y1218271D01*
X478488Y1220770D02*
Y1217771D01*
X479988Y1219270D01*
X477988D01*
X476989Y1221270D02*
X474989D01*
X473990Y1217771D02*
Y1219770D01*
X472990Y1220770D01*
X471990Y1219770D01*
Y1217771D01*
X468991Y1218271D02*
X469491Y1217771D01*
X470491D01*
X470991Y1218271D01*
Y1218771D01*
X470491Y1219270D01*
X469491D01*
X468991Y1219770D01*
Y1220270D01*
X469491Y1220770D01*
X470491D01*
X470991Y1220270D01*
X467992Y1217771D02*
Y1220270D01*
X467492Y1220770D01*
X466492D01*
X465992Y1220270D01*
Y1217771D01*
X464993Y1218271D02*
X464493Y1217771D01*
X463493D01*
X462993Y1218271D01*
Y1218771D01*
X463493Y1219270D01*
X463993D01*
X463493D01*
X462993Y1219770D01*
Y1220270D01*
X463493Y1220770D01*
X464493D01*
X464993Y1220270D01*
X270135Y1221200D02*
Y1218201D01*
X268636D01*
X268136Y1218701D01*
Y1219700D01*
X268636Y1220200D01*
X270135D01*
X269135D02*
X268136Y1221200D01*
X267136D02*
X266136D01*
X266636D01*
Y1218201D01*
X267136Y1218701D01*
X263137Y1221200D02*
Y1218201D01*
X264637Y1219700D01*
X262638D01*
X261638Y1221700D02*
X259638D01*
X258639Y1218201D02*
Y1220200D01*
X257639Y1221200D01*
X256639Y1220200D01*
Y1218201D01*
X253640Y1218701D02*
X254140Y1218201D01*
X255140D01*
X255640Y1218701D01*
Y1219201D01*
X255140Y1219700D01*
X254140D01*
X253640Y1220200D01*
Y1220700D01*
X254140Y1221200D01*
X255140D01*
X255640Y1220700D01*
X252641Y1218201D02*
Y1220700D01*
X252141Y1221200D01*
X251141D01*
X250641Y1220700D01*
Y1218201D01*
X247642Y1221200D02*
X249642D01*
X247642Y1219201D01*
Y1218701D01*
X248142Y1218201D01*
X249142D01*
X249642Y1218701D01*
X117486Y1176770D02*
Y1173771D01*
X115986D01*
X115487Y1174271D01*
Y1175270D01*
X115986Y1175770D01*
X117486D01*
X116486D02*
X115487Y1176770D01*
X114487D02*
X113487D01*
X113987D01*
Y1173771D01*
X114487Y1174271D01*
X110488Y1176770D02*
Y1173771D01*
X111988Y1175270D01*
X109988D01*
X108989Y1177270D02*
X106989D01*
X105990Y1173771D02*
Y1175770D01*
X104990Y1176770D01*
X103990Y1175770D01*
Y1173771D01*
X100991Y1174271D02*
X101491Y1173771D01*
X102491D01*
X102991Y1174271D01*
Y1174771D01*
X102491Y1175270D01*
X101491D01*
X100991Y1175770D01*
Y1176270D01*
X101491Y1176770D01*
X102491D01*
X102991Y1176270D01*
X99992Y1173771D02*
Y1176270D01*
X99492Y1176770D01*
X98492D01*
X97992Y1176270D01*
Y1173771D01*
X96993Y1176770D02*
X95993D01*
X96493D01*
Y1173771D01*
X96993Y1174271D01*
X586514Y1104230D02*
Y1107229D01*
X588013D01*
X588513Y1106729D01*
Y1105730D01*
X588013Y1105230D01*
X586514D01*
X587514D02*
X588513Y1104230D01*
X589513D02*
X590513D01*
X590013D01*
Y1107229D01*
X589513Y1106729D01*
X592012D02*
X592512Y1107229D01*
X593512D01*
X594011Y1106729D01*
Y1106229D01*
X593512Y1105730D01*
X593012D01*
X593512D01*
X594011Y1105230D01*
Y1104730D01*
X593512Y1104230D01*
X592512D01*
X592012Y1104730D01*
X595011Y1103730D02*
X597011D01*
X598010Y1107229D02*
Y1105230D01*
X599010Y1104230D01*
X600010Y1105230D01*
Y1107229D01*
X603009Y1106729D02*
X602509Y1107229D01*
X601509D01*
X601009Y1106729D01*
Y1106229D01*
X601509Y1105730D01*
X602509D01*
X603009Y1105230D01*
Y1104730D01*
X602509Y1104230D01*
X601509D01*
X601009Y1104730D01*
X604008Y1107229D02*
Y1104730D01*
X604508Y1104230D01*
X605508D01*
X606008Y1104730D01*
Y1107229D01*
X607007Y1106729D02*
X607507Y1107229D01*
X608507D01*
X609007Y1106729D01*
Y1106229D01*
X608507Y1105730D01*
X608007D01*
X608507D01*
X609007Y1105230D01*
Y1104730D01*
X608507Y1104230D01*
X607507D01*
X607007Y1104730D01*
X371163Y1104660D02*
Y1107659D01*
X372663D01*
X373162Y1107159D01*
Y1106160D01*
X372663Y1105660D01*
X371163D01*
X372163D02*
X373162Y1104660D01*
X374162D02*
X375162D01*
X374662D01*
Y1107659D01*
X374162Y1107159D01*
X376661D02*
X377161Y1107659D01*
X378161D01*
X378661Y1107159D01*
Y1106659D01*
X378161Y1106160D01*
X377661D01*
X378161D01*
X378661Y1105660D01*
Y1105160D01*
X378161Y1104660D01*
X377161D01*
X376661Y1105160D01*
X379660Y1104160D02*
X381660D01*
X382659Y1107659D02*
Y1105660D01*
X383659Y1104660D01*
X384659Y1105660D01*
Y1107659D01*
X387658Y1107159D02*
X387158Y1107659D01*
X386158D01*
X385658Y1107159D01*
Y1106659D01*
X386158Y1106160D01*
X387158D01*
X387658Y1105660D01*
Y1105160D01*
X387158Y1104660D01*
X386158D01*
X385658Y1105160D01*
X388657Y1107659D02*
Y1105160D01*
X389157Y1104660D01*
X390157D01*
X390657Y1105160D01*
Y1107659D01*
X393656Y1104660D02*
X391656D01*
X393656Y1106659D01*
Y1107159D01*
X393156Y1107659D01*
X392156D01*
X391656Y1107159D01*
X158514Y1016230D02*
Y1019229D01*
X160014D01*
X160513Y1018729D01*
Y1017729D01*
X160014Y1017230D01*
X158514D01*
X159514D02*
X160513Y1016230D01*
X161513D02*
X162513D01*
X162013D01*
Y1019229D01*
X161513Y1018729D01*
X164012D02*
X164512Y1019229D01*
X165512D01*
X166012Y1018729D01*
Y1018229D01*
X165512Y1017729D01*
X165012D01*
X165512D01*
X166012Y1017230D01*
Y1016730D01*
X165512Y1016230D01*
X164512D01*
X164012Y1016730D01*
X167011Y1015730D02*
X169011D01*
X170010Y1019229D02*
Y1017230D01*
X171010Y1016230D01*
X172010Y1017230D01*
Y1019229D01*
X175009Y1018729D02*
X174509Y1019229D01*
X173509D01*
X173009Y1018729D01*
Y1018229D01*
X173509Y1017729D01*
X174509D01*
X175009Y1017230D01*
Y1016730D01*
X174509Y1016230D01*
X173509D01*
X173009Y1016730D01*
X176008Y1019229D02*
Y1016730D01*
X176508Y1016230D01*
X177508D01*
X178008Y1016730D01*
Y1019229D01*
X179007Y1016230D02*
X180007D01*
X179507D01*
Y1019229D01*
X179007Y1018729D01*
X582730Y904486D02*
X585729D01*
Y902987D01*
X585229Y902487D01*
X584230D01*
X583730Y902987D01*
Y904486D01*
Y903486D02*
X582730Y902487D01*
Y901487D02*
Y900487D01*
Y900987D01*
X585729D01*
X585229Y901487D01*
X582730Y896989D02*
Y898988D01*
X584729Y896989D01*
X585229D01*
X585729Y897488D01*
Y898488D01*
X585229Y898988D01*
X582230Y895989D02*
Y893989D01*
X585729Y892990D02*
X583730D01*
X582730Y891990D01*
X583730Y890990D01*
X585729D01*
X585229Y887991D02*
X585729Y888491D01*
Y889491D01*
X585229Y889991D01*
X584729D01*
X584230Y889491D01*
Y888491D01*
X583730Y887991D01*
X583230D01*
X582730Y888491D01*
Y889491D01*
X583230Y889991D01*
X585729Y886992D02*
X583230D01*
X582730Y886492D01*
Y885492D01*
X583230Y884992D01*
X585729D01*
X585229Y883993D02*
X585729Y883493D01*
Y882493D01*
X585229Y881993D01*
X584729D01*
X584230Y882493D01*
Y882993D01*
Y882493D01*
X583730Y881993D01*
X583230D01*
X582730Y882493D01*
Y883493D01*
X583230Y883993D01*
X367379Y904916D02*
X370378D01*
Y903417D01*
X369878Y902917D01*
X368879D01*
X368379Y903417D01*
Y904916D01*
Y903916D02*
X367379Y902917D01*
Y901917D02*
Y900917D01*
Y901417D01*
X370378D01*
X369878Y901917D01*
X367379Y897419D02*
Y899418D01*
X369378Y897419D01*
X369878D01*
X370378Y897918D01*
Y898918D01*
X369878Y899418D01*
X366879Y896419D02*
Y894419D01*
X370378Y893420D02*
X368379D01*
X367379Y892420D01*
X368379Y891420D01*
X370378D01*
X369878Y888421D02*
X370378Y888921D01*
Y889921D01*
X369878Y890421D01*
X369378D01*
X368879Y889921D01*
Y888921D01*
X368379Y888421D01*
X367879D01*
X367379Y888921D01*
Y889921D01*
X367879Y890421D01*
X370378Y887422D02*
X367879D01*
X367379Y886922D01*
Y885922D01*
X367879Y885422D01*
X370378D01*
X367379Y882423D02*
Y884423D01*
X369378Y882423D01*
X369878D01*
X370378Y882923D01*
Y883923D01*
X369878Y884423D01*
X154730Y816486D02*
X157729D01*
Y814986D01*
X157229Y814487D01*
X156229D01*
X155730Y814986D01*
Y816486D01*
Y815486D02*
X154730Y814487D01*
Y813487D02*
Y812487D01*
Y812987D01*
X157729D01*
X157229Y813487D01*
X154730Y808988D02*
Y810988D01*
X156729Y808988D01*
X157229D01*
X157729Y809488D01*
Y810488D01*
X157229Y810988D01*
X154230Y807989D02*
Y805989D01*
X157729Y804990D02*
X155730D01*
X154730Y803990D01*
X155730Y802990D01*
X157729D01*
X157229Y799991D02*
X157729Y800491D01*
Y801491D01*
X157229Y801991D01*
X156729D01*
X156229Y801491D01*
Y800491D01*
X155730Y799991D01*
X155230D01*
X154730Y800491D01*
Y801491D01*
X155230Y801991D01*
X157729Y798992D02*
X155230D01*
X154730Y798492D01*
Y797492D01*
X155230Y796992D01*
X157729D01*
X154730Y795993D02*
Y794993D01*
Y795493D01*
X157729D01*
X157229Y795993D01*
X615986Y1004270D02*
Y1001271D01*
X614487D01*
X613987Y1001771D01*
Y1002770D01*
X614487Y1003270D01*
X615986D01*
X614986D02*
X613987Y1004270D01*
X612987D02*
X611987D01*
X612487D01*
Y1001271D01*
X612987Y1001771D01*
X610488Y1004270D02*
X609488D01*
X609988D01*
Y1001271D01*
X610488Y1001771D01*
X607989Y1004770D02*
X605989D01*
X604990Y1001271D02*
Y1003270D01*
X603990Y1004270D01*
X602990Y1003270D01*
Y1001271D01*
X599991Y1001771D02*
X600491Y1001271D01*
X601491D01*
X601991Y1001771D01*
Y1002271D01*
X601491Y1002770D01*
X600491D01*
X599991Y1003270D01*
Y1003770D01*
X600491Y1004270D01*
X601491D01*
X601991Y1003770D01*
X598992Y1001271D02*
Y1003770D01*
X598492Y1004270D01*
X597492D01*
X596992Y1003770D01*
Y1001271D01*
X595993Y1001771D02*
X595493Y1001271D01*
X594493D01*
X593993Y1001771D01*
Y1002271D01*
X594493Y1002770D01*
X594993D01*
X594493D01*
X593993Y1003270D01*
Y1003770D01*
X594493Y1004270D01*
X595493D01*
X595993Y1003770D01*
X400635Y1004700D02*
Y1001701D01*
X399136D01*
X398636Y1002201D01*
Y1003201D01*
X399136Y1003700D01*
X400635D01*
X399635D02*
X398636Y1004700D01*
X397636D02*
X396636D01*
X397136D01*
Y1001701D01*
X397636Y1002201D01*
X395137Y1004700D02*
X394137D01*
X394637D01*
Y1001701D01*
X395137Y1002201D01*
X392638Y1005200D02*
X390638D01*
X389639Y1001701D02*
Y1003700D01*
X388639Y1004700D01*
X387639Y1003700D01*
Y1001701D01*
X384640Y1002201D02*
X385140Y1001701D01*
X386140D01*
X386640Y1002201D01*
Y1002701D01*
X386140Y1003201D01*
X385140D01*
X384640Y1003700D01*
Y1004200D01*
X385140Y1004700D01*
X386140D01*
X386640Y1004200D01*
X383641Y1001701D02*
Y1004200D01*
X383141Y1004700D01*
X382141D01*
X381641Y1004200D01*
Y1001701D01*
X378642Y1004700D02*
X380642D01*
X378642Y1002701D01*
Y1002201D01*
X379142Y1001701D01*
X380142D01*
X380642Y1002201D01*
X187986Y916270D02*
Y913271D01*
X186486D01*
X185987Y913771D01*
Y914771D01*
X186486Y915270D01*
X187986D01*
X186986D02*
X185987Y916270D01*
X184987D02*
X183987D01*
X184487D01*
Y913271D01*
X184987Y913771D01*
X182488Y916270D02*
X181488D01*
X181988D01*
Y913271D01*
X182488Y913771D01*
X179989Y916770D02*
X177989D01*
X176990Y913271D02*
Y915270D01*
X175990Y916270D01*
X174990Y915270D01*
Y913271D01*
X171991Y913771D02*
X172491Y913271D01*
X173491D01*
X173990Y913771D01*
Y914271D01*
X173491Y914771D01*
X172491D01*
X171991Y915270D01*
Y915770D01*
X172491Y916270D01*
X173491D01*
X173990Y915770D01*
X170991Y913271D02*
Y915770D01*
X170492Y916270D01*
X169492D01*
X168992Y915770D01*
Y913271D01*
X167992Y916270D02*
X166993D01*
X167493D01*
Y913271D01*
X167992Y913771D01*
X632730Y1171486D02*
X635729D01*
Y1169986D01*
X635229Y1169487D01*
X634230D01*
X633730Y1169986D01*
Y1171486D01*
Y1170486D02*
X632730Y1169487D01*
Y1168487D02*
Y1167487D01*
Y1167987D01*
X635729D01*
X635229Y1168487D01*
Y1165988D02*
X635729Y1165488D01*
Y1164488D01*
X635229Y1163988D01*
X633230D01*
X632730Y1164488D01*
Y1165488D01*
X633230Y1165988D01*
X635229D01*
X632230Y1162989D02*
Y1160989D01*
X635729Y1159990D02*
X633730D01*
X632730Y1158990D01*
X633730Y1157990D01*
X635729D01*
X635229Y1154991D02*
X635729Y1155491D01*
Y1156491D01*
X635229Y1156991D01*
X634729D01*
X634230Y1156491D01*
Y1155491D01*
X633730Y1154991D01*
X633230D01*
X632730Y1155491D01*
Y1156491D01*
X633230Y1156991D01*
X635729Y1153992D02*
X633230D01*
X632730Y1153492D01*
Y1152492D01*
X633230Y1151992D01*
X635729D01*
X635229Y1150993D02*
X635729Y1150493D01*
Y1149493D01*
X635229Y1148993D01*
X634729D01*
X634230Y1149493D01*
Y1149993D01*
Y1149493D01*
X633730Y1148993D01*
X633230D01*
X632730Y1149493D01*
Y1150493D01*
X633230Y1150993D01*
X417379Y1171916D02*
X420378D01*
Y1170417D01*
X419878Y1169917D01*
X418879D01*
X418379Y1170417D01*
Y1171916D01*
Y1170916D02*
X417379Y1169917D01*
Y1168917D02*
Y1167917D01*
Y1168417D01*
X420378D01*
X419878Y1168917D01*
Y1166418D02*
X420378Y1165918D01*
Y1164918D01*
X419878Y1164418D01*
X417879D01*
X417379Y1164918D01*
Y1165918D01*
X417879Y1166418D01*
X419878D01*
X416879Y1163419D02*
Y1161420D01*
X420378Y1160420D02*
X418379D01*
X417379Y1159420D01*
X418379Y1158420D01*
X420378D01*
X419878Y1155421D02*
X420378Y1155921D01*
Y1156921D01*
X419878Y1157421D01*
X419378D01*
X418879Y1156921D01*
Y1155921D01*
X418379Y1155421D01*
X417879D01*
X417379Y1155921D01*
Y1156921D01*
X417879Y1157421D01*
X420378Y1154422D02*
X417879D01*
X417379Y1153922D01*
Y1152922D01*
X417879Y1152422D01*
X420378D01*
X417379Y1149423D02*
Y1151423D01*
X419378Y1149423D01*
X419878D01*
X420378Y1149923D01*
Y1150923D01*
X419878Y1151423D01*
X172514Y1087230D02*
Y1090229D01*
X174014D01*
X174513Y1089729D01*
Y1088729D01*
X174014Y1088230D01*
X172514D01*
X173514D02*
X174513Y1087230D01*
X175513D02*
X176513D01*
X176013D01*
Y1090229D01*
X175513Y1089729D01*
X178012D02*
X178512Y1090229D01*
X179512D01*
X180012Y1089729D01*
Y1087730D01*
X179512Y1087230D01*
X178512D01*
X178012Y1087730D01*
Y1089729D01*
X181011Y1086730D02*
X183011D01*
X184010Y1090229D02*
Y1088230D01*
X185010Y1087230D01*
X186010Y1088230D01*
Y1090229D01*
X189009Y1089729D02*
X188509Y1090229D01*
X187509D01*
X187009Y1089729D01*
Y1089229D01*
X187509Y1088729D01*
X188509D01*
X189009Y1088230D01*
Y1087730D01*
X188509Y1087230D01*
X187509D01*
X187009Y1087730D01*
X190008Y1090229D02*
Y1087730D01*
X190508Y1087230D01*
X191508D01*
X192008Y1087730D01*
Y1090229D01*
X193007Y1087230D02*
X194007D01*
X193507D01*
Y1090229D01*
X193007Y1089729D01*
X632730Y1232486D02*
X635729D01*
Y1230986D01*
X635229Y1230487D01*
X634230D01*
X633730Y1230986D01*
Y1232486D01*
Y1231486D02*
X632730Y1230487D01*
X633230Y1229487D02*
X632730Y1228987D01*
Y1227988D01*
X633230Y1227488D01*
X635229D01*
X635729Y1227988D01*
Y1228987D01*
X635229Y1229487D01*
X634729D01*
X634230Y1228987D01*
Y1227488D01*
X632230Y1226488D02*
Y1224489D01*
X635729Y1223489D02*
X633730D01*
X632730Y1222489D01*
X633730Y1221490D01*
X635729D01*
X635229Y1218491D02*
X635729Y1218990D01*
Y1219990D01*
X635229Y1220490D01*
X634729D01*
X634230Y1219990D01*
Y1218990D01*
X633730Y1218491D01*
X633230D01*
X632730Y1218990D01*
Y1219990D01*
X633230Y1220490D01*
X635729Y1217491D02*
X633230D01*
X632730Y1216991D01*
Y1215991D01*
X633230Y1215491D01*
X635729D01*
X635229Y1214492D02*
X635729Y1213992D01*
Y1212992D01*
X635229Y1212493D01*
X634729D01*
X634230Y1212992D01*
Y1213492D01*
Y1212992D01*
X633730Y1212493D01*
X633230D01*
X632730Y1212992D01*
Y1213992D01*
X633230Y1214492D01*
X417379Y1232916D02*
X420378D01*
Y1231417D01*
X419878Y1230917D01*
X418879D01*
X418379Y1231417D01*
Y1232916D01*
Y1231916D02*
X417379Y1230917D01*
X417879Y1229917D02*
X417379Y1229417D01*
Y1228418D01*
X417879Y1227918D01*
X419878D01*
X420378Y1228418D01*
Y1229417D01*
X419878Y1229917D01*
X419378D01*
X418879Y1229417D01*
Y1227918D01*
X416879Y1226918D02*
Y1224919D01*
X420378Y1223919D02*
X418379D01*
X417379Y1222919D01*
X418379Y1221920D01*
X420378D01*
X419878Y1218921D02*
X420378Y1219420D01*
Y1220420D01*
X419878Y1220920D01*
X419378D01*
X418879Y1220420D01*
Y1219420D01*
X418379Y1218921D01*
X417879D01*
X417379Y1219420D01*
Y1220420D01*
X417879Y1220920D01*
X420378Y1217921D02*
X417879D01*
X417379Y1217421D01*
Y1216421D01*
X417879Y1215922D01*
X420378D01*
X417379Y1212923D02*
Y1214922D01*
X419378Y1212923D01*
X419878D01*
X420378Y1213422D01*
Y1214422D01*
X419878Y1214922D01*
X202486Y1133270D02*
Y1130271D01*
X200986D01*
X200487Y1130771D01*
Y1131770D01*
X200986Y1132270D01*
X202486D01*
X201486D02*
X200487Y1133270D01*
X199487Y1132770D02*
X198987Y1133270D01*
X197987D01*
X197488Y1132770D01*
Y1130771D01*
X197987Y1130271D01*
X198987D01*
X199487Y1130771D01*
Y1131271D01*
X198987Y1131770D01*
X197488D01*
X196488Y1133770D02*
X194489D01*
X193489Y1130271D02*
Y1132270D01*
X192489Y1133270D01*
X191490Y1132270D01*
Y1130271D01*
X188491Y1130771D02*
X188990Y1130271D01*
X189990D01*
X190490Y1130771D01*
Y1131271D01*
X189990Y1131770D01*
X188990D01*
X188491Y1132270D01*
Y1132770D01*
X188990Y1133270D01*
X189990D01*
X190490Y1132770D01*
X187491Y1130271D02*
Y1132770D01*
X186991Y1133270D01*
X185991D01*
X185492Y1132770D01*
Y1130271D01*
X184492Y1133270D02*
X183492D01*
X183992D01*
Y1130271D01*
X184492Y1130771D01*
X632730Y1287986D02*
X635729D01*
Y1286487D01*
X635229Y1285987D01*
X634230D01*
X633730Y1286487D01*
Y1287986D01*
Y1286986D02*
X632730Y1285987D01*
X635229Y1284987D02*
X635729Y1284487D01*
Y1283488D01*
X635229Y1282988D01*
X634729D01*
X634230Y1283488D01*
X633730Y1282988D01*
X633230D01*
X632730Y1283488D01*
Y1284487D01*
X633230Y1284987D01*
X633730D01*
X634230Y1284487D01*
X634729Y1284987D01*
X635229D01*
X634230Y1284487D02*
Y1283488D01*
X632230Y1281988D02*
Y1279989D01*
X635729Y1278989D02*
X633730D01*
X632730Y1277989D01*
X633730Y1276990D01*
X635729D01*
X635229Y1273990D02*
X635729Y1274490D01*
Y1275490D01*
X635229Y1275990D01*
X634729D01*
X634230Y1275490D01*
Y1274490D01*
X633730Y1273990D01*
X633230D01*
X632730Y1274490D01*
Y1275490D01*
X633230Y1275990D01*
X635729Y1272991D02*
X633230D01*
X632730Y1272491D01*
Y1271491D01*
X633230Y1270992D01*
X635729D01*
X635229Y1269992D02*
X635729Y1269492D01*
Y1268492D01*
X635229Y1267992D01*
X634729D01*
X634230Y1268492D01*
Y1268992D01*
Y1268492D01*
X633730Y1267992D01*
X633230D01*
X632730Y1268492D01*
Y1269492D01*
X633230Y1269992D01*
X417379Y1288416D02*
X420378D01*
Y1286917D01*
X419878Y1286417D01*
X418879D01*
X418379Y1286917D01*
Y1288416D01*
Y1287416D02*
X417379Y1286417D01*
X419878Y1285417D02*
X420378Y1284917D01*
Y1283918D01*
X419878Y1283418D01*
X419378D01*
X418879Y1283918D01*
X418379Y1283418D01*
X417879D01*
X417379Y1283918D01*
Y1284917D01*
X417879Y1285417D01*
X418379D01*
X418879Y1284917D01*
X419378Y1285417D01*
X419878D01*
X418879Y1284917D02*
Y1283918D01*
X416879Y1282418D02*
Y1280419D01*
X420378Y1279419D02*
X418379D01*
X417379Y1278419D01*
X418379Y1277420D01*
X420378D01*
X419878Y1274421D02*
X420378Y1274920D01*
Y1275920D01*
X419878Y1276420D01*
X419378D01*
X418879Y1275920D01*
Y1274920D01*
X418379Y1274421D01*
X417879D01*
X417379Y1274920D01*
Y1275920D01*
X417879Y1276420D01*
X420378Y1273421D02*
X417879D01*
X417379Y1272921D01*
Y1271921D01*
X417879Y1271422D01*
X420378D01*
X417379Y1268422D02*
Y1270422D01*
X419378Y1268422D01*
X419878D01*
X420378Y1268922D01*
Y1269922D01*
X419878Y1270422D01*
X172514Y1179730D02*
Y1182729D01*
X174014D01*
X174513Y1182229D01*
Y1181229D01*
X174014Y1180730D01*
X172514D01*
X173514D02*
X174513Y1179730D01*
X175513Y1182229D02*
X176013Y1182729D01*
X177013D01*
X177512Y1182229D01*
Y1181729D01*
X177013Y1181229D01*
X177512Y1180730D01*
Y1180230D01*
X177013Y1179730D01*
X176013D01*
X175513Y1180230D01*
Y1180730D01*
X176013Y1181229D01*
X175513Y1181729D01*
Y1182229D01*
X176013Y1181229D02*
X177013D01*
X178512Y1179230D02*
X180511D01*
X181511Y1182729D02*
Y1180730D01*
X182511Y1179730D01*
X183510Y1180730D01*
Y1182729D01*
X186509Y1182229D02*
X186010Y1182729D01*
X185010D01*
X184510Y1182229D01*
Y1181729D01*
X185010Y1181229D01*
X186010D01*
X186509Y1180730D01*
Y1180230D01*
X186010Y1179730D01*
X185010D01*
X184510Y1180230D01*
X187509Y1182729D02*
Y1180230D01*
X188009Y1179730D01*
X189009D01*
X189508Y1180230D01*
Y1182729D01*
X190508Y1179730D02*
X191508D01*
X191008D01*
Y1182729D01*
X190508Y1182229D01*
X1049514Y1042122D02*
Y1039123D01*
X1051013D01*
X1051513Y1039623D01*
Y1040622D01*
X1051013Y1041122D01*
X1049514D01*
X1050514D02*
X1051513Y1042122D01*
X1052513Y1039123D02*
X1054512D01*
Y1039623D01*
X1052513Y1041622D01*
Y1042122D01*
X1099014D02*
Y1039123D01*
X1100514D01*
X1101013Y1039623D01*
Y1040622D01*
X1100514Y1041122D01*
X1099014D01*
X1100014D02*
X1101013Y1042122D01*
X1104012Y1039123D02*
X1103013Y1039623D01*
X1102013Y1040622D01*
Y1041622D01*
X1102513Y1042122D01*
X1103512D01*
X1104012Y1041622D01*
Y1041122D01*
X1103512Y1040622D01*
X1102013D01*
X1148514Y1043270D02*
Y1040271D01*
X1150014D01*
X1150513Y1040771D01*
Y1041770D01*
X1150014Y1042270D01*
X1148514D01*
X1149514D02*
X1150513Y1043270D01*
X1153512Y1040271D02*
X1151513D01*
Y1041770D01*
X1152513Y1041271D01*
X1153012D01*
X1153512Y1041770D01*
Y1042770D01*
X1153012Y1043270D01*
X1152013D01*
X1151513Y1042770D01*
X358730Y626986D02*
X361729D01*
Y625486D01*
X361229Y624987D01*
X360230D01*
X359730Y625486D01*
Y626986D01*
Y625986D02*
X358730Y624987D01*
Y622487D02*
X361729D01*
X360230Y623987D01*
Y621988D01*
X426230Y626986D02*
X429229D01*
Y625486D01*
X428729Y624987D01*
X427730D01*
X427230Y625486D01*
Y626986D01*
Y625986D02*
X426230Y624987D01*
X428729Y623987D02*
X429229Y623487D01*
Y622487D01*
X428729Y621988D01*
X428229D01*
X427730Y622487D01*
Y622987D01*
Y622487D01*
X427230Y621988D01*
X426730D01*
X426230Y622487D01*
Y623487D01*
X426730Y623987D01*
X493730Y626986D02*
X496729D01*
Y625486D01*
X496229Y624987D01*
X495230D01*
X494730Y625486D01*
Y626986D01*
Y625986D02*
X493730Y624987D01*
Y621988D02*
Y623987D01*
X495729Y621988D01*
X496229D01*
X496729Y622487D01*
Y623487D01*
X496229Y623987D01*
X1443210Y1021014D02*
X1440211D01*
Y1022514D01*
X1440711Y1023013D01*
X1441711D01*
X1442210Y1022514D01*
Y1021014D01*
Y1022014D02*
X1443210Y1023013D01*
Y1024013D02*
Y1025013D01*
Y1024513D01*
X1440211D01*
X1440711Y1024013D01*
D25*
X524958Y932010D02*
X520793D01*
X519960Y931177D01*
Y929511D01*
X520793Y928678D01*
X524958D01*
X524125Y927012D02*
X524958Y926179D01*
Y924512D01*
X524125Y923679D01*
X523292D01*
X522459Y924512D01*
Y925346D01*
Y924512D01*
X521626Y923679D01*
X520793D01*
X519960Y924512D01*
Y926179D01*
X520793Y927012D01*
X519127Y922013D02*
Y918681D01*
X524958Y917015D02*
X521626D01*
X519960Y915349D01*
X521626Y913683D01*
X524958D01*
X524125Y908684D02*
X524958Y909517D01*
Y911183D01*
X524125Y912017D01*
X523292D01*
X522459Y911183D01*
Y909517D01*
X521626Y908684D01*
X520793D01*
X519960Y909517D01*
Y911183D01*
X520793Y912017D01*
X524958Y907018D02*
X520793D01*
X519960Y906185D01*
Y904519D01*
X520793Y903686D01*
X524958D01*
X524125Y902020D02*
X524958Y901187D01*
Y899521D01*
X524125Y898688D01*
X523292D01*
X522459Y899521D01*
Y900354D01*
Y899521D01*
X521626Y898688D01*
X520793D01*
X519960Y899521D01*
Y901187D01*
X520793Y902020D01*
X309607Y932440D02*
X305442D01*
X304609Y931607D01*
Y929941D01*
X305442Y929108D01*
X309607D01*
X308774Y927442D02*
X309607Y926609D01*
Y924942D01*
X308774Y924109D01*
X307941D01*
X307108Y924942D01*
Y925776D01*
Y924942D01*
X306275Y924109D01*
X305442D01*
X304609Y924942D01*
Y926609D01*
X305442Y927442D01*
X303776Y922443D02*
Y919111D01*
X309607Y917445D02*
X306275D01*
X304609Y915779D01*
X306275Y914113D01*
X309607D01*
X308774Y909114D02*
X309607Y909947D01*
Y911613D01*
X308774Y912447D01*
X307941D01*
X307108Y911613D01*
Y909947D01*
X306275Y909114D01*
X305442D01*
X304609Y909947D01*
Y911613D01*
X305442Y912447D01*
X309607Y907448D02*
X305442D01*
X304609Y906615D01*
Y904949D01*
X305442Y904116D01*
X309607D01*
X304609Y899118D02*
Y902450D01*
X307941Y899118D01*
X308774D01*
X309607Y899951D01*
Y901617D01*
X308774Y902450D01*
X96958Y844010D02*
X92793D01*
X91960Y843177D01*
Y841511D01*
X92793Y840678D01*
X96958D01*
X96125Y839012D02*
X96958Y838179D01*
Y836512D01*
X96125Y835679D01*
X95292D01*
X94459Y836512D01*
Y837346D01*
Y836512D01*
X93626Y835679D01*
X92793D01*
X91960Y836512D01*
Y838179D01*
X92793Y839012D01*
X91127Y834013D02*
Y830681D01*
X96958Y829015D02*
X93626D01*
X91960Y827349D01*
X93626Y825683D01*
X96958D01*
X96125Y820684D02*
X96958Y821517D01*
Y823184D01*
X96125Y824016D01*
X95292D01*
X94459Y823184D01*
Y821517D01*
X93626Y820684D01*
X92793D01*
X91960Y821517D01*
Y823184D01*
X92793Y824016D01*
X96958Y819018D02*
X92793D01*
X91960Y818185D01*
Y816519D01*
X92793Y815686D01*
X96958D01*
X91960Y814020D02*
Y812354D01*
Y813187D01*
X96958D01*
X96125Y814020D01*
X1397490Y959458D02*
Y955293D01*
X1398323Y954460D01*
X1399989D01*
X1400822Y955293D01*
Y959458D01*
X1402488Y954460D02*
X1404155D01*
X1403322D01*
Y959458D01*
X1402488Y958625D01*
X1759680Y540188D02*
X1763012D01*
X1761346D01*
Y535190D01*
X1764678D02*
Y540188D01*
X1767177D01*
X1768011Y539355D01*
Y537689D01*
X1767177Y536856D01*
X1764678D01*
X1769677Y536023D02*
X1770510Y535190D01*
X1772176D01*
X1773009Y536023D01*
Y539355D01*
X1772176Y540188D01*
X1770510D01*
X1769677Y539355D01*
Y538522D01*
X1770510Y537689D01*
X1773009D01*
X1254680Y1077188D02*
X1258012D01*
X1256346D01*
Y1072190D01*
X1259678D02*
Y1077188D01*
X1262178D01*
X1263011Y1076355D01*
Y1074689D01*
X1262178Y1073856D01*
X1259678D01*
X1264677Y1076355D02*
X1265510Y1077188D01*
X1267176D01*
X1268009Y1076355D01*
Y1075522D01*
X1267176Y1074689D01*
X1268009Y1073856D01*
Y1073023D01*
X1267176Y1072190D01*
X1265510D01*
X1264677Y1073023D01*
Y1073856D01*
X1265510Y1074689D01*
X1264677Y1075522D01*
Y1076355D01*
X1265510Y1074689D02*
X1267176D01*
X1632680Y886188D02*
X1636012D01*
X1634346D01*
Y881190D01*
X1637678D02*
Y886188D01*
X1640178D01*
X1641011Y885355D01*
Y883689D01*
X1640178Y882856D01*
X1637678D01*
X1642677Y886188D02*
X1646009D01*
Y885355D01*
X1642677Y882023D01*
Y881190D01*
X1572680Y356188D02*
X1576012D01*
X1574346D01*
Y351190D01*
X1577678D02*
Y356188D01*
X1580178D01*
X1581011Y355355D01*
Y353689D01*
X1580178Y352856D01*
X1577678D01*
X1586009Y356188D02*
X1584343Y355355D01*
X1582677Y353689D01*
Y352023D01*
X1583510Y351190D01*
X1585176D01*
X1586009Y352023D01*
Y352856D01*
X1585176Y353689D01*
X1582677D01*
X1537812Y514680D02*
Y518012D01*
Y516346D01*
X1542810D01*
Y519678D02*
X1537812D01*
Y522178D01*
X1538645Y523011D01*
X1540311D01*
X1541144Y522178D01*
Y519678D01*
X1537812Y528009D02*
Y524677D01*
X1540311D01*
X1539478Y526343D01*
Y527176D01*
X1540311Y528009D01*
X1541977D01*
X1542810Y527176D01*
Y525510D01*
X1541977Y524677D01*
X1449781Y1253188D02*
X1453114D01*
X1451448D01*
Y1248190D01*
X1454780D02*
Y1253188D01*
X1457279D01*
X1458112Y1252355D01*
Y1250689D01*
X1457279Y1249856D01*
X1454780D01*
X1462277Y1248190D02*
Y1253188D01*
X1459778Y1250689D01*
X1463111D01*
X463188Y1021820D02*
Y1018488D01*
Y1020154D01*
X458190D01*
Y1016822D02*
X463188D01*
Y1014323D01*
X462355Y1013489D01*
X460689D01*
X459856Y1014323D01*
Y1016822D01*
X462355Y1011823D02*
X463188Y1010990D01*
Y1009324D01*
X462355Y1008491D01*
X461522D01*
X460689Y1009324D01*
Y1010157D01*
Y1009324D01*
X459856Y1008491D01*
X459023D01*
X458190Y1009324D01*
Y1010990D01*
X459023Y1011823D01*
X457357Y1006825D02*
Y1003493D01*
X463188Y1001827D02*
X459856D01*
X458190Y1000161D01*
X459856Y998494D01*
X463188D01*
X462355Y993496D02*
X463188Y994329D01*
Y995995D01*
X462355Y996828D01*
X461522D01*
X460689Y995995D01*
Y994329D01*
X459856Y993496D01*
X459023D01*
X458190Y994329D01*
Y995995D01*
X459023Y996828D01*
X463188Y991830D02*
X459023D01*
X458190Y990997D01*
Y989331D01*
X459023Y988498D01*
X463188D01*
X462355Y986832D02*
X463188Y985998D01*
Y984332D01*
X462355Y983499D01*
X461522D01*
X460689Y984332D01*
Y985165D01*
Y984332D01*
X459856Y983499D01*
X459023D01*
X458190Y984332D01*
Y985998D01*
X459023Y986832D01*
X247837Y1022250D02*
Y1018918D01*
Y1020584D01*
X242839D01*
Y1017252D02*
X247837D01*
Y1014753D01*
X247004Y1013919D01*
X245338D01*
X244505Y1014753D01*
Y1017252D01*
X247004Y1012253D02*
X247837Y1011420D01*
Y1009754D01*
X247004Y1008921D01*
X246171D01*
X245338Y1009754D01*
Y1010587D01*
Y1009754D01*
X244505Y1008921D01*
X243672D01*
X242839Y1009754D01*
Y1011420D01*
X243672Y1012253D01*
X242006Y1007255D02*
Y1003923D01*
X247837Y1002257D02*
X244505D01*
X242839Y1000591D01*
X244505Y998924D01*
X247837D01*
X247004Y993926D02*
X247837Y994759D01*
Y996425D01*
X247004Y997258D01*
X246171D01*
X245338Y996425D01*
Y994759D01*
X244505Y993926D01*
X243672D01*
X242839Y994759D01*
Y996425D01*
X243672Y997258D01*
X247837Y992260D02*
X243672D01*
X242839Y991427D01*
Y989761D01*
X243672Y988928D01*
X247837D01*
X242839Y983929D02*
Y987262D01*
X246171Y983929D01*
X247004D01*
X247837Y984762D01*
Y986428D01*
X247004Y987262D01*
X35188Y933820D02*
Y930488D01*
Y932154D01*
X30190D01*
Y928822D02*
X35188D01*
Y926322D01*
X34355Y925489D01*
X32689D01*
X31856Y926322D01*
Y928822D01*
X34355Y923823D02*
X35188Y922990D01*
Y921324D01*
X34355Y920491D01*
X33522D01*
X32689Y921324D01*
Y922157D01*
Y921324D01*
X31856Y920491D01*
X31023D01*
X30190Y921324D01*
Y922990D01*
X31023Y923823D01*
X29357Y918825D02*
Y915493D01*
X35188Y913827D02*
X31856D01*
X30190Y912160D01*
X31856Y910494D01*
X35188D01*
X34355Y905496D02*
X35188Y906329D01*
Y907995D01*
X34355Y908828D01*
X33522D01*
X32689Y907995D01*
Y906329D01*
X31856Y905496D01*
X31023D01*
X30190Y906329D01*
Y907995D01*
X31023Y908828D01*
X35188Y903830D02*
X31023D01*
X30190Y902997D01*
Y901331D01*
X31023Y900498D01*
X35188D01*
X30190Y898831D02*
Y897165D01*
Y897998D01*
X35188D01*
X34355Y898831D01*
X513180Y846688D02*
X516512D01*
X514846D01*
Y841690D01*
X518178D02*
Y846688D01*
X520677D01*
X521511Y845855D01*
Y844189D01*
X520677Y843356D01*
X518178D01*
X526509Y841690D02*
X523177D01*
X526509Y845022D01*
Y845855D01*
X525676Y846688D01*
X524010D01*
X523177Y845855D01*
X528175Y840857D02*
X531507D01*
X533173Y846688D02*
Y843356D01*
X534840Y841690D01*
X536506Y843356D01*
Y846688D01*
X541504Y845855D02*
X540671Y846688D01*
X539005D01*
X538172Y845855D01*
Y845022D01*
X539005Y844189D01*
X540671D01*
X541504Y843356D01*
Y842523D01*
X540671Y841690D01*
X539005D01*
X538172Y842523D01*
X543170Y846688D02*
Y842523D01*
X544003Y841690D01*
X545669D01*
X546502Y842523D01*
Y846688D01*
X548168Y845855D02*
X549002Y846688D01*
X550668D01*
X551501Y845855D01*
Y845022D01*
X550668Y844189D01*
X549835D01*
X550668D01*
X551501Y843356D01*
Y842523D01*
X550668Y841690D01*
X549002D01*
X548168Y842523D01*
X297829Y847118D02*
X301161D01*
X299495D01*
Y842120D01*
X302827D02*
Y847118D01*
X305327D01*
X306160Y846285D01*
Y844619D01*
X305327Y843786D01*
X302827D01*
X311158Y842120D02*
X307826D01*
X311158Y845452D01*
Y846285D01*
X310325Y847118D01*
X308659D01*
X307826Y846285D01*
X312824Y841287D02*
X316156D01*
X317822Y847118D02*
Y843786D01*
X319489Y842120D01*
X321155Y843786D01*
Y847118D01*
X326153Y846285D02*
X325320Y847118D01*
X323654D01*
X322821Y846285D01*
Y845452D01*
X323654Y844619D01*
X325320D01*
X326153Y843786D01*
Y842953D01*
X325320Y842120D01*
X323654D01*
X322821Y842953D01*
X327819Y847118D02*
Y842953D01*
X328652Y842120D01*
X330318D01*
X331152Y842953D01*
Y847118D01*
X336150Y842120D02*
X332818D01*
X336150Y845452D01*
Y846285D01*
X335317Y847118D01*
X333651D01*
X332818Y846285D01*
X85180Y758688D02*
X88512D01*
X86846D01*
Y753690D01*
X90178D02*
Y758688D01*
X92677D01*
X93511Y757855D01*
Y756189D01*
X92677Y755356D01*
X90178D01*
X98509Y753690D02*
X95177D01*
X98509Y757022D01*
Y757855D01*
X97676Y758688D01*
X96010D01*
X95177Y757855D01*
X100175Y752857D02*
X103507D01*
X105173Y758688D02*
Y755356D01*
X106840Y753690D01*
X108506Y755356D01*
Y758688D01*
X113504Y757855D02*
X112671Y758688D01*
X111005D01*
X110172Y757855D01*
Y757022D01*
X111005Y756189D01*
X112671D01*
X113504Y755356D01*
Y754523D01*
X112671Y753690D01*
X111005D01*
X110172Y754523D01*
X115170Y758688D02*
Y754523D01*
X116003Y753690D01*
X117669D01*
X118502Y754523D01*
Y758688D01*
X120169Y753690D02*
X121835D01*
X121002D01*
Y758688D01*
X120169Y757855D01*
X623820Y938312D02*
X620488D01*
X622154D01*
Y943310D01*
X618822D02*
Y938312D01*
X616322D01*
X615489Y939145D01*
Y940811D01*
X616322Y941644D01*
X618822D01*
X613823Y943310D02*
X612157D01*
X612990D01*
Y938312D01*
X613823Y939145D01*
X609658Y944143D02*
X606326D01*
X604660Y938312D02*
Y941644D01*
X602994Y943310D01*
X601327Y941644D01*
Y938312D01*
X596329Y939145D02*
X597162Y938312D01*
X598828D01*
X599661Y939145D01*
Y939978D01*
X598828Y940811D01*
X597162D01*
X596329Y941644D01*
Y942477D01*
X597162Y943310D01*
X598828D01*
X599661Y942477D01*
X594663Y938312D02*
Y942477D01*
X593830Y943310D01*
X592164D01*
X591331Y942477D01*
Y938312D01*
X589664Y939145D02*
X588831Y938312D01*
X587165D01*
X586332Y939145D01*
Y939978D01*
X587165Y940811D01*
X587998D01*
X587165D01*
X586332Y941644D01*
Y942477D01*
X587165Y943310D01*
X588831D01*
X589664Y942477D01*
X408469Y938742D02*
X405137D01*
X406803D01*
Y943740D01*
X403471D02*
Y938742D01*
X400971D01*
X400138Y939575D01*
Y941241D01*
X400971Y942074D01*
X403471D01*
X398472Y943740D02*
X396806D01*
X397639D01*
Y938742D01*
X398472Y939575D01*
X394307Y944573D02*
X390975D01*
X389309Y938742D02*
Y942074D01*
X387643Y943740D01*
X385976Y942074D01*
Y938742D01*
X380978Y939575D02*
X381811Y938742D01*
X383477D01*
X384310Y939575D01*
Y940408D01*
X383477Y941241D01*
X381811D01*
X380978Y942074D01*
Y942907D01*
X381811Y943740D01*
X383477D01*
X384310Y942907D01*
X379312Y938742D02*
Y942907D01*
X378479Y943740D01*
X376813D01*
X375980Y942907D01*
Y938742D01*
X370981Y943740D02*
X374314D01*
X370981Y940408D01*
Y939575D01*
X371814Y938742D01*
X373480D01*
X374314Y939575D01*
X195820Y850312D02*
X192488D01*
X194154D01*
Y855310D01*
X190822D02*
Y850312D01*
X188323D01*
X187489Y851145D01*
Y852811D01*
X188323Y853644D01*
X190822D01*
X185823Y855310D02*
X184157D01*
X184990D01*
Y850312D01*
X185823Y851145D01*
X181658Y856143D02*
X178326D01*
X176660Y850312D02*
Y853644D01*
X174993Y855310D01*
X173327Y853644D01*
Y850312D01*
X168329Y851145D02*
X169162Y850312D01*
X170828D01*
X171661Y851145D01*
Y851978D01*
X170828Y852811D01*
X169162D01*
X168329Y853644D01*
Y854477D01*
X169162Y855310D01*
X170828D01*
X171661Y854477D01*
X166663Y850312D02*
Y854477D01*
X165830Y855310D01*
X164164D01*
X163331Y854477D01*
Y850312D01*
X161665Y855310D02*
X159998D01*
X160831D01*
Y850312D01*
X161665Y851145D01*
X1477542Y1131426D02*
Y1129760D01*
Y1130593D01*
X1481707D01*
X1482540Y1129760D01*
Y1128927D01*
X1481707Y1128094D01*
X1482540Y1133092D02*
Y1134759D01*
Y1133925D01*
X1477542D01*
X1478375Y1133092D01*
X1482540Y1139757D02*
X1477542D01*
X1480041Y1137258D01*
Y1140590D01*
X580811Y1230080D02*
X583181D01*
X581996D01*
Y1236005D01*
X583181Y1237190D01*
X584366D01*
X585551Y1236005D01*
X578441Y1237190D02*
X576071D01*
X577256D01*
Y1230080D01*
X578441Y1231265D01*
X572517D02*
X571332Y1230080D01*
X568962D01*
X567777Y1231265D01*
Y1232450D01*
X568962Y1233635D01*
X570147D01*
X568962D01*
X567777Y1234820D01*
Y1236005D01*
X568962Y1237190D01*
X571332D01*
X572517Y1236005D01*
X565407Y1238375D02*
X560667D01*
X558297Y1230080D02*
Y1234820D01*
X555927Y1237190D01*
X553557Y1234820D01*
Y1230080D01*
X546448Y1231265D02*
X547633Y1230080D01*
X550003D01*
X551188Y1231265D01*
Y1232450D01*
X550003Y1233635D01*
X547633D01*
X546448Y1234820D01*
Y1236005D01*
X547633Y1237190D01*
X550003D01*
X551188Y1236005D01*
X544078Y1230080D02*
Y1236005D01*
X542893Y1237190D01*
X540523D01*
X539338Y1236005D01*
Y1230080D01*
X536968Y1231265D02*
X535783Y1230080D01*
X533413D01*
X532228Y1231265D01*
Y1232450D01*
X533413Y1233635D01*
X534598D01*
X533413D01*
X532228Y1234820D01*
Y1236005D01*
X533413Y1237190D01*
X535783D01*
X536968Y1236005D01*
X365460Y1230510D02*
X367830D01*
X366645D01*
Y1236435D01*
X367830Y1237620D01*
X369015D01*
X370200Y1236435D01*
X363090Y1237620D02*
X360720D01*
X361905D01*
Y1230510D01*
X363090Y1231695D01*
X357166D02*
X355981Y1230510D01*
X353611D01*
X352426Y1231695D01*
Y1232880D01*
X353611Y1234065D01*
X354796D01*
X353611D01*
X352426Y1235250D01*
Y1236435D01*
X353611Y1237620D01*
X355981D01*
X357166Y1236435D01*
X350056Y1238805D02*
X345316D01*
X342946Y1230510D02*
Y1235250D01*
X340576Y1237620D01*
X338206Y1235250D01*
Y1230510D01*
X331097Y1231695D02*
X332282Y1230510D01*
X334652D01*
X335836Y1231695D01*
Y1232880D01*
X334652Y1234065D01*
X332282D01*
X331097Y1235250D01*
Y1236435D01*
X332282Y1237620D01*
X334652D01*
X335836Y1236435D01*
X328727Y1230510D02*
Y1236435D01*
X327542Y1237620D01*
X325172D01*
X323987Y1236435D01*
Y1230510D01*
X316877Y1237620D02*
X321617D01*
X316877Y1232880D01*
Y1231695D01*
X318062Y1230510D01*
X320432D01*
X321617Y1231695D01*
X193260Y1230150D02*
X195630D01*
X194445D01*
Y1236075D01*
X195630Y1237260D01*
X196815D01*
X198000Y1236075D01*
X190890Y1237260D02*
X188520D01*
X189705D01*
Y1230150D01*
X190890Y1231335D01*
X184966D02*
X183781Y1230150D01*
X181411D01*
X180226Y1231335D01*
Y1232520D01*
X181411Y1233705D01*
X182596D01*
X181411D01*
X180226Y1234890D01*
Y1236075D01*
X181411Y1237260D01*
X183781D01*
X184966Y1236075D01*
X177856Y1238445D02*
X173116D01*
X170746Y1230150D02*
Y1234890D01*
X168376Y1237260D01*
X166006Y1234890D01*
Y1230150D01*
X158897Y1231335D02*
X160082Y1230150D01*
X162451D01*
X163636Y1231335D01*
Y1232520D01*
X162451Y1233705D01*
X160082D01*
X158897Y1234890D01*
Y1236075D01*
X160082Y1237260D01*
X162451D01*
X163636Y1236075D01*
X156527Y1230150D02*
Y1236075D01*
X155342Y1237260D01*
X152972D01*
X151787Y1236075D01*
Y1230150D01*
X149417Y1237260D02*
X147047D01*
X148232D01*
Y1230150D01*
X149417Y1231335D01*
X1147360Y1256163D02*
X1149730D01*
X1148545D01*
Y1262088D01*
X1149730Y1263272D01*
X1150915D01*
X1152100Y1262088D01*
X1144990Y1263272D02*
X1142620D01*
X1143805D01*
Y1256163D01*
X1144990Y1257348D01*
X1134326Y1263272D02*
X1139066D01*
X1134326Y1258533D01*
Y1257348D01*
X1135511Y1256163D01*
X1137881D01*
X1139066Y1257348D01*
X907370Y1250720D02*
X909740D01*
X908555D01*
Y1256645D01*
X909740Y1257830D01*
X910925D01*
X912110Y1256645D01*
X905000Y1257830D02*
X902630D01*
X903815D01*
Y1250720D01*
X905000Y1251905D01*
X899076Y1257830D02*
X896706D01*
X897891D01*
Y1250720D01*
X899076Y1251905D01*
X57800Y274630D02*
Y277000D01*
Y275815D01*
X51875D01*
X50690Y277000D01*
Y278185D01*
X51875Y279370D01*
X50690Y272260D02*
Y269890D01*
Y271075D01*
X57800D01*
X56615Y272260D01*
Y266336D02*
X57800Y265151D01*
Y262781D01*
X56615Y261596D01*
X51875D01*
X50690Y262781D01*
Y265151D01*
X51875Y266336D01*
X56615D01*
X57800Y522130D02*
Y524500D01*
Y523315D01*
X51875D01*
X50690Y524500D01*
Y525685D01*
X51875Y526870D01*
Y519760D02*
X50690Y518575D01*
Y516205D01*
X51875Y515020D01*
X56615D01*
X57800Y516205D01*
Y518575D01*
X56615Y519760D01*
X55430D01*
X54245Y518575D01*
Y515020D01*
X1704570Y379550D02*
Y381920D01*
Y380735D01*
X1698645D01*
X1697460Y381920D01*
Y383105D01*
X1698645Y384290D01*
X1704570Y372440D02*
X1703385Y374810D01*
X1701015Y377180D01*
X1698645D01*
X1697460Y375995D01*
Y373625D01*
X1698645Y372440D01*
X1699830D01*
X1701015Y373625D01*
Y377180D01*
X1645974Y410542D02*
X1647640D01*
X1646807D01*
Y414707D01*
X1647640Y415540D01*
X1648473D01*
X1649306Y414707D01*
X1640975Y410542D02*
X1644308D01*
Y413041D01*
X1642641Y412208D01*
X1641808D01*
X1640975Y413041D01*
Y414707D01*
X1641808Y415540D01*
X1643475D01*
X1644308Y414707D01*
X1825592Y1070992D02*
Y1068622D01*
Y1069807D01*
X1831517D01*
X1832702Y1068622D01*
Y1067437D01*
X1831517Y1066252D01*
X1832702Y1076917D02*
X1825592D01*
X1829147Y1073362D01*
Y1078102D01*
X1597570Y645550D02*
Y647920D01*
Y646735D01*
X1591645D01*
X1590460Y647920D01*
Y649105D01*
X1591645Y650290D01*
X1596385Y643180D02*
X1597570Y641995D01*
Y639626D01*
X1596385Y638441D01*
X1595200D01*
X1594015Y639626D01*
Y640810D01*
Y639626D01*
X1592830Y638441D01*
X1591645D01*
X1590460Y639626D01*
Y641995D01*
X1591645Y643180D01*
X1624450Y717570D02*
X1622080D01*
X1623265D01*
Y711645D01*
X1622080Y710460D01*
X1620895D01*
X1619710Y711645D01*
X1631559Y710460D02*
X1626820D01*
X1631559Y715200D01*
Y716385D01*
X1630374Y717570D01*
X1628005D01*
X1626820Y716385D01*
X1031796Y1157632D02*
X1036794D01*
Y1160131D01*
X1035961Y1160964D01*
X1032629D01*
X1031796Y1160131D01*
Y1157632D01*
X1035961Y1162630D02*
X1036794Y1163464D01*
Y1165130D01*
X1035961Y1165963D01*
X1032629D01*
X1031796Y1165130D01*
Y1163464D01*
X1032629Y1162630D01*
X1033462D01*
X1034295Y1163464D01*
Y1165963D01*
X1227823Y1156676D02*
X1232822D01*
Y1159175D01*
X1231989Y1160008D01*
X1228656D01*
X1227823Y1159175D01*
Y1156676D01*
X1228656Y1161674D02*
X1227823Y1162507D01*
Y1164174D01*
X1228656Y1165007D01*
X1229489D01*
X1230322Y1164174D01*
X1231155Y1165007D01*
X1231989D01*
X1232822Y1164174D01*
Y1162507D01*
X1231989Y1161674D01*
X1231155D01*
X1230322Y1162507D01*
X1229489Y1161674D01*
X1228656D01*
X1230322Y1162507D02*
Y1164174D01*
X1181796Y1156676D02*
X1186794D01*
Y1159175D01*
X1185961Y1160008D01*
X1182629D01*
X1181796Y1159175D01*
Y1156676D01*
Y1161674D02*
Y1165007D01*
X1182629D01*
X1185961Y1161674D01*
X1186794D01*
X1052503Y1162483D02*
X1053002Y1162983D01*
X1054002D01*
X1054502Y1162483D01*
Y1160484D01*
X1054002Y1159984D01*
X1053002D01*
X1052503Y1160484D01*
X1049504Y1159984D02*
X1051503D01*
X1049504Y1161983D01*
Y1162483D01*
X1050004Y1162983D01*
X1051003D01*
X1051503Y1162483D01*
X1046505Y1162983D02*
X1048504D01*
Y1161484D01*
X1047504Y1161983D01*
X1047004D01*
X1046505Y1161484D01*
Y1160484D01*
X1047004Y1159984D01*
X1048004D01*
X1048504Y1160484D01*
X1253497Y1165017D02*
X1252998Y1165517D01*
X1251998D01*
X1251498Y1165017D01*
Y1163018D01*
X1251998Y1162518D01*
X1252998D01*
X1253497Y1163018D01*
X1256496Y1162518D02*
X1254497D01*
X1256496Y1164517D01*
Y1165017D01*
X1255996Y1165517D01*
X1254997D01*
X1254497Y1165017D01*
X1258996Y1162518D02*
Y1165517D01*
X1257496Y1164017D01*
X1259495D01*
X1177497Y1159382D02*
X1176998Y1158882D01*
X1175998D01*
X1175498Y1159382D01*
Y1161381D01*
X1175998Y1161881D01*
X1176998D01*
X1177497Y1161381D01*
X1180496Y1161881D02*
X1178497D01*
X1180496Y1159882D01*
Y1159382D01*
X1179996Y1158882D01*
X1178997D01*
X1178497Y1159382D01*
X1181496D02*
X1181996Y1158882D01*
X1182996D01*
X1183495Y1159382D01*
Y1159882D01*
X1182996Y1160382D01*
X1182496D01*
X1182996D01*
X1183495Y1160881D01*
Y1161381D01*
X1182996Y1161881D01*
X1181996D01*
X1181496Y1161381D01*
X481503Y1114953D02*
X482002Y1114454D01*
X483002D01*
X483502Y1114953D01*
Y1116953D01*
X483002Y1117453D01*
X482002D01*
X481503Y1116953D01*
X478504Y1117453D02*
X480503D01*
X478504Y1115453D01*
Y1114953D01*
X479003Y1114454D01*
X480003D01*
X480503Y1114953D01*
X475505Y1117453D02*
X477504D01*
X475505Y1115453D01*
Y1114953D01*
X476004Y1114454D01*
X477004D01*
X477504Y1114953D01*
X474505Y1117952D02*
X472505D01*
X471506Y1114454D02*
Y1116453D01*
X470506Y1117453D01*
X469506Y1116453D01*
Y1114454D01*
X466507Y1114953D02*
X467007Y1114454D01*
X468007D01*
X468507Y1114953D01*
Y1115453D01*
X468007Y1115953D01*
X467007D01*
X466507Y1116453D01*
Y1116953D01*
X467007Y1117453D01*
X468007D01*
X468507Y1116953D01*
X465508Y1114454D02*
Y1116953D01*
X465008Y1117453D01*
X464008D01*
X463508Y1116953D01*
Y1114454D01*
X462509Y1114953D02*
X462009Y1114454D01*
X461009D01*
X460509Y1114953D01*
Y1115453D01*
X461009Y1115953D01*
X461509D01*
X461009D01*
X460509Y1116453D01*
Y1116953D01*
X461009Y1117453D01*
X462009D01*
X462509Y1116953D01*
X266152Y1115383D02*
X266651Y1114883D01*
X267651D01*
X268151Y1115383D01*
Y1117383D01*
X267651Y1117883D01*
X266651D01*
X266152Y1117383D01*
X263153Y1117883D02*
X265152D01*
X263153Y1115883D01*
Y1115383D01*
X263652Y1114883D01*
X264652D01*
X265152Y1115383D01*
X260154Y1117883D02*
X262153D01*
X260154Y1115883D01*
Y1115383D01*
X260653Y1114883D01*
X261653D01*
X262153Y1115383D01*
X259154Y1118382D02*
X257155D01*
X256155Y1114883D02*
Y1116883D01*
X255155Y1117883D01*
X254156Y1116883D01*
Y1114883D01*
X251157Y1115383D02*
X251656Y1114883D01*
X252656D01*
X253156Y1115383D01*
Y1115883D01*
X252656Y1116383D01*
X251656D01*
X251157Y1116883D01*
Y1117383D01*
X251656Y1117883D01*
X252656D01*
X253156Y1117383D01*
X250157Y1114883D02*
Y1117383D01*
X249657Y1117883D01*
X248657D01*
X248158Y1117383D01*
Y1114883D01*
X245159Y1117883D02*
X247158D01*
X245159Y1115883D01*
Y1115383D01*
X245658Y1114883D01*
X246658D01*
X247158Y1115383D01*
X53503Y1026953D02*
X54002Y1026453D01*
X55002D01*
X55502Y1026953D01*
Y1028953D01*
X55002Y1029453D01*
X54002D01*
X53503Y1028953D01*
X50504Y1029453D02*
X52503D01*
X50504Y1027453D01*
Y1026953D01*
X51003Y1026453D01*
X52003D01*
X52503Y1026953D01*
X47505Y1029453D02*
X49504D01*
X47505Y1027453D01*
Y1026953D01*
X48004Y1026453D01*
X49004D01*
X49504Y1026953D01*
X46505Y1029952D02*
X44506D01*
X43506Y1026453D02*
Y1028453D01*
X42506Y1029453D01*
X41507Y1028453D01*
Y1026453D01*
X38507Y1026953D02*
X39007Y1026453D01*
X40007D01*
X40507Y1026953D01*
Y1027453D01*
X40007Y1027953D01*
X39007D01*
X38507Y1028453D01*
Y1028953D01*
X39007Y1029453D01*
X40007D01*
X40507Y1028953D01*
X37508Y1026453D02*
Y1028953D01*
X37008Y1029453D01*
X36008D01*
X35508Y1028953D01*
Y1026453D01*
X34509Y1029453D02*
X33509D01*
X34009D01*
Y1026453D01*
X34509Y1026953D01*
X527003Y1053517D02*
X527503Y1053017D01*
X528502D01*
X529002Y1053517D01*
Y1055516D01*
X528502Y1056016D01*
X527503D01*
X527003Y1055516D01*
X524004Y1056016D02*
X526003D01*
X524004Y1054017D01*
Y1053517D01*
X524503Y1053017D01*
X525503D01*
X526003Y1053517D01*
X523004Y1056016D02*
X522004D01*
X522504D01*
Y1053017D01*
X523004Y1053517D01*
X520505Y1056516D02*
X518505D01*
X517506Y1053017D02*
Y1055016D01*
X516506Y1056016D01*
X515506Y1055016D01*
Y1053017D01*
X512507Y1053517D02*
X513007Y1053017D01*
X514007D01*
X514507Y1053517D01*
Y1054017D01*
X514007Y1054517D01*
X513007D01*
X512507Y1055016D01*
Y1055516D01*
X513007Y1056016D01*
X514007D01*
X514507Y1055516D01*
X511508Y1053017D02*
Y1055516D01*
X511008Y1056016D01*
X510008D01*
X509508Y1055516D01*
Y1053017D01*
X508509Y1053517D02*
X508009Y1053017D01*
X507009D01*
X506509Y1053517D01*
Y1054017D01*
X507009Y1054517D01*
X507509D01*
X507009D01*
X506509Y1055016D01*
Y1055516D01*
X507009Y1056016D01*
X508009D01*
X508509Y1055516D01*
X311652Y1053947D02*
X312152Y1053447D01*
X313151D01*
X313651Y1053947D01*
Y1055946D01*
X313151Y1056446D01*
X312152D01*
X311652Y1055946D01*
X308653Y1056446D02*
X310652D01*
X308653Y1054447D01*
Y1053947D01*
X309153Y1053447D01*
X310152D01*
X310652Y1053947D01*
X307653Y1056446D02*
X306653D01*
X307153D01*
Y1053447D01*
X307653Y1053947D01*
X305154Y1056946D02*
X303155D01*
X302155Y1053447D02*
Y1055446D01*
X301155Y1056446D01*
X300155Y1055446D01*
Y1053447D01*
X297156Y1053947D02*
X297656Y1053447D01*
X298656D01*
X299156Y1053947D01*
Y1054447D01*
X298656Y1054947D01*
X297656D01*
X297156Y1055446D01*
Y1055946D01*
X297656Y1056446D01*
X298656D01*
X299156Y1055946D01*
X296157Y1053447D02*
Y1055946D01*
X295657Y1056446D01*
X294657D01*
X294157Y1055946D01*
Y1053447D01*
X291158Y1056446D02*
X293158D01*
X291158Y1054447D01*
Y1053947D01*
X291658Y1053447D01*
X292658D01*
X293158Y1053947D01*
X99003Y965517D02*
X99502Y965017D01*
X100502D01*
X101002Y965517D01*
Y967516D01*
X100502Y968016D01*
X99502D01*
X99003Y967516D01*
X96004Y968016D02*
X98003D01*
X96004Y966017D01*
Y965517D01*
X96503Y965017D01*
X97503D01*
X98003Y965517D01*
X95004Y968016D02*
X94004D01*
X94504D01*
Y965017D01*
X95004Y965517D01*
X92505Y968516D02*
X90505D01*
X89506Y965017D02*
Y967016D01*
X88506Y968016D01*
X87506Y967016D01*
Y965017D01*
X84507Y965517D02*
X85007Y965017D01*
X86007D01*
X86507Y965517D01*
Y966017D01*
X86007Y966516D01*
X85007D01*
X84507Y967016D01*
Y967516D01*
X85007Y968016D01*
X86007D01*
X86507Y967516D01*
X83508Y965017D02*
Y967516D01*
X83008Y968016D01*
X82008D01*
X81508Y967516D01*
Y965017D01*
X80509Y968016D02*
X79509D01*
X80009D01*
Y965017D01*
X80509Y965517D01*
X453497Y859983D02*
X452998Y860483D01*
X451998D01*
X451498Y859983D01*
Y857984D01*
X451998Y857484D01*
X452998D01*
X453497Y857984D01*
X456496Y857484D02*
X454497D01*
X456496Y859483D01*
Y859983D01*
X455997Y860483D01*
X454997D01*
X454497Y859983D01*
X457496D02*
X457996Y860483D01*
X458996D01*
X459495Y859983D01*
Y857984D01*
X458996Y857484D01*
X457996D01*
X457496Y857984D01*
Y859983D01*
X460495Y856984D02*
X462494D01*
X463494Y860483D02*
Y858484D01*
X464494Y857484D01*
X465493Y858484D01*
Y860483D01*
X468493Y859983D02*
X467993Y860483D01*
X466993D01*
X466493Y859983D01*
Y859483D01*
X466993Y858984D01*
X467993D01*
X468493Y858484D01*
Y857984D01*
X467993Y857484D01*
X466993D01*
X466493Y857984D01*
X469492Y860483D02*
Y857984D01*
X469992Y857484D01*
X470992D01*
X471492Y857984D01*
Y860483D01*
X472491Y859983D02*
X472991Y860483D01*
X473991D01*
X474491Y859983D01*
Y859483D01*
X473991Y858984D01*
X473491D01*
X473991D01*
X474491Y858484D01*
Y857984D01*
X473991Y857484D01*
X472991D01*
X472491Y857984D01*
X238146Y860413D02*
X237647Y860913D01*
X236647D01*
X236147Y860413D01*
Y858414D01*
X236647Y857914D01*
X237647D01*
X238146Y858414D01*
X241145Y857914D02*
X239146D01*
X241145Y859913D01*
Y860413D01*
X240646Y860913D01*
X239646D01*
X239146Y860413D01*
X242145D02*
X242645Y860913D01*
X243645D01*
X244144Y860413D01*
Y858414D01*
X243645Y857914D01*
X242645D01*
X242145Y858414D01*
Y860413D01*
X245144Y857414D02*
X247143D01*
X248143Y860913D02*
Y858914D01*
X249143Y857914D01*
X250142Y858914D01*
Y860913D01*
X253141Y860413D02*
X252642Y860913D01*
X251642D01*
X251142Y860413D01*
Y859913D01*
X251642Y859414D01*
X252642D01*
X253141Y858914D01*
Y858414D01*
X252642Y857914D01*
X251642D01*
X251142Y858414D01*
X254141Y860913D02*
Y858414D01*
X254641Y857914D01*
X255641D01*
X256141Y858414D01*
Y860913D01*
X259140Y857914D02*
X257140D01*
X259140Y859913D01*
Y860413D01*
X258640Y860913D01*
X257640D01*
X257140Y860413D01*
X25497Y771983D02*
X24997Y772483D01*
X23998D01*
X23498Y771983D01*
Y769984D01*
X23998Y769484D01*
X24997D01*
X25497Y769984D01*
X28496Y769484D02*
X26497D01*
X28496Y771483D01*
Y771983D01*
X27996Y772483D01*
X26997D01*
X26497Y771983D01*
X29496D02*
X29996Y772483D01*
X30996D01*
X31495Y771983D01*
Y769984D01*
X30996Y769484D01*
X29996D01*
X29496Y769984D01*
Y771983D01*
X32495Y768984D02*
X34494D01*
X35494Y772483D02*
Y770484D01*
X36494Y769484D01*
X37493Y770484D01*
Y772483D01*
X40493Y771983D02*
X39993Y772483D01*
X38993D01*
X38493Y771983D01*
Y771483D01*
X38993Y770984D01*
X39993D01*
X40493Y770484D01*
Y769984D01*
X39993Y769484D01*
X38993D01*
X38493Y769984D01*
X41492Y772483D02*
Y769984D01*
X41992Y769484D01*
X42992D01*
X43492Y769984D01*
Y772483D01*
X44491Y769484D02*
X45491D01*
X44991D01*
Y772483D01*
X44491Y771983D01*
X474673Y923003D02*
X475173Y923503D01*
Y924502D01*
X474673Y925002D01*
X472674D01*
X472174Y924502D01*
Y923503D01*
X472674Y923003D01*
X472174Y922003D02*
Y921003D01*
Y921503D01*
X475173D01*
X474673Y922003D01*
X472674Y919504D02*
X472174Y919004D01*
Y918004D01*
X472674Y917505D01*
X474673D01*
X475173Y918004D01*
Y919004D01*
X474673Y919504D01*
X474173D01*
X473673Y919004D01*
Y917505D01*
X471674Y916505D02*
Y914505D01*
X475173Y913506D02*
X473174D01*
X472174Y912506D01*
X473174Y911506D01*
X475173D01*
X474673Y908507D02*
X475173Y909007D01*
Y910007D01*
X474673Y910507D01*
X474173D01*
X473673Y910007D01*
Y909007D01*
X473174Y908507D01*
X472674D01*
X472174Y909007D01*
Y910007D01*
X472674Y910507D01*
X475173Y907508D02*
X472674D01*
X472174Y907008D01*
Y906008D01*
X472674Y905508D01*
X475173D01*
X474673Y904509D02*
X475173Y904009D01*
Y903009D01*
X474673Y902509D01*
X474173D01*
X473673Y903009D01*
Y903509D01*
Y903009D01*
X473174Y902509D01*
X472674D01*
X472174Y903009D01*
Y904009D01*
X472674Y904509D01*
X259322Y923433D02*
X259822Y923932D01*
Y924932D01*
X259322Y925432D01*
X257323D01*
X256823Y924932D01*
Y923932D01*
X257323Y923433D01*
X256823Y922433D02*
Y921433D01*
Y921933D01*
X259822D01*
X259322Y922433D01*
X257323Y919934D02*
X256823Y919434D01*
Y918434D01*
X257323Y917934D01*
X259322D01*
X259822Y918434D01*
Y919434D01*
X259322Y919934D01*
X258822D01*
X258323Y919434D01*
Y917934D01*
X256323Y916935D02*
Y914936D01*
X259822Y913936D02*
X257823D01*
X256823Y912936D01*
X257823Y911936D01*
X259822D01*
X259322Y908937D02*
X259822Y909437D01*
Y910437D01*
X259322Y910937D01*
X258822D01*
X258323Y910437D01*
Y909437D01*
X257823Y908937D01*
X257323D01*
X256823Y909437D01*
Y910437D01*
X257323Y910937D01*
X259822Y907938D02*
X257323D01*
X256823Y907438D01*
Y906438D01*
X257323Y905938D01*
X259822D01*
X256823Y902939D02*
Y904939D01*
X258822Y902939D01*
X259322D01*
X259822Y903439D01*
Y904439D01*
X259322Y904939D01*
X46673Y835003D02*
X47173Y835502D01*
Y836502D01*
X46673Y837002D01*
X44674D01*
X44174Y836502D01*
Y835502D01*
X44674Y835003D01*
X44174Y834003D02*
Y833003D01*
Y833503D01*
X47173D01*
X46673Y834003D01*
X44674Y831504D02*
X44174Y831004D01*
Y830004D01*
X44674Y829504D01*
X46673D01*
X47173Y830004D01*
Y831004D01*
X46673Y831504D01*
X46173D01*
X45673Y831004D01*
Y829504D01*
X43674Y828505D02*
Y826505D01*
X47173Y825506D02*
X45174D01*
X44174Y824506D01*
X45174Y823506D01*
X47173D01*
X46673Y820507D02*
X47173Y821007D01*
Y822007D01*
X46673Y822507D01*
X46173D01*
X45673Y822007D01*
Y821007D01*
X45174Y820507D01*
X44674D01*
X44174Y821007D01*
Y822007D01*
X44674Y822507D01*
X47173Y819508D02*
X44674D01*
X44174Y819008D01*
Y818008D01*
X44674Y817508D01*
X47173D01*
X44174Y816509D02*
Y815509D01*
Y816009D01*
X47173D01*
X46673Y816509D01*
X586997Y1056483D02*
X586497Y1056983D01*
X585498D01*
X584998Y1056483D01*
Y1054484D01*
X585498Y1053984D01*
X586497D01*
X586997Y1054484D01*
X587997Y1053984D02*
X588997D01*
X588497D01*
Y1056983D01*
X587997Y1056483D01*
X590496D02*
X590996Y1056983D01*
X591996D01*
X592495Y1056483D01*
Y1055983D01*
X591996Y1055484D01*
X592495Y1054984D01*
Y1054484D01*
X591996Y1053984D01*
X590996D01*
X590496Y1054484D01*
Y1054984D01*
X590996Y1055484D01*
X590496Y1055983D01*
Y1056483D01*
X590996Y1055484D02*
X591996D01*
X593495Y1053484D02*
X595495D01*
X596494Y1056983D02*
Y1054984D01*
X597494Y1053984D01*
X598494Y1054984D01*
Y1056983D01*
X601493Y1056483D02*
X600993Y1056983D01*
X599993D01*
X599493Y1056483D01*
Y1055983D01*
X599993Y1055484D01*
X600993D01*
X601493Y1054984D01*
Y1054484D01*
X600993Y1053984D01*
X599993D01*
X599493Y1054484D01*
X602492Y1056983D02*
Y1054484D01*
X602992Y1053984D01*
X603992D01*
X604492Y1054484D01*
Y1056983D01*
X605491Y1056483D02*
X605991Y1056983D01*
X606991D01*
X607491Y1056483D01*
Y1055983D01*
X606991Y1055484D01*
X606491D01*
X606991D01*
X607491Y1054984D01*
Y1054484D01*
X606991Y1053984D01*
X605991D01*
X605491Y1054484D01*
X371646Y1056913D02*
X371147Y1057413D01*
X370147D01*
X369647Y1056913D01*
Y1054914D01*
X370147Y1054414D01*
X371147D01*
X371646Y1054914D01*
X372646Y1054414D02*
X373646D01*
X373146D01*
Y1057413D01*
X372646Y1056913D01*
X375145D02*
X375645Y1057413D01*
X376645D01*
X377145Y1056913D01*
Y1056413D01*
X376645Y1055914D01*
X377145Y1055414D01*
Y1054914D01*
X376645Y1054414D01*
X375645D01*
X375145Y1054914D01*
Y1055414D01*
X375645Y1055914D01*
X375145Y1056413D01*
Y1056913D01*
X375645Y1055914D02*
X376645D01*
X378144Y1053914D02*
X380144D01*
X381143Y1057413D02*
Y1055414D01*
X382143Y1054414D01*
X383143Y1055414D01*
Y1057413D01*
X386142Y1056913D02*
X385642Y1057413D01*
X384642D01*
X384142Y1056913D01*
Y1056413D01*
X384642Y1055914D01*
X385642D01*
X386142Y1055414D01*
Y1054914D01*
X385642Y1054414D01*
X384642D01*
X384142Y1054914D01*
X387141Y1057413D02*
Y1054914D01*
X387641Y1054414D01*
X388641D01*
X389141Y1054914D01*
Y1057413D01*
X392140Y1054414D02*
X390140D01*
X392140Y1056413D01*
Y1056913D01*
X391640Y1057413D01*
X390640D01*
X390140Y1056913D01*
X158997Y968483D02*
X158497Y968983D01*
X157498D01*
X156998Y968483D01*
Y966484D01*
X157498Y965984D01*
X158497D01*
X158997Y966484D01*
X159997Y965984D02*
X160997D01*
X160497D01*
Y968983D01*
X159997Y968483D01*
X162496D02*
X162996Y968983D01*
X163996D01*
X164496Y968483D01*
Y967983D01*
X163996Y967484D01*
X164496Y966984D01*
Y966484D01*
X163996Y965984D01*
X162996D01*
X162496Y966484D01*
Y966984D01*
X162996Y967484D01*
X162496Y967983D01*
Y968483D01*
X162996Y967484D02*
X163996D01*
X165495Y965484D02*
X167495D01*
X168494Y968983D02*
Y966984D01*
X169494Y965984D01*
X170494Y966984D01*
Y968983D01*
X173493Y968483D02*
X172993Y968983D01*
X171993D01*
X171493Y968483D01*
Y967983D01*
X171993Y967484D01*
X172993D01*
X173493Y966984D01*
Y966484D01*
X172993Y965984D01*
X171993D01*
X171493Y966484D01*
X174492Y968983D02*
Y966484D01*
X174992Y965984D01*
X175992D01*
X176492Y966484D01*
Y968983D01*
X177491Y965984D02*
X178491D01*
X177991D01*
Y968983D01*
X177491Y968483D01*
X625983Y903503D02*
X626483Y904003D01*
Y905002D01*
X625983Y905502D01*
X623984D01*
X623484Y905002D01*
Y904003D01*
X623984Y903503D01*
X623484Y902503D02*
Y901503D01*
Y902003D01*
X626483D01*
X625983Y902503D01*
X626483Y900004D02*
Y898005D01*
X625983D01*
X623984Y900004D01*
X623484D01*
X622984Y897005D02*
Y895005D01*
X626483Y894006D02*
X624484D01*
X623484Y893006D01*
X624484Y892006D01*
X626483D01*
X625983Y889007D02*
X626483Y889507D01*
Y890507D01*
X625983Y891007D01*
X625483D01*
X624983Y890507D01*
Y889507D01*
X624484Y889007D01*
X623984D01*
X623484Y889507D01*
Y890507D01*
X623984Y891007D01*
X626483Y888008D02*
X623984D01*
X623484Y887508D01*
Y886508D01*
X623984Y886008D01*
X626483D01*
X625983Y885009D02*
X626483Y884509D01*
Y883509D01*
X625983Y883009D01*
X625483D01*
X624983Y883509D01*
Y884009D01*
Y883509D01*
X624484Y883009D01*
X623984D01*
X623484Y883509D01*
Y884509D01*
X623984Y885009D01*
X410632Y903933D02*
X411132Y904433D01*
Y905432D01*
X410632Y905932D01*
X408633D01*
X408133Y905432D01*
Y904433D01*
X408633Y903933D01*
X408133Y902933D02*
Y901933D01*
Y902433D01*
X411132D01*
X410632Y902933D01*
X411132Y900434D02*
Y898435D01*
X410632D01*
X408633Y900434D01*
X408133D01*
X407633Y897435D02*
Y895435D01*
X411132Y894436D02*
X409133D01*
X408133Y893436D01*
X409133Y892436D01*
X411132D01*
X410632Y889437D02*
X411132Y889937D01*
Y890937D01*
X410632Y891437D01*
X410132D01*
X409633Y890937D01*
Y889937D01*
X409133Y889437D01*
X408633D01*
X408133Y889937D01*
Y890937D01*
X408633Y891437D01*
X411132Y888438D02*
X408633D01*
X408133Y887938D01*
Y886938D01*
X408633Y886438D01*
X411132D01*
X408133Y883439D02*
Y885439D01*
X410132Y883439D01*
X410632D01*
X411132Y883939D01*
Y884939D01*
X410632Y885439D01*
X197983Y815503D02*
X198483Y816003D01*
Y817002D01*
X197983Y817502D01*
X195984D01*
X195484Y817002D01*
Y816003D01*
X195984Y815503D01*
X195484Y814503D02*
Y813503D01*
Y814003D01*
X198483D01*
X197983Y814503D01*
X198483Y812004D02*
Y810004D01*
X197983D01*
X195984Y812004D01*
X195484D01*
X194984Y809005D02*
Y807005D01*
X198483Y806006D02*
X196484D01*
X195484Y805006D01*
X196484Y804006D01*
X198483D01*
X197983Y801007D02*
X198483Y801507D01*
Y802507D01*
X197983Y803007D01*
X197483D01*
X196984Y802507D01*
Y801507D01*
X196484Y801007D01*
X195984D01*
X195484Y801507D01*
Y802507D01*
X195984Y803007D01*
X198483Y800008D02*
X195984D01*
X195484Y799508D01*
Y798508D01*
X195984Y798008D01*
X198483D01*
X195484Y797009D02*
Y796009D01*
Y796509D01*
X198483D01*
X197983Y797009D01*
X687790Y873997D02*
X687290Y873497D01*
Y872498D01*
X687790Y871998D01*
X689790D01*
X690290Y872498D01*
Y873497D01*
X689790Y873997D01*
X690290Y874997D02*
Y875997D01*
Y875497D01*
X687290D01*
X687790Y874997D01*
X687290Y879496D02*
X687790Y878496D01*
X688790Y877496D01*
X689790D01*
X690290Y877996D01*
Y878996D01*
X689790Y879496D01*
X689290D01*
X688790Y878996D01*
Y877496D01*
X690483Y949003D02*
X690983Y949502D01*
Y950502D01*
X690483Y951002D01*
X688484D01*
X687984Y950502D01*
Y949502D01*
X688484Y949003D01*
X687984Y948003D02*
Y947003D01*
Y947503D01*
X690983D01*
X690483Y948003D01*
X690983Y943504D02*
Y945504D01*
X689483D01*
X689983Y944504D01*
Y944004D01*
X689483Y943504D01*
X688484D01*
X687984Y944004D01*
Y945004D01*
X688484Y945504D01*
X687517Y1057997D02*
X687017Y1057497D01*
Y1056498D01*
X687517Y1055998D01*
X689516D01*
X690016Y1056498D01*
Y1057497D01*
X689516Y1057997D01*
X690016Y1058997D02*
Y1059997D01*
Y1059497D01*
X687017D01*
X687517Y1058997D01*
X690016Y1062996D02*
X687017D01*
X688516Y1061496D01*
Y1063496D01*
X690483Y1040503D02*
X690983Y1041003D01*
Y1042002D01*
X690483Y1042502D01*
X688484D01*
X687984Y1042002D01*
Y1041003D01*
X688484Y1040503D01*
X687984Y1039503D02*
Y1038503D01*
Y1039003D01*
X690983D01*
X690483Y1039503D01*
Y1037004D02*
X690983Y1036504D01*
Y1035504D01*
X690483Y1035004D01*
X689983D01*
X689483Y1035504D01*
Y1036004D01*
Y1035504D01*
X688984Y1035004D01*
X688484D01*
X687984Y1035504D01*
Y1036504D01*
X688484Y1037004D01*
X687517Y967997D02*
X687017Y967497D01*
Y966498D01*
X687517Y965998D01*
X689516D01*
X690016Y966498D01*
Y967497D01*
X689516Y967997D01*
X690016Y968997D02*
Y969997D01*
Y969497D01*
X687017D01*
X687517Y968997D01*
X690016Y973496D02*
Y971496D01*
X688017Y973496D01*
X687517D01*
X687017Y972996D01*
Y971996D01*
X687517Y971496D01*
X898503Y915517D02*
X899003Y915017D01*
X900002D01*
X900502Y915517D01*
Y917516D01*
X900002Y918016D01*
X899003D01*
X898503Y917516D01*
X897503Y918016D02*
X896503D01*
X897003D01*
Y915017D01*
X897503Y915517D01*
X895004Y918016D02*
X894004D01*
X894504D01*
Y915017D01*
X895004Y915517D01*
X898503Y940517D02*
X899003Y940017D01*
X900002D01*
X900502Y940517D01*
Y942516D01*
X900002Y943016D01*
X899003D01*
X898503Y942516D01*
X897503Y943016D02*
X896503D01*
X897003D01*
Y940017D01*
X897503Y940517D01*
X895004D02*
X894504Y940017D01*
X893504D01*
X893005Y940517D01*
Y942516D01*
X893504Y943016D01*
X894504D01*
X895004Y942516D01*
Y940517D01*
X898503Y965517D02*
X899003Y965017D01*
X900002D01*
X900502Y965517D01*
Y967516D01*
X900002Y968016D01*
X899003D01*
X898503Y967516D01*
X897503D02*
X897003Y968016D01*
X896003D01*
X895504Y967516D01*
Y965517D01*
X896003Y965017D01*
X897003D01*
X897503Y965517D01*
Y966017D01*
X897003Y966516D01*
X895504D01*
X898503Y990517D02*
X899003Y990017D01*
X900002D01*
X900502Y990517D01*
Y992516D01*
X900002Y993016D01*
X899003D01*
X898503Y992516D01*
X897503Y990517D02*
X897003Y990017D01*
X896003D01*
X895504Y990517D01*
Y991017D01*
X896003Y991516D01*
X895504Y992016D01*
Y992516D01*
X896003Y993016D01*
X897003D01*
X897503Y992516D01*
Y992016D01*
X897003Y991516D01*
X897503Y991017D01*
Y990517D01*
X897003Y991516D02*
X896003D01*
X898503Y1020517D02*
X899003Y1020017D01*
X900002D01*
X900502Y1020517D01*
Y1022516D01*
X900002Y1023016D01*
X899003D01*
X898503Y1022516D01*
X897503Y1020017D02*
X895504D01*
Y1020517D01*
X897503Y1022516D01*
Y1023016D01*
X899003Y1049517D02*
X899502Y1049017D01*
X900502D01*
X901002Y1049517D01*
Y1051516D01*
X900502Y1052016D01*
X899502D01*
X899003Y1051516D01*
X896004Y1049017D02*
X897003Y1049517D01*
X898003Y1050517D01*
Y1051516D01*
X897503Y1052016D01*
X896504D01*
X896004Y1051516D01*
Y1051016D01*
X896504Y1050517D01*
X898003D01*
X867503Y883517D02*
X868002Y883017D01*
X869002D01*
X869502Y883517D01*
Y885516D01*
X869002Y886016D01*
X868002D01*
X867503Y885516D01*
X864504Y883017D02*
X866503D01*
Y884517D01*
X865503Y884017D01*
X865004D01*
X864504Y884517D01*
Y885516D01*
X865004Y886016D01*
X866003D01*
X866503Y885516D01*
X1329997Y952133D02*
X1329498Y952633D01*
X1328498D01*
X1327998Y952133D01*
Y950134D01*
X1328498Y949634D01*
X1329498D01*
X1329997Y950134D01*
X1332496Y949634D02*
Y952633D01*
X1330997Y951133D01*
X1332996D01*
X1745503Y702517D02*
X1746003Y702017D01*
X1747002D01*
X1747502Y702517D01*
Y704516D01*
X1747002Y705016D01*
X1746003D01*
X1745503Y704516D01*
X1744503Y702517D02*
X1744003Y702017D01*
X1743004D01*
X1742504Y702517D01*
Y703017D01*
X1743004Y703516D01*
X1743503D01*
X1743004D01*
X1742504Y704016D01*
Y704516D01*
X1743004Y705016D01*
X1744003D01*
X1744503Y704516D01*
X1536497Y730983D02*
X1535997Y731483D01*
X1534998D01*
X1534498Y730983D01*
Y728984D01*
X1534998Y728484D01*
X1535997D01*
X1536497Y728984D01*
X1539496Y728484D02*
X1537497D01*
X1539496Y730483D01*
Y730983D01*
X1538996Y731483D01*
X1537997D01*
X1537497Y730983D01*
X1383017Y1137497D02*
X1382517Y1136998D01*
Y1135998D01*
X1383017Y1135498D01*
X1385016D01*
X1385516Y1135998D01*
Y1136998D01*
X1385016Y1137497D01*
X1385516Y1138497D02*
Y1139497D01*
Y1138997D01*
X1382517D01*
X1383017Y1138497D01*
D109*
X42968Y1252968D02*
Y1257032D01*
X47032D01*
Y1252968D01*
X42968D01*
X126551Y1250468D02*
X124519Y1254532D01*
X128583D01*
X126551Y1250468D01*
X199449D02*
X197417Y1254532D01*
X201481D01*
X199449Y1250468D01*
X178000Y1207268D02*
X179016Y1208284D01*
X180032D01*
X179016Y1209300D01*
X180032Y1210316D01*
X179016D01*
X178000Y1211332D01*
X176984Y1210316D01*
X175968D01*
X176984Y1209300D01*
X175968Y1208284D01*
X176984D01*
X178000Y1207268D01*
X148000D02*
X149016Y1208284D01*
X150032D01*
X149016Y1209300D01*
X150032Y1210316D01*
X149016D01*
X148000Y1211332D01*
X146984Y1210316D01*
X145968D01*
X146984Y1209300D01*
X145968Y1208284D01*
X146984D01*
X148000Y1207268D01*
X1086968Y1168901D02*
X1087984Y1170932D01*
X1086968Y1172964D01*
X1089000Y1171948D01*
X1091032Y1172964D01*
X1090016Y1170932D01*
X1091032Y1168901D01*
X1089000Y1169917D01*
X1086968Y1168901D01*
X1111968D02*
X1112984Y1170932D01*
X1111968Y1172964D01*
X1114000Y1171948D01*
X1116032Y1172964D01*
X1115016Y1170932D01*
X1116032Y1168901D01*
X1114000Y1169917D01*
X1111968Y1168901D01*
X1136968D02*
X1137984Y1170932D01*
X1136968Y1172964D01*
X1139000Y1171948D01*
X1141032Y1172964D01*
X1140016Y1170932D01*
X1141032Y1168901D01*
X1139000Y1169917D01*
X1136968Y1168901D01*
X1086968Y1193901D02*
X1087984Y1195932D01*
X1086968Y1197964D01*
X1089000Y1196948D01*
X1091032Y1197964D01*
X1090016Y1195932D01*
X1091032Y1193901D01*
X1089000Y1194917D01*
X1086968Y1193901D01*
X1111968D02*
X1112984Y1195932D01*
X1111968Y1197964D01*
X1114000Y1196948D01*
X1116032Y1197964D01*
X1115016Y1195932D01*
X1116032Y1193901D01*
X1114000Y1194917D01*
X1111968Y1193901D01*
X1136968D02*
X1137984Y1195932D01*
X1136968Y1197964D01*
X1139000Y1196948D01*
X1141032Y1197964D01*
X1140016Y1195932D01*
X1141032Y1193901D01*
X1139000Y1194917D01*
X1136968Y1193901D01*
X1087984Y1266717D02*
Y1265701D01*
X1090016D01*
Y1266717D01*
X1091032D01*
Y1268748D01*
X1090016D01*
Y1269764D01*
X1087984D01*
Y1268748D01*
X1086968D01*
Y1266717D01*
X1087984D01*
X1137984D02*
Y1265701D01*
X1140016D01*
Y1266717D01*
X1141032D01*
Y1268748D01*
X1140016D01*
Y1269764D01*
X1137984D01*
Y1268748D01*
X1136968D01*
Y1266717D01*
X1137984D01*
X946968Y1193168D02*
X947984Y1195200D01*
X946968Y1197232D01*
X949000Y1196216D01*
X951032Y1197232D01*
X950016Y1195200D01*
X951032Y1193168D01*
X949000Y1194184D01*
X946968Y1193168D01*
X921548D02*
X922564Y1195200D01*
X921548Y1197232D01*
X923580Y1196216D01*
X925612Y1197232D01*
X924596Y1195200D01*
X925612Y1193168D01*
X923580Y1194184D01*
X921548Y1193168D01*
Y1168168D02*
X922564Y1170200D01*
X921548Y1172232D01*
X923580Y1171216D01*
X925612Y1172232D01*
X924596Y1170200D01*
X925612Y1168168D01*
X923580Y1169184D01*
X921548Y1168168D01*
X847548Y1193168D02*
X848564Y1195200D01*
X847548Y1197232D01*
X849580Y1196216D01*
X851612Y1197232D01*
X850596Y1195200D01*
X851612Y1193168D01*
X849580Y1194184D01*
X847548Y1193168D01*
X797048Y1168168D02*
X798064Y1170200D01*
X797048Y1172232D01*
X799080Y1171216D01*
X801112Y1172232D01*
X800096Y1170200D01*
X801112Y1168168D01*
X799080Y1169184D01*
X797048Y1168168D01*
X822048D02*
X823064Y1170200D01*
X822048Y1172232D01*
X824080Y1171216D01*
X826112Y1172232D01*
X825096Y1170200D01*
X826112Y1168168D01*
X824080Y1169184D01*
X822048Y1168168D01*
X847048D02*
X848064Y1170200D01*
X847048Y1172232D01*
X849080Y1171216D01*
X851112Y1172232D01*
X850096Y1170200D01*
X851112Y1168168D01*
X849080Y1169184D01*
X847048Y1168168D01*
X946968D02*
X947984Y1170200D01*
X946968Y1172232D01*
X949000Y1171216D01*
X951032Y1172232D01*
X950016Y1170200D01*
X951032Y1168168D01*
X949000Y1169184D01*
X946968Y1168168D01*
X797548Y1193168D02*
X798564Y1195200D01*
X797548Y1197232D01*
X799580Y1196216D01*
X801612Y1197232D01*
X800596Y1195200D01*
X801612Y1193168D01*
X799580Y1194184D01*
X797548Y1193168D01*
X822548D02*
X823564Y1195200D01*
X822548Y1197232D01*
X824580Y1196216D01*
X826612Y1197232D01*
X825596Y1195200D01*
X826612Y1193168D01*
X824580Y1194184D01*
X822548Y1193168D01*
X798064Y1265984D02*
Y1264968D01*
X800096D01*
Y1265984D01*
X801112D01*
Y1268016D01*
X800096D01*
Y1269032D01*
X798064D01*
Y1268016D01*
X797048D01*
Y1265984D01*
X798064D01*
X947984D02*
Y1264968D01*
X950016D01*
Y1265984D01*
X951032D01*
Y1268016D01*
X950016D01*
Y1269032D01*
X947984D01*
Y1268016D01*
X946968D01*
Y1265984D01*
X947984D01*
X872048Y1168168D02*
X873064Y1170200D01*
X872048Y1172232D01*
X874080Y1171216D01*
X876112Y1172232D01*
X875096Y1170200D01*
X876112Y1168168D01*
X874080Y1169184D01*
X872048Y1168168D01*
X872548Y1193168D02*
X873564Y1195200D01*
X872548Y1197232D01*
X874580Y1196216D01*
X876612Y1197232D01*
X875596Y1195200D01*
X876612Y1193168D01*
X874580Y1194184D01*
X872548Y1193168D01*
X897048D02*
X898064Y1195200D01*
X897048Y1197232D01*
X899080Y1196216D01*
X901112Y1197232D01*
X900096Y1195200D01*
X901112Y1193168D01*
X899080Y1194184D01*
X897048Y1193168D01*
Y1168168D02*
X898064Y1170200D01*
X897048Y1172232D01*
X899080Y1171216D01*
X901112Y1172232D01*
X900096Y1170200D01*
X901112Y1168168D01*
X899080Y1169184D01*
X897048Y1168168D01*
X109973Y250468D02*
X110989Y252500D01*
X109973Y254532D01*
X112005Y253516D01*
X114037Y254532D01*
X113021Y252500D01*
X114037Y250468D01*
X112005Y251484D01*
X109973Y250468D01*
X134973Y200468D02*
X135989Y202500D01*
X134973Y204532D01*
X137005Y203516D01*
X139037Y204532D01*
X138021Y202500D01*
X139037Y200468D01*
X137005Y201484D01*
X134973Y200468D01*
Y225468D02*
X135989Y227500D01*
X134973Y229532D01*
X137005Y228516D01*
X139037Y229532D01*
X138021Y227500D01*
X139037Y225468D01*
X137005Y226484D01*
X134973Y225468D01*
Y250468D02*
X135989Y252500D01*
X134973Y254532D01*
X137005Y253516D01*
X139037Y254532D01*
X138021Y252500D01*
X139037Y250468D01*
X137005Y251484D01*
X134973Y250468D01*
X135343Y275468D02*
X136359Y277500D01*
X135343Y279532D01*
X137375Y278516D01*
X139407Y279532D01*
X138391Y277500D01*
X139407Y275468D01*
X137375Y276484D01*
X135343Y275468D01*
X109973Y200468D02*
X110989Y202500D01*
X109973Y204532D01*
X112005Y203516D01*
X114037Y204532D01*
X113021Y202500D01*
X114037Y200468D01*
X112005Y201484D01*
X109973Y200468D01*
Y225468D02*
X110989Y227500D01*
X109973Y229532D01*
X112005Y228516D01*
X114037Y229532D01*
X113021Y227500D01*
X114037Y225468D01*
X112005Y226484D01*
X109973Y225468D01*
X38984Y201484D02*
Y200468D01*
X41016D01*
Y201484D01*
X42032D01*
Y203516D01*
X41016D01*
Y204532D01*
X38984D01*
Y203516D01*
X37968D01*
Y201484D01*
X38984D01*
Y276484D02*
Y275468D01*
X41016D01*
Y276484D01*
X42032D01*
Y278516D01*
X41016D01*
Y279532D01*
X38984D01*
Y278516D01*
X37968D01*
Y276484D01*
X38984D01*
X109973Y275468D02*
X110989Y277500D01*
X109973Y279532D01*
X112005Y278516D01*
X114037Y279532D01*
X113021Y277500D01*
X114037Y275468D01*
X112005Y276484D01*
X109973Y275468D01*
Y497968D02*
X110989Y500000D01*
X109973Y502032D01*
X112005Y501016D01*
X114037Y502032D01*
X113021Y500000D01*
X114037Y497968D01*
X112005Y498984D01*
X109973Y497968D01*
X134973Y447968D02*
X135989Y450000D01*
X134973Y452032D01*
X137005Y451016D01*
X139037Y452032D01*
X138021Y450000D01*
X139037Y447968D01*
X137005Y448984D01*
X134973Y447968D01*
Y472968D02*
X135989Y475000D01*
X134973Y477032D01*
X137005Y476016D01*
X139037Y477032D01*
X138021Y475000D01*
X139037Y472968D01*
X137005Y473984D01*
X134973Y472968D01*
Y497968D02*
X135989Y500000D01*
X134973Y502032D01*
X137005Y501016D01*
X139037Y502032D01*
X138021Y500000D01*
X139037Y497968D01*
X137005Y498984D01*
X134973Y497968D01*
X135343Y522968D02*
X136359Y525000D01*
X135343Y527032D01*
X137375Y526016D01*
X139407Y527032D01*
X138391Y525000D01*
X139407Y522968D01*
X137375Y523984D01*
X135343Y522968D01*
X109973Y447968D02*
X110989Y450000D01*
X109973Y452032D01*
X112005Y451016D01*
X114037Y452032D01*
X113021Y450000D01*
X114037Y447968D01*
X112005Y448984D01*
X109973Y447968D01*
Y472968D02*
X110989Y475000D01*
X109973Y477032D01*
X112005Y476016D01*
X114037Y477032D01*
X113021Y475000D01*
X114037Y472968D01*
X112005Y473984D01*
X109973Y472968D01*
X38984Y448984D02*
Y447968D01*
X41016D01*
Y448984D01*
X42032D01*
Y451016D01*
X41016D01*
Y452032D01*
X38984D01*
Y451016D01*
X37968D01*
Y448984D01*
X38984D01*
Y523984D02*
Y522968D01*
X41016D01*
Y523984D01*
X42032D01*
Y526016D01*
X41016D01*
Y527032D01*
X38984D01*
Y526016D01*
X37968D01*
Y523984D01*
X38984D01*
X109973Y522968D02*
X110989Y525000D01*
X109973Y527032D01*
X112005Y526016D01*
X114037Y527032D01*
X113021Y525000D01*
X114037Y522968D01*
X112005Y523984D01*
X109973Y522968D01*
X1354368Y522568D02*
Y526632D01*
X1358432D01*
Y522568D01*
X1354368D01*
X833668Y192368D02*
Y196432D01*
X837732D01*
Y192368D01*
X833668D01*
X846368Y674968D02*
Y679032D01*
X850432D01*
Y674968D01*
X846368D01*
X1773520Y1148548D02*
X1774536D01*
X1775552Y1149564D01*
X1776568Y1148548D01*
X1777584D01*
Y1149564D01*
X1776568Y1150580D01*
X1777584Y1151596D01*
Y1152612D01*
X1776568D01*
X1775552Y1151596D01*
X1774536Y1152612D01*
X1773520D01*
Y1151596D01*
X1774536Y1150580D01*
X1773520Y1149564D01*
Y1148548D01*
Y1121116D02*
X1774536D01*
X1775552Y1122132D01*
X1776568Y1121116D01*
X1777584D01*
Y1122132D01*
X1776568Y1123148D01*
X1777584Y1124164D01*
Y1125180D01*
X1776568D01*
X1775552Y1124164D01*
X1774536Y1125180D01*
X1773520D01*
Y1124164D01*
X1774536Y1123148D01*
X1773520Y1122132D01*
Y1121116D01*
Y1093684D02*
X1774536D01*
X1775552Y1094700D01*
X1776568Y1093684D01*
X1777584D01*
Y1094700D01*
X1776568Y1095716D01*
X1777584Y1096732D01*
Y1097748D01*
X1776568D01*
X1775552Y1096732D01*
X1774536Y1097748D01*
X1773520D01*
Y1096732D01*
X1774536Y1095716D01*
X1773520Y1094700D01*
Y1093684D01*
Y1066252D02*
X1774536D01*
X1775552Y1067268D01*
X1776568Y1066252D01*
X1777584D01*
Y1067268D01*
X1776568Y1068284D01*
X1777584Y1069300D01*
Y1070316D01*
X1776568D01*
X1775552Y1069300D01*
X1774536Y1070316D01*
X1773520D01*
Y1069300D01*
X1774536Y1068284D01*
X1773520Y1067268D01*
Y1066252D01*
Y1038820D02*
X1774536D01*
X1775552Y1039836D01*
X1776568Y1038820D01*
X1777584D01*
Y1039836D01*
X1776568Y1040852D01*
X1777584Y1041868D01*
Y1042884D01*
X1776568D01*
X1775552Y1041868D01*
X1774536Y1042884D01*
X1773520D01*
Y1041868D01*
X1774536Y1040852D01*
X1773520Y1039836D01*
Y1038820D01*
X1801968Y1134832D02*
X1802984D01*
X1804000Y1135848D01*
X1805016Y1134832D01*
X1806032D01*
Y1135848D01*
X1805016Y1136864D01*
X1806032Y1137880D01*
Y1138896D01*
X1805016D01*
X1804000Y1137880D01*
X1802984Y1138896D01*
X1801968D01*
Y1137880D01*
X1802984Y1136864D01*
X1801968Y1135848D01*
Y1134832D01*
Y1107400D02*
X1802984D01*
X1804000Y1108416D01*
X1805016Y1107400D01*
X1806032D01*
Y1108416D01*
X1805016Y1109432D01*
X1806032Y1110448D01*
Y1111464D01*
X1805016D01*
X1804000Y1110448D01*
X1802984Y1111464D01*
X1801968D01*
Y1110448D01*
X1802984Y1109432D01*
X1801968Y1108416D01*
Y1107400D01*
Y1079968D02*
X1802984D01*
X1804000Y1080984D01*
X1805016Y1079968D01*
X1806032D01*
Y1080984D01*
X1805016Y1082000D01*
X1806032Y1083016D01*
Y1084032D01*
X1805016D01*
X1804000Y1083016D01*
X1802984Y1084032D01*
X1801968D01*
Y1083016D01*
X1802984Y1082000D01*
X1801968Y1080984D01*
Y1079968D01*
Y1052536D02*
X1802984D01*
X1804000Y1053552D01*
X1805016Y1052536D01*
X1806032D01*
Y1053552D01*
X1805016Y1054568D01*
X1806032Y1055584D01*
Y1056600D01*
X1805016D01*
X1804000Y1055584D01*
X1802984Y1056600D01*
X1801968D01*
Y1055584D01*
X1802984Y1054568D01*
X1801968Y1053552D01*
Y1052536D01*
X1787744Y970748D02*
X1789776Y972780D01*
X1791808Y970748D01*
X1789776Y968716D01*
X1787744Y970748D01*
Y1220684D02*
X1789776Y1222716D01*
X1791808Y1220684D01*
X1789776Y1218652D01*
X1787744Y1220684D01*
X1807968Y818368D02*
Y822432D01*
X1812032D01*
Y818368D01*
X1807968D01*
X1808984Y819384D02*
Y821416D01*
X1811016D01*
Y819384D01*
X1808984D01*
X1807968Y792968D02*
Y797032D01*
X1812032D01*
Y792968D01*
X1807968D01*
X1808984Y793984D02*
Y796016D01*
X1811016D01*
Y793984D01*
X1808984D01*
X320200Y1207628D02*
X321216Y1208644D01*
X322232D01*
X321216Y1209660D01*
X322232Y1210676D01*
X321216D01*
X320200Y1211692D01*
X319184Y1210676D01*
X318168D01*
X319184Y1209660D01*
X318168Y1208644D01*
X319184D01*
X320200Y1207628D01*
X350200D02*
X351216Y1208644D01*
X352232D01*
X351216Y1209660D01*
X352232Y1210676D01*
X351216D01*
X350200Y1211692D01*
X349184Y1210676D01*
X348168D01*
X349184Y1209660D01*
X348168Y1208644D01*
X349184D01*
X350200Y1207628D01*
X371649Y1250828D02*
X369617Y1254892D01*
X373681D01*
X371649Y1250828D01*
X298751D02*
X296719Y1254892D01*
X300783D01*
X298751Y1250828D01*
X535551Y1207198D02*
X536567Y1208214D01*
X537583D01*
X536567Y1209230D01*
X537583Y1210246D01*
X536567D01*
X535551Y1211262D01*
X534535Y1210246D01*
X533519D01*
X534535Y1209230D01*
X533519Y1208214D01*
X534535D01*
X535551Y1207198D01*
X565551D02*
X566567Y1208214D01*
X567583D01*
X566567Y1209230D01*
X567583Y1210246D01*
X566567D01*
X565551Y1211262D01*
X564535Y1210246D01*
X563519D01*
X564535Y1209230D01*
X563519Y1208214D01*
X564535D01*
X565551Y1207198D01*
X587000Y1250398D02*
X584968Y1254462D01*
X589032D01*
X587000Y1250398D01*
X514102D02*
X512070Y1254462D01*
X516134D01*
X514102Y1250398D01*
X42968Y42968D02*
Y47032D01*
X47032D01*
Y42968D01*
X42968D01*
X1902968D02*
Y47032D01*
X1907032D01*
Y42968D01*
X1902968D01*
X1696698Y1237268D02*
Y1241332D01*
X1700762D01*
Y1237268D01*
X1696698D01*
D110*
X1482032Y1163400D02*
G03*
X1482032Y1163400I-2032J0D01*
G01*
Y1138000D02*
G03*
X1482032Y1138000I-2032J0D01*
G01*
X926632Y118200D02*
G03*
X926632Y118200I-2032J0D01*
G01*
X901232D02*
G03*
X901232Y118200I-2032J0D01*
G01*
X926632Y143600D02*
G03*
X926632Y143600I-2032J0D01*
G01*
X901232D02*
G03*
X901232Y143600I-2032J0D01*
G01*
Y727800D02*
G03*
X901232Y727800I-2032J0D01*
G01*
Y753200D02*
G03*
X901232Y753200I-2032J0D01*
G01*
X875832Y118200D02*
G03*
X875832Y118200I-2032J0D01*
G01*
Y143600D02*
G03*
X875832Y143600I-2032J0D01*
G01*
Y727800D02*
G03*
X875832Y727800I-2032J0D01*
G01*
Y753200D02*
G03*
X875832Y753200I-2032J0D01*
G01*
X952032Y118200D02*
G03*
X952032Y118200I-2032J0D01*
G01*
Y143600D02*
G03*
X952032Y143600I-2032J0D01*
G01*
X977432Y118200D02*
G03*
X977432Y118200I-2032J0D01*
G01*
Y143600D02*
G03*
X977432Y143600I-2032J0D01*
G01*
X1002832Y118200D02*
G03*
X1002832Y118200I-2032J0D01*
G01*
Y143600D02*
G03*
X1002832Y143600I-2032J0D01*
G01*
X1028232Y118200D02*
G03*
X1028232Y118200I-2032J0D01*
G01*
Y143600D02*
G03*
X1028232Y143600I-2032J0D01*
G01*
X1053632Y118200D02*
G03*
X1053632Y118200I-2032J0D01*
G01*
Y143600D02*
G03*
X1053632Y143600I-2032J0D01*
G01*
X1079032Y118200D02*
G03*
X1079032Y118200I-2032J0D01*
G01*
Y143600D02*
G03*
X1079032Y143600I-2032J0D01*
G01*
X1104432Y118200D02*
G03*
X1104432Y118200I-2032J0D01*
G01*
Y143600D02*
G03*
X1104432Y143600I-2032J0D01*
G01*
X1129832Y118200D02*
G03*
X1129832Y118200I-2032J0D01*
G01*
Y143600D02*
G03*
X1129832Y143600I-2032J0D01*
G01*
X1155232Y118200D02*
G03*
X1155232Y118200I-2032J0D01*
G01*
Y143600D02*
G03*
X1155232Y143600I-2032J0D01*
G01*
X1180632Y118200D02*
G03*
X1180632Y118200I-2032J0D01*
G01*
Y143600D02*
G03*
X1180632Y143600I-2032J0D01*
G01*
X1206032Y118200D02*
G03*
X1206032Y118200I-2032J0D01*
G01*
Y143600D02*
G03*
X1206032Y143600I-2032J0D01*
G01*
X1231432Y118200D02*
G03*
X1231432Y118200I-2032J0D01*
G01*
Y143600D02*
G03*
X1231432Y143600I-2032J0D01*
G01*
X1256832Y118200D02*
G03*
X1256832Y118200I-2032J0D01*
G01*
Y143600D02*
G03*
X1256832Y143600I-2032J0D01*
G01*
X1282232Y118200D02*
G03*
X1282232Y118200I-2032J0D01*
G01*
Y143600D02*
G03*
X1282232Y143600I-2032J0D01*
G01*
X1307632Y118200D02*
G03*
X1307632Y118200I-2032J0D01*
G01*
Y143600D02*
G03*
X1307632Y143600I-2032J0D01*
G01*
X1333032Y118200D02*
G03*
X1333032Y118200I-2032J0D01*
G01*
Y143600D02*
G03*
X1333032Y143600I-2032J0D01*
G01*
X926632Y727800D02*
G03*
X926632Y727800I-2032J0D01*
G01*
Y753200D02*
G03*
X926632Y753200I-2032J0D01*
G01*
X952032Y727800D02*
G03*
X952032Y727800I-2032J0D01*
G01*
Y753200D02*
G03*
X952032Y753200I-2032J0D01*
G01*
X977432Y727800D02*
G03*
X977432Y727800I-2032J0D01*
G01*
Y753200D02*
G03*
X977432Y753200I-2032J0D01*
G01*
X1002832Y727800D02*
G03*
X1002832Y727800I-2032J0D01*
G01*
Y753200D02*
G03*
X1002832Y753200I-2032J0D01*
G01*
X1028232Y727800D02*
G03*
X1028232Y727800I-2032J0D01*
G01*
Y753200D02*
G03*
X1028232Y753200I-2032J0D01*
G01*
X1053632Y727800D02*
G03*
X1053632Y727800I-2032J0D01*
G01*
Y753200D02*
G03*
X1053632Y753200I-2032J0D01*
G01*
X1079032Y727800D02*
G03*
X1079032Y727800I-2032J0D01*
G01*
Y753200D02*
G03*
X1079032Y753200I-2032J0D01*
G01*
X1104432Y727800D02*
G03*
X1104432Y727800I-2032J0D01*
G01*
Y753200D02*
G03*
X1104432Y753200I-2032J0D01*
G01*
X1129832Y727800D02*
G03*
X1129832Y727800I-2032J0D01*
G01*
Y753200D02*
G03*
X1129832Y753200I-2032J0D01*
G01*
X1155232Y727800D02*
G03*
X1155232Y727800I-2032J0D01*
G01*
Y753200D02*
G03*
X1155232Y753200I-2032J0D01*
G01*
X1180632Y727800D02*
G03*
X1180632Y727800I-2032J0D01*
G01*
Y753200D02*
G03*
X1180632Y753200I-2032J0D01*
G01*
X1206032Y727800D02*
G03*
X1206032Y727800I-2032J0D01*
G01*
Y753200D02*
G03*
X1206032Y753200I-2032J0D01*
G01*
X1231432Y727800D02*
G03*
X1231432Y727800I-2032J0D01*
G01*
Y753200D02*
G03*
X1231432Y753200I-2032J0D01*
G01*
X1256832Y727800D02*
G03*
X1256832Y727800I-2032J0D01*
G01*
Y753200D02*
G03*
X1256832Y753200I-2032J0D01*
G01*
X1282232Y727800D02*
G03*
X1282232Y727800I-2032J0D01*
G01*
Y753200D02*
G03*
X1282232Y753200I-2032J0D01*
G01*
X1307632Y727800D02*
G03*
X1307632Y727800I-2032J0D01*
G01*
Y753200D02*
G03*
X1307632Y753200I-2032J0D01*
G01*
X1333032Y727800D02*
G03*
X1333032Y727800I-2032J0D01*
G01*
Y753200D02*
G03*
X1333032Y753200I-2032J0D01*
G01*
X1702032Y375400D02*
G03*
X1702032Y375400I-2032J0D01*
G01*
Y350000D02*
G03*
X1702032Y350000I-2032J0D01*
G01*
Y324600D02*
G03*
X1702032Y324600I-2032J0D01*
G01*
X1616032Y413000D02*
G03*
X1616032Y413000I-2032J0D01*
G01*
X1641432D02*
G03*
X1641432Y413000I-2032J0D01*
G01*
X1595032Y641400D02*
G03*
X1595032Y641400I-2032J0D01*
G01*
Y616000D02*
G03*
X1595032Y616000I-2032J0D01*
G01*
Y590600D02*
G03*
X1595032Y590600I-2032J0D01*
G01*
X1630632Y713000D02*
G03*
X1630632Y713000I-2032J0D01*
G01*
X1656032D02*
G03*
X1656032Y713000I-2032J0D01*
G01*
X1681432D02*
G03*
X1681432Y713000I-2032J0D01*
G01*
X166032Y993500D02*
G03*
X166032Y993500I-2032J0D01*
G01*
X503032Y1116436D02*
G03*
X503032Y1116436I-2032J0D01*
G01*
X594032Y1080937D02*
G03*
X594032Y1080937I-2032J0D01*
G01*
X287032Y1116930D02*
G03*
X287032Y1116930I-2032J0D01*
G01*
X378032Y1081430D02*
G03*
X378032Y1081430I-2032J0D01*
G01*
X524532Y1030000D02*
G03*
X524532Y1030000I-2032J0D01*
G01*
X485402Y943440D02*
G03*
X485402Y943440I-2032J0D01*
G01*
X522532Y906500D02*
G03*
X522532Y906500I-2032J0D01*
G01*
X309181Y1030430D02*
G03*
X309181Y1030430I-2032J0D01*
G01*
X270051Y943870D02*
G03*
X270051Y943870I-2032J0D01*
G01*
X307181Y906930D02*
G03*
X307181Y906930I-2032J0D01*
G01*
X57402Y855440D02*
G03*
X57402Y855440I-2032J0D01*
G01*
X96532Y942000D02*
G03*
X96532Y942000I-2032J0D01*
G01*
X74532Y1028500D02*
G03*
X74532Y1028500I-2032J0D01*
G01*
X94532Y818500D02*
G03*
X94532Y818500I-2032J0D01*
G01*
X1427032Y1187999D02*
G03*
X1427032Y1187999I-2032J0D01*
G01*
X1172032Y1217999D02*
G03*
X1172032Y1217999I-2032J0D01*
G01*
X1337032Y1247999D02*
G03*
X1337032Y1247999I-2032J0D01*
G01*
X1232031Y1217999D02*
G03*
X1232031Y1217999I-2032J0D01*
G01*
X1067032Y1247999D02*
G03*
X1067032Y1247999I-2032J0D01*
G01*
X1547032D02*
G03*
X1547032Y1247999I-2032J0D01*
G01*
X1457032Y1187999D02*
G03*
X1457032Y1187999I-2032J0D01*
G01*
X1442032Y1217999D02*
G03*
X1442032Y1217999I-2032J0D01*
G01*
X992032D02*
G03*
X992032Y1217999I-2032J0D01*
G01*
X1277031Y1247999D02*
G03*
X1277031Y1247999I-2032J0D01*
G01*
X1292032Y1217999D02*
G03*
X1292032Y1217999I-2032J0D01*
G01*
X1382032D02*
G03*
X1382032Y1217999I-2032J0D01*
G01*
X962032D02*
G03*
X962032Y1217999I-2032J0D01*
G01*
X1367032Y1247999D02*
G03*
X1367032Y1247999I-2032J0D01*
G01*
X1187032D02*
G03*
X1187032Y1247999I-2032J0D01*
G01*
X1247031D02*
G03*
X1247031Y1247999I-2032J0D01*
G01*
X1322032Y1217999D02*
G03*
X1322032Y1217999I-2032J0D01*
G01*
X1352032D02*
G03*
X1352032Y1217999I-2032J0D01*
G01*
X1217032Y1247999D02*
G03*
X1217032Y1247999I-2032J0D01*
G01*
X1397032Y1187999D02*
G03*
X1397032Y1187999I-2032J0D01*
G01*
X1142032Y1217999D02*
G03*
X1142032Y1217999I-2032J0D01*
G01*
X1082032D02*
G03*
X1082032Y1217999I-2032J0D01*
G01*
X1127032Y1247999D02*
G03*
X1127032Y1247999I-2032J0D01*
G01*
X1427032D02*
G03*
X1427032Y1247999I-2032J0D01*
G01*
X1517032Y1187999D02*
G03*
X1517032Y1187999I-2032J0D01*
G01*
Y1247999D02*
G03*
X1517032Y1247999I-2032J0D01*
G01*
X1472032Y1217999D02*
G03*
X1472032Y1217999I-2032J0D01*
G01*
X1097032Y1247999D02*
G03*
X1097032Y1247999I-2032J0D01*
G01*
X1502032Y1217999D02*
G03*
X1502032Y1217999I-2032J0D01*
G01*
X1412032D02*
G03*
X1412032Y1217999I-2032J0D01*
G01*
X1397032Y1247999D02*
G03*
X1397032Y1247999I-2032J0D01*
G01*
X1112032Y1217999D02*
G03*
X1112032Y1217999I-2032J0D01*
G01*
X1037032Y1247999D02*
G03*
X1037032Y1247999I-2032J0D01*
G01*
X1487032Y1187999D02*
G03*
X1487032Y1187999I-2032J0D01*
G01*
X1262031Y1217999D02*
G03*
X1262031Y1217999I-2032J0D01*
G01*
X1367032Y1187999D02*
G03*
X1367032Y1187999I-2032J0D01*
G01*
X1307032Y1247999D02*
G03*
X1307032Y1247999I-2032J0D01*
G01*
X1007032D02*
G03*
X1007032Y1247999I-2032J0D01*
G01*
X1157032D02*
G03*
X1157032Y1247999I-2032J0D01*
G01*
X1668033Y316000D02*
G03*
X1668033Y316000I-2032J0D01*
G01*
X1580033D02*
G03*
X1580033Y316000I-2032J0D01*
G01*
X1734033Y272000D02*
G03*
X1734033Y272000I-2032J0D01*
G01*
X1646033D02*
G03*
X1646033Y272000I-2032J0D01*
G01*
X1657033Y294000D02*
G03*
X1657033Y294000I-2032J0D01*
G01*
X1646033Y316000D02*
G03*
X1646033Y316000I-2032J0D01*
G01*
X1624033D02*
G03*
X1624033Y316000I-2032J0D01*
G01*
X1767033Y294000D02*
G03*
X1767033Y294000I-2032J0D01*
G01*
X1624033Y272000D02*
G03*
X1624033Y272000I-2032J0D01*
G01*
X1657033Y338000D02*
G03*
X1657033Y338000I-2032J0D01*
G01*
X1756033Y272000D02*
G03*
X1756033Y272000I-2032J0D01*
G01*
X1580033D02*
G03*
X1580033Y272000I-2032J0D01*
G01*
X1591033Y294000D02*
G03*
X1591033Y294000I-2032J0D01*
G01*
X1745033Y338000D02*
G03*
X1745033Y338000I-2032J0D01*
G01*
X1613033Y294000D02*
G03*
X1613033Y294000I-2032J0D01*
G01*
X1734033Y316000D02*
G03*
X1734033Y316000I-2032J0D01*
G01*
X1756033Y360000D02*
G03*
X1756033Y360000I-2032J0D01*
G01*
X1767033Y338000D02*
G03*
X1767033Y338000I-2032J0D01*
G01*
X1668033Y272000D02*
G03*
X1668033Y272000I-2032J0D01*
G01*
X1745033Y294000D02*
G03*
X1745033Y294000I-2032J0D01*
G01*
X1602033Y272000D02*
G03*
X1602033Y272000I-2032J0D01*
G01*
Y316000D02*
G03*
X1602033Y316000I-2032J0D01*
G01*
X1635033Y338000D02*
G03*
X1635033Y338000I-2032J0D01*
G01*
X1756033Y316000D02*
G03*
X1756033Y316000I-2032J0D01*
G01*
X1635033Y294000D02*
G03*
X1635033Y294000I-2032J0D01*
G01*
X1525531Y605000D02*
G03*
X1525531Y605000I-2032J0D01*
G01*
Y570999D02*
G03*
X1525531Y570999I-2032J0D01*
G01*
X1542531Y605000D02*
G03*
X1542531Y605000I-2032J0D01*
G01*
X1636031Y622000D02*
G03*
X1636031Y622000I-2032J0D01*
G01*
X1534031Y587999D02*
G03*
X1534031Y587999I-2032J0D01*
G01*
X1653031Y622000D02*
G03*
X1653031Y622000I-2032J0D01*
G01*
X1559531Y570999D02*
G03*
X1559531Y570999I-2032J0D01*
G01*
X1551031Y587999D02*
G03*
X1551031Y587999I-2032J0D01*
G01*
X1534031Y622000D02*
G03*
X1534031Y622000I-2032J0D01*
G01*
X1542531Y638999D02*
G03*
X1542531Y638999I-2032J0D01*
G01*
Y570999D02*
G03*
X1542531Y570999I-2032J0D01*
G01*
X1559531Y605000D02*
G03*
X1559531Y605000I-2032J0D01*
G01*
X1551031Y622000D02*
G03*
X1551031Y622000I-2032J0D01*
G01*
X1525531Y638999D02*
G03*
X1525531Y638999I-2032J0D01*
G01*
X1890532Y910000D02*
G03*
X1890532Y910000I-2032J0D01*
G01*
X812782Y712000D02*
G03*
X812782Y712000I-2032J0D01*
G01*
X787032Y636000D02*
G03*
X787032Y636000I-2032J0D01*
G01*
X800032Y619000D02*
G03*
X800032Y619000I-2032J0D01*
G01*
X825482Y606000D02*
G03*
X825482Y606000I-2032J0D01*
G01*
X362032Y571250D02*
G03*
X362032Y571250I-2032J0D01*
G01*
X429032Y570999D02*
G03*
X429032Y570999I-2032J0D01*
G01*
X497032D02*
G03*
X497032Y570999I-2032J0D01*
G01*
X913532Y1051000D02*
G03*
X913532Y1051000I-2032J0D01*
G01*
X711032Y944500D02*
G03*
X711032Y944500I-2032J0D01*
G01*
X704032Y1047000D02*
G03*
X704032Y1047000I-2032J0D01*
G01*
X723882Y1038750D02*
G03*
X723882Y1038750I-2032J0D01*
G01*
X716032Y1062500D02*
G03*
X716032Y1062500I-2032J0D01*
G01*
X1277032Y1035000D02*
G03*
X1277032Y1035000I-2032J0D01*
G01*
X1782032Y506000D02*
G03*
X1782032Y506000I-2032J0D01*
G01*
X1231432Y440000D02*
G03*
X1231432Y440000I-2032J0D01*
G01*
X1052032Y457000D02*
G03*
X1052032Y457000I-2032J0D01*
G01*
Y474032D02*
G03*
X1052032Y474032I-2032J0D01*
G01*
X1282232Y512000D02*
G03*
X1282232Y512000I-2032J0D01*
G01*
X1308032Y525000D02*
G03*
X1308032Y525000I-2032J0D01*
G01*
X1052032Y491000D02*
G03*
X1052032Y491000I-2032J0D01*
G01*
X774682Y60000D02*
G03*
X774682Y60000I-2032J0D01*
G01*
X875832Y403000D02*
G03*
X875832Y403000I-2032J0D01*
G01*
X901232Y373000D02*
G03*
X901232Y373000I-2032J0D01*
G01*
X937826Y433891D02*
G03*
X937826Y433891I-2032J0D01*
G01*
Y414088D02*
G03*
X937826Y414088I-2032J0D01*
G01*
X921826Y426286D02*
G03*
X921826Y426286I-2032J0D01*
G01*
X83032Y395000D02*
G03*
X83032Y395000I-2032J0D01*
G01*
X67032D02*
G03*
X67032Y395000I-2032J0D01*
G01*
X83032Y410000D02*
G03*
X83032Y410000I-2032J0D01*
G01*
X67032D02*
G03*
X67032Y410000I-2032J0D01*
G01*
X1028232Y906000D02*
G03*
X1028232Y906000I-2032J0D01*
G01*
X1002832Y988000D02*
G03*
X1002832Y988000I-2032J0D01*
G01*
X1356032Y925000D02*
G03*
X1356032Y925000I-2032J0D01*
G01*
X1363032Y969000D02*
G03*
X1363032Y969000I-2032J0D01*
G01*
X1313032Y950650D02*
G03*
X1313032Y950650I-2032J0D01*
G01*
X1425032Y353000D02*
G03*
X1425032Y353000I-2032J0D01*
G01*
X1575032Y414270D02*
G03*
X1575032Y414270I-2032J0D01*
G01*
X1443972Y1081500D02*
G03*
X1443972Y1081500I-2032J0D01*
G01*
X812782Y879500D02*
G03*
X812782Y879500I-2032J0D01*
G01*
X774682Y894500D02*
G03*
X774682Y894500I-2032J0D01*
G01*
X787382Y879500D02*
G03*
X787382Y879500I-2032J0D01*
G01*
X800082Y894500D02*
G03*
X800082Y894500I-2032J0D01*
G01*
X825482D02*
G03*
X825482Y894500I-2032J0D01*
G01*
X913532Y917000D02*
G03*
X913532Y917000I-2032J0D01*
G01*
Y942000D02*
G03*
X913532Y942000I-2032J0D01*
G01*
Y967000D02*
G03*
X913532Y967000I-2032J0D01*
G01*
Y992000D02*
G03*
X913532Y992000I-2032J0D01*
G01*
Y1022000D02*
G03*
X913532Y1022000I-2032J0D01*
G01*
X713070Y977000D02*
G03*
X713070Y977000I-2032J0D01*
G01*
X846032Y857000D02*
G03*
X846032Y857000I-2032J0D01*
G01*
X888532Y885000D02*
G03*
X888532Y885000I-2032J0D01*
G01*
X691306Y857500D02*
G03*
X691306Y857500I-2032J0D01*
G01*
X1856532Y208570D02*
G03*
X1856532Y208570I-2032J0D01*
G01*
X1856032Y275000D02*
G03*
X1856032Y275000I-2032J0D01*
G01*
Y478000D02*
G03*
X1856032Y478000I-2032J0D01*
G01*
Y535000D02*
G03*
X1856032Y535000I-2032J0D01*
G01*
Y645000D02*
G03*
X1856032Y645000I-2032J0D01*
G01*
X1700762Y223000D02*
G03*
X1700762Y223000I-2032J0D01*
G01*
X1710032Y236000D02*
G03*
X1710032Y236000I-2032J0D01*
G01*
X1693032D02*
G03*
X1693032Y236000I-2032J0D01*
G01*
X1589908Y402920D02*
G03*
X1589908Y402920I-2032J0D01*
G01*
Y425000D02*
G03*
X1589908Y425000I-2032J0D01*
G01*
X1592380Y475000D02*
G03*
X1592380Y475000I-2032J0D01*
G01*
X1613380Y467000D02*
G03*
X1613380Y467000I-2032J0D01*
G01*
Y485000D02*
G03*
X1613380Y485000I-2032J0D01*
G01*
X1541032Y698000D02*
G03*
X1541032Y698000I-2032J0D01*
G01*
X1770032Y637000D02*
G03*
X1770032Y637000I-2032J0D01*
G01*
Y704000D02*
G03*
X1770032Y704000I-2032J0D01*
G01*
X1543032Y762000D02*
G03*
X1543032Y762000I-2032J0D01*
G01*
X1491302Y178730D02*
G03*
X1491302Y178730I-2032J0D01*
G01*
X1471762D02*
G03*
X1471762Y178730I-2032J0D01*
G01*
X1500032Y196000D02*
G03*
X1500032Y196000I-2032J0D01*
G01*
X1482032D02*
G03*
X1482032Y196000I-2032J0D01*
G01*
X1463032D02*
G03*
X1463032Y196000I-2032J0D01*
G01*
X920826Y407891D02*
G03*
X920826Y407891I-2032J0D01*
G01*
X937406Y396088D02*
G03*
X937406Y396088I-2032J0D01*
G01*
X1156032Y1062000D02*
G03*
X1156032Y1062000I-2032J0D01*
G01*
X1106532D02*
G03*
X1106532Y1062000I-2032J0D01*
G01*
X1057032D02*
G03*
X1057032Y1062000I-2032J0D01*
G01*
X1424032Y1117000D02*
G03*
X1424032Y1117000I-2032J0D01*
G01*
X1386532D02*
G03*
X1386532Y1117000I-2032J0D01*
G01*
D111*
X165016Y993500D02*
G03*
X165016Y993500I-1016J0D01*
G01*
X502016Y1116436D02*
G03*
X502016Y1116436I-1016J0D01*
G01*
X593016Y1080937D02*
G03*
X593016Y1080937I-1016J0D01*
G01*
X286016Y1116930D02*
G03*
X286016Y1116930I-1016J0D01*
G01*
X377016Y1081430D02*
G03*
X377016Y1081430I-1016J0D01*
G01*
X523516Y1030000D02*
G03*
X523516Y1030000I-1016J0D01*
G01*
X484386Y943440D02*
G03*
X484386Y943440I-1016J0D01*
G01*
X521516Y906500D02*
G03*
X521516Y906500I-1016J0D01*
G01*
X308165Y1030430D02*
G03*
X308165Y1030430I-1016J0D01*
G01*
X269035Y943870D02*
G03*
X269035Y943870I-1016J0D01*
G01*
X306165Y906930D02*
G03*
X306165Y906930I-1016J0D01*
G01*
X56386Y855440D02*
G03*
X56386Y855440I-1016J0D01*
G01*
X95516Y942000D02*
G03*
X95516Y942000I-1016J0D01*
G01*
X73516Y1028500D02*
G03*
X73516Y1028500I-1016J0D01*
G01*
X93516Y818500D02*
G03*
X93516Y818500I-1016J0D01*
G01*
X1426015Y1187999D02*
G03*
X1426015Y1187999I-1016J0D01*
G01*
X1171016Y1217999D02*
G03*
X1171016Y1217999I-1016J0D01*
G01*
X1336015Y1247999D02*
G03*
X1336015Y1247999I-1016J0D01*
G01*
X1231015Y1217999D02*
G03*
X1231015Y1217999I-1016J0D01*
G01*
X1066016Y1247999D02*
G03*
X1066016Y1247999I-1016J0D01*
G01*
X1546015D02*
G03*
X1546015Y1247999I-1016J0D01*
G01*
X1456015Y1187999D02*
G03*
X1456015Y1187999I-1016J0D01*
G01*
X1441015Y1217999D02*
G03*
X1441015Y1217999I-1016J0D01*
G01*
X991016D02*
G03*
X991016Y1217999I-1016J0D01*
G01*
X1276015Y1247999D02*
G03*
X1276015Y1247999I-1016J0D01*
G01*
X1291015Y1217999D02*
G03*
X1291015Y1217999I-1016J0D01*
G01*
X1381015D02*
G03*
X1381015Y1217999I-1016J0D01*
G01*
X961016D02*
G03*
X961016Y1217999I-1016J0D01*
G01*
X1366015Y1247999D02*
G03*
X1366015Y1247999I-1016J0D01*
G01*
X1186016D02*
G03*
X1186016Y1247999I-1016J0D01*
G01*
X1246015D02*
G03*
X1246015Y1247999I-1016J0D01*
G01*
X1321015Y1217999D02*
G03*
X1321015Y1217999I-1016J0D01*
G01*
X1351015D02*
G03*
X1351015Y1217999I-1016J0D01*
G01*
X1216016Y1247999D02*
G03*
X1216016Y1247999I-1016J0D01*
G01*
X1396015Y1187999D02*
G03*
X1396015Y1187999I-1016J0D01*
G01*
X1141016Y1217999D02*
G03*
X1141016Y1217999I-1016J0D01*
G01*
X1081016D02*
G03*
X1081016Y1217999I-1016J0D01*
G01*
X1126016Y1247999D02*
G03*
X1126016Y1247999I-1016J0D01*
G01*
X1426015D02*
G03*
X1426015Y1247999I-1016J0D01*
G01*
X1516015Y1187999D02*
G03*
X1516015Y1187999I-1016J0D01*
G01*
Y1247999D02*
G03*
X1516015Y1247999I-1016J0D01*
G01*
X1471015Y1217999D02*
G03*
X1471015Y1217999I-1016J0D01*
G01*
X1096016Y1247999D02*
G03*
X1096016Y1247999I-1016J0D01*
G01*
X1501015Y1217999D02*
G03*
X1501015Y1217999I-1016J0D01*
G01*
X1411015D02*
G03*
X1411015Y1217999I-1016J0D01*
G01*
X1396015Y1247999D02*
G03*
X1396015Y1247999I-1016J0D01*
G01*
X1111016Y1217999D02*
G03*
X1111016Y1217999I-1016J0D01*
G01*
X1036016Y1247999D02*
G03*
X1036016Y1247999I-1016J0D01*
G01*
X1486015Y1187999D02*
G03*
X1486015Y1187999I-1016J0D01*
G01*
X1261015Y1217999D02*
G03*
X1261015Y1217999I-1016J0D01*
G01*
X1366015Y1187999D02*
G03*
X1366015Y1187999I-1016J0D01*
G01*
X1306015Y1247999D02*
G03*
X1306015Y1247999I-1016J0D01*
G01*
X1006016D02*
G03*
X1006016Y1247999I-1016J0D01*
G01*
X1156016D02*
G03*
X1156016Y1247999I-1016J0D01*
G01*
X1667017Y316000D02*
G03*
X1667017Y316000I-1016J0D01*
G01*
X1579017D02*
G03*
X1579017Y316000I-1016J0D01*
G01*
X1733017Y272000D02*
G03*
X1733017Y272000I-1016J0D01*
G01*
X1645017D02*
G03*
X1645017Y272000I-1016J0D01*
G01*
X1656017Y294000D02*
G03*
X1656017Y294000I-1016J0D01*
G01*
X1645017Y316000D02*
G03*
X1645017Y316000I-1016J0D01*
G01*
X1623017D02*
G03*
X1623017Y316000I-1016J0D01*
G01*
X1766017Y294000D02*
G03*
X1766017Y294000I-1016J0D01*
G01*
X1623017Y272000D02*
G03*
X1623017Y272000I-1016J0D01*
G01*
X1656017Y338000D02*
G03*
X1656017Y338000I-1016J0D01*
G01*
X1755017Y272000D02*
G03*
X1755017Y272000I-1016J0D01*
G01*
X1579017D02*
G03*
X1579017Y272000I-1016J0D01*
G01*
X1590017Y294000D02*
G03*
X1590017Y294000I-1016J0D01*
G01*
X1744017Y338000D02*
G03*
X1744017Y338000I-1016J0D01*
G01*
X1612017Y294000D02*
G03*
X1612017Y294000I-1016J0D01*
G01*
X1733017Y316000D02*
G03*
X1733017Y316000I-1016J0D01*
G01*
X1755017Y360000D02*
G03*
X1755017Y360000I-1016J0D01*
G01*
X1766017Y338000D02*
G03*
X1766017Y338000I-1016J0D01*
G01*
X1667017Y272000D02*
G03*
X1667017Y272000I-1016J0D01*
G01*
X1744017Y294000D02*
G03*
X1744017Y294000I-1016J0D01*
G01*
X1601017Y272000D02*
G03*
X1601017Y272000I-1016J0D01*
G01*
Y316000D02*
G03*
X1601017Y316000I-1016J0D01*
G01*
X1634017Y338000D02*
G03*
X1634017Y338000I-1016J0D01*
G01*
X1755017Y316000D02*
G03*
X1755017Y316000I-1016J0D01*
G01*
X1634017Y294000D02*
G03*
X1634017Y294000I-1016J0D01*
G01*
X1524515Y605000D02*
G03*
X1524515Y605000I-1016J0D01*
G01*
Y570999D02*
G03*
X1524515Y570999I-1016J0D01*
G01*
X1541515Y605000D02*
G03*
X1541515Y605000I-1016J0D01*
G01*
X1635015Y622000D02*
G03*
X1635015Y622000I-1016J0D01*
G01*
X1533015Y587999D02*
G03*
X1533015Y587999I-1016J0D01*
G01*
X1652015Y622000D02*
G03*
X1652015Y622000I-1016J0D01*
G01*
X1558515Y570999D02*
G03*
X1558515Y570999I-1016J0D01*
G01*
X1550015Y587999D02*
G03*
X1550015Y587999I-1016J0D01*
G01*
X1533015Y622000D02*
G03*
X1533015Y622000I-1016J0D01*
G01*
X1541515Y638999D02*
G03*
X1541515Y638999I-1016J0D01*
G01*
Y570999D02*
G03*
X1541515Y570999I-1016J0D01*
G01*
X1558515Y605000D02*
G03*
X1558515Y605000I-1016J0D01*
G01*
X1550015Y622000D02*
G03*
X1550015Y622000I-1016J0D01*
G01*
X1524515Y638999D02*
G03*
X1524515Y638999I-1016J0D01*
G01*
X1889516Y910000D02*
G03*
X1889516Y910000I-1016J0D01*
G01*
X811766Y712000D02*
G03*
X811766Y712000I-1016J0D01*
G01*
X786016Y636000D02*
G03*
X786016Y636000I-1016J0D01*
G01*
X799016Y619000D02*
G03*
X799016Y619000I-1016J0D01*
G01*
X824466Y606000D02*
G03*
X824466Y606000I-1016J0D01*
G01*
X361016Y571250D02*
G03*
X361016Y571250I-1016J0D01*
G01*
X428016Y570999D02*
G03*
X428016Y570999I-1016J0D01*
G01*
X496016D02*
G03*
X496016Y570999I-1016J0D01*
G01*
X912516Y1051000D02*
G03*
X912516Y1051000I-1016J0D01*
G01*
X710016Y944500D02*
G03*
X710016Y944500I-1016J0D01*
G01*
X703016Y1047000D02*
G03*
X703016Y1047000I-1016J0D01*
G01*
X722866Y1038750D02*
G03*
X722866Y1038750I-1016J0D01*
G01*
X715016Y1062500D02*
G03*
X715016Y1062500I-1016J0D01*
G01*
X1276016Y1035000D02*
G03*
X1276016Y1035000I-1016J0D01*
G01*
X1781016Y506000D02*
G03*
X1781016Y506000I-1016J0D01*
G01*
X1230416Y440000D02*
G03*
X1230416Y440000I-1016J0D01*
G01*
X1051016Y457000D02*
G03*
X1051016Y457000I-1016J0D01*
G01*
Y474032D02*
G03*
X1051016Y474032I-1016J0D01*
G01*
X1281216Y512000D02*
G03*
X1281216Y512000I-1016J0D01*
G01*
X1307016Y525000D02*
G03*
X1307016Y525000I-1016J0D01*
G01*
X1051016Y491000D02*
G03*
X1051016Y491000I-1016J0D01*
G01*
X773666Y60000D02*
G03*
X773666Y60000I-1016J0D01*
G01*
X874816Y403000D02*
G03*
X874816Y403000I-1016J0D01*
G01*
X900216Y373000D02*
G03*
X900216Y373000I-1016J0D01*
G01*
X936810Y433891D02*
G03*
X936810Y433891I-1016J0D01*
G01*
Y414088D02*
G03*
X936810Y414088I-1016J0D01*
G01*
X920810Y426286D02*
G03*
X920810Y426286I-1016J0D01*
G01*
X82016Y395000D02*
G03*
X82016Y395000I-1016J0D01*
G01*
X66016D02*
G03*
X66016Y395000I-1016J0D01*
G01*
X82016Y410000D02*
G03*
X82016Y410000I-1016J0D01*
G01*
X66016D02*
G03*
X66016Y410000I-1016J0D01*
G01*
X1027216Y906000D02*
G03*
X1027216Y906000I-1016J0D01*
G01*
X1001816Y988000D02*
G03*
X1001816Y988000I-1016J0D01*
G01*
X1355016Y925000D02*
G03*
X1355016Y925000I-1016J0D01*
G01*
X1362016Y969000D02*
G03*
X1362016Y969000I-1016J0D01*
G01*
X1312016Y950650D02*
G03*
X1312016Y950650I-1016J0D01*
G01*
X1424016Y353000D02*
G03*
X1424016Y353000I-1016J0D01*
G01*
X1574016Y414270D02*
G03*
X1574016Y414270I-1016J0D01*
G01*
X1442956Y1081500D02*
G03*
X1442956Y1081500I-1016J0D01*
G01*
X811766Y879500D02*
G03*
X811766Y879500I-1016J0D01*
G01*
X773666Y894500D02*
G03*
X773666Y894500I-1016J0D01*
G01*
X786366Y879500D02*
G03*
X786366Y879500I-1016J0D01*
G01*
X799066Y894500D02*
G03*
X799066Y894500I-1016J0D01*
G01*
X824466D02*
G03*
X824466Y894500I-1016J0D01*
G01*
X912516Y917000D02*
G03*
X912516Y917000I-1016J0D01*
G01*
Y942000D02*
G03*
X912516Y942000I-1016J0D01*
G01*
Y967000D02*
G03*
X912516Y967000I-1016J0D01*
G01*
Y992000D02*
G03*
X912516Y992000I-1016J0D01*
G01*
Y1022000D02*
G03*
X912516Y1022000I-1016J0D01*
G01*
X712054Y977000D02*
G03*
X712054Y977000I-1016J0D01*
G01*
X845016Y857000D02*
G03*
X845016Y857000I-1016J0D01*
G01*
X887516Y885000D02*
G03*
X887516Y885000I-1016J0D01*
G01*
X690290Y857500D02*
G03*
X690290Y857500I-1016J0D01*
G01*
X1855516Y208570D02*
G03*
X1855516Y208570I-1016J0D01*
G01*
X1855016Y275000D02*
G03*
X1855016Y275000I-1016J0D01*
G01*
Y478000D02*
G03*
X1855016Y478000I-1016J0D01*
G01*
Y535000D02*
G03*
X1855016Y535000I-1016J0D01*
G01*
Y645000D02*
G03*
X1855016Y645000I-1016J0D01*
G01*
X1699746Y223000D02*
G03*
X1699746Y223000I-1016J0D01*
G01*
X1709016Y236000D02*
G03*
X1709016Y236000I-1016J0D01*
G01*
X1692016D02*
G03*
X1692016Y236000I-1016J0D01*
G01*
X1588892Y402920D02*
G03*
X1588892Y402920I-1016J0D01*
G01*
Y425000D02*
G03*
X1588892Y425000I-1016J0D01*
G01*
X1591364Y475000D02*
G03*
X1591364Y475000I-1016J0D01*
G01*
X1612364Y467000D02*
G03*
X1612364Y467000I-1016J0D01*
G01*
Y485000D02*
G03*
X1612364Y485000I-1016J0D01*
G01*
X1540016Y698000D02*
G03*
X1540016Y698000I-1016J0D01*
G01*
X1769016Y637000D02*
G03*
X1769016Y637000I-1016J0D01*
G01*
Y704000D02*
G03*
X1769016Y704000I-1016J0D01*
G01*
X1542016Y762000D02*
G03*
X1542016Y762000I-1016J0D01*
G01*
X1490286Y178730D02*
G03*
X1490286Y178730I-1016J0D01*
G01*
X1470746D02*
G03*
X1470746Y178730I-1016J0D01*
G01*
X1499016Y196000D02*
G03*
X1499016Y196000I-1016J0D01*
G01*
X1481016D02*
G03*
X1481016Y196000I-1016J0D01*
G01*
X1462016D02*
G03*
X1462016Y196000I-1016J0D01*
G01*
X919810Y407891D02*
G03*
X919810Y407891I-1016J0D01*
G01*
X936390Y396088D02*
G03*
X936390Y396088I-1016J0D01*
G01*
X1155016Y1062000D02*
G03*
X1155016Y1062000I-1016J0D01*
G01*
X1105516D02*
G03*
X1105516Y1062000I-1016J0D01*
G01*
X1056016D02*
G03*
X1056016Y1062000I-1016J0D01*
G01*
X1423016Y1117000D02*
G03*
X1423016Y1117000I-1016J0D01*
G01*
X1385516D02*
G03*
X1385516Y1117000I-1016J0D01*
G01*
M02*
