G04*
G04 #@! TF.GenerationSoftware,Altium Limited,Altium Designer,19.0.12 (326)*
G04*
G04 Layer_Color=255*
%FSLAX24Y24*%
%MOIN*%
G70*
G01*
G75*
%ADD24R,0.0512X0.0276*%
%ADD30R,0.0276X0.0512*%
%ADD37R,0.0354X0.0512*%
%ADD73C,0.1201*%
%ADD74C,0.0600*%
%ADD75C,0.0950*%
%ADD76C,0.0602*%
%ADD77R,0.0602X0.0602*%
%ADD78R,0.0709X0.0709*%
%ADD79C,0.0709*%
%ADD80C,0.0669*%
%ADD81C,0.0709*%
%ADD82R,0.0709X0.0709*%
%ADD83C,0.0594*%
%ADD84R,0.0594X0.0594*%
%ADD85C,0.0615*%
%ADD86R,0.0615X0.0615*%
%ADD87C,0.1650*%
%ADD88C,0.0644*%
%ADD89R,0.0644X0.0644*%
%ADD105R,0.0315X0.0354*%
D24*
X46181Y39843D02*
D03*
Y39094D02*
D03*
X42283Y39843D02*
D03*
Y39094D02*
D03*
X44232Y39843D02*
D03*
Y39094D02*
D03*
D30*
X41280Y47992D02*
D03*
X40532D02*
D03*
X46535D02*
D03*
X47283D02*
D03*
X42283Y40978D02*
D03*
X41535D02*
D03*
X44232D02*
D03*
X43484D02*
D03*
X46181Y41024D02*
D03*
X45433D02*
D03*
D37*
X41260Y45709D02*
D03*
X40512D02*
D03*
X46535Y45703D02*
D03*
X47283D02*
D03*
D73*
X1772Y49409D02*
D03*
X53402Y20654D02*
D03*
X32902Y7654D02*
D03*
X33402Y26654D02*
D03*
X1772Y1772D02*
D03*
X75000D02*
D03*
X66879Y48791D02*
D03*
D74*
X58268Y45803D02*
D03*
Y44803D02*
D03*
X66929Y14780D02*
D03*
Y13780D02*
D03*
Y12780D02*
D03*
X63543Y16260D02*
D03*
X64543D02*
D03*
X62717Y25252D02*
D03*
Y24252D02*
D03*
Y23252D02*
D03*
X64118Y28071D02*
D03*
X65118D02*
D03*
X66118D02*
D03*
D75*
X4982Y49311D02*
D03*
X7852D02*
D03*
X14632Y49325D02*
D03*
X11762D02*
D03*
X23110Y49308D02*
D03*
X20240D02*
D03*
D76*
X7008Y47610D02*
D03*
X13787Y47624D02*
D03*
X22266Y47607D02*
D03*
D77*
X5827Y47610D02*
D03*
X12606Y47624D02*
D03*
X21085Y47607D02*
D03*
D78*
X42874Y46100D02*
D03*
X31460Y46071D02*
D03*
D79*
X43858Y46100D02*
D03*
X44843D02*
D03*
X42874Y47084D02*
D03*
X43858D02*
D03*
X44843D02*
D03*
X37362Y47055D02*
D03*
X36361D02*
D03*
Y46071D02*
D03*
X33448Y47055D02*
D03*
X32444Y46071D02*
D03*
X33428D02*
D03*
X37362D02*
D03*
X31480Y47055D02*
D03*
X32464D02*
D03*
X34413Y46071D02*
D03*
X34432Y47055D02*
D03*
X35397D02*
D03*
Y46071D02*
D03*
X5394Y8957D02*
D03*
Y9941D02*
D03*
X5408Y10925D02*
D03*
X4410Y7972D02*
D03*
Y8957D02*
D03*
X5394Y18701D02*
D03*
Y19685D02*
D03*
X5408Y20669D02*
D03*
X4410Y17717D02*
D03*
Y18701D02*
D03*
D80*
X42874Y49911D02*
D03*
X44843D02*
D03*
X31460Y49882D02*
D03*
X37362D02*
D03*
X1575Y7972D02*
D03*
Y10925D02*
D03*
Y17717D02*
D03*
Y20669D02*
D03*
D81*
X4410Y9941D02*
D03*
Y10925D02*
D03*
Y19685D02*
D03*
Y20669D02*
D03*
D82*
X5394Y7972D02*
D03*
Y17717D02*
D03*
D83*
X36402Y4654D02*
D03*
X35402D02*
D03*
X36402Y5654D02*
D03*
X35402D02*
D03*
Y28654D02*
D03*
Y29654D02*
D03*
X34402Y5654D02*
D03*
Y29654D02*
D03*
X37402Y4654D02*
D03*
Y5654D02*
D03*
X38402Y4654D02*
D03*
Y5654D02*
D03*
X39402Y4654D02*
D03*
Y5654D02*
D03*
X40402Y4654D02*
D03*
Y5654D02*
D03*
X41402Y4654D02*
D03*
Y5654D02*
D03*
X42402Y4654D02*
D03*
Y5654D02*
D03*
X43402Y4654D02*
D03*
Y5654D02*
D03*
X44402Y4654D02*
D03*
Y5654D02*
D03*
X45402Y4654D02*
D03*
Y5654D02*
D03*
X46402Y4654D02*
D03*
Y5654D02*
D03*
X47402Y4654D02*
D03*
Y5654D02*
D03*
X48402Y4654D02*
D03*
Y5654D02*
D03*
X49402Y4654D02*
D03*
Y5654D02*
D03*
X50402Y4654D02*
D03*
Y5654D02*
D03*
X51402Y4654D02*
D03*
Y5654D02*
D03*
X52402Y4654D02*
D03*
Y5654D02*
D03*
X36402Y28654D02*
D03*
Y29654D02*
D03*
X37402Y28654D02*
D03*
Y29654D02*
D03*
X38402Y28654D02*
D03*
Y29654D02*
D03*
X39402Y28654D02*
D03*
Y29654D02*
D03*
X40402Y28654D02*
D03*
Y29654D02*
D03*
X41402Y28654D02*
D03*
Y29654D02*
D03*
X42402Y28654D02*
D03*
Y29654D02*
D03*
X43402Y28654D02*
D03*
Y29654D02*
D03*
X44402Y28654D02*
D03*
Y29654D02*
D03*
X45402Y28654D02*
D03*
Y29654D02*
D03*
X46402Y28654D02*
D03*
Y29654D02*
D03*
X47402Y28654D02*
D03*
Y29654D02*
D03*
X48402Y28654D02*
D03*
Y29654D02*
D03*
X49402Y28654D02*
D03*
Y29654D02*
D03*
X50402Y28654D02*
D03*
Y29654D02*
D03*
X51402Y28654D02*
D03*
Y29654D02*
D03*
X52402Y28654D02*
D03*
Y29654D02*
D03*
D84*
X34402Y4654D02*
D03*
Y28654D02*
D03*
D85*
X69904Y45298D02*
D03*
Y44218D02*
D03*
Y43138D02*
D03*
Y42058D02*
D03*
X71024Y44758D02*
D03*
Y43678D02*
D03*
Y42598D02*
D03*
Y41518D02*
D03*
D86*
X69904Y40978D02*
D03*
D87*
X70464Y38218D02*
D03*
Y48058D02*
D03*
D88*
X71260Y32299D02*
D03*
D89*
Y31299D02*
D03*
D105*
X41535Y42598D02*
D03*
X42283D02*
D03*
X41909Y43386D02*
D03*
X43484Y42598D02*
D03*
X44232D02*
D03*
X43858Y43386D02*
D03*
X45433Y42598D02*
D03*
X46181D02*
D03*
X45807Y43386D02*
D03*
M02*
