G04*
G04 #@! TF.GenerationSoftware,Altium Limited,Altium Designer,19.0.12 (326)*
G04*
G04 Layer_Color=65535*
%FSLAX24Y24*%
%MOIN*%
G70*
G01*
G75*
%ADD10C,0.0060*%
%ADD11C,0.0100*%
%ADD12C,0.0118*%
%ADD13C,0.0157*%
%ADD14C,0.0079*%
%ADD15C,0.0039*%
%ADD16C,0.0050*%
%ADD17C,0.0060*%
%ADD18C,0.0059*%
%ADD19R,0.0200X0.0700*%
%ADD20R,0.1000X0.0250*%
%ADD21R,0.0700X0.0200*%
%ADD22R,0.0200X0.0600*%
%ADD23R,0.0600X0.0200*%
D10*
X21561Y36163D02*
G03*
X21561Y35923I0J-120D01*
G01*
X13082Y36180D02*
G03*
X13082Y35940I0J-120D01*
G01*
X4710Y32699D02*
G03*
X4710Y32459I0J-120D01*
G01*
X33229Y38388D02*
G03*
X33229Y38148I0J-120D01*
G01*
X55549Y38667D02*
G03*
X55789Y38667I120J0D01*
G01*
X21561Y36163D02*
Y36603D01*
Y35923D02*
Y36163D01*
Y35483D02*
Y35923D01*
X19581Y35483D02*
Y36603D01*
X13082Y36180D02*
Y36620D01*
Y35940D02*
Y36180D01*
Y35500D02*
Y35940D01*
X11102Y35500D02*
Y36620D01*
X4710Y32699D02*
Y33139D01*
Y32459D02*
Y32699D01*
Y32019D02*
Y32459D01*
X2730Y32019D02*
Y33139D01*
X33229Y36773D02*
Y39763D01*
X28109Y36773D02*
Y39763D01*
X55109Y38667D02*
X55549D01*
X55789D01*
X56229D01*
X55109Y36687D02*
X56229D01*
D11*
X5433Y47224D02*
G03*
X5551Y47343I0J118D01*
G01*
X6102Y47343D02*
G03*
X6221Y47224I138J19D01*
G01*
X6614Y47224D02*
G03*
X6732Y47343I0J118D01*
G01*
X7283D02*
G03*
X7402Y47224I118J0D01*
G01*
X14063Y47357D02*
G03*
X14181Y47239I118J0D01*
G01*
X13394D02*
G03*
X13512Y47357I0J118D01*
G01*
X12882Y47357D02*
G03*
X13000Y47239I138J19D01*
G01*
X12213Y47239D02*
G03*
X12331Y47357I0J118D01*
G01*
X22541Y47340D02*
G03*
X22659Y47222I118J0D01*
G01*
X21872D02*
G03*
X21990Y47340I0J118D01*
G01*
X21360Y47340D02*
G03*
X21479Y47222I138J19D01*
G01*
X20691Y47222D02*
G03*
X20809Y47340I0J118D01*
G01*
X69179Y21770D02*
X70979D01*
Y20720D02*
Y21770D01*
X69179Y20720D02*
X70979D01*
X69179D02*
Y21770D01*
X49297Y42912D02*
X51097D01*
Y41862D02*
Y42912D01*
X49297Y41862D02*
X51097D01*
X49297D02*
Y42912D01*
X64179Y35393D02*
X65979D01*
Y34343D02*
Y35393D01*
X64179Y34343D02*
X65979D01*
X64179D02*
Y35393D01*
X61817Y14526D02*
X63617D01*
Y13476D02*
Y14526D01*
X61817Y13476D02*
X63617D01*
X61817D02*
Y14526D01*
X60041Y20163D02*
Y21963D01*
X61091D01*
Y20163D02*
Y21963D01*
X60041Y20163D02*
X61091D01*
X56978Y49841D02*
X58778D01*
Y48791D02*
Y49841D01*
X56978Y48791D02*
X58778D01*
X56978D02*
Y49841D01*
X18739Y38529D02*
Y40329D01*
X17689Y38529D02*
X18739D01*
X17689D02*
Y40329D01*
X18739D01*
X10261Y38546D02*
Y40346D01*
X9211Y38546D02*
X10261D01*
X9211D02*
Y40346D01*
X10261D01*
X1889Y35065D02*
Y36865D01*
X839Y35065D02*
X1889D01*
X839D02*
Y36865D01*
X1889D01*
X20104Y33837D02*
X21904D01*
Y32787D02*
Y33837D01*
X20104Y32787D02*
X21904D01*
X20104D02*
Y33837D01*
X11626Y33854D02*
X13426D01*
Y32804D02*
Y33854D01*
X11626Y32804D02*
X13426D01*
X11626D02*
Y33854D01*
X3254Y30373D02*
X5054D01*
Y29323D02*
Y30373D01*
X3254Y29323D02*
X5054D01*
X3254D02*
Y30373D01*
X22860Y36438D02*
X24660D01*
X22860D02*
Y37488D01*
X24660D01*
Y36438D02*
Y37488D01*
X14381Y36455D02*
X16181D01*
X14381D02*
Y37505D01*
X16181D01*
Y36455D02*
Y37505D01*
X6009Y32974D02*
X7809D01*
X6009D02*
Y34024D01*
X7809D01*
Y32974D02*
Y34024D01*
X5551Y47343D02*
Y47854D01*
X6102D01*
Y47343D02*
Y47854D01*
X7283Y47343D02*
Y47854D01*
X6732Y47343D02*
Y47854D01*
X7283D01*
X5039Y47224D02*
Y47933D01*
X4843D02*
X5039D01*
X4843Y47224D02*
Y47933D01*
X7795Y47224D02*
Y47933D01*
X7992D01*
Y47224D02*
Y47933D01*
X6024Y50492D02*
X6811D01*
Y50256D02*
Y50492D01*
Y50886D01*
X6024D02*
X6811D01*
X6024Y50492D02*
Y50886D01*
Y50256D02*
Y50492D01*
Y50256D02*
X6811D01*
X4520Y50689D02*
X5039Y51122D01*
X7795D02*
X8315Y50689D01*
X4520Y47224D02*
X4843D01*
X5039D02*
X5433D01*
X6220D02*
X6614D01*
X7402D02*
X7795D01*
X7992D02*
X8315D01*
Y50689D01*
X5039Y51122D02*
X7795D01*
X4520Y47224D02*
Y50689D01*
X11299Y47239D02*
Y50703D01*
X11819Y51136D02*
X14575D01*
X15094Y47239D02*
Y50703D01*
X14772Y47239D02*
X15094D01*
X14181D02*
X14575D01*
X13000D02*
X13394D01*
X11819D02*
X12213D01*
X11299D02*
X11622D01*
X14575Y51136D02*
X15094Y50703D01*
X11299D02*
X11819Y51136D01*
X12803Y50270D02*
X13591D01*
X12803D02*
Y50506D01*
Y50900D01*
X13591D01*
Y50506D02*
Y50900D01*
Y50270D02*
Y50506D01*
X12803D02*
X13591D01*
X14772Y47239D02*
Y47947D01*
X14575D02*
X14772D01*
X14575Y47239D02*
Y47947D01*
X11622Y47239D02*
Y47947D01*
X11819D01*
Y47239D02*
Y47947D01*
X13512Y47869D02*
X14063D01*
X13512Y47357D02*
Y47869D01*
X14063Y47357D02*
Y47869D01*
X12882Y47357D02*
Y47869D01*
X12331D02*
X12882D01*
X12331Y47357D02*
Y47869D01*
X19778Y47222D02*
Y50686D01*
X20297Y51119D02*
X23053D01*
X23573Y47222D02*
Y50686D01*
X23250Y47222D02*
X23573D01*
X22659D02*
X23053D01*
X21478D02*
X21872D01*
X20297D02*
X20691D01*
X19778D02*
X20100D01*
X23053Y51119D02*
X23573Y50686D01*
X19778D02*
X20297Y51119D01*
X21282Y50253D02*
X22069D01*
X21282D02*
Y50489D01*
Y50883D01*
X22069D01*
Y50489D02*
Y50883D01*
Y50253D02*
Y50489D01*
X21282D02*
X22069D01*
X23250Y47222D02*
Y47930D01*
X23053D02*
X23250D01*
X23053Y47222D02*
Y47930D01*
X20100Y47222D02*
Y47930D01*
X20297D01*
Y47222D02*
Y47930D01*
X21990Y47852D02*
X22541D01*
X21990Y47340D02*
Y47852D01*
X22541Y47340D02*
Y47852D01*
X21360Y47340D02*
Y47852D01*
X20809D02*
X21360D01*
X20809Y47340D02*
Y47852D01*
X46620Y27686D02*
X46420D01*
X46520D01*
Y27187D01*
X46420Y27087D01*
X46320D01*
X46220Y27187D01*
X46820Y27686D02*
X47220D01*
Y27586D01*
X46820Y27187D01*
Y27087D01*
X47420Y27686D02*
Y27087D01*
X47720D01*
X47820Y27187D01*
Y27287D01*
X47720Y27387D01*
X47420D01*
X47720D01*
X47820Y27486D01*
Y27586D01*
X47720Y27686D01*
X47420D01*
X46463Y7411D02*
X46263D01*
X46363D01*
Y6911D01*
X46263Y6811D01*
X46163D01*
X46063Y6911D01*
X46663Y7411D02*
X47063D01*
Y7311D01*
X46663Y6911D01*
Y6811D01*
X47263D02*
Y7211D01*
X47463Y7411D01*
X47662Y7211D01*
Y6811D01*
Y7111D01*
X47263D01*
D12*
X42911Y45419D02*
G03*
X42911Y45419I-55J0D01*
G01*
X31496Y45390D02*
G03*
X31496Y45390I-55J0D01*
G01*
X6130Y7954D02*
G03*
X6130Y7954I-55J0D01*
G01*
Y17698D02*
G03*
X6130Y17698I-55J0D01*
G01*
D13*
X68951Y40788D02*
G03*
X68951Y40788I-79J0D01*
G01*
D14*
X768Y46575D02*
X1555D01*
Y45236D02*
Y46575D01*
X768Y45236D02*
X1555D01*
X768D02*
Y46575D01*
X75394Y27200D02*
Y27987D01*
X74055Y27200D02*
X75394D01*
X74055D02*
Y27987D01*
X75394D01*
Y10394D02*
Y11181D01*
X74055Y10394D02*
X75394D01*
X74055D02*
Y11181D01*
X75394D01*
X74055Y20669D02*
Y21457D01*
X75394D01*
Y20669D02*
Y21457D01*
X74055Y20669D02*
X75394D01*
X50787Y45886D02*
X51575D01*
X50787D02*
Y47224D01*
X51575D01*
Y45886D02*
Y47224D01*
X58032Y37008D02*
X58819D01*
X58032D02*
Y38346D01*
X58819D01*
Y37008D02*
Y38346D01*
X20413Y43661D02*
X21201D01*
X20413D02*
Y45000D01*
X21201D01*
Y43661D02*
Y45000D01*
X11935Y43678D02*
X12722D01*
X11935D02*
Y45017D01*
X12722D01*
Y43678D02*
Y45017D01*
X3563Y40197D02*
X4350D01*
X3563D02*
Y41535D01*
X4350D01*
Y40197D02*
Y41535D01*
X20866Y39134D02*
Y39921D01*
X19528Y39134D02*
X20866D01*
X19528D02*
Y39921D01*
X20866D01*
X12388Y39151D02*
Y39938D01*
X11049Y39151D02*
X12388D01*
X11049D02*
Y39938D01*
X12388D01*
X4016Y35669D02*
Y36457D01*
X2677Y35669D02*
X4016D01*
X2677D02*
Y36457D01*
X4016D01*
X17638Y42579D02*
X18425D01*
Y41240D02*
Y42579D01*
X17638Y41240D02*
X18425D01*
X17638D02*
Y42579D01*
X9159Y42596D02*
X9947D01*
Y41257D02*
Y42596D01*
X9159Y41257D02*
X9947D01*
X9159D02*
Y42596D01*
X787Y39114D02*
X1575D01*
Y37776D02*
Y39114D01*
X787Y37776D02*
X1575D01*
X787D02*
Y39114D01*
X22005Y46791D02*
X22793D01*
Y45453D02*
Y46791D01*
X22005Y45453D02*
X22793D01*
X22005D02*
Y46791D01*
X13527Y46808D02*
X14314D01*
Y45470D02*
Y46808D01*
X13527Y45470D02*
X14314D01*
X13527D02*
Y46808D01*
X1890Y43125D02*
Y43912D01*
X3228D01*
Y43125D02*
Y43912D01*
X1890Y43125D02*
X3228D01*
X17854Y46102D02*
Y46890D01*
X19193D01*
Y46102D02*
Y46890D01*
X17854Y46102D02*
X19193D01*
X9376Y46119D02*
Y46907D01*
X10715D01*
Y46119D02*
Y46907D01*
X9376Y46119D02*
X10715D01*
X19193Y47618D02*
Y48406D01*
X17854Y47618D02*
X19193D01*
X17854D02*
Y48406D01*
X19193D01*
X10715Y47635D02*
Y48422D01*
X9376Y47635D02*
X10715D01*
X9376D02*
Y48422D01*
X10715D01*
X4705Y45886D02*
Y46673D01*
X3366Y45886D02*
X4705D01*
X3366D02*
Y46673D01*
X4705D01*
X23012Y43130D02*
Y43917D01*
X24350D01*
Y43130D02*
Y43917D01*
X23012Y43130D02*
X24350D01*
X14533Y43147D02*
Y43934D01*
X15872D01*
Y43147D02*
Y43934D01*
X14533Y43147D02*
X15872D01*
X6161Y39665D02*
Y40453D01*
X7500D01*
Y39665D02*
Y40453D01*
X6161Y39665D02*
X7500D01*
X22598Y35689D02*
X23386D01*
Y34350D02*
Y35689D01*
X22598Y34350D02*
X23386D01*
X22598D02*
Y35689D01*
X14120Y35706D02*
X14907D01*
Y34367D02*
Y35706D01*
X14120Y34367D02*
X14907D01*
X14120D02*
Y35706D01*
X5748Y32224D02*
X6535D01*
Y30886D02*
Y32224D01*
X5748Y30886D02*
X6535D01*
X5748D02*
Y32224D01*
X24331Y39094D02*
Y39882D01*
X22992Y39094D02*
X24331D01*
X22992D02*
Y39882D01*
X24331D01*
X15852Y39111D02*
Y39899D01*
X14514Y39111D02*
X15852D01*
X14514D02*
Y39899D01*
X15852D01*
X7480Y35630D02*
Y36417D01*
X6142Y35630D02*
X7480D01*
X6142D02*
Y36417D01*
X7480D01*
X24567Y46201D02*
X25354D01*
Y44862D02*
Y46201D01*
X24567Y44862D02*
X25354D01*
X24567D02*
Y46201D01*
X16089Y46218D02*
X16876D01*
Y44879D02*
Y46218D01*
X16089Y44879D02*
X16876D01*
X16089D02*
Y46218D01*
X6713Y42461D02*
Y43248D01*
X8051D01*
Y42461D02*
Y43248D01*
X6713Y42461D02*
X8051D01*
X24567Y48602D02*
X25354D01*
Y47264D02*
Y48602D01*
X24567Y47264D02*
X25354D01*
X24567D02*
Y48602D01*
X16089Y48619D02*
X16876D01*
Y47281D02*
Y48619D01*
X16089Y47281D02*
X16876D01*
X16089D02*
Y48619D01*
X8051Y44173D02*
Y44961D01*
X6713Y44173D02*
X8051D01*
X6713D02*
Y44961D01*
X8051D01*
X24567Y50787D02*
X25354D01*
Y49449D02*
Y50787D01*
X24567Y49449D02*
X25354D01*
X24567D02*
Y50787D01*
X16089Y50804D02*
X16876D01*
Y49466D02*
Y50804D01*
X16089Y49466D02*
X16876D01*
X16089D02*
Y50804D01*
X6713Y46102D02*
Y46890D01*
X8051D01*
Y46102D02*
Y46890D01*
X6713Y46102D02*
X8051D01*
X13780Y24764D02*
X14567D01*
Y23425D02*
Y24764D01*
X13780Y23425D02*
X14567D01*
X13780D02*
Y24764D01*
X16437D02*
X17224D01*
Y23425D02*
Y24764D01*
X16437Y23425D02*
X17224D01*
X16437D02*
Y24764D01*
X19094D02*
X19882D01*
Y23425D02*
Y24764D01*
X19094Y23425D02*
X19882D01*
X19094D02*
Y24764D01*
X56376Y40118D02*
X57163D01*
X56376D02*
Y41457D01*
X57163D01*
Y40118D02*
Y41457D01*
X76446Y32525D02*
Y33250D01*
Y30348D02*
Y31074D01*
X70810Y33250D02*
X76446D01*
Y31074D02*
Y32525D01*
X70810Y30348D02*
X76410D01*
X70810D02*
Y33250D01*
X69404Y30500D02*
Y33200D01*
X63904Y30500D02*
X69404D01*
X63904D02*
Y33200D01*
X69404D01*
X75580Y25044D02*
Y25744D01*
X73930Y25044D02*
X75580D01*
X73930D02*
Y25744D01*
X75580D01*
Y7859D02*
Y8559D01*
X73930Y7859D02*
X75580D01*
X73930D02*
Y8559D01*
X75580D01*
Y18469D02*
Y19169D01*
X73930Y18469D02*
X75580D01*
X73930D02*
Y19169D01*
X75580D01*
X40209Y47546D02*
X41209D01*
Y45246D02*
Y47546D01*
X40209Y45246D02*
Y47546D01*
Y45246D02*
X41209D01*
X47926Y47508D02*
X48926D01*
Y45208D02*
Y47508D01*
X47926Y45208D02*
Y47508D01*
Y45208D02*
X48926D01*
X46114Y47508D02*
X47114D01*
Y45208D02*
Y47508D01*
X46114Y45208D02*
Y47508D01*
Y45208D02*
X47114D01*
X13784Y26344D02*
X14484D01*
X13784D02*
Y27994D01*
X14484D01*
Y26344D02*
Y27994D01*
X16441Y26383D02*
X17141D01*
X16441D02*
Y28033D01*
X17141D01*
Y26383D02*
Y28033D01*
X19099Y26383D02*
X19799D01*
X19099D02*
Y28033D01*
X19799D01*
Y26383D02*
Y28033D01*
X67450Y25379D02*
X69000D01*
Y24779D02*
Y25379D01*
X67450Y24779D02*
X69000D01*
X67450D02*
Y25379D01*
X60174Y26157D02*
X61724D01*
X60174D02*
Y26757D01*
X61724D01*
Y26157D02*
Y26757D01*
X56284Y44465D02*
Y46015D01*
X55684Y44465D02*
X56284D01*
X55684D02*
Y46015D01*
X56284D01*
X49193Y45415D02*
X50610D01*
Y46202D01*
X49193D02*
X50610D01*
X49193Y45415D02*
Y46202D01*
X17697Y44348D02*
X19114D01*
X17697Y43560D02*
Y44348D01*
Y43560D02*
X19114D01*
Y44348D01*
X9218Y44365D02*
X10636D01*
X9218Y43577D02*
Y44365D01*
Y43577D02*
X10636D01*
Y44365D01*
X846Y40883D02*
X2264D01*
X846Y40096D02*
Y40883D01*
Y40096D02*
X2264D01*
Y40883D01*
X19488Y41929D02*
X20906D01*
X19488Y41142D02*
Y41929D01*
Y41142D02*
X20906D01*
Y41929D01*
X11010Y41946D02*
X12427D01*
X11010Y41159D02*
Y41946D01*
Y41159D02*
X12427D01*
Y41946D01*
X2638Y38465D02*
X4055D01*
X2638Y37677D02*
Y38465D01*
Y37677D02*
X4055D01*
Y38465D01*
X17697Y33406D02*
X19114D01*
Y34193D01*
X17697D02*
X19114D01*
X17697Y33406D02*
Y34193D01*
X9218Y33422D02*
X10636D01*
Y34210D01*
X9218D02*
X10636D01*
X9218Y33422D02*
Y34210D01*
X846Y29941D02*
X2264D01*
Y30728D01*
X846D02*
X2264D01*
X846Y29941D02*
Y30728D01*
X18236Y35079D02*
Y36496D01*
Y35079D02*
X19023D01*
Y36496D01*
X18236D02*
X19023D01*
X9757Y35096D02*
Y36513D01*
Y35096D02*
X10545D01*
Y36513D01*
X9757D02*
X10545D01*
X1385Y31614D02*
Y33031D01*
Y31614D02*
X2173D01*
Y33031D01*
X1385D02*
X2173D01*
X22953Y41142D02*
X24370D01*
Y41929D01*
X22953D02*
X24370D01*
X22953Y41142D02*
Y41929D01*
X14474Y41159D02*
X15892D01*
Y41946D01*
X14474D02*
X15892D01*
X14474Y41159D02*
Y41946D01*
X6102Y37677D02*
X7520D01*
Y38465D01*
X6102D02*
X7520D01*
X6102Y37677D02*
Y38465D01*
X24193Y34311D02*
Y35728D01*
Y34311D02*
X24980D01*
Y35728D01*
X24193D02*
X24980D01*
X15715Y34328D02*
Y35745D01*
Y34328D02*
X16502D01*
Y35745D01*
X15715D02*
X16502D01*
X7343Y30846D02*
Y32264D01*
Y30846D02*
X8130D01*
Y32264D01*
X7343D02*
X8130D01*
X27530Y34252D02*
Y35669D01*
X26743D02*
X27530D01*
X26743Y34252D02*
Y35669D01*
Y34252D02*
X27530D01*
X26732Y36102D02*
Y37520D01*
Y36102D02*
X27520D01*
Y37520D01*
X26732D02*
X27520D01*
Y41496D02*
Y42913D01*
X26732D02*
X27520D01*
X26732Y41496D02*
Y42913D01*
Y41496D02*
X27520D01*
X26732Y39705D02*
Y41122D01*
Y39705D02*
X27520D01*
Y41122D01*
X26732D02*
X27520D01*
Y37953D02*
Y39370D01*
X26732D02*
X27520D01*
X26732Y37953D02*
Y39370D01*
Y37953D02*
X27520D01*
X34114Y36496D02*
X35531D01*
X34114Y35709D02*
Y36496D01*
Y35709D02*
X35531D01*
Y36496D01*
X34114Y37480D02*
X35531D01*
X34114Y36693D02*
Y37480D01*
Y36693D02*
X35531D01*
Y37480D01*
X34114Y38465D02*
X35531D01*
X34114Y37677D02*
Y38465D01*
Y37677D02*
X35531D01*
Y38465D01*
X34114Y39449D02*
X35531D01*
X34114Y38661D02*
Y39449D01*
Y38661D02*
X35531D01*
Y39449D01*
X34114Y40630D02*
X35531D01*
X34114Y39843D02*
Y40630D01*
Y39843D02*
X35531D01*
Y40630D01*
X34134Y41772D02*
X35551D01*
X34134Y40984D02*
Y41772D01*
Y40984D02*
X35551D01*
Y41772D01*
X32894Y35236D02*
X34311D01*
X32894Y34449D02*
Y35236D01*
Y34449D02*
X34311D01*
Y35236D01*
X52205Y37033D02*
X53622D01*
Y37821D01*
X52205D02*
X53622D01*
X52205Y37033D02*
Y37821D01*
X67461Y28110D02*
X68878D01*
X67461Y27323D02*
Y28110D01*
Y27323D02*
X68878D01*
Y28110D01*
X60335Y28327D02*
X61752D01*
Y29114D01*
X60335D02*
X61752D01*
X60335Y28327D02*
Y29114D01*
X54902Y44626D02*
Y46043D01*
X54114D02*
X54902D01*
X54114Y44626D02*
Y46043D01*
Y44626D02*
X54902D01*
X60400Y43515D02*
Y46215D01*
X65900D01*
Y43515D02*
Y46215D01*
X60400Y43515D02*
X65900D01*
D15*
X58768Y44303D02*
Y46303D01*
X57768Y44303D02*
X58768D01*
X57768Y45253D02*
Y46303D01*
X58768D01*
X57768Y44303D02*
Y45303D01*
X67429Y14280D02*
Y15280D01*
X66429Y12280D02*
X67429D01*
Y14330D01*
X66429Y15280D02*
X67429D01*
X66429Y12280D02*
Y15280D01*
X63043Y16760D02*
X65043D01*
Y15760D02*
Y16760D01*
X63043Y15760D02*
X64093D01*
X63043D02*
Y16760D01*
X64043Y15760D02*
X65043D01*
X63217Y24752D02*
Y25752D01*
X62217Y22752D02*
X63217D01*
Y24802D01*
X62217Y25752D02*
X63217D01*
X62217Y22752D02*
Y25752D01*
X63618Y28571D02*
X64618D01*
X66618Y27571D02*
Y28571D01*
X64568D02*
X66618D01*
X63618Y27571D02*
Y28571D01*
Y27571D02*
X66618D01*
X1693Y46575D02*
X1890D01*
Y46476D01*
X1857Y46444D01*
X1791D01*
X1759Y46476D01*
Y46575D01*
Y46509D02*
X1693Y46444D01*
Y46378D02*
Y46312D01*
Y46345D01*
X1890D01*
X1857Y46378D01*
X1890Y46083D02*
Y46214D01*
X1791D01*
X1824Y46148D01*
Y46116D01*
X1791Y46083D01*
X1726D01*
X1693Y46116D01*
Y46181D01*
X1726Y46214D01*
X1660Y46017D02*
Y45886D01*
X1890Y45820D02*
X1759D01*
X1693Y45755D01*
X1759Y45689D01*
X1890D01*
X1857Y45492D02*
X1890Y45525D01*
Y45591D01*
X1857Y45624D01*
X1824D01*
X1791Y45591D01*
Y45525D01*
X1759Y45492D01*
X1726D01*
X1693Y45525D01*
Y45591D01*
X1726Y45624D01*
X1890Y45427D02*
X1726D01*
X1693Y45394D01*
Y45328D01*
X1726Y45296D01*
X1890D01*
X1693Y45230D02*
Y45164D01*
Y45197D01*
X1890D01*
X1857Y45230D01*
X3445Y40197D02*
X3248D01*
Y40295D01*
X3281Y40328D01*
X3346D01*
X3379Y40295D01*
Y40197D01*
Y40262D02*
X3445Y40328D01*
Y40394D02*
Y40459D01*
Y40426D01*
X3248D01*
X3281Y40394D01*
X3412Y40558D02*
X3445Y40590D01*
Y40656D01*
X3412Y40689D01*
X3281D01*
X3248Y40656D01*
Y40590D01*
X3281Y40558D01*
X3314D01*
X3346Y40590D01*
Y40689D01*
X3478Y40754D02*
Y40886D01*
X3248Y40951D02*
X3379D01*
X3445Y41017D01*
X3379Y41082D01*
X3248D01*
X3281Y41279D02*
X3248Y41246D01*
Y41181D01*
X3281Y41148D01*
X3314D01*
X3346Y41181D01*
Y41246D01*
X3379Y41279D01*
X3412D01*
X3445Y41246D01*
Y41181D01*
X3412Y41148D01*
X3248Y41345D02*
X3412D01*
X3445Y41378D01*
Y41443D01*
X3412Y41476D01*
X3248D01*
X3445Y41542D02*
Y41607D01*
Y41574D01*
X3248D01*
X3281Y41542D01*
X3189Y46868D02*
Y47064D01*
X3287D01*
X3320Y47032D01*
Y46966D01*
X3287Y46933D01*
X3189D01*
X3255D02*
X3320Y46868D01*
X3386D02*
X3451D01*
X3419D01*
Y47064D01*
X3386Y47032D01*
X3648Y46868D02*
Y47064D01*
X3550Y46966D01*
X3681D01*
X3747Y46835D02*
X3878D01*
X3943Y47064D02*
Y46933D01*
X4009Y46868D01*
X4075Y46933D01*
Y47064D01*
X4271Y47032D02*
X4238Y47064D01*
X4173D01*
X4140Y47032D01*
Y46999D01*
X4173Y46966D01*
X4238D01*
X4271Y46933D01*
Y46900D01*
X4238Y46868D01*
X4173D01*
X4140Y46900D01*
X4337Y47064D02*
Y46900D01*
X4370Y46868D01*
X4435D01*
X4468Y46900D01*
Y47064D01*
X4534Y46868D02*
X4599D01*
X4566D01*
Y47064D01*
X4534Y47032D01*
X6713Y45118D02*
Y45315D01*
X6811D01*
X6844Y45282D01*
Y45216D01*
X6811Y45184D01*
X6713D01*
X6778D02*
X6844Y45118D01*
X6909Y45151D02*
X6942Y45118D01*
X7008D01*
X7041Y45151D01*
Y45282D01*
X7008Y45315D01*
X6942D01*
X6909Y45282D01*
Y45249D01*
X6942Y45216D01*
X7041D01*
X7106Y45085D02*
X7237D01*
X7303Y45315D02*
Y45184D01*
X7369Y45118D01*
X7434Y45184D01*
Y45315D01*
X7631Y45282D02*
X7598Y45315D01*
X7533D01*
X7500Y45282D01*
Y45249D01*
X7533Y45216D01*
X7598D01*
X7631Y45184D01*
Y45151D01*
X7598Y45118D01*
X7533D01*
X7500Y45151D01*
X7697Y45315D02*
Y45151D01*
X7729Y45118D01*
X7795D01*
X7828Y45151D01*
Y45315D01*
X7893Y45118D02*
X7959D01*
X7926D01*
Y45315D01*
X7893Y45282D01*
X8046Y46004D02*
Y45807D01*
X7947D01*
X7915Y45840D01*
Y45906D01*
X7947Y45938D01*
X8046D01*
X7980D02*
X7915Y46004D01*
X7849Y45840D02*
X7816Y45807D01*
X7751D01*
X7718Y45840D01*
Y45873D01*
X7751Y45906D01*
X7718Y45938D01*
Y45971D01*
X7751Y46004D01*
X7816D01*
X7849Y45971D01*
Y45938D01*
X7816Y45906D01*
X7849Y45873D01*
Y45840D01*
X7816Y45906D02*
X7751D01*
X7652Y46037D02*
X7521D01*
X7455Y45807D02*
Y45938D01*
X7390Y46004D01*
X7324Y45938D01*
Y45807D01*
X7127Y45840D02*
X7160Y45807D01*
X7226D01*
X7259Y45840D01*
Y45873D01*
X7226Y45906D01*
X7160D01*
X7127Y45938D01*
Y45971D01*
X7160Y46004D01*
X7226D01*
X7259Y45971D01*
X7062Y45807D02*
Y45971D01*
X7029Y46004D01*
X6963D01*
X6931Y45971D01*
Y45807D01*
X6865Y46004D02*
X6799D01*
X6832D01*
Y45807D01*
X6865Y45840D01*
X17323Y38740D02*
Y38871D01*
Y38806D01*
X17520D01*
Y38937D02*
X17323D01*
Y39035D01*
X17356Y39068D01*
X17421D01*
X17454Y39035D01*
Y38937D01*
X17356Y39134D02*
X17323Y39167D01*
Y39232D01*
X17356Y39265D01*
X17388D01*
X17421Y39232D01*
Y39199D01*
Y39232D01*
X17454Y39265D01*
X17487D01*
X17520Y39232D01*
Y39167D01*
X17487Y39134D01*
X17552Y39331D02*
Y39462D01*
X17323Y39527D02*
X17454D01*
X17520Y39593D01*
X17454Y39658D01*
X17323D01*
X17356Y39855D02*
X17323Y39822D01*
Y39757D01*
X17356Y39724D01*
X17388D01*
X17421Y39757D01*
Y39822D01*
X17454Y39855D01*
X17487D01*
X17520Y39822D01*
Y39757D01*
X17487Y39724D01*
X17323Y39921D02*
X17487D01*
X17520Y39954D01*
Y40019D01*
X17487Y40052D01*
X17323D01*
X17356Y40118D02*
X17323Y40150D01*
Y40216D01*
X17356Y40249D01*
X17388D01*
X17421Y40216D01*
Y40183D01*
Y40216D01*
X17454Y40249D01*
X17487D01*
X17520Y40216D01*
Y40150D01*
X17487Y40118D01*
X17843Y35210D02*
X17811Y35177D01*
Y35112D01*
X17843Y35079D01*
X17975D01*
X18007Y35112D01*
Y35177D01*
X17975Y35210D01*
X18007Y35276D02*
Y35341D01*
Y35308D01*
X17811D01*
X17843Y35276D01*
X17975Y35440D02*
X18007Y35472D01*
Y35538D01*
X17975Y35571D01*
X17843D01*
X17811Y35538D01*
Y35472D01*
X17843Y35440D01*
X17876D01*
X17909Y35472D01*
Y35571D01*
X18040Y35636D02*
Y35767D01*
X17811Y35833D02*
X17942D01*
X18007Y35899D01*
X17942Y35964D01*
X17811D01*
X17843Y36161D02*
X17811Y36128D01*
Y36063D01*
X17843Y36030D01*
X17876D01*
X17909Y36063D01*
Y36128D01*
X17942Y36161D01*
X17975D01*
X18007Y36128D01*
Y36063D01*
X17975Y36030D01*
X17811Y36227D02*
X17975D01*
X18007Y36259D01*
Y36325D01*
X17975Y36358D01*
X17811D01*
X17843Y36423D02*
X17811Y36456D01*
Y36522D01*
X17843Y36555D01*
X17876D01*
X17909Y36522D01*
Y36489D01*
Y36522D01*
X17942Y36555D01*
X17975D01*
X18007Y36522D01*
Y36456D01*
X17975Y36423D01*
X20295Y34232D02*
X20426D01*
X20361D01*
Y34035D01*
X20492D02*
Y34232D01*
X20590D01*
X20623Y34199D01*
Y34134D01*
X20590Y34101D01*
X20492D01*
X20820Y34035D02*
X20689D01*
X20820Y34167D01*
Y34199D01*
X20787Y34232D01*
X20722D01*
X20689Y34199D01*
X20886Y34003D02*
X21017D01*
X21082Y34232D02*
Y34101D01*
X21148Y34035D01*
X21214Y34101D01*
Y34232D01*
X21410Y34199D02*
X21378Y34232D01*
X21312D01*
X21279Y34199D01*
Y34167D01*
X21312Y34134D01*
X21378D01*
X21410Y34101D01*
Y34068D01*
X21378Y34035D01*
X21312D01*
X21279Y34068D01*
X21476Y34232D02*
Y34068D01*
X21509Y34035D01*
X21574D01*
X21607Y34068D01*
Y34232D01*
X21673Y34199D02*
X21706Y34232D01*
X21771D01*
X21804Y34199D01*
Y34167D01*
X21771Y34134D01*
X21738D01*
X21771D01*
X21804Y34101D01*
Y34068D01*
X21771Y34035D01*
X21706D01*
X21673Y34068D01*
X17822Y34475D02*
X17789Y34508D01*
X17724D01*
X17691Y34475D01*
Y34344D01*
X17724Y34311D01*
X17789D01*
X17822Y34344D01*
X18019Y34311D02*
X17888D01*
X18019Y34442D01*
Y34475D01*
X17986Y34508D01*
X17921D01*
X17888Y34475D01*
X18085D02*
X18117Y34508D01*
X18183D01*
X18216Y34475D01*
Y34344D01*
X18183Y34311D01*
X18117D01*
X18085Y34344D01*
Y34475D01*
X18281Y34278D02*
X18412D01*
X18478Y34508D02*
Y34377D01*
X18544Y34311D01*
X18609Y34377D01*
Y34508D01*
X18806Y34475D02*
X18773Y34508D01*
X18708D01*
X18675Y34475D01*
Y34442D01*
X18708Y34409D01*
X18773D01*
X18806Y34377D01*
Y34344D01*
X18773Y34311D01*
X18708D01*
X18675Y34344D01*
X18872Y34508D02*
Y34344D01*
X18904Y34311D01*
X18970D01*
X19003Y34344D01*
Y34508D01*
X19068Y34475D02*
X19101Y34508D01*
X19167D01*
X19200Y34475D01*
Y34442D01*
X19167Y34409D01*
X19134D01*
X19167D01*
X19200Y34377D01*
Y34344D01*
X19167Y34311D01*
X19101D01*
X19068Y34344D01*
X23911Y34442D02*
X23878Y34409D01*
Y34344D01*
X23911Y34311D01*
X24042D01*
X24075Y34344D01*
Y34409D01*
X24042Y34442D01*
X24075Y34508D02*
Y34573D01*
Y34541D01*
X23878D01*
X23911Y34508D01*
X23878Y34672D02*
Y34803D01*
X23911D01*
X24042Y34672D01*
X24075D01*
X24108Y34869D02*
Y35000D01*
X23878Y35065D02*
X24009D01*
X24075Y35131D01*
X24009Y35197D01*
X23878D01*
X23911Y35393D02*
X23878Y35361D01*
Y35295D01*
X23911Y35262D01*
X23944D01*
X23976Y35295D01*
Y35361D01*
X24009Y35393D01*
X24042D01*
X24075Y35361D01*
Y35295D01*
X24042Y35262D01*
X23878Y35459D02*
X24042D01*
X24075Y35492D01*
Y35557D01*
X24042Y35590D01*
X23878D01*
X23911Y35656D02*
X23878Y35689D01*
Y35754D01*
X23911Y35787D01*
X23944D01*
X23976Y35754D01*
Y35721D01*
Y35754D01*
X24009Y35787D01*
X24042D01*
X24075Y35754D01*
Y35689D01*
X24042Y35656D01*
X22480Y34350D02*
X22284D01*
Y34449D01*
X22316Y34482D01*
X22382D01*
X22415Y34449D01*
Y34350D01*
Y34416D02*
X22480Y34482D01*
Y34547D02*
Y34613D01*
Y34580D01*
X22284D01*
X22316Y34547D01*
X22480Y34842D02*
Y34711D01*
X22349Y34842D01*
X22316D01*
X22284Y34810D01*
Y34744D01*
X22316Y34711D01*
X22513Y34908D02*
Y35039D01*
X22284Y35105D02*
X22415D01*
X22480Y35170D01*
X22415Y35236D01*
X22284D01*
X22316Y35433D02*
X22284Y35400D01*
Y35334D01*
X22316Y35302D01*
X22349D01*
X22382Y35334D01*
Y35400D01*
X22415Y35433D01*
X22448D01*
X22480Y35400D01*
Y35334D01*
X22448Y35302D01*
X22284Y35498D02*
X22448D01*
X22480Y35531D01*
Y35597D01*
X22448Y35629D01*
X22284D01*
X22316Y35695D02*
X22284Y35728D01*
Y35793D01*
X22316Y35826D01*
X22349D01*
X22382Y35793D01*
Y35761D01*
Y35793D01*
X22415Y35826D01*
X22448D01*
X22480Y35793D01*
Y35728D01*
X22448Y35695D01*
X19528Y40059D02*
Y40256D01*
X19626D01*
X19659Y40223D01*
Y40157D01*
X19626Y40125D01*
X19528D01*
X19593D02*
X19659Y40059D01*
X19724D02*
X19790D01*
X19757D01*
Y40256D01*
X19724Y40223D01*
X19888D02*
X19921Y40256D01*
X19987D01*
X20020Y40223D01*
Y40190D01*
X19987Y40157D01*
X20020Y40125D01*
Y40092D01*
X19987Y40059D01*
X19921D01*
X19888Y40092D01*
Y40125D01*
X19921Y40157D01*
X19888Y40190D01*
Y40223D01*
X19921Y40157D02*
X19987D01*
X20085Y40026D02*
X20216D01*
X20282Y40256D02*
Y40125D01*
X20347Y40059D01*
X20413Y40125D01*
Y40256D01*
X20610Y40223D02*
X20577Y40256D01*
X20511D01*
X20479Y40223D01*
Y40190D01*
X20511Y40157D01*
X20577D01*
X20610Y40125D01*
Y40092D01*
X20577Y40059D01*
X20511D01*
X20479Y40092D01*
X20675Y40256D02*
Y40092D01*
X20708Y40059D01*
X20774D01*
X20807Y40092D01*
Y40256D01*
X20872Y40223D02*
X20905Y40256D01*
X20971D01*
X21003Y40223D01*
Y40190D01*
X20971Y40157D01*
X20938D01*
X20971D01*
X21003Y40125D01*
Y40092D01*
X20971Y40059D01*
X20905D01*
X20872Y40092D01*
X19619Y42231D02*
X19587Y42264D01*
X19521D01*
X19488Y42231D01*
Y42100D01*
X19521Y42067D01*
X19587D01*
X19619Y42100D01*
X19816Y42067D02*
X19685D01*
X19816Y42198D01*
Y42231D01*
X19783Y42264D01*
X19718D01*
X19685Y42231D01*
X19882Y42067D02*
X19947D01*
X19915D01*
Y42264D01*
X19882Y42231D01*
X20046Y42034D02*
X20177D01*
X20243Y42264D02*
Y42133D01*
X20308Y42067D01*
X20374Y42133D01*
Y42264D01*
X20571Y42231D02*
X20538Y42264D01*
X20472D01*
X20439Y42231D01*
Y42198D01*
X20472Y42165D01*
X20538D01*
X20571Y42133D01*
Y42100D01*
X20538Y42067D01*
X20472D01*
X20439Y42100D01*
X20636Y42264D02*
Y42100D01*
X20669Y42067D01*
X20735D01*
X20767Y42100D01*
Y42264D01*
X20833Y42231D02*
X20866Y42264D01*
X20931D01*
X20964Y42231D01*
Y42198D01*
X20931Y42165D01*
X20898D01*
X20931D01*
X20964Y42133D01*
Y42100D01*
X20931Y42067D01*
X20866D01*
X20833Y42100D01*
X19634Y37918D02*
Y37754D01*
X19667Y37722D01*
X19732D01*
X19765Y37754D01*
Y37918D01*
X19831Y37886D02*
X19863Y37918D01*
X19929D01*
X19962Y37886D01*
Y37853D01*
X19929Y37820D01*
X19896D01*
X19929D01*
X19962Y37787D01*
Y37754D01*
X19929Y37722D01*
X19863D01*
X19831Y37754D01*
X20027Y37689D02*
X20159D01*
X20224Y37918D02*
Y37787D01*
X20290Y37722D01*
X20355Y37787D01*
Y37918D01*
X20552Y37886D02*
X20519Y37918D01*
X20454D01*
X20421Y37886D01*
Y37853D01*
X20454Y37820D01*
X20519D01*
X20552Y37787D01*
Y37754D01*
X20519Y37722D01*
X20454D01*
X20421Y37754D01*
X20618Y37918D02*
Y37754D01*
X20651Y37722D01*
X20716D01*
X20749Y37754D01*
Y37918D01*
X20815Y37886D02*
X20847Y37918D01*
X20913D01*
X20946Y37886D01*
Y37853D01*
X20913Y37820D01*
X20880D01*
X20913D01*
X20946Y37787D01*
Y37754D01*
X20913Y37722D01*
X20847D01*
X20815Y37754D01*
X23001Y37894D02*
X23132D01*
X23067D01*
Y37697D01*
X23198D02*
Y37894D01*
X23296D01*
X23329Y37861D01*
Y37795D01*
X23296Y37762D01*
X23198D01*
X23395Y37697D02*
X23460D01*
X23427D01*
Y37894D01*
X23395Y37861D01*
X23559Y37664D02*
X23690D01*
X23755Y37894D02*
Y37762D01*
X23821Y37697D01*
X23887Y37762D01*
Y37894D01*
X24083Y37861D02*
X24051Y37894D01*
X23985D01*
X23952Y37861D01*
Y37828D01*
X23985Y37795D01*
X24051D01*
X24083Y37762D01*
Y37730D01*
X24051Y37697D01*
X23985D01*
X23952Y37730D01*
X24149Y37894D02*
Y37730D01*
X24182Y37697D01*
X24247D01*
X24280Y37730D01*
Y37894D01*
X24346Y37861D02*
X24379Y37894D01*
X24444D01*
X24477Y37861D01*
Y37828D01*
X24444Y37795D01*
X24411D01*
X24444D01*
X24477Y37762D01*
Y37730D01*
X24444Y37697D01*
X24379D01*
X24346Y37730D01*
X15432Y34459D02*
X15400Y34426D01*
Y34361D01*
X15432Y34328D01*
X15564D01*
X15596Y34361D01*
Y34426D01*
X15564Y34459D01*
X15596Y34525D02*
Y34590D01*
Y34558D01*
X15400D01*
X15432Y34525D01*
X15400Y34689D02*
Y34820D01*
X15432D01*
X15564Y34689D01*
X15596D01*
X15629Y34886D02*
Y35017D01*
X15400Y35082D02*
X15531D01*
X15596Y35148D01*
X15531Y35213D01*
X15400D01*
X15432Y35410D02*
X15400Y35377D01*
Y35312D01*
X15432Y35279D01*
X15465D01*
X15498Y35312D01*
Y35377D01*
X15531Y35410D01*
X15564D01*
X15596Y35377D01*
Y35312D01*
X15564Y35279D01*
X15400Y35476D02*
X15564D01*
X15596Y35509D01*
Y35574D01*
X15564Y35607D01*
X15400D01*
X15596Y35804D02*
Y35673D01*
X15465Y35804D01*
X15432D01*
X15400Y35771D01*
Y35705D01*
X15432Y35673D01*
X14002Y34367D02*
X13805D01*
Y34466D01*
X13838Y34499D01*
X13904D01*
X13936Y34466D01*
Y34367D01*
Y34433D02*
X14002Y34499D01*
Y34564D02*
Y34630D01*
Y34597D01*
X13805D01*
X13838Y34564D01*
X14002Y34859D02*
Y34728D01*
X13871Y34859D01*
X13838D01*
X13805Y34826D01*
Y34761D01*
X13838Y34728D01*
X14035Y34925D02*
Y35056D01*
X13805Y35122D02*
X13936D01*
X14002Y35187D01*
X13936Y35253D01*
X13805D01*
X13838Y35450D02*
X13805Y35417D01*
Y35351D01*
X13838Y35318D01*
X13871D01*
X13904Y35351D01*
Y35417D01*
X13936Y35450D01*
X13969D01*
X14002Y35417D01*
Y35351D01*
X13969Y35318D01*
X13805Y35515D02*
X13969D01*
X14002Y35548D01*
Y35614D01*
X13969Y35646D01*
X13805D01*
X14002Y35843D02*
Y35712D01*
X13871Y35843D01*
X13838D01*
X13805Y35810D01*
Y35745D01*
X13838Y35712D01*
X11817Y34249D02*
X11948D01*
X11882D01*
Y34052D01*
X12014D02*
Y34249D01*
X12112D01*
X12145Y34216D01*
Y34151D01*
X12112Y34118D01*
X12014D01*
X12342Y34052D02*
X12210D01*
X12342Y34184D01*
Y34216D01*
X12309Y34249D01*
X12243D01*
X12210Y34216D01*
X12407Y34020D02*
X12538D01*
X12604Y34249D02*
Y34118D01*
X12670Y34052D01*
X12735Y34118D01*
Y34249D01*
X12932Y34216D02*
X12899Y34249D01*
X12834D01*
X12801Y34216D01*
Y34184D01*
X12834Y34151D01*
X12899D01*
X12932Y34118D01*
Y34085D01*
X12899Y34052D01*
X12834D01*
X12801Y34085D01*
X12998Y34249D02*
Y34085D01*
X13030Y34052D01*
X13096D01*
X13129Y34085D01*
Y34249D01*
X13326Y34052D02*
X13194D01*
X13326Y34184D01*
Y34216D01*
X13293Y34249D01*
X13227D01*
X13194Y34216D01*
X9344Y34492D02*
X9311Y34525D01*
X9245D01*
X9213Y34492D01*
Y34361D01*
X9245Y34328D01*
X9311D01*
X9344Y34361D01*
X9541Y34328D02*
X9409D01*
X9541Y34459D01*
Y34492D01*
X9508Y34525D01*
X9442D01*
X9409Y34492D01*
X9606D02*
X9639Y34525D01*
X9705D01*
X9737Y34492D01*
Y34361D01*
X9705Y34328D01*
X9639D01*
X9606Y34361D01*
Y34492D01*
X9803Y34295D02*
X9934D01*
X10000Y34525D02*
Y34394D01*
X10065Y34328D01*
X10131Y34394D01*
Y34525D01*
X10328Y34492D02*
X10295Y34525D01*
X10229D01*
X10196Y34492D01*
Y34459D01*
X10229Y34426D01*
X10295D01*
X10328Y34394D01*
Y34361D01*
X10295Y34328D01*
X10229D01*
X10196Y34361D01*
X10393Y34525D02*
Y34361D01*
X10426Y34328D01*
X10492D01*
X10524Y34361D01*
Y34525D01*
X10721Y34328D02*
X10590D01*
X10721Y34459D01*
Y34492D01*
X10688Y34525D01*
X10623D01*
X10590Y34492D01*
X9365Y35227D02*
X9332Y35194D01*
Y35128D01*
X9365Y35096D01*
X9496D01*
X9529Y35128D01*
Y35194D01*
X9496Y35227D01*
X9529Y35292D02*
Y35358D01*
Y35325D01*
X9332D01*
X9365Y35292D01*
X9496Y35456D02*
X9529Y35489D01*
Y35555D01*
X9496Y35588D01*
X9365D01*
X9332Y35555D01*
Y35489D01*
X9365Y35456D01*
X9398D01*
X9431Y35489D01*
Y35588D01*
X9562Y35653D02*
Y35784D01*
X9332Y35850D02*
X9463D01*
X9529Y35916D01*
X9463Y35981D01*
X9332D01*
X9365Y36178D02*
X9332Y36145D01*
Y36080D01*
X9365Y36047D01*
X9398D01*
X9431Y36080D01*
Y36145D01*
X9463Y36178D01*
X9496D01*
X9529Y36145D01*
Y36080D01*
X9496Y36047D01*
X9332Y36244D02*
X9496D01*
X9529Y36276D01*
Y36342D01*
X9496Y36375D01*
X9332D01*
X9529Y36572D02*
Y36440D01*
X9398Y36572D01*
X9365D01*
X9332Y36539D01*
Y36473D01*
X9365Y36440D01*
X11155Y37935D02*
Y37771D01*
X11188Y37739D01*
X11254D01*
X11287Y37771D01*
Y37935D01*
X11352Y37903D02*
X11385Y37935D01*
X11451D01*
X11483Y37903D01*
Y37870D01*
X11451Y37837D01*
X11418D01*
X11451D01*
X11483Y37804D01*
Y37771D01*
X11451Y37739D01*
X11385D01*
X11352Y37771D01*
X11549Y37706D02*
X11680D01*
X11746Y37935D02*
Y37804D01*
X11811Y37739D01*
X11877Y37804D01*
Y37935D01*
X12074Y37903D02*
X12041Y37935D01*
X11975D01*
X11943Y37903D01*
Y37870D01*
X11975Y37837D01*
X12041D01*
X12074Y37804D01*
Y37771D01*
X12041Y37739D01*
X11975D01*
X11943Y37771D01*
X12139Y37935D02*
Y37771D01*
X12172Y37739D01*
X12238D01*
X12271Y37771D01*
Y37935D01*
X12467Y37739D02*
X12336D01*
X12467Y37870D01*
Y37903D01*
X12435Y37935D01*
X12369D01*
X12336Y37903D01*
X9199Y48617D02*
Y48814D01*
X9297D01*
X9330Y48781D01*
Y48715D01*
X9297Y48682D01*
X9199D01*
X9264D02*
X9330Y48617D01*
X9396D02*
X9461D01*
X9428D01*
Y48814D01*
X9396Y48781D01*
X9658Y48617D02*
Y48814D01*
X9560Y48715D01*
X9691D01*
X9756Y48584D02*
X9888D01*
X9953Y48814D02*
Y48682D01*
X10019Y48617D01*
X10084Y48682D01*
Y48814D01*
X10281Y48781D02*
X10248Y48814D01*
X10183D01*
X10150Y48781D01*
Y48748D01*
X10183Y48715D01*
X10248D01*
X10281Y48682D01*
Y48650D01*
X10248Y48617D01*
X10183D01*
X10150Y48650D01*
X10347Y48814D02*
Y48650D01*
X10380Y48617D01*
X10445D01*
X10478Y48650D01*
Y48814D01*
X10675Y48617D02*
X10543D01*
X10675Y48748D01*
Y48781D01*
X10642Y48814D01*
X10576D01*
X10543Y48781D01*
X14514Y40155D02*
Y40352D01*
X14612D01*
X14645Y40319D01*
Y40253D01*
X14612Y40220D01*
X14514D01*
X14579D02*
X14645Y40155D01*
X14711D02*
X14776D01*
X14743D01*
Y40352D01*
X14711Y40319D01*
X14875Y40155D02*
X14940D01*
X14907D01*
Y40352D01*
X14875Y40319D01*
X15039Y40122D02*
X15170D01*
X15235Y40352D02*
Y40220D01*
X15301Y40155D01*
X15366Y40220D01*
Y40352D01*
X15563Y40319D02*
X15530Y40352D01*
X15465D01*
X15432Y40319D01*
Y40286D01*
X15465Y40253D01*
X15530D01*
X15563Y40220D01*
Y40188D01*
X15530Y40155D01*
X15465D01*
X15432Y40188D01*
X15629Y40352D02*
Y40188D01*
X15662Y40155D01*
X15727D01*
X15760Y40188D01*
Y40352D01*
X15957Y40155D02*
X15826D01*
X15957Y40286D01*
Y40319D01*
X15924Y40352D01*
X15858D01*
X15826Y40319D01*
X24409Y44843D02*
X24213D01*
Y44941D01*
X24245Y44974D01*
X24311D01*
X24344Y44941D01*
Y44843D01*
Y44908D02*
X24409Y44974D01*
Y45039D02*
Y45105D01*
Y45072D01*
X24213D01*
X24245Y45039D01*
Y45203D02*
X24213Y45236D01*
Y45302D01*
X24245Y45334D01*
X24377D01*
X24409Y45302D01*
Y45236D01*
X24377Y45203D01*
X24245D01*
X24442Y45400D02*
Y45531D01*
X24213Y45597D02*
X24344D01*
X24409Y45662D01*
X24344Y45728D01*
X24213D01*
X24245Y45925D02*
X24213Y45892D01*
Y45826D01*
X24245Y45794D01*
X24278D01*
X24311Y45826D01*
Y45892D01*
X24344Y45925D01*
X24377D01*
X24409Y45892D01*
Y45826D01*
X24377Y45794D01*
X24213Y45990D02*
X24377D01*
X24409Y46023D01*
Y46089D01*
X24377Y46122D01*
X24213D01*
X24245Y46187D02*
X24213Y46220D01*
Y46286D01*
X24245Y46318D01*
X24278D01*
X24311Y46286D01*
Y46253D01*
Y46286D01*
X24344Y46318D01*
X24377D01*
X24409Y46286D01*
Y46220D01*
X24377Y46187D01*
X9022Y41257D02*
X8825D01*
Y41355D01*
X8858Y41388D01*
X8923D01*
X8956Y41355D01*
Y41257D01*
Y41323D02*
X9022Y41388D01*
Y41454D02*
Y41519D01*
Y41487D01*
X8825D01*
X8858Y41454D01*
X8825Y41618D02*
Y41749D01*
X8858D01*
X8989Y41618D01*
X9022D01*
X9054Y41815D02*
Y41946D01*
X8825Y42011D02*
X8956D01*
X9022Y42077D01*
X8956Y42143D01*
X8825D01*
X8858Y42339D02*
X8825Y42307D01*
Y42241D01*
X8858Y42208D01*
X8890D01*
X8923Y42241D01*
Y42307D01*
X8956Y42339D01*
X8989D01*
X9022Y42307D01*
Y42241D01*
X8989Y42208D01*
X8825Y42405D02*
X8989D01*
X9022Y42438D01*
Y42503D01*
X8989Y42536D01*
X8825D01*
X9022Y42733D02*
Y42602D01*
X8890Y42733D01*
X8858D01*
X8825Y42700D01*
Y42635D01*
X8858Y42602D01*
X9376Y47044D02*
Y47241D01*
X9474D01*
X9507Y47208D01*
Y47143D01*
X9474Y47110D01*
X9376D01*
X9442D02*
X9507Y47044D01*
X9573D02*
X9638D01*
X9606D01*
Y47241D01*
X9573Y47208D01*
X9868Y47241D02*
X9737D01*
Y47143D01*
X9802Y47176D01*
X9835D01*
X9868Y47143D01*
Y47077D01*
X9835Y47044D01*
X9770D01*
X9737Y47077D01*
X9934Y47012D02*
X10065D01*
X10130Y47241D02*
Y47110D01*
X10196Y47044D01*
X10261Y47110D01*
Y47241D01*
X10458Y47208D02*
X10425Y47241D01*
X10360D01*
X10327Y47208D01*
Y47176D01*
X10360Y47143D01*
X10425D01*
X10458Y47110D01*
Y47077D01*
X10425Y47044D01*
X10360D01*
X10327Y47077D01*
X10524Y47241D02*
Y47077D01*
X10557Y47044D01*
X10622D01*
X10655Y47077D01*
Y47241D01*
X10852Y47044D02*
X10721D01*
X10852Y47176D01*
Y47208D01*
X10819Y47241D01*
X10753D01*
X10721Y47208D01*
X15931Y44859D02*
X15734D01*
Y44958D01*
X15767Y44991D01*
X15833D01*
X15865Y44958D01*
Y44859D01*
Y44925D02*
X15931Y44991D01*
Y45056D02*
Y45122D01*
Y45089D01*
X15734D01*
X15767Y45056D01*
Y45220D02*
X15734Y45253D01*
Y45319D01*
X15767Y45351D01*
X15898D01*
X15931Y45319D01*
Y45253D01*
X15898Y45220D01*
X15767D01*
X15964Y45417D02*
Y45548D01*
X15734Y45614D02*
X15865D01*
X15931Y45679D01*
X15865Y45745D01*
X15734D01*
X15767Y45942D02*
X15734Y45909D01*
Y45843D01*
X15767Y45811D01*
X15800D01*
X15833Y45843D01*
Y45909D01*
X15865Y45942D01*
X15898D01*
X15931Y45909D01*
Y45843D01*
X15898Y45811D01*
X15734Y46007D02*
X15898D01*
X15931Y46040D01*
Y46106D01*
X15898Y46139D01*
X15734D01*
X15931Y46335D02*
Y46204D01*
X15800Y46335D01*
X15767D01*
X15734Y46303D01*
Y46237D01*
X15767Y46204D01*
X13392Y45470D02*
X13195D01*
Y45568D01*
X13228Y45601D01*
X13293D01*
X13326Y45568D01*
Y45470D01*
Y45535D02*
X13392Y45601D01*
Y45666D02*
Y45732D01*
Y45699D01*
X13195D01*
X13228Y45666D01*
X13195Y45962D02*
X13228Y45896D01*
X13293Y45830D01*
X13359D01*
X13392Y45863D01*
Y45929D01*
X13359Y45962D01*
X13326D01*
X13293Y45929D01*
Y45830D01*
X13424Y46027D02*
Y46158D01*
X13195Y46224D02*
X13326D01*
X13392Y46290D01*
X13326Y46355D01*
X13195D01*
X13228Y46552D02*
X13195Y46519D01*
Y46454D01*
X13228Y46421D01*
X13261D01*
X13293Y46454D01*
Y46519D01*
X13326Y46552D01*
X13359D01*
X13392Y46519D01*
Y46454D01*
X13359Y46421D01*
X13195Y46618D02*
X13359D01*
X13392Y46650D01*
Y46716D01*
X13359Y46749D01*
X13195D01*
X13392Y46946D02*
Y46814D01*
X13261Y46946D01*
X13228D01*
X13195Y46913D01*
Y46847D01*
X13228Y46814D01*
X23012Y44114D02*
Y44311D01*
X23110D01*
X23143Y44278D01*
Y44213D01*
X23110Y44180D01*
X23012D01*
X23077D02*
X23143Y44114D01*
X23209D02*
X23274D01*
X23241D01*
Y44311D01*
X23209Y44278D01*
X23373D02*
X23405Y44311D01*
X23471D01*
X23504Y44278D01*
Y44245D01*
X23471Y44213D01*
X23438D01*
X23471D01*
X23504Y44180D01*
Y44147D01*
X23471Y44114D01*
X23405D01*
X23373Y44147D01*
X23569Y44081D02*
X23701D01*
X23766Y44311D02*
Y44180D01*
X23832Y44114D01*
X23897Y44180D01*
Y44311D01*
X24094Y44278D02*
X24061Y44311D01*
X23996D01*
X23963Y44278D01*
Y44245D01*
X23996Y44213D01*
X24061D01*
X24094Y44180D01*
Y44147D01*
X24061Y44114D01*
X23996D01*
X23963Y44147D01*
X24160Y44311D02*
Y44147D01*
X24193Y44114D01*
X24258D01*
X24291Y44147D01*
Y44311D01*
X24357Y44278D02*
X24389Y44311D01*
X24455D01*
X24488Y44278D01*
Y44245D01*
X24455Y44213D01*
X24422D01*
X24455D01*
X24488Y44180D01*
Y44147D01*
X24455Y44114D01*
X24389D01*
X24357Y44147D01*
X24469Y49454D02*
X24272D01*
Y49553D01*
X24305Y49585D01*
X24370D01*
X24403Y49553D01*
Y49454D01*
Y49520D02*
X24469Y49585D01*
X24305Y49651D02*
X24272Y49684D01*
Y49749D01*
X24305Y49782D01*
X24337D01*
X24370Y49749D01*
X24403Y49782D01*
X24436D01*
X24469Y49749D01*
Y49684D01*
X24436Y49651D01*
X24403D01*
X24370Y49684D01*
X24337Y49651D01*
X24305D01*
X24370Y49684D02*
Y49749D01*
X24501Y49848D02*
Y49979D01*
X24272Y50045D02*
X24403D01*
X24469Y50110D01*
X24403Y50176D01*
X24272D01*
X24305Y50373D02*
X24272Y50340D01*
Y50274D01*
X24305Y50241D01*
X24337D01*
X24370Y50274D01*
Y50340D01*
X24403Y50373D01*
X24436D01*
X24469Y50340D01*
Y50274D01*
X24436Y50241D01*
X24272Y50438D02*
X24436D01*
X24469Y50471D01*
Y50537D01*
X24436Y50569D01*
X24272D01*
X24305Y50635D02*
X24272Y50668D01*
Y50733D01*
X24305Y50766D01*
X24337D01*
X24370Y50733D01*
Y50701D01*
Y50733D01*
X24403Y50766D01*
X24436D01*
X24469Y50733D01*
Y50668D01*
X24436Y50635D01*
X21870Y45453D02*
X21673D01*
Y45551D01*
X21706Y45584D01*
X21772D01*
X21804Y45551D01*
Y45453D01*
Y45518D02*
X21870Y45584D01*
Y45650D02*
Y45715D01*
Y45682D01*
X21673D01*
X21706Y45650D01*
X21673Y45945D02*
X21706Y45879D01*
X21772Y45814D01*
X21837D01*
X21870Y45846D01*
Y45912D01*
X21837Y45945D01*
X21804D01*
X21772Y45912D01*
Y45814D01*
X21903Y46010D02*
Y46142D01*
X21673Y46207D02*
X21804D01*
X21870Y46273D01*
X21804Y46338D01*
X21673D01*
X21706Y46535D02*
X21673Y46502D01*
Y46437D01*
X21706Y46404D01*
X21739D01*
X21772Y46437D01*
Y46502D01*
X21804Y46535D01*
X21837D01*
X21870Y46502D01*
Y46437D01*
X21837Y46404D01*
X21673Y46601D02*
X21837D01*
X21870Y46633D01*
Y46699D01*
X21837Y46732D01*
X21673D01*
X21706Y46797D02*
X21673Y46830D01*
Y46896D01*
X21706Y46929D01*
X21739D01*
X21772Y46896D01*
Y46863D01*
Y46896D01*
X21804Y46929D01*
X21837D01*
X21870Y46896D01*
Y46830D01*
X21837Y46797D01*
X24409Y47264D02*
X24213D01*
Y47362D01*
X24245Y47395D01*
X24311D01*
X24344Y47362D01*
Y47264D01*
Y47329D02*
X24409Y47395D01*
X24377Y47461D02*
X24409Y47493D01*
Y47559D01*
X24377Y47592D01*
X24245D01*
X24213Y47559D01*
Y47493D01*
X24245Y47461D01*
X24278D01*
X24311Y47493D01*
Y47592D01*
X24442Y47657D02*
Y47789D01*
X24213Y47854D02*
X24344D01*
X24409Y47920D01*
X24344Y47985D01*
X24213D01*
X24245Y48182D02*
X24213Y48149D01*
Y48084D01*
X24245Y48051D01*
X24278D01*
X24311Y48084D01*
Y48149D01*
X24344Y48182D01*
X24377D01*
X24409Y48149D01*
Y48084D01*
X24377Y48051D01*
X24213Y48248D02*
X24377D01*
X24409Y48281D01*
Y48346D01*
X24377Y48379D01*
X24213D01*
X24245Y48444D02*
X24213Y48477D01*
Y48543D01*
X24245Y48576D01*
X24278D01*
X24311Y48543D01*
Y48510D01*
Y48543D01*
X24344Y48576D01*
X24377D01*
X24409Y48543D01*
Y48477D01*
X24377Y48444D01*
X17854Y47028D02*
Y47224D01*
X17953D01*
X17986Y47192D01*
Y47126D01*
X17953Y47093D01*
X17854D01*
X17920D02*
X17986Y47028D01*
X18051D02*
X18117D01*
X18084D01*
Y47224D01*
X18051Y47192D01*
X18346Y47224D02*
X18215D01*
Y47126D01*
X18281Y47159D01*
X18313D01*
X18346Y47126D01*
Y47060D01*
X18313Y47028D01*
X18248D01*
X18215Y47060D01*
X18412Y46995D02*
X18543D01*
X18609Y47224D02*
Y47093D01*
X18674Y47028D01*
X18740Y47093D01*
Y47224D01*
X18937Y47192D02*
X18904Y47224D01*
X18838D01*
X18805Y47192D01*
Y47159D01*
X18838Y47126D01*
X18904D01*
X18937Y47093D01*
Y47060D01*
X18904Y47028D01*
X18838D01*
X18805Y47060D01*
X19002Y47224D02*
Y47060D01*
X19035Y47028D01*
X19101D01*
X19133Y47060D01*
Y47224D01*
X19199Y47192D02*
X19232Y47224D01*
X19297D01*
X19330Y47192D01*
Y47159D01*
X19297Y47126D01*
X19265D01*
X19297D01*
X19330Y47093D01*
Y47060D01*
X19297Y47028D01*
X19232D01*
X19199Y47060D01*
X17677Y48600D02*
Y48797D01*
X17776D01*
X17808Y48764D01*
Y48698D01*
X17776Y48665D01*
X17677D01*
X17743D02*
X17808Y48600D01*
X17874D02*
X17940D01*
X17907D01*
Y48797D01*
X17874Y48764D01*
X18136Y48600D02*
Y48797D01*
X18038Y48698D01*
X18169D01*
X18235Y48567D02*
X18366D01*
X18432Y48797D02*
Y48665D01*
X18497Y48600D01*
X18563Y48665D01*
Y48797D01*
X18759Y48764D02*
X18727Y48797D01*
X18661D01*
X18628Y48764D01*
Y48731D01*
X18661Y48698D01*
X18727D01*
X18759Y48665D01*
Y48633D01*
X18727Y48600D01*
X18661D01*
X18628Y48633D01*
X18825Y48797D02*
Y48633D01*
X18858Y48600D01*
X18923D01*
X18956Y48633D01*
Y48797D01*
X19022Y48764D02*
X19055Y48797D01*
X19120D01*
X19153Y48764D01*
Y48731D01*
X19120Y48698D01*
X19087D01*
X19120D01*
X19153Y48665D01*
Y48633D01*
X19120Y48600D01*
X19055D01*
X19022Y48633D01*
X17500Y41240D02*
X17303D01*
Y41339D01*
X17336Y41371D01*
X17402D01*
X17434Y41339D01*
Y41240D01*
Y41306D02*
X17500Y41371D01*
Y41437D02*
Y41503D01*
Y41470D01*
X17303D01*
X17336Y41437D01*
X17303Y41601D02*
Y41732D01*
X17336D01*
X17467Y41601D01*
X17500D01*
X17533Y41798D02*
Y41929D01*
X17303Y41995D02*
X17434D01*
X17500Y42060D01*
X17434Y42126D01*
X17303D01*
X17336Y42322D02*
X17303Y42290D01*
Y42224D01*
X17336Y42191D01*
X17369D01*
X17402Y42224D01*
Y42290D01*
X17434Y42322D01*
X17467D01*
X17500Y42290D01*
Y42224D01*
X17467Y42191D01*
X17303Y42388D02*
X17467D01*
X17500Y42421D01*
Y42486D01*
X17467Y42519D01*
X17303D01*
X17336Y42585D02*
X17303Y42618D01*
Y42683D01*
X17336Y42716D01*
X17369D01*
X17402Y42683D01*
Y42650D01*
Y42683D01*
X17434Y42716D01*
X17467D01*
X17500Y42683D01*
Y42618D01*
X17467Y42585D01*
X15990Y49471D02*
X15793D01*
Y49570D01*
X15826Y49602D01*
X15892D01*
X15925Y49570D01*
Y49471D01*
Y49537D02*
X15990Y49602D01*
X15826Y49668D02*
X15793Y49701D01*
Y49766D01*
X15826Y49799D01*
X15859D01*
X15892Y49766D01*
X15925Y49799D01*
X15957D01*
X15990Y49766D01*
Y49701D01*
X15957Y49668D01*
X15925D01*
X15892Y49701D01*
X15859Y49668D01*
X15826D01*
X15892Y49701D02*
Y49766D01*
X16023Y49865D02*
Y49996D01*
X15793Y50062D02*
X15925D01*
X15990Y50127D01*
X15925Y50193D01*
X15793D01*
X15826Y50390D02*
X15793Y50357D01*
Y50291D01*
X15826Y50258D01*
X15859D01*
X15892Y50291D01*
Y50357D01*
X15925Y50390D01*
X15957D01*
X15990Y50357D01*
Y50291D01*
X15957Y50258D01*
X15793Y50455D02*
X15957D01*
X15990Y50488D01*
Y50554D01*
X15957Y50586D01*
X15793D01*
X15990Y50783D02*
Y50652D01*
X15859Y50783D01*
X15826D01*
X15793Y50750D01*
Y50685D01*
X15826Y50652D01*
X15931Y47281D02*
X15734D01*
Y47379D01*
X15767Y47412D01*
X15833D01*
X15865Y47379D01*
Y47281D01*
Y47346D02*
X15931Y47412D01*
X15898Y47477D02*
X15931Y47510D01*
Y47576D01*
X15898Y47609D01*
X15767D01*
X15734Y47576D01*
Y47510D01*
X15767Y47477D01*
X15800D01*
X15833Y47510D01*
Y47609D01*
X15964Y47674D02*
Y47805D01*
X15734Y47871D02*
X15865D01*
X15931Y47937D01*
X15865Y48002D01*
X15734D01*
X15767Y48199D02*
X15734Y48166D01*
Y48101D01*
X15767Y48068D01*
X15800D01*
X15833Y48101D01*
Y48166D01*
X15865Y48199D01*
X15898D01*
X15931Y48166D01*
Y48101D01*
X15898Y48068D01*
X15734Y48265D02*
X15898D01*
X15931Y48297D01*
Y48363D01*
X15898Y48396D01*
X15734D01*
X15931Y48593D02*
Y48461D01*
X15800Y48593D01*
X15767D01*
X15734Y48560D01*
Y48494D01*
X15767Y48461D01*
X14533Y44131D02*
Y44328D01*
X14632D01*
X14665Y44295D01*
Y44229D01*
X14632Y44197D01*
X14533D01*
X14599D02*
X14665Y44131D01*
X14730D02*
X14796D01*
X14763D01*
Y44328D01*
X14730Y44295D01*
X14894D02*
X14927Y44328D01*
X14993D01*
X15025Y44295D01*
Y44262D01*
X14993Y44229D01*
X14960D01*
X14993D01*
X15025Y44197D01*
Y44164D01*
X14993Y44131D01*
X14927D01*
X14894Y44164D01*
X15091Y44098D02*
X15222D01*
X15288Y44328D02*
Y44197D01*
X15353Y44131D01*
X15419Y44197D01*
Y44328D01*
X15616Y44295D02*
X15583Y44328D01*
X15517D01*
X15485Y44295D01*
Y44262D01*
X15517Y44229D01*
X15583D01*
X15616Y44197D01*
Y44164D01*
X15583Y44131D01*
X15517D01*
X15485Y44164D01*
X15681Y44328D02*
Y44164D01*
X15714Y44131D01*
X15780D01*
X15813Y44164D01*
Y44328D01*
X16009Y44131D02*
X15878D01*
X16009Y44262D01*
Y44295D01*
X15977Y44328D01*
X15911D01*
X15878Y44295D01*
X11141Y42248D02*
X11108Y42281D01*
X11043D01*
X11010Y42248D01*
Y42117D01*
X11043Y42084D01*
X11108D01*
X11141Y42117D01*
X11338Y42084D02*
X11207D01*
X11338Y42215D01*
Y42248D01*
X11305Y42281D01*
X11239D01*
X11207Y42248D01*
X11403Y42084D02*
X11469D01*
X11436D01*
Y42281D01*
X11403Y42248D01*
X11567Y42051D02*
X11699D01*
X11764Y42281D02*
Y42149D01*
X11830Y42084D01*
X11895Y42149D01*
Y42281D01*
X12092Y42248D02*
X12059Y42281D01*
X11994D01*
X11961Y42248D01*
Y42215D01*
X11994Y42182D01*
X12059D01*
X12092Y42149D01*
Y42117D01*
X12059Y42084D01*
X11994D01*
X11961Y42117D01*
X12158Y42281D02*
Y42117D01*
X12191Y42084D01*
X12256D01*
X12289Y42117D01*
Y42281D01*
X12486Y42084D02*
X12355D01*
X12486Y42215D01*
Y42248D01*
X12453Y42281D01*
X12387D01*
X12355Y42248D01*
X11049Y40076D02*
Y40273D01*
X11148D01*
X11180Y40240D01*
Y40174D01*
X11148Y40142D01*
X11049D01*
X11115D02*
X11180Y40076D01*
X11246D02*
X11312D01*
X11279D01*
Y40273D01*
X11246Y40240D01*
X11410D02*
X11443Y40273D01*
X11508D01*
X11541Y40240D01*
Y40207D01*
X11508Y40174D01*
X11541Y40142D01*
Y40109D01*
X11508Y40076D01*
X11443D01*
X11410Y40109D01*
Y40142D01*
X11443Y40174D01*
X11410Y40207D01*
Y40240D01*
X11443Y40174D02*
X11508D01*
X11607Y40043D02*
X11738D01*
X11804Y40273D02*
Y40142D01*
X11869Y40076D01*
X11935Y40142D01*
Y40273D01*
X12132Y40240D02*
X12099Y40273D01*
X12033D01*
X12000Y40240D01*
Y40207D01*
X12033Y40174D01*
X12099D01*
X12132Y40142D01*
Y40109D01*
X12099Y40076D01*
X12033D01*
X12000Y40109D01*
X12197Y40273D02*
Y40109D01*
X12230Y40076D01*
X12295D01*
X12328Y40109D01*
Y40273D01*
X12525Y40076D02*
X12394D01*
X12525Y40207D01*
Y40240D01*
X12492Y40273D01*
X12427D01*
X12394Y40240D01*
X8845Y38757D02*
Y38888D01*
Y38823D01*
X9041D01*
Y38954D02*
X8845D01*
Y39052D01*
X8877Y39085D01*
X8943D01*
X8976Y39052D01*
Y38954D01*
X8877Y39151D02*
X8845Y39183D01*
Y39249D01*
X8877Y39282D01*
X8910D01*
X8943Y39249D01*
Y39216D01*
Y39249D01*
X8976Y39282D01*
X9008D01*
X9041Y39249D01*
Y39183D01*
X9008Y39151D01*
X9074Y39347D02*
Y39479D01*
X8845Y39544D02*
X8976D01*
X9041Y39610D01*
X8976Y39675D01*
X8845D01*
X8877Y39872D02*
X8845Y39839D01*
Y39774D01*
X8877Y39741D01*
X8910D01*
X8943Y39774D01*
Y39839D01*
X8976Y39872D01*
X9008D01*
X9041Y39839D01*
Y39774D01*
X9008Y39741D01*
X8845Y39938D02*
X9008D01*
X9041Y39971D01*
Y40036D01*
X9008Y40069D01*
X8845D01*
X9041Y40266D02*
Y40135D01*
X8910Y40266D01*
X8877D01*
X8845Y40233D01*
Y40167D01*
X8877Y40135D01*
X9330Y44768D02*
X9297Y44800D01*
X9232D01*
X9199Y44768D01*
Y44636D01*
X9232Y44604D01*
X9297D01*
X9330Y44636D01*
X9527Y44604D02*
X9396D01*
X9527Y44735D01*
Y44768D01*
X9494Y44800D01*
X9428D01*
X9396Y44768D01*
X9724Y44604D02*
X9592D01*
X9724Y44735D01*
Y44768D01*
X9691Y44800D01*
X9625D01*
X9592Y44768D01*
X9789Y44571D02*
X9920D01*
X9986Y44800D02*
Y44669D01*
X10052Y44604D01*
X10117Y44669D01*
Y44800D01*
X10314Y44768D02*
X10281Y44800D01*
X10216D01*
X10183Y44768D01*
Y44735D01*
X10216Y44702D01*
X10281D01*
X10314Y44669D01*
Y44636D01*
X10281Y44604D01*
X10216D01*
X10183Y44636D01*
X10380Y44800D02*
Y44636D01*
X10412Y44604D01*
X10478D01*
X10511Y44636D01*
Y44800D01*
X10707Y44604D02*
X10576D01*
X10707Y44735D01*
Y44768D01*
X10675Y44800D01*
X10609D01*
X10576Y44768D01*
X11817Y43678D02*
X11620D01*
Y43777D01*
X11653Y43810D01*
X11718D01*
X11751Y43777D01*
Y43678D01*
Y43744D02*
X11817Y43810D01*
Y43875D02*
Y43941D01*
Y43908D01*
X11620D01*
X11653Y43875D01*
X11784Y44039D02*
X11817Y44072D01*
Y44138D01*
X11784Y44170D01*
X11653D01*
X11620Y44138D01*
Y44072D01*
X11653Y44039D01*
X11686D01*
X11718Y44072D01*
Y44170D01*
X11850Y44236D02*
Y44367D01*
X11620Y44433D02*
X11751D01*
X11817Y44498D01*
X11751Y44564D01*
X11620D01*
X11653Y44761D02*
X11620Y44728D01*
Y44662D01*
X11653Y44629D01*
X11686D01*
X11718Y44662D01*
Y44728D01*
X11751Y44761D01*
X11784D01*
X11817Y44728D01*
Y44662D01*
X11784Y44629D01*
X11620Y44826D02*
X11784D01*
X11817Y44859D01*
Y44925D01*
X11784Y44957D01*
X11620D01*
X11817Y45154D02*
Y45023D01*
X11686Y45154D01*
X11653D01*
X11620Y45121D01*
Y45056D01*
X11653Y45023D01*
X19414Y49774D02*
Y49709D01*
Y49741D01*
X19578D01*
X19611Y49709D01*
Y49676D01*
X19578Y49643D01*
X19611Y49840D02*
Y49905D01*
Y49872D01*
X19414D01*
X19447Y49840D01*
Y50004D02*
X19414Y50036D01*
Y50102D01*
X19447Y50135D01*
X19480D01*
X19512Y50102D01*
Y50069D01*
Y50102D01*
X19545Y50135D01*
X19578D01*
X19611Y50102D01*
Y50036D01*
X19578Y50004D01*
X19644Y50200D02*
Y50332D01*
X19414Y50397D02*
X19545D01*
X19611Y50463D01*
X19545Y50528D01*
X19414D01*
X19447Y50725D02*
X19414Y50692D01*
Y50627D01*
X19447Y50594D01*
X19480D01*
X19512Y50627D01*
Y50692D01*
X19545Y50725D01*
X19578D01*
X19611Y50692D01*
Y50627D01*
X19578Y50594D01*
X19414Y50791D02*
X19578D01*
X19611Y50824D01*
Y50889D01*
X19578Y50922D01*
X19414D01*
X19447Y50988D02*
X19414Y51020D01*
Y51086D01*
X19447Y51119D01*
X19480D01*
X19512Y51086D01*
Y51053D01*
Y51086D01*
X19545Y51119D01*
X19578D01*
X19611Y51086D01*
Y51020D01*
X19578Y50988D01*
X14523Y37911D02*
X14654D01*
X14588D01*
Y37714D01*
X14720D02*
Y37911D01*
X14818D01*
X14851Y37878D01*
Y37812D01*
X14818Y37779D01*
X14720D01*
X14916Y37714D02*
X14982D01*
X14949D01*
Y37911D01*
X14916Y37878D01*
X15080Y37681D02*
X15211D01*
X15277Y37911D02*
Y37779D01*
X15343Y37714D01*
X15408Y37779D01*
Y37911D01*
X15605Y37878D02*
X15572Y37911D01*
X15507D01*
X15474Y37878D01*
Y37845D01*
X15507Y37812D01*
X15572D01*
X15605Y37779D01*
Y37747D01*
X15572Y37714D01*
X15507D01*
X15474Y37747D01*
X15671Y37911D02*
Y37747D01*
X15703Y37714D01*
X15769D01*
X15802Y37747D01*
Y37911D01*
X15999Y37714D02*
X15867D01*
X15999Y37845D01*
Y37878D01*
X15966Y37911D01*
X15900D01*
X15867Y37878D01*
X14606Y42268D02*
X14573Y42300D01*
X14507D01*
X14474Y42268D01*
Y42136D01*
X14507Y42104D01*
X14573D01*
X14606Y42136D01*
X14671Y42104D02*
X14737D01*
X14704D01*
Y42300D01*
X14671Y42268D01*
X14835D02*
X14868Y42300D01*
X14934D01*
X14966Y42268D01*
Y42235D01*
X14934Y42202D01*
X14966Y42169D01*
Y42136D01*
X14934Y42104D01*
X14868D01*
X14835Y42136D01*
Y42169D01*
X14868Y42202D01*
X14835Y42235D01*
Y42268D01*
X14868Y42202D02*
X14934D01*
X15032Y42071D02*
X15163D01*
X15229Y42300D02*
Y42169D01*
X15294Y42104D01*
X15360Y42169D01*
Y42300D01*
X15557Y42268D02*
X15524Y42300D01*
X15458D01*
X15425Y42268D01*
Y42235D01*
X15458Y42202D01*
X15524D01*
X15557Y42169D01*
Y42136D01*
X15524Y42104D01*
X15458D01*
X15425Y42136D01*
X15622Y42300D02*
Y42136D01*
X15655Y42104D01*
X15721D01*
X15753Y42136D01*
Y42300D01*
X15950Y42104D02*
X15819D01*
X15950Y42235D01*
Y42268D01*
X15917Y42300D01*
X15852D01*
X15819Y42268D01*
X23084Y42251D02*
X23051Y42283D01*
X22986D01*
X22953Y42251D01*
Y42119D01*
X22986Y42087D01*
X23051D01*
X23084Y42119D01*
X23150Y42087D02*
X23215D01*
X23182D01*
Y42283D01*
X23150Y42251D01*
X23314D02*
X23346Y42283D01*
X23412D01*
X23445Y42251D01*
Y42218D01*
X23412Y42185D01*
X23445Y42152D01*
Y42119D01*
X23412Y42087D01*
X23346D01*
X23314Y42119D01*
Y42152D01*
X23346Y42185D01*
X23314Y42218D01*
Y42251D01*
X23346Y42185D02*
X23412D01*
X23510Y42054D02*
X23642D01*
X23707Y42283D02*
Y42152D01*
X23773Y42087D01*
X23838Y42152D01*
Y42283D01*
X24035Y42251D02*
X24002Y42283D01*
X23937D01*
X23904Y42251D01*
Y42218D01*
X23937Y42185D01*
X24002D01*
X24035Y42152D01*
Y42119D01*
X24002Y42087D01*
X23937D01*
X23904Y42119D01*
X24101Y42283D02*
Y42119D01*
X24133Y42087D01*
X24199D01*
X24232Y42119D01*
Y42283D01*
X24297Y42251D02*
X24330Y42283D01*
X24396D01*
X24429Y42251D01*
Y42218D01*
X24396Y42185D01*
X24363D01*
X24396D01*
X24429Y42152D01*
Y42119D01*
X24396Y42087D01*
X24330D01*
X24297Y42119D01*
X22992Y40138D02*
Y40335D01*
X23091D01*
X23123Y40302D01*
Y40236D01*
X23091Y40203D01*
X22992D01*
X23058D02*
X23123Y40138D01*
X23189D02*
X23254D01*
X23222D01*
Y40335D01*
X23189Y40302D01*
X23353Y40138D02*
X23418D01*
X23386D01*
Y40335D01*
X23353Y40302D01*
X23517Y40105D02*
X23648D01*
X23714Y40335D02*
Y40203D01*
X23779Y40138D01*
X23845Y40203D01*
Y40335D01*
X24042Y40302D02*
X24009Y40335D01*
X23943D01*
X23910Y40302D01*
Y40269D01*
X23943Y40236D01*
X24009D01*
X24042Y40203D01*
Y40171D01*
X24009Y40138D01*
X23943D01*
X23910Y40171D01*
X24107Y40335D02*
Y40171D01*
X24140Y40138D01*
X24206D01*
X24238Y40171D01*
Y40335D01*
X24304Y40302D02*
X24337Y40335D01*
X24402D01*
X24435Y40302D01*
Y40269D01*
X24402Y40236D01*
X24370D01*
X24402D01*
X24435Y40203D01*
Y40171D01*
X24402Y40138D01*
X24337D01*
X24304Y40171D01*
X20295Y43661D02*
X20098D01*
Y43760D01*
X20131Y43793D01*
X20197D01*
X20230Y43760D01*
Y43661D01*
Y43727D02*
X20295Y43793D01*
Y43858D02*
Y43924D01*
Y43891D01*
X20098D01*
X20131Y43858D01*
X20262Y44022D02*
X20295Y44055D01*
Y44121D01*
X20262Y44153D01*
X20131D01*
X20098Y44121D01*
Y44055D01*
X20131Y44022D01*
X20164D01*
X20197Y44055D01*
Y44153D01*
X20328Y44219D02*
Y44350D01*
X20098Y44416D02*
X20230D01*
X20295Y44481D01*
X20230Y44547D01*
X20098D01*
X20131Y44744D02*
X20098Y44711D01*
Y44645D01*
X20131Y44613D01*
X20164D01*
X20197Y44645D01*
Y44711D01*
X20230Y44744D01*
X20262D01*
X20295Y44711D01*
Y44645D01*
X20262Y44613D01*
X20098Y44809D02*
X20262D01*
X20295Y44842D01*
Y44908D01*
X20262Y44941D01*
X20098D01*
X20131Y45006D02*
X20098Y45039D01*
Y45105D01*
X20131Y45137D01*
X20164D01*
X20197Y45105D01*
Y45072D01*
Y45105D01*
X20230Y45137D01*
X20262D01*
X20295Y45105D01*
Y45039D01*
X20262Y45006D01*
X10936Y49791D02*
Y49725D01*
Y49758D01*
X11100D01*
X11132Y49725D01*
Y49693D01*
X11100Y49660D01*
X11132Y49857D02*
Y49922D01*
Y49889D01*
X10936D01*
X10968Y49857D01*
Y50021D02*
X10936Y50053D01*
Y50119D01*
X10968Y50152D01*
X11001D01*
X11034Y50119D01*
Y50086D01*
Y50119D01*
X11067Y50152D01*
X11100D01*
X11132Y50119D01*
Y50053D01*
X11100Y50021D01*
X11165Y50217D02*
Y50349D01*
X10936Y50414D02*
X11067D01*
X11132Y50480D01*
X11067Y50545D01*
X10936D01*
X10968Y50742D02*
X10936Y50709D01*
Y50644D01*
X10968Y50611D01*
X11001D01*
X11034Y50644D01*
Y50709D01*
X11067Y50742D01*
X11100D01*
X11132Y50709D01*
Y50644D01*
X11100Y50611D01*
X10936Y50808D02*
X11100D01*
X11132Y50841D01*
Y50906D01*
X11100Y50939D01*
X10936D01*
X11132Y51136D02*
Y51005D01*
X11001Y51136D01*
X10968D01*
X10936Y51103D01*
Y51037D01*
X10968Y51005D01*
X17808Y44751D02*
X17776Y44783D01*
X17710D01*
X17677Y44751D01*
Y44619D01*
X17710Y44587D01*
X17776D01*
X17808Y44619D01*
X18005Y44587D02*
X17874D01*
X18005Y44718D01*
Y44751D01*
X17972Y44783D01*
X17907D01*
X17874Y44751D01*
X18202Y44587D02*
X18071D01*
X18202Y44718D01*
Y44751D01*
X18169Y44783D01*
X18104D01*
X18071Y44751D01*
X18268Y44554D02*
X18399D01*
X18464Y44783D02*
Y44652D01*
X18530Y44587D01*
X18595Y44652D01*
Y44783D01*
X18792Y44751D02*
X18759Y44783D01*
X18694D01*
X18661Y44751D01*
Y44718D01*
X18694Y44685D01*
X18759D01*
X18792Y44652D01*
Y44619D01*
X18759Y44587D01*
X18694D01*
X18661Y44619D01*
X18858Y44783D02*
Y44619D01*
X18891Y44587D01*
X18956D01*
X18989Y44619D01*
Y44783D01*
X19055Y44751D02*
X19087Y44783D01*
X19153D01*
X19186Y44751D01*
Y44718D01*
X19153Y44685D01*
X19120D01*
X19153D01*
X19186Y44652D01*
Y44619D01*
X19153Y44587D01*
X19087D01*
X19055Y44619D01*
X8071Y42303D02*
Y42106D01*
X7972D01*
X7940Y42139D01*
Y42205D01*
X7972Y42238D01*
X8071D01*
X8005D02*
X7940Y42303D01*
X7874D02*
X7808D01*
X7841D01*
Y42106D01*
X7874Y42139D01*
X7710D02*
X7677Y42106D01*
X7612D01*
X7579Y42139D01*
Y42270D01*
X7612Y42303D01*
X7677D01*
X7710Y42270D01*
Y42139D01*
X7513Y42336D02*
X7382D01*
X7317Y42106D02*
Y42238D01*
X7251Y42303D01*
X7185Y42238D01*
Y42106D01*
X6989Y42139D02*
X7021Y42106D01*
X7087D01*
X7120Y42139D01*
Y42172D01*
X7087Y42205D01*
X7021D01*
X6989Y42238D01*
Y42270D01*
X7021Y42303D01*
X7087D01*
X7120Y42270D01*
X6923Y42106D02*
Y42270D01*
X6890Y42303D01*
X6825D01*
X6792Y42270D01*
Y42106D01*
X6726Y42303D02*
X6661D01*
X6693D01*
Y42106D01*
X6726Y42139D01*
X6161Y40650D02*
Y40846D01*
X6260D01*
X6293Y40814D01*
Y40748D01*
X6260Y40715D01*
X6161D01*
X6227D02*
X6293Y40650D01*
X6358D02*
X6424D01*
X6391D01*
Y40846D01*
X6358Y40814D01*
X6522D02*
X6555Y40846D01*
X6621D01*
X6653Y40814D01*
Y40781D01*
X6621Y40748D01*
X6588D01*
X6621D01*
X6653Y40715D01*
Y40682D01*
X6621Y40650D01*
X6555D01*
X6522Y40682D01*
X6719Y40617D02*
X6850D01*
X6916Y40846D02*
Y40715D01*
X6981Y40650D01*
X7047Y40715D01*
Y40846D01*
X7244Y40814D02*
X7211Y40846D01*
X7145D01*
X7113Y40814D01*
Y40781D01*
X7145Y40748D01*
X7211D01*
X7244Y40715D01*
Y40682D01*
X7211Y40650D01*
X7145D01*
X7113Y40682D01*
X7309Y40846D02*
Y40682D01*
X7342Y40650D01*
X7408D01*
X7441Y40682D01*
Y40846D01*
X7506Y40650D02*
X7572D01*
X7539D01*
Y40846D01*
X7506Y40814D01*
X6142Y36673D02*
Y36870D01*
X6240D01*
X6273Y36837D01*
Y36772D01*
X6240Y36739D01*
X6142D01*
X6207D02*
X6273Y36673D01*
X6339D02*
X6404D01*
X6371D01*
Y36870D01*
X6339Y36837D01*
X6503Y36673D02*
X6568D01*
X6535D01*
Y36870D01*
X6503Y36837D01*
X6666Y36640D02*
X6798D01*
X6863Y36870D02*
Y36739D01*
X6929Y36673D01*
X6994Y36739D01*
Y36870D01*
X7191Y36837D02*
X7158Y36870D01*
X7093D01*
X7060Y36837D01*
Y36804D01*
X7093Y36772D01*
X7158D01*
X7191Y36739D01*
Y36706D01*
X7158Y36673D01*
X7093D01*
X7060Y36706D01*
X7257Y36870D02*
Y36706D01*
X7290Y36673D01*
X7355D01*
X7388Y36706D01*
Y36870D01*
X7454Y36673D02*
X7519D01*
X7486D01*
Y36870D01*
X7454Y36837D01*
X7060Y30978D02*
X7028Y30945D01*
Y30879D01*
X7060Y30846D01*
X7192D01*
X7224Y30879D01*
Y30945D01*
X7192Y30978D01*
X7224Y31043D02*
Y31109D01*
Y31076D01*
X7028D01*
X7060Y31043D01*
X7028Y31207D02*
Y31338D01*
X7060D01*
X7192Y31207D01*
X7224D01*
X7257Y31404D02*
Y31535D01*
X7028Y31601D02*
X7159D01*
X7224Y31666D01*
X7159Y31732D01*
X7028D01*
X7060Y31929D02*
X7028Y31896D01*
Y31830D01*
X7060Y31798D01*
X7093D01*
X7126Y31830D01*
Y31896D01*
X7159Y31929D01*
X7192D01*
X7224Y31896D01*
Y31830D01*
X7192Y31798D01*
X7028Y31994D02*
X7192D01*
X7224Y32027D01*
Y32093D01*
X7192Y32126D01*
X7028D01*
X7224Y32191D02*
Y32257D01*
Y32224D01*
X7028D01*
X7060Y32191D01*
X4156Y49777D02*
Y49711D01*
Y49744D01*
X4320D01*
X4353Y49711D01*
Y49678D01*
X4320Y49646D01*
X4353Y49842D02*
Y49908D01*
Y49875D01*
X4156D01*
X4189Y49842D01*
Y50006D02*
X4156Y50039D01*
Y50105D01*
X4189Y50138D01*
X4222D01*
X4254Y50105D01*
Y50072D01*
Y50105D01*
X4287Y50138D01*
X4320D01*
X4353Y50105D01*
Y50039D01*
X4320Y50006D01*
X4386Y50203D02*
Y50334D01*
X4156Y50400D02*
X4287D01*
X4353Y50466D01*
X4287Y50531D01*
X4156D01*
X4189Y50728D02*
X4156Y50695D01*
Y50630D01*
X4189Y50597D01*
X4222D01*
X4254Y50630D01*
Y50695D01*
X4287Y50728D01*
X4320D01*
X4353Y50695D01*
Y50630D01*
X4320Y50597D01*
X4156Y50794D02*
X4320D01*
X4353Y50826D01*
Y50892D01*
X4320Y50925D01*
X4156D01*
X4353Y50990D02*
Y51056D01*
Y51023D01*
X4156D01*
X4189Y50990D01*
X5630Y30886D02*
X5433D01*
Y30984D01*
X5466Y31017D01*
X5532D01*
X5564Y30984D01*
Y30886D01*
Y30951D02*
X5630Y31017D01*
Y31083D02*
Y31148D01*
Y31115D01*
X5433D01*
X5466Y31083D01*
X5630Y31378D02*
Y31247D01*
X5499Y31378D01*
X5466D01*
X5433Y31345D01*
Y31279D01*
X5466Y31247D01*
X5663Y31443D02*
Y31575D01*
X5433Y31640D02*
X5564D01*
X5630Y31706D01*
X5564Y31771D01*
X5433D01*
X5466Y31968D02*
X5433Y31935D01*
Y31870D01*
X5466Y31837D01*
X5499D01*
X5532Y31870D01*
Y31935D01*
X5564Y31968D01*
X5597D01*
X5630Y31935D01*
Y31870D01*
X5597Y31837D01*
X5433Y32034D02*
X5597D01*
X5630Y32067D01*
Y32132D01*
X5597Y32165D01*
X5433D01*
X5630Y32231D02*
Y32296D01*
Y32263D01*
X5433D01*
X5466Y32231D01*
X972Y31010D02*
X939Y31043D01*
X873D01*
X841Y31010D01*
Y30879D01*
X873Y30846D01*
X939D01*
X972Y30879D01*
X1169Y30846D02*
X1037D01*
X1169Y30978D01*
Y31010D01*
X1136Y31043D01*
X1070D01*
X1037Y31010D01*
X1234D02*
X1267Y31043D01*
X1333D01*
X1365Y31010D01*
Y30879D01*
X1333Y30846D01*
X1267D01*
X1234Y30879D01*
Y31010D01*
X1431Y30814D02*
X1562D01*
X1628Y31043D02*
Y30912D01*
X1693Y30846D01*
X1759Y30912D01*
Y31043D01*
X1956Y31010D02*
X1923Y31043D01*
X1857D01*
X1824Y31010D01*
Y30978D01*
X1857Y30945D01*
X1923D01*
X1956Y30912D01*
Y30879D01*
X1923Y30846D01*
X1857D01*
X1824Y30879D01*
X2021Y31043D02*
Y30879D01*
X2054Y30846D01*
X2120D01*
X2152Y30879D01*
Y31043D01*
X2218Y30846D02*
X2284D01*
X2251D01*
Y31043D01*
X2218Y31010D01*
X993Y31745D02*
X960Y31713D01*
Y31647D01*
X993Y31614D01*
X1124D01*
X1157Y31647D01*
Y31713D01*
X1124Y31745D01*
X1157Y31811D02*
Y31877D01*
Y31844D01*
X960D01*
X993Y31811D01*
X1124Y31975D02*
X1157Y32008D01*
Y32073D01*
X1124Y32106D01*
X993D01*
X960Y32073D01*
Y32008D01*
X993Y31975D01*
X1026D01*
X1059Y32008D01*
Y32106D01*
X1190Y32172D02*
Y32303D01*
X960Y32369D02*
X1091D01*
X1157Y32434D01*
X1091Y32500D01*
X960D01*
X993Y32696D02*
X960Y32664D01*
Y32598D01*
X993Y32565D01*
X1026D01*
X1059Y32598D01*
Y32664D01*
X1091Y32696D01*
X1124D01*
X1157Y32664D01*
Y32598D01*
X1124Y32565D01*
X960Y32762D02*
X1124D01*
X1157Y32795D01*
Y32860D01*
X1124Y32893D01*
X960D01*
X1157Y32959D02*
Y33024D01*
Y32992D01*
X960D01*
X993Y32959D01*
X3445Y30768D02*
X3576D01*
X3510D01*
Y30571D01*
X3642D02*
Y30768D01*
X3740D01*
X3773Y30735D01*
Y30669D01*
X3740Y30636D01*
X3642D01*
X3970Y30571D02*
X3838D01*
X3970Y30702D01*
Y30735D01*
X3937Y30768D01*
X3871D01*
X3838Y30735D01*
X4035Y30538D02*
X4166D01*
X4232Y30768D02*
Y30636D01*
X4298Y30571D01*
X4363Y30636D01*
Y30768D01*
X4560Y30735D02*
X4527Y30768D01*
X4462D01*
X4429Y30735D01*
Y30702D01*
X4462Y30669D01*
X4527D01*
X4560Y30636D01*
Y30604D01*
X4527Y30571D01*
X4462D01*
X4429Y30604D01*
X4626Y30768D02*
Y30604D01*
X4658Y30571D01*
X4724D01*
X4757Y30604D01*
Y30768D01*
X4822Y30571D02*
X4888D01*
X4855D01*
Y30768D01*
X4822Y30735D01*
X6234Y38786D02*
X6201Y38819D01*
X6135D01*
X6102Y38786D01*
Y38655D01*
X6135Y38622D01*
X6201D01*
X6234Y38655D01*
X6299Y38622D02*
X6365D01*
X6332D01*
Y38819D01*
X6299Y38786D01*
X6463D02*
X6496Y38819D01*
X6562D01*
X6594Y38786D01*
Y38753D01*
X6562Y38720D01*
X6594Y38688D01*
Y38655D01*
X6562Y38622D01*
X6496D01*
X6463Y38655D01*
Y38688D01*
X6496Y38720D01*
X6463Y38753D01*
Y38786D01*
X6496Y38720D02*
X6562D01*
X6660Y38589D02*
X6791D01*
X6857Y38819D02*
Y38688D01*
X6922Y38622D01*
X6988Y38688D01*
Y38819D01*
X7185Y38786D02*
X7152Y38819D01*
X7086D01*
X7053Y38786D01*
Y38753D01*
X7086Y38720D01*
X7152D01*
X7185Y38688D01*
Y38655D01*
X7152Y38622D01*
X7086D01*
X7053Y38655D01*
X7250Y38819D02*
Y38655D01*
X7283Y38622D01*
X7349D01*
X7381Y38655D01*
Y38819D01*
X7447Y38622D02*
X7513D01*
X7480D01*
Y38819D01*
X7447Y38786D01*
X6151Y34429D02*
X6282D01*
X6216D01*
Y34232D01*
X6347D02*
Y34429D01*
X6446D01*
X6479Y34396D01*
Y34331D01*
X6446Y34298D01*
X6347D01*
X6544Y34232D02*
X6610D01*
X6577D01*
Y34429D01*
X6544Y34396D01*
X6708Y34199D02*
X6839D01*
X6905Y34429D02*
Y34298D01*
X6971Y34232D01*
X7036Y34298D01*
Y34429D01*
X7233Y34396D02*
X7200Y34429D01*
X7135D01*
X7102Y34396D01*
Y34363D01*
X7135Y34331D01*
X7200D01*
X7233Y34298D01*
Y34265D01*
X7200Y34232D01*
X7135D01*
X7102Y34265D01*
X7299Y34429D02*
Y34265D01*
X7331Y34232D01*
X7397D01*
X7430Y34265D01*
Y34429D01*
X7495Y34232D02*
X7561D01*
X7528D01*
Y34429D01*
X7495Y34396D01*
X958Y41286D02*
X925Y41319D01*
X860D01*
X827Y41286D01*
Y41155D01*
X860Y41122D01*
X925D01*
X958Y41155D01*
X1155Y41122D02*
X1024D01*
X1155Y41253D01*
Y41286D01*
X1122Y41319D01*
X1056D01*
X1024Y41286D01*
X1352Y41122D02*
X1220D01*
X1352Y41253D01*
Y41286D01*
X1319Y41319D01*
X1253D01*
X1220Y41286D01*
X1417Y41089D02*
X1548D01*
X1614Y41319D02*
Y41188D01*
X1680Y41122D01*
X1745Y41188D01*
Y41319D01*
X1942Y41286D02*
X1909Y41319D01*
X1843D01*
X1811Y41286D01*
Y41253D01*
X1843Y41220D01*
X1909D01*
X1942Y41188D01*
Y41155D01*
X1909Y41122D01*
X1843D01*
X1811Y41155D01*
X2007Y41319D02*
Y41155D01*
X2040Y41122D01*
X2106D01*
X2139Y41155D01*
Y41319D01*
X2204Y41122D02*
X2270D01*
X2237D01*
Y41319D01*
X2204Y41286D01*
X2783Y34454D02*
Y34290D01*
X2816Y34257D01*
X2882D01*
X2915Y34290D01*
Y34454D01*
X2980Y34421D02*
X3013Y34454D01*
X3079D01*
X3111Y34421D01*
Y34388D01*
X3079Y34355D01*
X3046D01*
X3079D01*
X3111Y34323D01*
Y34290D01*
X3079Y34257D01*
X3013D01*
X2980Y34290D01*
X3177Y34224D02*
X3308D01*
X3374Y34454D02*
Y34323D01*
X3439Y34257D01*
X3505Y34323D01*
Y34454D01*
X3702Y34421D02*
X3669Y34454D01*
X3603D01*
X3571Y34421D01*
Y34388D01*
X3603Y34355D01*
X3669D01*
X3702Y34323D01*
Y34290D01*
X3669Y34257D01*
X3603D01*
X3571Y34290D01*
X3767Y34454D02*
Y34290D01*
X3800Y34257D01*
X3866D01*
X3899Y34290D01*
Y34454D01*
X3964Y34257D02*
X4030D01*
X3997D01*
Y34454D01*
X3964Y34421D01*
X3228Y42989D02*
Y42793D01*
X3130D01*
X3097Y42825D01*
Y42891D01*
X3130Y42924D01*
X3228D01*
X3163D02*
X3097Y42989D01*
X3032D02*
X2966D01*
X2999D01*
Y42793D01*
X3032Y42825D01*
X2736Y42793D02*
X2802Y42825D01*
X2868Y42891D01*
Y42957D01*
X2835Y42989D01*
X2769D01*
X2736Y42957D01*
Y42924D01*
X2769Y42891D01*
X2868D01*
X2671Y43022D02*
X2540D01*
X2474Y42793D02*
Y42924D01*
X2408Y42989D01*
X2343Y42924D01*
Y42793D01*
X2146Y42825D02*
X2179Y42793D01*
X2244D01*
X2277Y42825D01*
Y42858D01*
X2244Y42891D01*
X2179D01*
X2146Y42924D01*
Y42957D01*
X2179Y42989D01*
X2244D01*
X2277Y42957D01*
X2080Y42793D02*
Y42957D01*
X2048Y42989D01*
X1982D01*
X1949Y42957D01*
Y42793D01*
X1884Y42989D02*
X1818D01*
X1851D01*
Y42793D01*
X1884Y42825D01*
X650Y37776D02*
X453D01*
Y37874D01*
X486Y37907D01*
X551D01*
X584Y37874D01*
Y37776D01*
Y37841D02*
X650Y37907D01*
Y37972D02*
Y38038D01*
Y38005D01*
X453D01*
X486Y37972D01*
X453Y38136D02*
Y38268D01*
X486D01*
X617Y38136D01*
X650D01*
X682Y38333D02*
Y38464D01*
X453Y38530D02*
X584D01*
X650Y38596D01*
X584Y38661D01*
X453D01*
X486Y38858D02*
X453Y38825D01*
Y38760D01*
X486Y38727D01*
X518D01*
X551Y38760D01*
Y38825D01*
X584Y38858D01*
X617D01*
X650Y38825D01*
Y38760D01*
X617Y38727D01*
X453Y38924D02*
X617D01*
X650Y38956D01*
Y39022D01*
X617Y39055D01*
X453D01*
X650Y39120D02*
Y39186D01*
Y39153D01*
X453D01*
X486Y39120D01*
X2769Y38766D02*
X2736Y38799D01*
X2671D01*
X2638Y38766D01*
Y38635D01*
X2671Y38602D01*
X2736D01*
X2769Y38635D01*
X2966Y38602D02*
X2835D01*
X2966Y38734D01*
Y38766D01*
X2933Y38799D01*
X2867D01*
X2835Y38766D01*
X3031Y38602D02*
X3097D01*
X3064D01*
Y38799D01*
X3031Y38766D01*
X3195Y38570D02*
X3327D01*
X3392Y38799D02*
Y38668D01*
X3458Y38602D01*
X3523Y38668D01*
Y38799D01*
X3720Y38766D02*
X3687Y38799D01*
X3622D01*
X3589Y38766D01*
Y38734D01*
X3622Y38701D01*
X3687D01*
X3720Y38668D01*
Y38635D01*
X3687Y38602D01*
X3622D01*
X3589Y38635D01*
X3786Y38799D02*
Y38635D01*
X3819Y38602D01*
X3884D01*
X3917Y38635D01*
Y38799D01*
X3983Y38602D02*
X4048D01*
X4015D01*
Y38799D01*
X3983Y38766D01*
X473Y35276D02*
Y35407D01*
Y35341D01*
X669D01*
Y35472D02*
X473D01*
Y35571D01*
X505Y35604D01*
X571D01*
X604Y35571D01*
Y35472D01*
X505Y35669D02*
X473Y35702D01*
Y35768D01*
X505Y35800D01*
X538D01*
X571Y35768D01*
Y35735D01*
Y35768D01*
X604Y35800D01*
X636D01*
X669Y35768D01*
Y35702D01*
X636Y35669D01*
X702Y35866D02*
Y35997D01*
X473Y36063D02*
X604D01*
X669Y36128D01*
X604Y36194D01*
X473D01*
X505Y36391D02*
X473Y36358D01*
Y36292D01*
X505Y36260D01*
X538D01*
X571Y36292D01*
Y36358D01*
X604Y36391D01*
X636D01*
X669Y36358D01*
Y36292D01*
X636Y36260D01*
X473Y36456D02*
X636D01*
X669Y36489D01*
Y36555D01*
X636Y36588D01*
X473D01*
X669Y36653D02*
Y36719D01*
Y36686D01*
X473D01*
X505Y36653D01*
X2677Y36594D02*
Y36791D01*
X2776D01*
X2808Y36758D01*
Y36693D01*
X2776Y36660D01*
X2677D01*
X2743D02*
X2808Y36594D01*
X2874D02*
X2940D01*
X2907D01*
Y36791D01*
X2874Y36758D01*
X3038D02*
X3071Y36791D01*
X3136D01*
X3169Y36758D01*
Y36726D01*
X3136Y36693D01*
X3169Y36660D01*
Y36627D01*
X3136Y36594D01*
X3071D01*
X3038Y36627D01*
Y36660D01*
X3071Y36693D01*
X3038Y36726D01*
Y36758D01*
X3071Y36693D02*
X3136D01*
X3235Y36562D02*
X3366D01*
X3432Y36791D02*
Y36660D01*
X3497Y36594D01*
X3563Y36660D01*
Y36791D01*
X3759Y36758D02*
X3727Y36791D01*
X3661D01*
X3628Y36758D01*
Y36726D01*
X3661Y36693D01*
X3727D01*
X3759Y36660D01*
Y36627D01*
X3727Y36594D01*
X3661D01*
X3628Y36627D01*
X3825Y36791D02*
Y36627D01*
X3858Y36594D01*
X3923D01*
X3956Y36627D01*
Y36791D01*
X4022Y36594D02*
X4087D01*
X4055D01*
Y36791D01*
X4022Y36758D01*
D16*
X42197Y47840D02*
X45520D01*
X42197D02*
Y51171D01*
X45520D01*
Y47840D02*
Y51171D01*
X37560Y47811D02*
X38039D01*
Y51142D01*
X30783Y47811D02*
X37560D01*
X30783D02*
Y51142D01*
X38039Y51142D01*
X3654Y7304D02*
Y11607D01*
X323Y7307D02*
X3654D01*
X323Y7304D02*
Y11607D01*
X3654D01*
Y17048D02*
Y21351D01*
X323Y17051D02*
X3654D01*
X323Y17048D02*
Y21351D01*
X3654D01*
X21906Y3374D02*
Y30933D01*
X54386D01*
Y3374D02*
Y30933D01*
X21906Y3374D02*
X54386D01*
X69223Y37073D02*
Y49203D01*
X74203D01*
Y48813D02*
Y49203D01*
Y47303D02*
Y48813D01*
Y46469D02*
Y47303D01*
Y39808D02*
Y46469D01*
Y38973D02*
Y39808D01*
Y37463D02*
Y38973D01*
Y37073D02*
Y37463D01*
X69223Y37073D02*
X74203D01*
Y46469D02*
X76553D01*
Y39808D02*
Y46469D01*
X74203Y39808D02*
X76553D01*
X74203Y37463D02*
X76404D01*
Y38973D01*
X74203D02*
X76404D01*
X74203Y47303D02*
X76404D01*
Y48813D01*
X74203D02*
X76404D01*
D17*
X33746Y4104D02*
X53046D01*
Y6204D01*
X33746D02*
X53046D01*
X33746Y4104D02*
Y6204D01*
Y28104D02*
X53046D01*
Y30204D01*
X33746D02*
X53046D01*
X33746Y28104D02*
Y30204D01*
D18*
X74070Y28282D02*
Y28558D01*
X74208D01*
X74254Y28512D01*
Y28420D01*
X74208Y28374D01*
X74070D01*
X74162D02*
X74254Y28282D01*
X74529D02*
X74346D01*
X74529Y28466D01*
Y28512D01*
X74483Y28558D01*
X74391D01*
X74346Y28512D01*
X74621Y28328D02*
X74667Y28282D01*
X74759D01*
X74805Y28328D01*
Y28512D01*
X74759Y28558D01*
X74667D01*
X74621Y28512D01*
Y28466D01*
X74667Y28420D01*
X74805D01*
X74070Y11482D02*
Y11758D01*
X74208D01*
X74254Y11712D01*
Y11620D01*
X74208Y11574D01*
X74070D01*
X74162D02*
X74254Y11482D01*
X74529D02*
X74346D01*
X74529Y11666D01*
Y11712D01*
X74483Y11758D01*
X74391D01*
X74346Y11712D01*
X74621D02*
X74667Y11758D01*
X74759D01*
X74805Y11712D01*
Y11666D01*
X74759Y11620D01*
X74805Y11574D01*
Y11528D01*
X74759Y11482D01*
X74667D01*
X74621Y11528D01*
Y11574D01*
X74667Y11620D01*
X74621Y11666D01*
Y11712D01*
X74667Y11620D02*
X74759D01*
X74070Y21752D02*
Y22028D01*
X74208D01*
X74254Y21982D01*
Y21890D01*
X74208Y21844D01*
X74070D01*
X74162D02*
X74254Y21752D01*
X74529D02*
X74346D01*
X74529Y21936D01*
Y21982D01*
X74483Y22028D01*
X74391D01*
X74346Y21982D01*
X74621Y22028D02*
X74805D01*
Y21982D01*
X74621Y21798D01*
Y21752D01*
X73950Y26318D02*
Y26042D01*
X74088D01*
X74134Y26088D01*
Y26272D01*
X74088Y26318D01*
X73950D01*
X74226Y26042D02*
X74317D01*
X74271D01*
Y26318D01*
X74226Y26272D01*
X74639Y26042D02*
X74455D01*
X74639Y26226D01*
Y26272D01*
X74593Y26318D01*
X74501D01*
X74455Y26272D01*
X73950Y9128D02*
Y8852D01*
X74088D01*
X74134Y8898D01*
Y9082D01*
X74088Y9128D01*
X73950D01*
X74226Y8852D02*
X74317D01*
X74271D01*
Y9128D01*
X74226Y9082D01*
X74455Y8852D02*
X74547D01*
X74501D01*
Y9128D01*
X74455Y9082D01*
X73950Y19748D02*
Y19472D01*
X74088D01*
X74134Y19518D01*
Y19702D01*
X74088Y19748D01*
X73950D01*
X74226Y19472D02*
X74317D01*
X74271D01*
Y19748D01*
X74226Y19702D01*
X74455D02*
X74501Y19748D01*
X74593D01*
X74639Y19702D01*
Y19518D01*
X74593Y19472D01*
X74501D01*
X74455Y19518D01*
Y19702D01*
X538Y12205D02*
X446D01*
X492D01*
Y11975D01*
X446Y11929D01*
X400D01*
X354Y11975D01*
X630Y11929D02*
X722D01*
X676D01*
Y12205D01*
X630Y12159D01*
X859D02*
X905Y12205D01*
X997D01*
X1043Y12159D01*
Y11975D01*
X997Y11929D01*
X905D01*
X859Y11975D01*
Y12159D01*
X507Y21968D02*
X415D01*
X461D01*
Y21739D01*
X415Y21693D01*
X369D01*
X323Y21739D01*
X599D02*
X644Y21693D01*
X736D01*
X782Y21739D01*
Y21923D01*
X736Y21968D01*
X644D01*
X599Y21923D01*
Y21877D01*
X644Y21831D01*
X782D01*
X69190Y22578D02*
X69374D01*
X69282D01*
Y22302D01*
X69466D02*
Y22578D01*
X69603D01*
X69649Y22532D01*
Y22440D01*
X69603Y22394D01*
X69466D01*
X69741Y22348D02*
X69787Y22302D01*
X69879D01*
X69925Y22348D01*
Y22532D01*
X69879Y22578D01*
X69787D01*
X69741Y22532D01*
Y22486D01*
X69787Y22440D01*
X69925D01*
X49291Y43386D02*
X49475D01*
X49383D01*
Y43110D01*
X49567D02*
Y43386D01*
X49705D01*
X49751Y43340D01*
Y43248D01*
X49705Y43202D01*
X49567D01*
X49842Y43340D02*
X49888Y43386D01*
X49980D01*
X50026Y43340D01*
Y43294D01*
X49980Y43248D01*
X50026Y43202D01*
Y43156D01*
X49980Y43110D01*
X49888D01*
X49842Y43156D01*
Y43202D01*
X49888Y43248D01*
X49842Y43294D01*
Y43340D01*
X49888Y43248D02*
X49980D01*
X28140Y41128D02*
Y40898D01*
X28186Y40852D01*
X28278D01*
X28324Y40898D01*
Y41128D01*
X28599Y40852D02*
X28416D01*
X28599Y41036D01*
Y41082D01*
X28553Y41128D01*
X28461D01*
X28416Y41082D01*
X54200Y39228D02*
Y38998D01*
X54246Y38952D01*
X54338D01*
X54384Y38998D01*
Y39228D01*
X54476Y38952D02*
X54567D01*
X54521D01*
Y39228D01*
X54476Y39182D01*
X64190Y36198D02*
X64374D01*
X64282D01*
Y35922D01*
X64466D02*
Y36198D01*
X64603D01*
X64649Y36152D01*
Y36060D01*
X64603Y36014D01*
X64466D01*
X64741Y36198D02*
X64925D01*
Y36152D01*
X64741Y35968D01*
Y35922D01*
X61830Y15328D02*
X62014D01*
X61922D01*
Y15052D01*
X62106D02*
Y15328D01*
X62243D01*
X62289Y15282D01*
Y15190D01*
X62243Y15144D01*
X62106D01*
X62565Y15328D02*
X62473Y15282D01*
X62381Y15190D01*
Y15098D01*
X62427Y15052D01*
X62519D01*
X62565Y15098D01*
Y15144D01*
X62519Y15190D01*
X62381D01*
X59830Y22548D02*
X60014D01*
X59922D01*
Y22272D01*
X60106D02*
Y22548D01*
X60243D01*
X60289Y22502D01*
Y22410D01*
X60243Y22364D01*
X60106D01*
X60565Y22548D02*
X60381D01*
Y22410D01*
X60473Y22456D01*
X60519D01*
X60565Y22410D01*
Y22318D01*
X60519Y22272D01*
X60427D01*
X60381Y22318D01*
X56990Y50648D02*
X57174D01*
X57082D01*
Y50372D01*
X57266D02*
Y50648D01*
X57403D01*
X57449Y50602D01*
Y50510D01*
X57403Y50464D01*
X57266D01*
X57679Y50372D02*
Y50648D01*
X57541Y50510D01*
X57725D01*
X50787Y47402D02*
Y47677D01*
X50925D01*
X50971Y47631D01*
Y47539D01*
X50925Y47493D01*
X50787D01*
X50879D02*
X50971Y47402D01*
X51247D02*
X51063D01*
X51247Y47585D01*
Y47631D01*
X51201Y47677D01*
X51109D01*
X51063Y47631D01*
X51522Y47402D02*
X51338D01*
X51522Y47585D01*
Y47631D01*
X51476Y47677D01*
X51384D01*
X51338Y47631D01*
X58050Y38642D02*
Y38918D01*
X58188D01*
X58234Y38872D01*
Y38780D01*
X58188Y38734D01*
X58050D01*
X58142D02*
X58234Y38642D01*
X58509D02*
X58326D01*
X58509Y38826D01*
Y38872D01*
X58463Y38918D01*
X58372D01*
X58326Y38872D01*
X58601D02*
X58647Y38918D01*
X58739D01*
X58785Y38872D01*
Y38688D01*
X58739Y38642D01*
X58647D01*
X58601Y38688D01*
Y38872D01*
X13800Y25062D02*
Y25338D01*
X13938D01*
X13984Y25292D01*
Y25200D01*
X13938Y25154D01*
X13800D01*
X13892D02*
X13984Y25062D01*
X14213D02*
Y25338D01*
X14076Y25200D01*
X14259D01*
X16460Y25062D02*
Y25338D01*
X16598D01*
X16644Y25292D01*
Y25200D01*
X16598Y25154D01*
X16460D01*
X16552D02*
X16644Y25062D01*
X16736Y25292D02*
X16782Y25338D01*
X16873D01*
X16919Y25292D01*
Y25246D01*
X16873Y25200D01*
X16827D01*
X16873D01*
X16919Y25154D01*
Y25108D01*
X16873Y25062D01*
X16782D01*
X16736Y25108D01*
X19110Y25062D02*
Y25338D01*
X19248D01*
X19294Y25292D01*
Y25200D01*
X19248Y25154D01*
X19110D01*
X19202D02*
X19294Y25062D01*
X19569D02*
X19386D01*
X19569Y25246D01*
Y25292D01*
X19523Y25338D01*
X19432D01*
X19386Y25292D01*
X56400Y41752D02*
Y42028D01*
X56538D01*
X56584Y41982D01*
Y41890D01*
X56538Y41844D01*
X56400D01*
X56492D02*
X56584Y41752D01*
X56676D02*
X56767D01*
X56722D01*
Y42028D01*
X56676Y41982D01*
X57979Y44134D02*
X57887D01*
X57933D01*
Y43904D01*
X57887Y43858D01*
X57841D01*
X57795Y43904D01*
X58071Y43858D02*
X58163D01*
X58117D01*
Y44134D01*
X58071Y44088D01*
X58438Y43858D02*
Y44134D01*
X58300Y43996D01*
X58484D01*
X40971Y50709D02*
X40879D01*
X40925D01*
Y50479D01*
X40879Y50433D01*
X40833D01*
X40787Y50479D01*
X41063Y50433D02*
X41155D01*
X41109D01*
Y50709D01*
X41063Y50663D01*
X41476Y50433D02*
X41292D01*
X41476Y50617D01*
Y50663D01*
X41430Y50709D01*
X41338D01*
X41292Y50663D01*
X29908Y50709D02*
X29816D01*
X29862D01*
Y50479D01*
X29816Y50433D01*
X29770D01*
X29724Y50479D01*
X30000Y50433D02*
X30092D01*
X30046D01*
Y50709D01*
X30000Y50663D01*
X30229Y50433D02*
X30321D01*
X30275D01*
Y50709D01*
X30229Y50663D01*
X22124Y31488D02*
X22032D01*
X22078D01*
Y31258D01*
X22032Y31212D01*
X21986D01*
X21940Y31258D01*
X22216Y31488D02*
X22399D01*
Y31442D01*
X22216Y31258D01*
Y31212D01*
X66654Y15838D02*
X66562D01*
X66608D01*
Y15608D01*
X66562Y15562D01*
X66516D01*
X66470Y15608D01*
X66929Y15838D02*
X66837Y15792D01*
X66746Y15700D01*
Y15608D01*
X66792Y15562D01*
X66883D01*
X66929Y15608D01*
Y15654D01*
X66883Y15700D01*
X66746D01*
X63264Y17318D02*
X63172D01*
X63218D01*
Y17088D01*
X63172Y17042D01*
X63126D01*
X63080Y17088D01*
X63539Y17318D02*
X63356D01*
Y17180D01*
X63447Y17226D01*
X63493D01*
X63539Y17180D01*
Y17088D01*
X63493Y17042D01*
X63401D01*
X63356Y17088D01*
X68954Y49808D02*
X68862D01*
X68908D01*
Y49578D01*
X68862Y49532D01*
X68816D01*
X68770Y49578D01*
X69183Y49532D02*
Y49808D01*
X69046Y49670D01*
X69229D01*
X62444Y26308D02*
X62352D01*
X62398D01*
Y26078D01*
X62352Y26032D01*
X62306D01*
X62260Y26078D01*
X62536Y26262D02*
X62582Y26308D01*
X62673D01*
X62719Y26262D01*
Y26216D01*
X62673Y26170D01*
X62627D01*
X62673D01*
X62719Y26124D01*
Y26078D01*
X62673Y26032D01*
X62582D01*
X62536Y26078D01*
X63844Y29128D02*
X63752D01*
X63798D01*
Y28898D01*
X63752Y28852D01*
X63706D01*
X63660Y28898D01*
X64119Y28852D02*
X63936D01*
X64119Y29036D01*
Y29082D01*
X64073Y29128D01*
X63981D01*
X63936Y29082D01*
X70994Y33828D02*
X70902D01*
X70948D01*
Y33598D01*
X70902Y33552D01*
X70856D01*
X70810Y33598D01*
X71086Y33552D02*
X71177D01*
X71132D01*
Y33828D01*
X71086Y33782D01*
X60617Y46653D02*
X60433D01*
Y46516D01*
X60525D01*
X60433D01*
Y46378D01*
X60892D02*
X60709D01*
X60892Y46562D01*
Y46608D01*
X60846Y46653D01*
X60754D01*
X60709Y46608D01*
X64104Y33778D02*
X63920D01*
Y33640D01*
X64012D01*
X63920D01*
Y33502D01*
X64196D02*
X64287D01*
X64241D01*
Y33778D01*
X64196Y33732D01*
X40230Y48118D02*
Y47842D01*
X40368D01*
X40414Y47888D01*
Y48072D01*
X40368Y48118D01*
X40230D01*
X40506Y47888D02*
X40552Y47842D01*
X40643D01*
X40689Y47888D01*
Y48072D01*
X40643Y48118D01*
X40552D01*
X40506Y48072D01*
Y48026D01*
X40552Y47980D01*
X40689D01*
X47992Y45017D02*
Y44741D01*
X48130D01*
X48176Y44787D01*
Y44971D01*
X48130Y45017D01*
X47992D01*
X48268Y44971D02*
X48314Y45017D01*
X48405D01*
X48451Y44971D01*
Y44925D01*
X48405Y44879D01*
X48451Y44833D01*
Y44787D01*
X48405Y44741D01*
X48314D01*
X48268Y44787D01*
Y44833D01*
X48314Y44879D01*
X48268Y44925D01*
Y44971D01*
X48314Y44879D02*
X48405D01*
X46139Y45000D02*
Y44724D01*
X46277D01*
X46323Y44770D01*
Y44954D01*
X46277Y45000D01*
X46139D01*
X46415D02*
X46598D01*
Y44954D01*
X46415Y44770D01*
Y44724D01*
X13800Y28568D02*
Y28292D01*
X13938D01*
X13984Y28338D01*
Y28522D01*
X13938Y28568D01*
X13800D01*
X14259D02*
X14167Y28522D01*
X14076Y28430D01*
Y28338D01*
X14122Y28292D01*
X14213D01*
X14259Y28338D01*
Y28384D01*
X14213Y28430D01*
X14076D01*
X16460Y28608D02*
Y28332D01*
X16598D01*
X16644Y28378D01*
Y28562D01*
X16598Y28608D01*
X16460D01*
X16919D02*
X16736D01*
Y28470D01*
X16827Y28516D01*
X16873D01*
X16919Y28470D01*
Y28378D01*
X16873Y28332D01*
X16782D01*
X16736Y28378D01*
X19120Y28608D02*
Y28332D01*
X19258D01*
X19304Y28378D01*
Y28562D01*
X19258Y28608D01*
X19120D01*
X19533Y28332D02*
Y28608D01*
X19396Y28470D01*
X19579D01*
X67470Y25958D02*
Y25682D01*
X67608D01*
X67654Y25728D01*
Y25912D01*
X67608Y25958D01*
X67470D01*
X67746Y25912D02*
X67792Y25958D01*
X67883D01*
X67929Y25912D01*
Y25866D01*
X67883Y25820D01*
X67837D01*
X67883D01*
X67929Y25774D01*
Y25728D01*
X67883Y25682D01*
X67792D01*
X67746Y25728D01*
X60190Y27328D02*
Y27052D01*
X60328D01*
X60374Y27098D01*
Y27282D01*
X60328Y27328D01*
X60190D01*
X60649Y27052D02*
X60466D01*
X60649Y27236D01*
Y27282D01*
X60603Y27328D01*
X60511D01*
X60466Y27282D01*
X55709Y46457D02*
Y46181D01*
X55846D01*
X55892Y46227D01*
Y46411D01*
X55846Y46457D01*
X55709D01*
X55984Y46181D02*
X56076D01*
X56030D01*
Y46457D01*
X55984Y46411D01*
X49436Y46608D02*
X49390Y46653D01*
X49298D01*
X49252Y46608D01*
Y46424D01*
X49298Y46378D01*
X49390D01*
X49436Y46424D01*
X49711Y46378D02*
X49527D01*
X49711Y46562D01*
Y46608D01*
X49665Y46653D01*
X49573D01*
X49527Y46608D01*
X49941Y46378D02*
Y46653D01*
X49803Y46516D01*
X49987D01*
X26306Y34436D02*
X26260Y34390D01*
Y34298D01*
X26306Y34252D01*
X26490D01*
X26535Y34298D01*
Y34390D01*
X26490Y34436D01*
X26535Y34527D02*
Y34619D01*
Y34573D01*
X26260D01*
X26306Y34527D01*
X26260Y34941D02*
X26306Y34849D01*
X26398Y34757D01*
X26490D01*
X26535Y34803D01*
Y34895D01*
X26490Y34941D01*
X26444D01*
X26398Y34895D01*
Y34757D01*
X26306Y36325D02*
X26260Y36279D01*
Y36188D01*
X26306Y36142D01*
X26490D01*
X26535Y36188D01*
Y36279D01*
X26490Y36325D01*
X26535Y36417D02*
Y36509D01*
Y36463D01*
X26260D01*
X26306Y36417D01*
X26260Y36830D02*
Y36647D01*
X26398D01*
X26352Y36739D01*
Y36785D01*
X26398Y36830D01*
X26490D01*
X26535Y36785D01*
Y36693D01*
X26490Y36647D01*
X26306Y41739D02*
X26260Y41693D01*
Y41601D01*
X26306Y41555D01*
X26490D01*
X26535Y41601D01*
Y41693D01*
X26490Y41739D01*
X26535Y41831D02*
Y41922D01*
Y41877D01*
X26260D01*
X26306Y41831D01*
X26535Y42198D02*
X26260D01*
X26398Y42060D01*
Y42244D01*
X26306Y39829D02*
X26260Y39783D01*
Y39692D01*
X26306Y39646D01*
X26490D01*
X26535Y39692D01*
Y39783D01*
X26490Y39829D01*
X26535Y39921D02*
Y40013D01*
Y39967D01*
X26260D01*
X26306Y39921D01*
Y40151D02*
X26260Y40197D01*
Y40289D01*
X26306Y40334D01*
X26352D01*
X26398Y40289D01*
Y40243D01*
Y40289D01*
X26444Y40334D01*
X26490D01*
X26535Y40289D01*
Y40197D01*
X26490Y40151D01*
X26306Y38136D02*
X26260Y38091D01*
Y37999D01*
X26306Y37953D01*
X26490D01*
X26535Y37999D01*
Y38091D01*
X26490Y38136D01*
X26535Y38228D02*
Y38320D01*
Y38274D01*
X26260D01*
X26306Y38228D01*
X26535Y38642D02*
Y38458D01*
X26352Y38642D01*
X26306D01*
X26260Y38596D01*
Y38504D01*
X26306Y38458D01*
X36357Y36214D02*
X36311Y36260D01*
X36219D01*
X36173Y36214D01*
Y36030D01*
X36219Y35984D01*
X36311D01*
X36357Y36030D01*
X36449Y35984D02*
X36540D01*
X36494D01*
Y36260D01*
X36449Y36214D01*
X36678Y35984D02*
X36770D01*
X36724D01*
Y36260D01*
X36678Y36214D01*
X36357Y37277D02*
X36311Y37323D01*
X36219D01*
X36173Y37277D01*
Y37093D01*
X36219Y37047D01*
X36311D01*
X36357Y37093D01*
X36449Y37047D02*
X36540D01*
X36494D01*
Y37323D01*
X36449Y37277D01*
X36678D02*
X36724Y37323D01*
X36816D01*
X36862Y37277D01*
Y37093D01*
X36816Y37047D01*
X36724D01*
X36678Y37093D01*
Y37277D01*
X36357Y38261D02*
X36311Y38307D01*
X36219D01*
X36173Y38261D01*
Y38077D01*
X36219Y38031D01*
X36311D01*
X36357Y38077D01*
X36449D02*
X36494Y38031D01*
X36586D01*
X36632Y38077D01*
Y38261D01*
X36586Y38307D01*
X36494D01*
X36449Y38261D01*
Y38215D01*
X36494Y38169D01*
X36632D01*
X36357Y39245D02*
X36311Y39291D01*
X36219D01*
X36173Y39245D01*
Y39062D01*
X36219Y39016D01*
X36311D01*
X36357Y39062D01*
X36449Y39245D02*
X36494Y39291D01*
X36586D01*
X36632Y39245D01*
Y39199D01*
X36586Y39153D01*
X36632Y39108D01*
Y39062D01*
X36586Y39016D01*
X36494D01*
X36449Y39062D01*
Y39108D01*
X36494Y39153D01*
X36449Y39199D01*
Y39245D01*
X36494Y39153D02*
X36586D01*
X36357Y40355D02*
X36311Y40401D01*
X36219D01*
X36173Y40355D01*
Y40172D01*
X36219Y40126D01*
X36311D01*
X36357Y40172D01*
X36449Y40401D02*
X36632D01*
Y40355D01*
X36449Y40172D01*
Y40126D01*
X36357Y41568D02*
X36311Y41614D01*
X36219D01*
X36173Y41568D01*
Y41385D01*
X36219Y41339D01*
X36311D01*
X36357Y41385D01*
X36632Y41614D02*
X36540Y41568D01*
X36449Y41476D01*
Y41385D01*
X36494Y41339D01*
X36586D01*
X36632Y41385D01*
Y41430D01*
X36586Y41476D01*
X36449D01*
X32467Y34718D02*
X32421Y34764D01*
X32329D01*
X32283Y34718D01*
Y34534D01*
X32329Y34488D01*
X32421D01*
X32467Y34534D01*
X32743Y34764D02*
X32559D01*
Y34626D01*
X32651Y34672D01*
X32697D01*
X32743Y34626D01*
Y34534D01*
X32697Y34488D01*
X32605D01*
X32559Y34534D01*
X52404Y38352D02*
X52358Y38398D01*
X52266D01*
X52220Y38352D01*
Y38168D01*
X52266Y38122D01*
X52358D01*
X52404Y38168D01*
X52633Y38122D02*
Y38398D01*
X52496Y38260D01*
X52679D01*
X67664Y28642D02*
X67618Y28688D01*
X67526D01*
X67480Y28642D01*
Y28458D01*
X67526Y28412D01*
X67618D01*
X67664Y28458D01*
X67756Y28642D02*
X67801Y28688D01*
X67893D01*
X67939Y28642D01*
Y28596D01*
X67893Y28550D01*
X67847D01*
X67893D01*
X67939Y28504D01*
Y28458D01*
X67893Y28412D01*
X67801D01*
X67756Y28458D01*
X60534Y29642D02*
X60488Y29688D01*
X60396D01*
X60350Y29642D01*
Y29458D01*
X60396Y29412D01*
X60488D01*
X60534Y29458D01*
X60809Y29412D02*
X60626D01*
X60809Y29596D01*
Y29642D01*
X60763Y29688D01*
X60672D01*
X60626Y29642D01*
X54318Y46450D02*
X54272Y46496D01*
X54180D01*
X54134Y46450D01*
Y46266D01*
X54180Y46220D01*
X54272D01*
X54318Y46266D01*
X54409Y46220D02*
X54501D01*
X54455D01*
Y46496D01*
X54409Y46450D01*
D19*
X75480Y25394D02*
D03*
Y8209D02*
D03*
Y18819D02*
D03*
D20*
X40709Y45371D02*
D03*
X48426Y45333D02*
D03*
X46614D02*
D03*
D21*
X14134Y26444D02*
D03*
X16791Y26483D02*
D03*
X19449D02*
D03*
D22*
X68900Y25079D02*
D03*
X60274Y26457D02*
D03*
D23*
X55984Y44565D02*
D03*
M02*
