G04*
G04 #@! TF.GenerationSoftware,Altium Limited,Altium Designer,19.0.12 (326)*
G04*
G04 Layer_Color=16711935*
%FSLAX24Y24*%
%MOIN*%
G70*
G01*
G75*
%ADD10C,0.0060*%
%ADD11C,0.0100*%
%ADD13C,0.0157*%
%ADD14C,0.0079*%
%ADD15C,0.0039*%
%ADD16C,0.0050*%
%ADD17C,0.0060*%
%ADD19R,0.0200X0.0700*%
%ADD20R,0.1000X0.0250*%
%ADD21R,0.0700X0.0200*%
%ADD22R,0.0200X0.0600*%
%ADD23R,0.0600X0.0200*%
%ADD107C,0.0032*%
%ADD108C,0.0040*%
D10*
X21561Y36163D02*
G03*
X21561Y35923I0J-120D01*
G01*
X13082Y36180D02*
G03*
X13082Y35940I0J-120D01*
G01*
X4710Y32699D02*
G03*
X4710Y32459I0J-120D01*
G01*
X33229Y38388D02*
G03*
X33229Y38148I0J-120D01*
G01*
X55549Y38667D02*
G03*
X55789Y38667I120J0D01*
G01*
X19571Y34493D02*
Y37543D01*
X21561Y34493D02*
Y35923D01*
Y36163D01*
Y37543D01*
X11092Y34510D02*
Y37560D01*
X13082Y34510D02*
Y35940D01*
Y36180D01*
Y37560D01*
X2720Y31029D02*
Y34079D01*
X4710Y31029D02*
Y32459D01*
Y32699D01*
Y34079D01*
X28119Y35968D02*
Y40568D01*
X33229Y35968D02*
Y40568D01*
X54169Y36677D02*
X57219D01*
X55789Y38667D02*
X57219D01*
X55549D02*
X55789D01*
X54169D02*
X55549D01*
D11*
X69179Y20720D02*
Y21770D01*
Y20720D02*
X70979D01*
Y21770D01*
X69179D02*
X70979D01*
X49297Y41862D02*
Y42912D01*
Y41862D02*
X51097D01*
Y42912D01*
X49297D02*
X51097D01*
X64179Y34343D02*
Y35393D01*
Y34343D02*
X65979D01*
Y35393D01*
X64179D02*
X65979D01*
X61817Y13476D02*
Y14526D01*
Y13476D02*
X63617D01*
Y14526D01*
X61817D02*
X63617D01*
X60041Y20163D02*
X61091D01*
Y21963D01*
X60041D02*
X61091D01*
X60041Y20163D02*
Y21963D01*
X56978Y48791D02*
Y49841D01*
Y48791D02*
X58778D01*
Y49841D01*
X56978D02*
X58778D01*
X17689Y40329D02*
X18739D01*
X17689Y38529D02*
Y40329D01*
Y38529D02*
X18739D01*
Y40329D01*
X9211Y40346D02*
X10261D01*
X9211Y38546D02*
Y40346D01*
Y38546D02*
X10261D01*
Y40346D01*
X839Y36865D02*
X1889D01*
X839Y35065D02*
Y36865D01*
Y35065D02*
X1889D01*
Y36865D01*
X20104Y32787D02*
Y33837D01*
Y32787D02*
X21904D01*
Y33837D01*
X20104D02*
X21904D01*
X11626Y32804D02*
Y33854D01*
Y32804D02*
X13426D01*
Y33854D01*
X11626D02*
X13426D01*
X3254Y29323D02*
Y30373D01*
Y29323D02*
X5054D01*
Y30373D01*
X3254D02*
X5054D01*
X24660Y36438D02*
Y37488D01*
X22860D02*
X24660D01*
X22860Y36438D02*
Y37488D01*
Y36438D02*
X24660D01*
X16181Y36455D02*
Y37505D01*
X14381D02*
X16181D01*
X14381Y36455D02*
Y37505D01*
Y36455D02*
X16181D01*
X7809Y32974D02*
Y34024D01*
X6009D02*
X7809D01*
X6009Y32974D02*
Y34024D01*
Y32974D02*
X7809D01*
X19778Y47222D02*
Y50686D01*
X20297Y51119D02*
X23053D01*
X23573Y47222D02*
Y50686D01*
X23250Y47222D02*
X23573D01*
X22659D02*
X23053D01*
X21478D02*
X22108D01*
X20297D02*
X20927D01*
X19778D02*
X20100D01*
X23053Y51119D02*
X23573Y50686D01*
X19778D02*
X20297Y51119D01*
X23053Y47222D02*
X23250D01*
X20100D02*
X20297D01*
X22108D02*
X22659D01*
X20927D02*
X21478D01*
X11299Y47239D02*
Y50703D01*
X11819Y51136D02*
X14575D01*
X15094Y47239D02*
Y50703D01*
X14772Y47239D02*
X15094D01*
X14181D02*
X14575D01*
X13000D02*
X13630D01*
X11819D02*
X12449D01*
X11299D02*
X11622D01*
X14575Y51136D02*
X15094Y50703D01*
X11299D02*
X11819Y51136D01*
X14575Y47239D02*
X14772D01*
X11622D02*
X11819D01*
X13630D02*
X14181D01*
X12449D02*
X13000D01*
X4520Y47224D02*
Y50689D01*
X5039Y51122D02*
X7795D01*
X8315Y47224D02*
Y50689D01*
X7992Y47224D02*
X8315D01*
X7402D02*
X7795D01*
X6220D02*
X6850D01*
X5039D02*
X5669D01*
X4520D02*
X4843D01*
X7795Y51122D02*
X8315Y50689D01*
X4520D02*
X5039Y51122D01*
X7795Y47224D02*
X7992D01*
X4843D02*
X5039D01*
X6850D02*
X7402D01*
X5669D02*
X6220D01*
X42446Y4753D02*
Y4553D01*
Y4653D01*
X42946D01*
X43046Y4553D01*
Y4454D01*
X42946Y4354D01*
X42446Y4953D02*
Y5353D01*
X42546D01*
X42946Y4953D01*
X43046D01*
Y5553D02*
X42646D01*
X42446Y5753D01*
X42646Y5953D01*
X43046D01*
X42746D01*
Y5553D01*
X42596Y28703D02*
Y28503D01*
Y28603D01*
X43096D01*
X43196Y28503D01*
Y28404D01*
X43096Y28304D01*
X42596Y28903D02*
Y29303D01*
X42696D01*
X43096Y28903D01*
X43196D01*
X42596Y29503D02*
X43196D01*
Y29803D01*
X43096Y29903D01*
X42996D01*
X42896Y29803D01*
Y29503D01*
Y29803D01*
X42796Y29903D01*
X42696D01*
X42596Y29803D01*
Y29503D01*
D13*
X68951Y40788D02*
G03*
X68951Y40788I-79J0D01*
G01*
D14*
X768Y46575D02*
X1555D01*
Y45236D02*
Y46575D01*
X768Y45236D02*
X1555D01*
X768D02*
Y46575D01*
X75394Y27200D02*
Y27987D01*
X74055Y27200D02*
X75394D01*
X74055D02*
Y27987D01*
X75394D01*
Y10394D02*
Y11181D01*
X74055Y10394D02*
X75394D01*
X74055D02*
Y11181D01*
X75394D01*
X74055Y20669D02*
Y21457D01*
X75394D01*
Y20669D02*
Y21457D01*
X74055Y20669D02*
X75394D01*
X45787Y38799D02*
X46575D01*
Y40138D01*
X45787D02*
X46575D01*
X45787Y38799D02*
Y40138D01*
X41890Y38799D02*
X42677D01*
Y40138D01*
X41890D02*
X42677D01*
X41890Y38799D02*
Y40138D01*
X43839Y38799D02*
X44626D01*
Y40138D01*
X43839D02*
X44626D01*
X43839Y38799D02*
Y40138D01*
X40236Y47598D02*
Y48386D01*
Y47598D02*
X41575D01*
Y48386D01*
X40236D02*
X41575D01*
X50787Y45886D02*
X51575D01*
X50787D02*
Y47224D01*
X51575D01*
Y45886D02*
Y47224D01*
X47579Y47598D02*
Y48386D01*
X46240D02*
X47579D01*
X46240Y47598D02*
Y48386D01*
Y47598D02*
X47579D01*
X58032Y37008D02*
X58819D01*
X58032D02*
Y38346D01*
X58819D01*
Y37008D02*
Y38346D01*
X20413Y43661D02*
X21201D01*
X20413D02*
Y45000D01*
X21201D01*
Y43661D02*
Y45000D01*
X11935Y43678D02*
X12722D01*
X11935D02*
Y45017D01*
X12722D01*
Y43678D02*
Y45017D01*
X3563Y40197D02*
X4350D01*
X3563D02*
Y41535D01*
X4350D01*
Y40197D02*
Y41535D01*
X20866Y39134D02*
Y39921D01*
X19528Y39134D02*
X20866D01*
X19528D02*
Y39921D01*
X20866D01*
X12388Y39151D02*
Y39938D01*
X11049Y39151D02*
X12388D01*
X11049D02*
Y39938D01*
X12388D01*
X4016Y35669D02*
Y36457D01*
X2677Y35669D02*
X4016D01*
X2677D02*
Y36457D01*
X4016D01*
X17638Y42579D02*
X18425D01*
Y41240D02*
Y42579D01*
X17638Y41240D02*
X18425D01*
X17638D02*
Y42579D01*
X9159Y42596D02*
X9947D01*
Y41257D02*
Y42596D01*
X9159Y41257D02*
X9947D01*
X9159D02*
Y42596D01*
X787Y39114D02*
X1575D01*
Y37776D02*
Y39114D01*
X787Y37776D02*
X1575D01*
X787D02*
Y39114D01*
X22005Y46791D02*
X22793D01*
Y45453D02*
Y46791D01*
X22005Y45453D02*
X22793D01*
X22005D02*
Y46791D01*
X13527Y46808D02*
X14314D01*
Y45470D02*
Y46808D01*
X13527Y45470D02*
X14314D01*
X13527D02*
Y46808D01*
X1890Y43125D02*
Y43912D01*
X3228D01*
Y43125D02*
Y43912D01*
X1890Y43125D02*
X3228D01*
X17854Y46102D02*
Y46890D01*
X19193D01*
Y46102D02*
Y46890D01*
X17854Y46102D02*
X19193D01*
X9376Y46119D02*
Y46907D01*
X10715D01*
Y46119D02*
Y46907D01*
X9376Y46119D02*
X10715D01*
X19193Y47618D02*
Y48406D01*
X17854Y47618D02*
X19193D01*
X17854D02*
Y48406D01*
X19193D01*
X10715Y47635D02*
Y48422D01*
X9376Y47635D02*
X10715D01*
X9376D02*
Y48422D01*
X10715D01*
X4705Y45886D02*
Y46673D01*
X3366Y45886D02*
X4705D01*
X3366D02*
Y46673D01*
X4705D01*
X23012Y43130D02*
Y43917D01*
X24350D01*
Y43130D02*
Y43917D01*
X23012Y43130D02*
X24350D01*
X14533Y43147D02*
Y43934D01*
X15872D01*
Y43147D02*
Y43934D01*
X14533Y43147D02*
X15872D01*
X6161Y39665D02*
Y40453D01*
X7500D01*
Y39665D02*
Y40453D01*
X6161Y39665D02*
X7500D01*
X22598Y35689D02*
X23386D01*
Y34350D02*
Y35689D01*
X22598Y34350D02*
X23386D01*
X22598D02*
Y35689D01*
X14120Y35706D02*
X14907D01*
Y34367D02*
Y35706D01*
X14120Y34367D02*
X14907D01*
X14120D02*
Y35706D01*
X5748Y32224D02*
X6535D01*
Y30886D02*
Y32224D01*
X5748Y30886D02*
X6535D01*
X5748D02*
Y32224D01*
X24331Y39094D02*
Y39882D01*
X22992Y39094D02*
X24331D01*
X22992D02*
Y39882D01*
X24331D01*
X15852Y39111D02*
Y39899D01*
X14514Y39111D02*
X15852D01*
X14514D02*
Y39899D01*
X15852D01*
X7480Y35630D02*
Y36417D01*
X6142Y35630D02*
X7480D01*
X6142D02*
Y36417D01*
X7480D01*
X24567Y46201D02*
X25354D01*
Y44862D02*
Y46201D01*
X24567Y44862D02*
X25354D01*
X24567D02*
Y46201D01*
X16089Y46218D02*
X16876D01*
Y44879D02*
Y46218D01*
X16089Y44879D02*
X16876D01*
X16089D02*
Y46218D01*
X6713Y42461D02*
Y43248D01*
X8051D01*
Y42461D02*
Y43248D01*
X6713Y42461D02*
X8051D01*
X24567Y48602D02*
X25354D01*
Y47264D02*
Y48602D01*
X24567Y47264D02*
X25354D01*
X24567D02*
Y48602D01*
X16089Y48619D02*
X16876D01*
Y47281D02*
Y48619D01*
X16089Y47281D02*
X16876D01*
X16089D02*
Y48619D01*
X8051Y44173D02*
Y44961D01*
X6713Y44173D02*
X8051D01*
X6713D02*
Y44961D01*
X8051D01*
X24567Y50787D02*
X25354D01*
Y49449D02*
Y50787D01*
X24567Y49449D02*
X25354D01*
X24567D02*
Y50787D01*
X16089Y50804D02*
X16876D01*
Y49466D02*
Y50804D01*
X16089Y49466D02*
X16876D01*
X16089D02*
Y50804D01*
X6713Y46102D02*
Y46890D01*
X8051D01*
Y46102D02*
Y46890D01*
X6713Y46102D02*
X8051D01*
X41240Y40585D02*
Y41372D01*
Y40585D02*
X42579D01*
Y41372D01*
X41240D02*
X42579D01*
X43189Y40585D02*
Y41372D01*
Y40585D02*
X44528D01*
Y41372D01*
X43189D02*
X44528D01*
X45138Y40630D02*
Y41417D01*
Y40630D02*
X46476D01*
Y41417D01*
X45138D02*
X46476D01*
X13780Y24764D02*
X14567D01*
Y23425D02*
Y24764D01*
X13780Y23425D02*
X14567D01*
X13780D02*
Y24764D01*
X16437D02*
X17224D01*
Y23425D02*
Y24764D01*
X16437Y23425D02*
X17224D01*
X16437D02*
Y24764D01*
X19094D02*
X19882D01*
Y23425D02*
Y24764D01*
X19094Y23425D02*
X19882D01*
X19094D02*
Y24764D01*
X56376Y40118D02*
X57163D01*
X56376D02*
Y41457D01*
X57163D01*
Y40118D02*
Y41457D01*
X41233Y42298D02*
Y43698D01*
X42583D01*
Y42298D02*
Y43698D01*
X41233Y42298D02*
X42583D01*
X43182Y42298D02*
Y43698D01*
X44532D01*
Y42298D02*
Y43698D01*
X43182Y42298D02*
X44532D01*
X45131Y42298D02*
Y43698D01*
X46481D01*
Y42298D02*
Y43698D01*
X45131Y42298D02*
X46481D01*
X70810Y30348D02*
Y33250D01*
Y30348D02*
X76410D01*
X76446Y31074D02*
Y32525D01*
X70810Y33250D02*
X76446D01*
Y30348D02*
Y31074D01*
Y32525D02*
Y33250D01*
X60400Y45540D02*
Y46215D01*
Y43515D02*
Y44190D01*
X65900Y43515D02*
Y46215D01*
X60400D02*
X65900D01*
X60400Y43515D02*
X65900D01*
X60400Y44190D02*
Y45540D01*
X69404Y30500D02*
Y31175D01*
Y32525D02*
Y33200D01*
X63904Y30500D02*
Y33200D01*
Y30500D02*
X69404D01*
X63904Y33200D02*
X69404D01*
Y31175D02*
Y32525D01*
X73930Y25744D02*
X75580D01*
X73930Y25044D02*
Y25744D01*
Y25044D02*
X75580D01*
Y25744D01*
X73930Y8559D02*
X75580D01*
X73930Y7859D02*
Y8559D01*
Y7859D02*
X75580D01*
Y8559D01*
X73930Y19169D02*
X75580D01*
X73930Y18469D02*
Y19169D01*
Y18469D02*
X75580D01*
Y19169D01*
X41209Y45246D02*
Y47546D01*
X40209D02*
X41209D01*
X40209Y45246D02*
Y47546D01*
Y45246D02*
X41209D01*
X48926Y45208D02*
Y47508D01*
X47926D02*
X48926D01*
X47926Y45208D02*
Y47508D01*
Y45208D02*
X48926D01*
X47114D02*
Y47508D01*
X46114D02*
X47114D01*
X46114Y45208D02*
Y47508D01*
Y45208D02*
X47114D01*
X14484Y26344D02*
Y27994D01*
X13784D02*
X14484D01*
X13784Y26344D02*
Y27994D01*
Y26344D02*
X14484D01*
X17141Y26383D02*
Y28033D01*
X16441D02*
X17141D01*
X16441Y26383D02*
Y28033D01*
Y26383D02*
X17141D01*
X19799D02*
Y28033D01*
X19099D02*
X19799D01*
X19099Y26383D02*
Y28033D01*
Y26383D02*
X19799D01*
X67450Y24779D02*
Y25379D01*
Y24779D02*
X69000D01*
Y25379D01*
X67450D02*
X69000D01*
X61724Y26157D02*
Y26757D01*
X60174D02*
X61724D01*
X60174Y26157D02*
Y26757D01*
Y26157D02*
X61724D01*
X55684Y46015D02*
X56284D01*
X55684Y44465D02*
Y46015D01*
Y44465D02*
X56284D01*
Y46015D01*
X41594Y45315D02*
Y46102D01*
X40177D02*
X41594D01*
X40177Y45315D02*
Y46102D01*
Y45315D02*
X41594D01*
X49193Y45415D02*
Y46202D01*
X50610D01*
Y45415D02*
Y46202D01*
X49193Y45415D02*
X50610D01*
X46201Y45310D02*
Y46097D01*
Y45310D02*
X47618D01*
Y46097D01*
X46201D02*
X47618D01*
X19114Y43560D02*
Y44348D01*
X17697Y43560D02*
X19114D01*
X17697D02*
Y44348D01*
X19114D01*
X10636Y43577D02*
Y44365D01*
X9218Y43577D02*
X10636D01*
X9218D02*
Y44365D01*
X10636D01*
X2264Y40096D02*
Y40883D01*
X846Y40096D02*
X2264D01*
X846D02*
Y40883D01*
X2264D01*
X20906Y41142D02*
Y41929D01*
X19488Y41142D02*
X20906D01*
X19488D02*
Y41929D01*
X20906D01*
X12427Y41159D02*
Y41946D01*
X11010Y41159D02*
X12427D01*
X11010D02*
Y41946D01*
X12427D01*
X4055Y37677D02*
Y38465D01*
X2638Y37677D02*
X4055D01*
X2638D02*
Y38465D01*
X4055D01*
X17697Y33406D02*
Y34193D01*
X19114D01*
Y33406D02*
Y34193D01*
X17697Y33406D02*
X19114D01*
X9218Y33422D02*
Y34210D01*
X10636D01*
Y33422D02*
Y34210D01*
X9218Y33422D02*
X10636D01*
X846Y29941D02*
Y30728D01*
X2264D01*
Y29941D02*
Y30728D01*
X846Y29941D02*
X2264D01*
X18236Y36496D02*
X19023D01*
Y35079D02*
Y36496D01*
X18236Y35079D02*
X19023D01*
X18236D02*
Y36496D01*
X9757Y36513D02*
X10545D01*
Y35096D02*
Y36513D01*
X9757Y35096D02*
X10545D01*
X9757D02*
Y36513D01*
X1385Y33031D02*
X2173D01*
Y31614D02*
Y33031D01*
X1385Y31614D02*
X2173D01*
X1385D02*
Y33031D01*
X22953Y41142D02*
Y41929D01*
X24370D01*
Y41142D02*
Y41929D01*
X22953Y41142D02*
X24370D01*
X14474Y41159D02*
Y41946D01*
X15892D01*
Y41159D02*
Y41946D01*
X14474Y41159D02*
X15892D01*
X6102Y37677D02*
Y38465D01*
X7520D01*
Y37677D02*
Y38465D01*
X6102Y37677D02*
X7520D01*
X24193Y35728D02*
X24980D01*
Y34311D02*
Y35728D01*
X24193Y34311D02*
X24980D01*
X24193D02*
Y35728D01*
X15715Y35745D02*
X16502D01*
Y34328D02*
Y35745D01*
X15715Y34328D02*
X16502D01*
X15715D02*
Y35745D01*
X7343Y32264D02*
X8130D01*
Y30846D02*
Y32264D01*
X7343Y30846D02*
X8130D01*
X7343D02*
Y32264D01*
X26743Y34252D02*
X27530D01*
X26743D02*
Y35669D01*
X27530D01*
Y34252D02*
Y35669D01*
X26732Y37520D02*
X27520D01*
Y36102D02*
Y37520D01*
X26732Y36102D02*
X27520D01*
X26732D02*
Y37520D01*
Y41496D02*
X27520D01*
X26732D02*
Y42913D01*
X27520D01*
Y41496D02*
Y42913D01*
X26732Y41122D02*
X27520D01*
Y39705D02*
Y41122D01*
X26732Y39705D02*
X27520D01*
X26732D02*
Y41122D01*
Y37953D02*
X27520D01*
X26732D02*
Y39370D01*
X27520D01*
Y37953D02*
Y39370D01*
X35531Y35709D02*
Y36496D01*
X34114Y35709D02*
X35531D01*
X34114D02*
Y36496D01*
X35531D01*
Y36693D02*
Y37480D01*
X34114Y36693D02*
X35531D01*
X34114D02*
Y37480D01*
X35531D01*
Y37677D02*
Y38465D01*
X34114Y37677D02*
X35531D01*
X34114D02*
Y38465D01*
X35531D01*
Y38661D02*
Y39449D01*
X34114Y38661D02*
X35531D01*
X34114D02*
Y39449D01*
X35531D01*
Y39843D02*
Y40630D01*
X34114Y39843D02*
X35531D01*
X34114D02*
Y40630D01*
X35531D01*
X35551Y40984D02*
Y41772D01*
X34134Y40984D02*
X35551D01*
X34134D02*
Y41772D01*
X35551D01*
X34311Y34449D02*
Y35236D01*
X32894Y34449D02*
X34311D01*
X32894D02*
Y35236D01*
X34311D01*
X52205Y37033D02*
Y37821D01*
X53622D01*
Y37033D02*
Y37821D01*
X52205Y37033D02*
X53622D01*
X68878Y27323D02*
Y28110D01*
X67461Y27323D02*
X68878D01*
X67461D02*
Y28110D01*
X68878D01*
X60335Y28327D02*
Y29114D01*
X61752D01*
Y28327D02*
Y29114D01*
X60335Y28327D02*
X61752D01*
X54114Y44626D02*
X54902D01*
X54114D02*
Y46043D01*
X54902D01*
Y44626D02*
Y46043D01*
X44239Y5236D02*
X44108D01*
X44173D01*
Y4908D01*
X44108Y4843D01*
X44042D01*
X43976Y4908D01*
X44370Y5236D02*
X44632D01*
Y5171D01*
X44370Y4908D01*
Y4843D01*
X44764D02*
Y5105D01*
X44895Y5236D01*
X45026Y5105D01*
Y4843D01*
Y5039D01*
X44764D01*
X44003Y29409D02*
X43871D01*
X43937D01*
Y29081D01*
X43871Y29016D01*
X43806D01*
X43740Y29081D01*
X44134Y29409D02*
X44396D01*
Y29344D01*
X44134Y29081D01*
Y29016D01*
X44527Y29409D02*
Y29016D01*
X44724D01*
X44790Y29081D01*
Y29147D01*
X44724Y29213D01*
X44527D01*
X44724D01*
X44790Y29278D01*
Y29344D01*
X44724Y29409D01*
X44527D01*
D15*
X57768Y44303D02*
Y45303D01*
Y46303D02*
X58768D01*
X57768Y45253D02*
Y46303D01*
Y44303D02*
X58768D01*
Y46303D01*
X66429Y12280D02*
Y15280D01*
X67429D01*
Y12280D02*
Y14330D01*
X66429Y12280D02*
X67429D01*
Y14280D02*
Y15280D01*
X64043Y15760D02*
X65043D01*
X63043D02*
Y16760D01*
Y15760D02*
X64093D01*
X65043D02*
Y16760D01*
X63043D02*
X65043D01*
X62217Y22752D02*
Y25752D01*
X63217D01*
Y22752D02*
Y24802D01*
X62217Y22752D02*
X63217D01*
Y24752D02*
Y25752D01*
X63618Y27571D02*
X66618D01*
X63618D02*
Y28571D01*
X64568D02*
X66618D01*
Y27571D02*
Y28571D01*
X63618D02*
X64618D01*
X30875Y39698D02*
X30645D01*
X30599Y39652D01*
Y39560D01*
X30645Y39514D01*
X30875D01*
X30599Y39239D02*
Y39422D01*
X30783Y39239D01*
X30829D01*
X30875Y39284D01*
Y39376D01*
X30829Y39422D01*
X41816Y42530D02*
X41947D01*
X41980Y42497D01*
Y42431D01*
X41947Y42398D01*
X41816D01*
X41783Y42431D01*
Y42497D01*
X41849Y42464D02*
X41783Y42530D01*
Y42497D02*
X41816Y42530D01*
X41947Y42595D02*
X41980Y42628D01*
Y42694D01*
X41947Y42726D01*
X41915D01*
X41882Y42694D01*
Y42661D01*
Y42694D01*
X41849Y42726D01*
X41816D01*
X41783Y42694D01*
Y42628D01*
X41816Y42595D01*
X43765Y42530D02*
X43896D01*
X43929Y42497D01*
Y42431D01*
X43896Y42398D01*
X43765D01*
X43732Y42431D01*
Y42497D01*
X43798Y42464D02*
X43732Y42530D01*
Y42497D02*
X43765Y42530D01*
X43732Y42726D02*
Y42595D01*
X43863Y42726D01*
X43896D01*
X43929Y42694D01*
Y42628D01*
X43896Y42595D01*
X45714Y42530D02*
X45845D01*
X45878Y42497D01*
Y42431D01*
X45845Y42398D01*
X45714D01*
X45681Y42431D01*
Y42497D01*
X45747Y42464D02*
X45681Y42530D01*
Y42497D02*
X45714Y42530D01*
X45681Y42595D02*
Y42661D01*
Y42628D01*
X45878D01*
X45845Y42595D01*
X73234Y30483D02*
Y30391D01*
Y30437D01*
X73464D01*
X73510Y30391D01*
Y30345D01*
X73464Y30299D01*
X73510Y30575D02*
Y30667D01*
Y30621D01*
X73234D01*
X73280Y30575D01*
X63080Y45235D02*
X62900D01*
Y45100D01*
X62990D01*
X62900D01*
Y44965D01*
X63349D02*
X63170D01*
X63349Y45145D01*
Y45190D01*
X63305Y45235D01*
X63215D01*
X63170Y45190D01*
X66724Y31480D02*
X66904D01*
Y31615D01*
X66814D01*
X66904D01*
Y31750D01*
X66634D02*
X66544D01*
X66589D01*
Y31480D01*
X66634Y31525D01*
X75280Y25317D02*
Y25514D01*
X75181D01*
X75148Y25481D01*
Y25350D01*
X75181Y25317D01*
X75280D01*
X75083Y25514D02*
X75017D01*
X75050D01*
Y25317D01*
X75083Y25350D01*
X74788Y25514D02*
X74919D01*
X74788Y25383D01*
Y25350D01*
X74820Y25317D01*
X74886D01*
X74919Y25350D01*
X75280Y8132D02*
Y8329D01*
X75181D01*
X75148Y8296D01*
Y8165D01*
X75181Y8132D01*
X75280D01*
X75083Y8329D02*
X75017D01*
X75050D01*
Y8132D01*
X75083Y8165D01*
X74919Y8329D02*
X74853D01*
X74886D01*
Y8132D01*
X74919Y8165D01*
X75280Y18742D02*
Y18939D01*
X75181D01*
X75148Y18906D01*
Y18775D01*
X75181Y18742D01*
X75280D01*
X75083Y18939D02*
X75017D01*
X75050D01*
Y18742D01*
X75083Y18775D01*
X74919D02*
X74886Y18742D01*
X74820D01*
X74788Y18775D01*
Y18906D01*
X74820Y18939D01*
X74886D01*
X74919Y18906D01*
Y18775D01*
X14057Y26644D02*
X14254D01*
Y26742D01*
X14221Y26775D01*
X14090D01*
X14057Y26742D01*
Y26644D01*
Y26972D02*
X14090Y26906D01*
X14155Y26841D01*
X14221D01*
X14254Y26874D01*
Y26939D01*
X14221Y26972D01*
X14188D01*
X14155Y26939D01*
Y26841D01*
X16715Y26683D02*
X16911D01*
Y26782D01*
X16879Y26815D01*
X16747D01*
X16715Y26782D01*
Y26683D01*
Y27011D02*
Y26880D01*
X16813D01*
X16780Y26946D01*
Y26979D01*
X16813Y27011D01*
X16879D01*
X16911Y26979D01*
Y26913D01*
X16879Y26880D01*
X19372Y26683D02*
X19569D01*
Y26782D01*
X19536Y26815D01*
X19405D01*
X19372Y26782D01*
Y26683D01*
X19569Y26979D02*
X19372D01*
X19470Y26880D01*
Y27011D01*
X68750Y25032D02*
Y25229D01*
X68651D01*
X68618Y25196D01*
Y25065D01*
X68651Y25032D01*
X68750D01*
X68553Y25065D02*
X68520Y25032D01*
X68454D01*
X68422Y25065D01*
Y25098D01*
X68454Y25130D01*
X68487D01*
X68454D01*
X68422Y25163D01*
Y25196D01*
X68454Y25229D01*
X68520D01*
X68553Y25196D01*
X60424Y26503D02*
Y26307D01*
X60522D01*
X60555Y26339D01*
Y26471D01*
X60522Y26503D01*
X60424D01*
X60752Y26307D02*
X60620D01*
X60752Y26438D01*
Y26471D01*
X60719Y26503D01*
X60653D01*
X60620Y26471D01*
X55937Y44715D02*
X56134D01*
Y44813D01*
X56101Y44846D01*
X55970D01*
X55937Y44813D01*
Y44715D01*
X56134Y44912D02*
Y44977D01*
Y44945D01*
X55937D01*
X55970Y44912D01*
D16*
X45520Y45585D02*
Y51172D01*
X42197D02*
X45520D01*
X42197Y45585D02*
Y51172D01*
Y45585D02*
X45520D01*
X30783Y51141D02*
X38039Y51141D01*
X30783Y45571D02*
Y51141D01*
Y45571D02*
X35320D01*
X38039D02*
Y51141D01*
X35320Y45571D02*
X38039D01*
X326Y11607D02*
X5896D01*
X326Y7307D02*
Y11607D01*
Y7307D02*
X5896D01*
Y11607D01*
X326Y21351D02*
X5896D01*
X326Y17051D02*
Y21351D01*
Y17051D02*
X5896D01*
Y21351D01*
X21906Y3374D02*
X54386D01*
Y30933D01*
X21906D02*
X54386D01*
X21906Y3374D02*
Y30933D01*
X74203Y48813D02*
X76404D01*
Y47303D02*
Y48813D01*
X74203Y47303D02*
X76404D01*
X74203Y38973D02*
X76404D01*
Y37463D02*
Y38973D01*
X74203Y37463D02*
X76404D01*
X74203Y39808D02*
X76553D01*
Y46469D01*
X74203D02*
X76553D01*
X69223Y37073D02*
X74203D01*
Y37463D01*
Y38973D01*
Y39808D01*
Y46469D01*
Y47303D01*
Y48813D01*
Y49203D01*
X69223D02*
X74203D01*
X69223Y37073D02*
Y49203D01*
D17*
X19571Y37543D02*
X21561D01*
X19571Y34493D02*
X21561D01*
X11092Y37560D02*
X13082D01*
X11092Y34510D02*
X13082D01*
X2720Y34079D02*
X4710D01*
X2720Y31029D02*
X4710D01*
X28119Y40568D02*
X33229D01*
X28119Y35968D02*
X33229D01*
X54169Y36677D02*
Y38667D01*
X57219Y36677D02*
Y38667D01*
X33746Y4104D02*
Y6204D01*
X53046D01*
Y4104D02*
Y6204D01*
X33746Y4104D02*
X53046D01*
X33746Y28104D02*
X53046D01*
Y30204D01*
X33746D02*
X53046D01*
X33746Y28104D02*
Y30204D01*
D19*
X75480Y25394D02*
D03*
Y8209D02*
D03*
Y18819D02*
D03*
D20*
X40709Y45371D02*
D03*
X48426Y45333D02*
D03*
X46614D02*
D03*
D21*
X14134Y26444D02*
D03*
X16791Y26483D02*
D03*
X19449D02*
D03*
D22*
X68900Y25079D02*
D03*
X60274Y26457D02*
D03*
D23*
X55984Y44565D02*
D03*
D107*
X1111Y46496D02*
X1229D01*
Y46436D01*
X1210Y46417D01*
X1170D01*
X1151Y46436D01*
Y46496D01*
Y46456D02*
X1111Y46417D01*
Y46377D02*
Y46338D01*
Y46358D01*
X1229D01*
X1210Y46377D01*
X1229Y46200D02*
Y46279D01*
X1170D01*
X1190Y46240D01*
Y46220D01*
X1170Y46200D01*
X1131D01*
X1111Y46220D01*
Y46259D01*
X1131Y46279D01*
X1092Y46161D02*
Y46082D01*
X1229Y46043D02*
X1151D01*
X1111Y46004D01*
X1151Y45964D01*
X1229D01*
X1210Y45846D02*
X1229Y45866D01*
Y45905D01*
X1210Y45925D01*
X1190D01*
X1170Y45905D01*
Y45866D01*
X1151Y45846D01*
X1131D01*
X1111Y45866D01*
Y45905D01*
X1131Y45925D01*
X1229Y45807D02*
X1131D01*
X1111Y45787D01*
Y45748D01*
X1131Y45728D01*
X1229D01*
X1111Y45689D02*
Y45649D01*
Y45669D01*
X1229D01*
X1210Y45689D01*
X75314Y27644D02*
Y27525D01*
X75255D01*
X75236Y27545D01*
Y27585D01*
X75255Y27604D01*
X75314D01*
X75275D02*
X75236Y27644D01*
X75118D02*
X75196D01*
X75118Y27565D01*
Y27545D01*
X75137Y27525D01*
X75177D01*
X75196Y27545D01*
X75078Y27624D02*
X75059Y27644D01*
X75019D01*
X75000Y27624D01*
Y27545D01*
X75019Y27525D01*
X75059D01*
X75078Y27545D01*
Y27565D01*
X75059Y27585D01*
X75000D01*
X75314Y10837D02*
Y10719D01*
X75255D01*
X75236Y10739D01*
Y10778D01*
X75255Y10798D01*
X75314D01*
X75275D02*
X75236Y10837D01*
X75118D02*
X75196D01*
X75118Y10759D01*
Y10739D01*
X75137Y10719D01*
X75177D01*
X75196Y10739D01*
X75078D02*
X75059Y10719D01*
X75019D01*
X75000Y10739D01*
Y10759D01*
X75019Y10778D01*
X75000Y10798D01*
Y10818D01*
X75019Y10837D01*
X75059D01*
X75078Y10818D01*
Y10798D01*
X75059Y10778D01*
X75078Y10759D01*
Y10739D01*
X75059Y10778D02*
X75019D01*
X74134Y21013D02*
Y21131D01*
X74193D01*
X74213Y21111D01*
Y21072D01*
X74193Y21052D01*
X74134D01*
X74174D02*
X74213Y21013D01*
X74331D02*
X74252D01*
X74331Y21092D01*
Y21111D01*
X74312Y21131D01*
X74272D01*
X74252Y21111D01*
X74371Y21131D02*
X74449D01*
Y21111D01*
X74371Y21033D01*
Y21013D01*
X46131Y38879D02*
X46249D01*
Y38938D01*
X46229Y38957D01*
X46190D01*
X46170Y38938D01*
Y38879D01*
Y38918D02*
X46131Y38957D01*
Y39075D02*
Y38997D01*
X46210Y39075D01*
X46229D01*
X46249Y39056D01*
Y39016D01*
X46229Y38997D01*
X46249Y39193D02*
X46229Y39154D01*
X46190Y39115D01*
X46151D01*
X46131Y39134D01*
Y39174D01*
X46151Y39193D01*
X46170D01*
X46190Y39174D01*
Y39115D01*
X42233Y38879D02*
X42352D01*
Y38938D01*
X42332Y38957D01*
X42292D01*
X42273Y38938D01*
Y38879D01*
Y38918D02*
X42233Y38957D01*
Y39075D02*
Y38997D01*
X42312Y39075D01*
X42332D01*
X42352Y39056D01*
Y39016D01*
X42332Y38997D01*
X42352Y39193D02*
Y39115D01*
X42292D01*
X42312Y39154D01*
Y39174D01*
X42292Y39193D01*
X42253D01*
X42233Y39174D01*
Y39134D01*
X42253Y39115D01*
X44182Y38879D02*
X44300D01*
Y38938D01*
X44281Y38957D01*
X44241D01*
X44222Y38938D01*
Y38879D01*
Y38918D02*
X44182Y38957D01*
Y39075D02*
Y38997D01*
X44261Y39075D01*
X44281D01*
X44300Y39056D01*
Y39016D01*
X44281Y38997D01*
X44182Y39174D02*
X44300D01*
X44241Y39115D01*
Y39193D01*
X40316Y48042D02*
Y47924D01*
X40375D01*
X40394Y47944D01*
Y47983D01*
X40375Y48003D01*
X40316D01*
X40355D02*
X40394Y48042D01*
X40512D02*
X40434D01*
X40512Y47963D01*
Y47944D01*
X40493Y47924D01*
X40453D01*
X40434Y47944D01*
X40552D02*
X40571Y47924D01*
X40611D01*
X40630Y47944D01*
Y47963D01*
X40611Y47983D01*
X40591D01*
X40611D01*
X40630Y48003D01*
Y48022D01*
X40611Y48042D01*
X40571D01*
X40552Y48022D01*
X51231Y45965D02*
X51113D01*
Y46024D01*
X51133Y46044D01*
X51172D01*
X51192Y46024D01*
Y45965D01*
Y46004D02*
X51231Y46044D01*
Y46162D02*
Y46083D01*
X51152Y46162D01*
X51133D01*
X51113Y46142D01*
Y46103D01*
X51133Y46083D01*
X51231Y46280D02*
Y46201D01*
X51152Y46280D01*
X51133D01*
X51113Y46260D01*
Y46221D01*
X51133Y46201D01*
X47499Y47942D02*
Y48060D01*
X47440D01*
X47421Y48041D01*
Y48001D01*
X47440Y47981D01*
X47499D01*
X47460D02*
X47421Y47942D01*
X47303D02*
X47381D01*
X47303Y48021D01*
Y48041D01*
X47322Y48060D01*
X47362D01*
X47381Y48041D01*
X47263Y47942D02*
X47224D01*
X47244D01*
Y48060D01*
X47263Y48041D01*
X58475Y37087D02*
X58357D01*
Y37146D01*
X58377Y37166D01*
X58416D01*
X58436Y37146D01*
Y37087D01*
Y37127D02*
X58475Y37166D01*
Y37284D02*
Y37205D01*
X58396Y37284D01*
X58377D01*
X58357Y37264D01*
Y37225D01*
X58377Y37205D01*
Y37323D02*
X58357Y37343D01*
Y37382D01*
X58377Y37402D01*
X58456D01*
X58475Y37382D01*
Y37343D01*
X58456Y37323D01*
X58377D01*
X20857Y43741D02*
X20739D01*
Y43800D01*
X20759Y43819D01*
X20798D01*
X20818Y43800D01*
Y43741D01*
Y43780D02*
X20857Y43819D01*
Y43859D02*
Y43898D01*
Y43878D01*
X20739D01*
X20759Y43859D01*
X20837Y43957D02*
X20857Y43977D01*
Y44016D01*
X20837Y44036D01*
X20759D01*
X20739Y44016D01*
Y43977D01*
X20759Y43957D01*
X20778D01*
X20798Y43977D01*
Y44036D01*
X20877Y44075D02*
Y44154D01*
X20739Y44193D02*
X20818D01*
X20857Y44233D01*
X20818Y44272D01*
X20739D01*
X20759Y44390D02*
X20739Y44370D01*
Y44331D01*
X20759Y44311D01*
X20778D01*
X20798Y44331D01*
Y44370D01*
X20818Y44390D01*
X20837D01*
X20857Y44370D01*
Y44331D01*
X20837Y44311D01*
X20739Y44429D02*
X20837D01*
X20857Y44449D01*
Y44489D01*
X20837Y44508D01*
X20739D01*
X20759Y44548D02*
X20739Y44567D01*
Y44607D01*
X20759Y44626D01*
X20778D01*
X20798Y44607D01*
Y44587D01*
Y44607D01*
X20818Y44626D01*
X20837D01*
X20857Y44607D01*
Y44567D01*
X20837Y44548D01*
X12379Y43758D02*
X12261D01*
Y43817D01*
X12280Y43836D01*
X12320D01*
X12339Y43817D01*
Y43758D01*
Y43797D02*
X12379Y43836D01*
Y43876D02*
Y43915D01*
Y43895D01*
X12261D01*
X12280Y43876D01*
X12359Y43974D02*
X12379Y43994D01*
Y44033D01*
X12359Y44053D01*
X12280D01*
X12261Y44033D01*
Y43994D01*
X12280Y43974D01*
X12300D01*
X12320Y43994D01*
Y44053D01*
X12398Y44092D02*
Y44171D01*
X12261Y44210D02*
X12339D01*
X12379Y44250D01*
X12339Y44289D01*
X12261D01*
X12280Y44407D02*
X12261Y44387D01*
Y44348D01*
X12280Y44328D01*
X12300D01*
X12320Y44348D01*
Y44387D01*
X12339Y44407D01*
X12359D01*
X12379Y44387D01*
Y44348D01*
X12359Y44328D01*
X12261Y44446D02*
X12359D01*
X12379Y44466D01*
Y44505D01*
X12359Y44525D01*
X12261D01*
X12379Y44643D02*
Y44564D01*
X12300Y44643D01*
X12280D01*
X12261Y44623D01*
Y44584D01*
X12280Y44564D01*
X4007Y40276D02*
X3889D01*
Y40335D01*
X3908Y40355D01*
X3948D01*
X3967Y40335D01*
Y40276D01*
Y40315D02*
X4007Y40355D01*
Y40394D02*
Y40434D01*
Y40414D01*
X3889D01*
X3908Y40394D01*
X3987Y40493D02*
X4007Y40512D01*
Y40552D01*
X3987Y40571D01*
X3908D01*
X3889Y40552D01*
Y40512D01*
X3908Y40493D01*
X3928D01*
X3948Y40512D01*
Y40571D01*
X4026Y40611D02*
Y40689D01*
X3889Y40729D02*
X3967D01*
X4007Y40768D01*
X3967Y40807D01*
X3889D01*
X3908Y40926D02*
X3889Y40906D01*
Y40866D01*
X3908Y40847D01*
X3928D01*
X3948Y40866D01*
Y40906D01*
X3967Y40926D01*
X3987D01*
X4007Y40906D01*
Y40866D01*
X3987Y40847D01*
X3889Y40965D02*
X3987D01*
X4007Y40985D01*
Y41024D01*
X3987Y41044D01*
X3889D01*
X4007Y41083D02*
Y41122D01*
Y41103D01*
X3889D01*
X3908Y41083D01*
X20787Y39578D02*
Y39459D01*
X20728D01*
X20708Y39479D01*
Y39519D01*
X20728Y39538D01*
X20787D01*
X20747D02*
X20708Y39578D01*
X20669D02*
X20629D01*
X20649D01*
Y39459D01*
X20669Y39479D01*
X20570D02*
X20551Y39459D01*
X20511D01*
X20492Y39479D01*
Y39499D01*
X20511Y39519D01*
X20492Y39538D01*
Y39558D01*
X20511Y39578D01*
X20551D01*
X20570Y39558D01*
Y39538D01*
X20551Y39519D01*
X20570Y39499D01*
Y39479D01*
X20551Y39519D02*
X20511D01*
X20452Y39597D02*
X20374D01*
X20334Y39459D02*
Y39538D01*
X20295Y39578D01*
X20256Y39538D01*
Y39459D01*
X20137Y39479D02*
X20157Y39459D01*
X20196D01*
X20216Y39479D01*
Y39499D01*
X20196Y39519D01*
X20157D01*
X20137Y39538D01*
Y39558D01*
X20157Y39578D01*
X20196D01*
X20216Y39558D01*
X20098Y39459D02*
Y39558D01*
X20078Y39578D01*
X20039D01*
X20019Y39558D01*
Y39459D01*
X19980Y39479D02*
X19960Y39459D01*
X19921D01*
X19901Y39479D01*
Y39499D01*
X19921Y39519D01*
X19941D01*
X19921D01*
X19901Y39538D01*
Y39558D01*
X19921Y39578D01*
X19960D01*
X19980Y39558D01*
X12308Y39594D02*
Y39476D01*
X12249D01*
X12230Y39496D01*
Y39535D01*
X12249Y39555D01*
X12308D01*
X12269D02*
X12230Y39594D01*
X12190D02*
X12151D01*
X12171D01*
Y39476D01*
X12190Y39496D01*
X12092D02*
X12072Y39476D01*
X12033D01*
X12013Y39496D01*
Y39516D01*
X12033Y39535D01*
X12013Y39555D01*
Y39575D01*
X12033Y39594D01*
X12072D01*
X12092Y39575D01*
Y39555D01*
X12072Y39535D01*
X12092Y39516D01*
Y39496D01*
X12072Y39535D02*
X12033D01*
X11974Y39614D02*
X11895D01*
X11856Y39476D02*
Y39555D01*
X11817Y39594D01*
X11777Y39555D01*
Y39476D01*
X11659Y39496D02*
X11679Y39476D01*
X11718D01*
X11738Y39496D01*
Y39516D01*
X11718Y39535D01*
X11679D01*
X11659Y39555D01*
Y39575D01*
X11679Y39594D01*
X11718D01*
X11738Y39575D01*
X11620Y39476D02*
Y39575D01*
X11600Y39594D01*
X11561D01*
X11541Y39575D01*
Y39476D01*
X11423Y39594D02*
X11502D01*
X11423Y39516D01*
Y39496D01*
X11443Y39476D01*
X11482D01*
X11502Y39496D01*
X3936Y36113D02*
Y35995D01*
X3877D01*
X3858Y36015D01*
Y36054D01*
X3877Y36074D01*
X3936D01*
X3897D02*
X3858Y36113D01*
X3818D02*
X3779D01*
X3799D01*
Y35995D01*
X3818Y36015D01*
X3720D02*
X3700Y35995D01*
X3661D01*
X3641Y36015D01*
Y36034D01*
X3661Y36054D01*
X3641Y36074D01*
Y36093D01*
X3661Y36113D01*
X3700D01*
X3720Y36093D01*
Y36074D01*
X3700Y36054D01*
X3720Y36034D01*
Y36015D01*
X3700Y36054D02*
X3661D01*
X3602Y36133D02*
X3523D01*
X3484Y35995D02*
Y36074D01*
X3444Y36113D01*
X3405Y36074D01*
Y35995D01*
X3287Y36015D02*
X3307Y35995D01*
X3346D01*
X3366Y36015D01*
Y36034D01*
X3346Y36054D01*
X3307D01*
X3287Y36074D01*
Y36093D01*
X3307Y36113D01*
X3346D01*
X3366Y36093D01*
X3248Y35995D02*
Y36093D01*
X3228Y36113D01*
X3189D01*
X3169Y36093D01*
Y35995D01*
X3130Y36113D02*
X3090D01*
X3110D01*
Y35995D01*
X3130Y36015D01*
X17981Y42499D02*
X18100D01*
Y42440D01*
X18080Y42421D01*
X18041D01*
X18021Y42440D01*
Y42499D01*
Y42460D02*
X17981Y42421D01*
Y42381D02*
Y42342D01*
Y42362D01*
X18100D01*
X18080Y42381D01*
X18100Y42283D02*
Y42204D01*
X18080D01*
X18001Y42283D01*
X17981D01*
X17962Y42165D02*
Y42086D01*
X18100Y42047D02*
X18021D01*
X17981Y42007D01*
X18021Y41968D01*
X18100D01*
X18080Y41850D02*
X18100Y41870D01*
Y41909D01*
X18080Y41929D01*
X18060D01*
X18041Y41909D01*
Y41870D01*
X18021Y41850D01*
X18001D01*
X17981Y41870D01*
Y41909D01*
X18001Y41929D01*
X18100Y41811D02*
X18001D01*
X17981Y41791D01*
Y41752D01*
X18001Y41732D01*
X18100D01*
X18080Y41693D02*
X18100Y41673D01*
Y41634D01*
X18080Y41614D01*
X18060D01*
X18041Y41634D01*
Y41653D01*
Y41634D01*
X18021Y41614D01*
X18001D01*
X17981Y41634D01*
Y41673D01*
X18001Y41693D01*
X9503Y42516D02*
X9621D01*
Y42457D01*
X9602Y42438D01*
X9562D01*
X9542Y42457D01*
Y42516D01*
Y42477D02*
X9503Y42438D01*
Y42398D02*
Y42359D01*
Y42379D01*
X9621D01*
X9602Y42398D01*
X9621Y42300D02*
Y42221D01*
X9602D01*
X9523Y42300D01*
X9503D01*
X9483Y42182D02*
Y42103D01*
X9621Y42064D02*
X9542D01*
X9503Y42024D01*
X9542Y41985D01*
X9621D01*
X9602Y41867D02*
X9621Y41887D01*
Y41926D01*
X9602Y41946D01*
X9582D01*
X9562Y41926D01*
Y41887D01*
X9542Y41867D01*
X9523D01*
X9503Y41887D01*
Y41926D01*
X9523Y41946D01*
X9621Y41828D02*
X9523D01*
X9503Y41808D01*
Y41769D01*
X9523Y41749D01*
X9621D01*
X9503Y41631D02*
Y41710D01*
X9582Y41631D01*
X9602D01*
X9621Y41651D01*
Y41690D01*
X9602Y41710D01*
X1131Y39035D02*
X1249D01*
Y38976D01*
X1230Y38956D01*
X1190D01*
X1170Y38976D01*
Y39035D01*
Y38996D02*
X1131Y38956D01*
Y38917D02*
Y38877D01*
Y38897D01*
X1249D01*
X1230Y38917D01*
X1249Y38818D02*
Y38740D01*
X1230D01*
X1151Y38818D01*
X1131D01*
X1111Y38700D02*
Y38622D01*
X1249Y38582D02*
X1170D01*
X1131Y38543D01*
X1170Y38504D01*
X1249D01*
X1230Y38385D02*
X1249Y38405D01*
Y38445D01*
X1230Y38464D01*
X1210D01*
X1190Y38445D01*
Y38405D01*
X1170Y38385D01*
X1151D01*
X1131Y38405D01*
Y38445D01*
X1151Y38464D01*
X1249Y38346D02*
X1151D01*
X1131Y38326D01*
Y38287D01*
X1151Y38267D01*
X1249D01*
X1131Y38228D02*
Y38189D01*
Y38208D01*
X1249D01*
X1230Y38228D01*
X22349Y46712D02*
X22467D01*
Y46653D01*
X22447Y46633D01*
X22408D01*
X22388Y46653D01*
Y46712D01*
Y46673D02*
X22349Y46633D01*
Y46594D02*
Y46555D01*
Y46574D01*
X22467D01*
X22447Y46594D01*
X22467Y46417D02*
X22447Y46456D01*
X22408Y46496D01*
X22369D01*
X22349Y46476D01*
Y46437D01*
X22369Y46417D01*
X22388D01*
X22408Y46437D01*
Y46496D01*
X22329Y46378D02*
Y46299D01*
X22467Y46259D02*
X22388D01*
X22349Y46220D01*
X22388Y46181D01*
X22467D01*
X22447Y46063D02*
X22467Y46082D01*
Y46122D01*
X22447Y46141D01*
X22428D01*
X22408Y46122D01*
Y46082D01*
X22388Y46063D01*
X22369D01*
X22349Y46082D01*
Y46122D01*
X22369Y46141D01*
X22467Y46023D02*
X22369D01*
X22349Y46004D01*
Y45964D01*
X22369Y45945D01*
X22467D01*
X22447Y45905D02*
X22467Y45886D01*
Y45846D01*
X22447Y45827D01*
X22428D01*
X22408Y45846D01*
Y45866D01*
Y45846D01*
X22388Y45827D01*
X22369D01*
X22349Y45846D01*
Y45886D01*
X22369Y45905D01*
X13871Y46729D02*
X13989D01*
Y46670D01*
X13969Y46650D01*
X13930D01*
X13910Y46670D01*
Y46729D01*
Y46690D02*
X13871Y46650D01*
Y46611D02*
Y46572D01*
Y46591D01*
X13989D01*
X13969Y46611D01*
X13989Y46434D02*
X13969Y46473D01*
X13930Y46513D01*
X13890D01*
X13871Y46493D01*
Y46453D01*
X13890Y46434D01*
X13910D01*
X13930Y46453D01*
Y46513D01*
X13851Y46394D02*
Y46316D01*
X13989Y46276D02*
X13910D01*
X13871Y46237D01*
X13910Y46198D01*
X13989D01*
X13969Y46080D02*
X13989Y46099D01*
Y46139D01*
X13969Y46158D01*
X13949D01*
X13930Y46139D01*
Y46099D01*
X13910Y46080D01*
X13890D01*
X13871Y46099D01*
Y46139D01*
X13890Y46158D01*
X13989Y46040D02*
X13890D01*
X13871Y46021D01*
Y45981D01*
X13890Y45962D01*
X13989D01*
X13871Y45843D02*
Y45922D01*
X13949Y45843D01*
X13969D01*
X13989Y45863D01*
Y45902D01*
X13969Y45922D01*
X1969Y43468D02*
Y43586D01*
X2028D01*
X2048Y43567D01*
Y43527D01*
X2028Y43508D01*
X1969D01*
X2008D02*
X2048Y43468D01*
X2087D02*
X2126D01*
X2107D01*
Y43586D01*
X2087Y43567D01*
X2264Y43586D02*
X2225Y43567D01*
X2186Y43527D01*
Y43488D01*
X2205Y43468D01*
X2245D01*
X2264Y43488D01*
Y43508D01*
X2245Y43527D01*
X2186D01*
X2304Y43449D02*
X2382D01*
X2422Y43586D02*
Y43508D01*
X2461Y43468D01*
X2500Y43508D01*
Y43586D01*
X2618Y43567D02*
X2599Y43586D01*
X2559D01*
X2540Y43567D01*
Y43547D01*
X2559Y43527D01*
X2599D01*
X2618Y43508D01*
Y43488D01*
X2599Y43468D01*
X2559D01*
X2540Y43488D01*
X2658Y43586D02*
Y43488D01*
X2677Y43468D01*
X2717D01*
X2737Y43488D01*
Y43586D01*
X2776Y43468D02*
X2815D01*
X2796D01*
Y43586D01*
X2776Y43567D01*
X17934Y46446D02*
Y46564D01*
X17993D01*
X18012Y46544D01*
Y46505D01*
X17993Y46485D01*
X17934D01*
X17973D02*
X18012Y46446D01*
X18052D02*
X18091D01*
X18071D01*
Y46564D01*
X18052Y46544D01*
X18229Y46564D02*
X18150D01*
Y46505D01*
X18189Y46525D01*
X18209D01*
X18229Y46505D01*
Y46466D01*
X18209Y46446D01*
X18170D01*
X18150Y46466D01*
X18268Y46426D02*
X18347D01*
X18386Y46564D02*
Y46485D01*
X18426Y46446D01*
X18465Y46485D01*
Y46564D01*
X18583Y46544D02*
X18563Y46564D01*
X18524D01*
X18504Y46544D01*
Y46525D01*
X18524Y46505D01*
X18563D01*
X18583Y46485D01*
Y46466D01*
X18563Y46446D01*
X18524D01*
X18504Y46466D01*
X18622Y46564D02*
Y46466D01*
X18642Y46446D01*
X18681D01*
X18701Y46466D01*
Y46564D01*
X18740Y46544D02*
X18760Y46564D01*
X18799D01*
X18819Y46544D01*
Y46525D01*
X18799Y46505D01*
X18780D01*
X18799D01*
X18819Y46485D01*
Y46466D01*
X18799Y46446D01*
X18760D01*
X18740Y46466D01*
X9455Y46463D02*
Y46581D01*
X9514D01*
X9534Y46561D01*
Y46522D01*
X9514Y46502D01*
X9455D01*
X9495D02*
X9534Y46463D01*
X9573D02*
X9613D01*
X9593D01*
Y46581D01*
X9573Y46561D01*
X9750Y46581D02*
X9672D01*
Y46522D01*
X9711Y46542D01*
X9731D01*
X9750Y46522D01*
Y46483D01*
X9731Y46463D01*
X9691D01*
X9672Y46483D01*
X9790Y46443D02*
X9868D01*
X9908Y46581D02*
Y46502D01*
X9947Y46463D01*
X9987Y46502D01*
Y46581D01*
X10105Y46561D02*
X10085Y46581D01*
X10046D01*
X10026Y46561D01*
Y46542D01*
X10046Y46522D01*
X10085D01*
X10105Y46502D01*
Y46483D01*
X10085Y46463D01*
X10046D01*
X10026Y46483D01*
X10144Y46581D02*
Y46483D01*
X10164Y46463D01*
X10203D01*
X10223Y46483D01*
Y46581D01*
X10341Y46463D02*
X10262D01*
X10341Y46542D01*
Y46561D01*
X10321Y46581D01*
X10282D01*
X10262Y46561D01*
X19114Y48062D02*
Y47944D01*
X19055D01*
X19035Y47963D01*
Y48003D01*
X19055Y48022D01*
X19114D01*
X19074D02*
X19035Y48062D01*
X18996D02*
X18956D01*
X18976D01*
Y47944D01*
X18996Y47963D01*
X18838Y48062D02*
Y47944D01*
X18897Y48003D01*
X18818D01*
X18779Y48081D02*
X18700D01*
X18661Y47944D02*
Y48022D01*
X18622Y48062D01*
X18582Y48022D01*
Y47944D01*
X18464Y47963D02*
X18484Y47944D01*
X18523D01*
X18543Y47963D01*
Y47983D01*
X18523Y48003D01*
X18484D01*
X18464Y48022D01*
Y48042D01*
X18484Y48062D01*
X18523D01*
X18543Y48042D01*
X18425Y47944D02*
Y48042D01*
X18405Y48062D01*
X18366D01*
X18346Y48042D01*
Y47944D01*
X18307Y47963D02*
X18287Y47944D01*
X18248D01*
X18228Y47963D01*
Y47983D01*
X18248Y48003D01*
X18267D01*
X18248D01*
X18228Y48022D01*
Y48042D01*
X18248Y48062D01*
X18287D01*
X18307Y48042D01*
X10635Y48079D02*
Y47961D01*
X10576D01*
X10557Y47980D01*
Y48020D01*
X10576Y48039D01*
X10635D01*
X10596D02*
X10557Y48079D01*
X10517D02*
X10478D01*
X10497D01*
Y47961D01*
X10517Y47980D01*
X10360Y48079D02*
Y47961D01*
X10419Y48020D01*
X10340D01*
X10301Y48098D02*
X10222D01*
X10183Y47961D02*
Y48039D01*
X10143Y48079D01*
X10104Y48039D01*
Y47961D01*
X9986Y47980D02*
X10006Y47961D01*
X10045D01*
X10065Y47980D01*
Y48000D01*
X10045Y48020D01*
X10006D01*
X9986Y48039D01*
Y48059D01*
X10006Y48079D01*
X10045D01*
X10065Y48059D01*
X9946Y47961D02*
Y48059D01*
X9927Y48079D01*
X9887D01*
X9868Y48059D01*
Y47961D01*
X9750Y48079D02*
X9828D01*
X9750Y48000D01*
Y47980D01*
X9769Y47961D01*
X9809D01*
X9828Y47980D01*
X4625Y46330D02*
Y46211D01*
X4566D01*
X4547Y46231D01*
Y46270D01*
X4566Y46290D01*
X4625D01*
X4586D02*
X4547Y46330D01*
X4507D02*
X4468D01*
X4488D01*
Y46211D01*
X4507Y46231D01*
X4350Y46330D02*
Y46211D01*
X4409Y46270D01*
X4330D01*
X4291Y46349D02*
X4212D01*
X4173Y46211D02*
Y46290D01*
X4133Y46330D01*
X4094Y46290D01*
Y46211D01*
X3976Y46231D02*
X3996Y46211D01*
X4035D01*
X4055Y46231D01*
Y46251D01*
X4035Y46270D01*
X3996D01*
X3976Y46290D01*
Y46310D01*
X3996Y46330D01*
X4035D01*
X4055Y46310D01*
X3937Y46211D02*
Y46310D01*
X3917Y46330D01*
X3878D01*
X3858Y46310D01*
Y46211D01*
X3819Y46330D02*
X3779D01*
X3799D01*
Y46211D01*
X3819Y46231D01*
X23091Y43474D02*
Y43592D01*
X23150D01*
X23170Y43572D01*
Y43533D01*
X23150Y43513D01*
X23091D01*
X23130D02*
X23170Y43474D01*
X23209D02*
X23249D01*
X23229D01*
Y43592D01*
X23209Y43572D01*
X23308D02*
X23327Y43592D01*
X23367D01*
X23386Y43572D01*
Y43552D01*
X23367Y43533D01*
X23347D01*
X23367D01*
X23386Y43513D01*
Y43493D01*
X23367Y43474D01*
X23327D01*
X23308Y43493D01*
X23426Y43454D02*
X23504D01*
X23544Y43592D02*
Y43513D01*
X23583Y43474D01*
X23622Y43513D01*
Y43592D01*
X23740Y43572D02*
X23721Y43592D01*
X23681D01*
X23662Y43572D01*
Y43552D01*
X23681Y43533D01*
X23721D01*
X23740Y43513D01*
Y43493D01*
X23721Y43474D01*
X23681D01*
X23662Y43493D01*
X23780Y43592D02*
Y43493D01*
X23800Y43474D01*
X23839D01*
X23859Y43493D01*
Y43592D01*
X23898Y43572D02*
X23918Y43592D01*
X23957D01*
X23977Y43572D01*
Y43552D01*
X23957Y43533D01*
X23937D01*
X23957D01*
X23977Y43513D01*
Y43493D01*
X23957Y43474D01*
X23918D01*
X23898Y43493D01*
X14613Y43491D02*
Y43609D01*
X14672D01*
X14691Y43589D01*
Y43550D01*
X14672Y43530D01*
X14613D01*
X14652D02*
X14691Y43491D01*
X14731D02*
X14770D01*
X14750D01*
Y43609D01*
X14731Y43589D01*
X14829D02*
X14849Y43609D01*
X14888D01*
X14908Y43589D01*
Y43569D01*
X14888Y43550D01*
X14869D01*
X14888D01*
X14908Y43530D01*
Y43510D01*
X14888Y43491D01*
X14849D01*
X14829Y43510D01*
X14947Y43471D02*
X15026D01*
X15065Y43609D02*
Y43530D01*
X15105Y43491D01*
X15144Y43530D01*
Y43609D01*
X15262Y43589D02*
X15242Y43609D01*
X15203D01*
X15183Y43589D01*
Y43569D01*
X15203Y43550D01*
X15242D01*
X15262Y43530D01*
Y43510D01*
X15242Y43491D01*
X15203D01*
X15183Y43510D01*
X15301Y43609D02*
Y43510D01*
X15321Y43491D01*
X15361D01*
X15380Y43510D01*
Y43609D01*
X15498Y43491D02*
X15420D01*
X15498Y43569D01*
Y43589D01*
X15479Y43609D01*
X15439D01*
X15420Y43589D01*
X6241Y40009D02*
Y40127D01*
X6300D01*
X6319Y40107D01*
Y40068D01*
X6300Y40048D01*
X6241D01*
X6280D02*
X6319Y40009D01*
X6359D02*
X6398D01*
X6378D01*
Y40127D01*
X6359Y40107D01*
X6457D02*
X6477Y40127D01*
X6516D01*
X6536Y40107D01*
Y40088D01*
X6516Y40068D01*
X6497D01*
X6516D01*
X6536Y40048D01*
Y40029D01*
X6516Y40009D01*
X6477D01*
X6457Y40029D01*
X6575Y39989D02*
X6654D01*
X6693Y40127D02*
Y40048D01*
X6733Y40009D01*
X6772Y40048D01*
Y40127D01*
X6890Y40107D02*
X6870Y40127D01*
X6831D01*
X6811Y40107D01*
Y40088D01*
X6831Y40068D01*
X6870D01*
X6890Y40048D01*
Y40029D01*
X6870Y40009D01*
X6831D01*
X6811Y40029D01*
X6929Y40127D02*
Y40029D01*
X6949Y40009D01*
X6988D01*
X7008Y40029D01*
Y40127D01*
X7048Y40009D02*
X7087D01*
X7067D01*
Y40127D01*
X7048Y40107D01*
X22942Y35610D02*
X23060D01*
Y35551D01*
X23041Y35531D01*
X23001D01*
X22981Y35551D01*
Y35610D01*
Y35570D02*
X22942Y35531D01*
Y35492D02*
Y35452D01*
Y35472D01*
X23060D01*
X23041Y35492D01*
X22942Y35315D02*
Y35393D01*
X23021Y35315D01*
X23041D01*
X23060Y35334D01*
Y35374D01*
X23041Y35393D01*
X22922Y35275D02*
Y35196D01*
X23060Y35157D02*
X22981D01*
X22942Y35118D01*
X22981Y35078D01*
X23060D01*
X23041Y34960D02*
X23060Y34980D01*
Y35019D01*
X23041Y35039D01*
X23021D01*
X23001Y35019D01*
Y34980D01*
X22981Y34960D01*
X22962D01*
X22942Y34980D01*
Y35019D01*
X22962Y35039D01*
X23060Y34921D02*
X22962D01*
X22942Y34901D01*
Y34862D01*
X22962Y34842D01*
X23060D01*
X23041Y34803D02*
X23060Y34783D01*
Y34744D01*
X23041Y34724D01*
X23021D01*
X23001Y34744D01*
Y34764D01*
Y34744D01*
X22981Y34724D01*
X22962D01*
X22942Y34744D01*
Y34783D01*
X22962Y34803D01*
X14464Y35627D02*
X14582D01*
Y35568D01*
X14562Y35548D01*
X14523D01*
X14503Y35568D01*
Y35627D01*
Y35587D02*
X14464Y35548D01*
Y35509D02*
Y35469D01*
Y35489D01*
X14582D01*
X14562Y35509D01*
X14464Y35331D02*
Y35410D01*
X14542Y35331D01*
X14562D01*
X14582Y35351D01*
Y35390D01*
X14562Y35410D01*
X14444Y35292D02*
Y35213D01*
X14582Y35174D02*
X14503D01*
X14464Y35135D01*
X14503Y35095D01*
X14582D01*
X14562Y34977D02*
X14582Y34997D01*
Y35036D01*
X14562Y35056D01*
X14542D01*
X14523Y35036D01*
Y34997D01*
X14503Y34977D01*
X14483D01*
X14464Y34997D01*
Y35036D01*
X14483Y35056D01*
X14582Y34938D02*
X14483D01*
X14464Y34918D01*
Y34879D01*
X14483Y34859D01*
X14582D01*
X14464Y34741D02*
Y34820D01*
X14542Y34741D01*
X14562D01*
X14582Y34761D01*
Y34800D01*
X14562Y34820D01*
X6092Y32145D02*
X6210D01*
Y32086D01*
X6190Y32066D01*
X6151D01*
X6131Y32086D01*
Y32145D01*
Y32106D02*
X6092Y32066D01*
Y32027D02*
Y31988D01*
Y32007D01*
X6210D01*
X6190Y32027D01*
X6092Y31850D02*
Y31929D01*
X6170Y31850D01*
X6190D01*
X6210Y31870D01*
Y31909D01*
X6190Y31929D01*
X6072Y31811D02*
Y31732D01*
X6210Y31693D02*
X6131D01*
X6092Y31653D01*
X6131Y31614D01*
X6210D01*
X6190Y31496D02*
X6210Y31515D01*
Y31555D01*
X6190Y31574D01*
X6170D01*
X6151Y31555D01*
Y31515D01*
X6131Y31496D01*
X6111D01*
X6092Y31515D01*
Y31555D01*
X6111Y31574D01*
X6210Y31456D02*
X6111D01*
X6092Y31437D01*
Y31397D01*
X6111Y31378D01*
X6210D01*
X6092Y31338D02*
Y31299D01*
Y31319D01*
X6210D01*
X6190Y31338D01*
X24251Y39538D02*
Y39420D01*
X24192D01*
X24173Y39440D01*
Y39479D01*
X24192Y39499D01*
X24251D01*
X24212D02*
X24173Y39538D01*
X24133D02*
X24094D01*
X24114D01*
Y39420D01*
X24133Y39440D01*
X24035Y39538D02*
X23996D01*
X24015D01*
Y39420D01*
X24035Y39440D01*
X23937Y39558D02*
X23858D01*
X23818Y39420D02*
Y39499D01*
X23779Y39538D01*
X23740Y39499D01*
Y39420D01*
X23622Y39440D02*
X23641Y39420D01*
X23681D01*
X23700Y39440D01*
Y39459D01*
X23681Y39479D01*
X23641D01*
X23622Y39499D01*
Y39519D01*
X23641Y39538D01*
X23681D01*
X23700Y39519D01*
X23582Y39420D02*
Y39519D01*
X23563Y39538D01*
X23523D01*
X23504Y39519D01*
Y39420D01*
X23464Y39440D02*
X23445Y39420D01*
X23405D01*
X23386Y39440D01*
Y39459D01*
X23405Y39479D01*
X23425D01*
X23405D01*
X23386Y39499D01*
Y39519D01*
X23405Y39538D01*
X23445D01*
X23464Y39519D01*
X15773Y39555D02*
Y39437D01*
X15714D01*
X15694Y39457D01*
Y39496D01*
X15714Y39516D01*
X15773D01*
X15734D02*
X15694Y39555D01*
X15655D02*
X15616D01*
X15635D01*
Y39437D01*
X15655Y39457D01*
X15557Y39555D02*
X15517D01*
X15537D01*
Y39437D01*
X15557Y39457D01*
X15458Y39575D02*
X15379D01*
X15340Y39437D02*
Y39516D01*
X15301Y39555D01*
X15261Y39516D01*
Y39437D01*
X15143Y39457D02*
X15163Y39437D01*
X15202D01*
X15222Y39457D01*
Y39476D01*
X15202Y39496D01*
X15163D01*
X15143Y39516D01*
Y39535D01*
X15163Y39555D01*
X15202D01*
X15222Y39535D01*
X15104Y39437D02*
Y39535D01*
X15084Y39555D01*
X15045D01*
X15025Y39535D01*
Y39437D01*
X14907Y39555D02*
X14986D01*
X14907Y39476D01*
Y39457D01*
X14927Y39437D01*
X14966D01*
X14986Y39457D01*
X7401Y36074D02*
Y35956D01*
X7342D01*
X7322Y35975D01*
Y36015D01*
X7342Y36034D01*
X7401D01*
X7362D02*
X7322Y36074D01*
X7283D02*
X7244D01*
X7263D01*
Y35956D01*
X7283Y35975D01*
X7185Y36074D02*
X7145D01*
X7165D01*
Y35956D01*
X7185Y35975D01*
X7086Y36093D02*
X7007D01*
X6968Y35956D02*
Y36034D01*
X6929Y36074D01*
X6889Y36034D01*
Y35956D01*
X6771Y35975D02*
X6791Y35956D01*
X6830D01*
X6850Y35975D01*
Y35995D01*
X6830Y36015D01*
X6791D01*
X6771Y36034D01*
Y36054D01*
X6791Y36074D01*
X6830D01*
X6850Y36054D01*
X6732Y35956D02*
Y36054D01*
X6712Y36074D01*
X6673D01*
X6653Y36054D01*
Y35956D01*
X6614Y36074D02*
X6575D01*
X6594D01*
Y35956D01*
X6614Y35975D01*
X24911Y46122D02*
X25029D01*
Y46062D01*
X25009Y46043D01*
X24970D01*
X24950Y46062D01*
Y46122D01*
Y46082D02*
X24911Y46043D01*
Y46003D02*
Y45964D01*
Y45984D01*
X25029D01*
X25009Y46003D01*
Y45905D02*
X25029Y45885D01*
Y45846D01*
X25009Y45826D01*
X24930D01*
X24911Y45846D01*
Y45885D01*
X24930Y45905D01*
X25009D01*
X24891Y45787D02*
Y45708D01*
X25029Y45669D02*
X24950D01*
X24911Y45630D01*
X24950Y45590D01*
X25029D01*
X25009Y45472D02*
X25029Y45492D01*
Y45531D01*
X25009Y45551D01*
X24989D01*
X24970Y45531D01*
Y45492D01*
X24950Y45472D01*
X24930D01*
X24911Y45492D01*
Y45531D01*
X24930Y45551D01*
X25029Y45433D02*
X24930D01*
X24911Y45413D01*
Y45374D01*
X24930Y45354D01*
X25029D01*
X25009Y45315D02*
X25029Y45295D01*
Y45256D01*
X25009Y45236D01*
X24989D01*
X24970Y45256D01*
Y45275D01*
Y45256D01*
X24950Y45236D01*
X24930D01*
X24911Y45256D01*
Y45295D01*
X24930Y45315D01*
X16432Y46138D02*
X16550D01*
Y46079D01*
X16531Y46060D01*
X16491D01*
X16472Y46079D01*
Y46138D01*
Y46099D02*
X16432Y46060D01*
Y46020D02*
Y45981D01*
Y46001D01*
X16550D01*
X16531Y46020D01*
Y45922D02*
X16550Y45902D01*
Y45863D01*
X16531Y45843D01*
X16452D01*
X16432Y45863D01*
Y45902D01*
X16452Y45922D01*
X16531D01*
X16413Y45804D02*
Y45725D01*
X16550Y45686D02*
X16472D01*
X16432Y45646D01*
X16472Y45607D01*
X16550D01*
X16531Y45489D02*
X16550Y45509D01*
Y45548D01*
X16531Y45568D01*
X16511D01*
X16491Y45548D01*
Y45509D01*
X16472Y45489D01*
X16452D01*
X16432Y45509D01*
Y45548D01*
X16452Y45568D01*
X16550Y45450D02*
X16452D01*
X16432Y45430D01*
Y45391D01*
X16452Y45371D01*
X16550D01*
X16432Y45253D02*
Y45332D01*
X16511Y45253D01*
X16531D01*
X16550Y45273D01*
Y45312D01*
X16531Y45332D01*
X6792Y42804D02*
Y42922D01*
X6851D01*
X6871Y42903D01*
Y42863D01*
X6851Y42844D01*
X6792D01*
X6831D02*
X6871Y42804D01*
X6910D02*
X6949D01*
X6930D01*
Y42922D01*
X6910Y42903D01*
X7008D02*
X7028Y42922D01*
X7067D01*
X7087Y42903D01*
Y42824D01*
X7067Y42804D01*
X7028D01*
X7008Y42824D01*
Y42903D01*
X7126Y42785D02*
X7205D01*
X7244Y42922D02*
Y42844D01*
X7284Y42804D01*
X7323Y42844D01*
Y42922D01*
X7441Y42903D02*
X7422Y42922D01*
X7382D01*
X7363Y42903D01*
Y42883D01*
X7382Y42863D01*
X7422D01*
X7441Y42844D01*
Y42824D01*
X7422Y42804D01*
X7382D01*
X7363Y42824D01*
X7481Y42922D02*
Y42824D01*
X7500Y42804D01*
X7540D01*
X7559Y42824D01*
Y42922D01*
X7599Y42804D02*
X7638D01*
X7618D01*
Y42922D01*
X7599Y42903D01*
X24911Y48523D02*
X25029D01*
Y48464D01*
X25009Y48444D01*
X24970D01*
X24950Y48464D01*
Y48523D01*
Y48484D02*
X24911Y48444D01*
X24930Y48405D02*
X24911Y48385D01*
Y48346D01*
X24930Y48326D01*
X25009D01*
X25029Y48346D01*
Y48385D01*
X25009Y48405D01*
X24989D01*
X24970Y48385D01*
Y48326D01*
X24891Y48287D02*
Y48208D01*
X25029Y48169D02*
X24950D01*
X24911Y48130D01*
X24950Y48090D01*
X25029D01*
X25009Y47972D02*
X25029Y47992D01*
Y48031D01*
X25009Y48051D01*
X24989D01*
X24970Y48031D01*
Y47992D01*
X24950Y47972D01*
X24930D01*
X24911Y47992D01*
Y48031D01*
X24930Y48051D01*
X25029Y47933D02*
X24930D01*
X24911Y47913D01*
Y47874D01*
X24930Y47854D01*
X25029D01*
X25009Y47815D02*
X25029Y47795D01*
Y47756D01*
X25009Y47736D01*
X24989D01*
X24970Y47756D01*
Y47775D01*
Y47756D01*
X24950Y47736D01*
X24930D01*
X24911Y47756D01*
Y47795D01*
X24930Y47815D01*
X16432Y48540D02*
X16550D01*
Y48481D01*
X16531Y48461D01*
X16491D01*
X16472Y48481D01*
Y48540D01*
Y48501D02*
X16432Y48461D01*
X16452Y48422D02*
X16432Y48402D01*
Y48363D01*
X16452Y48343D01*
X16531D01*
X16550Y48363D01*
Y48402D01*
X16531Y48422D01*
X16511D01*
X16491Y48402D01*
Y48343D01*
X16413Y48304D02*
Y48225D01*
X16550Y48186D02*
X16472D01*
X16432Y48146D01*
X16472Y48107D01*
X16550D01*
X16531Y47989D02*
X16550Y48009D01*
Y48048D01*
X16531Y48068D01*
X16511D01*
X16491Y48048D01*
Y48009D01*
X16472Y47989D01*
X16452D01*
X16432Y48009D01*
Y48048D01*
X16452Y48068D01*
X16550Y47950D02*
X16452D01*
X16432Y47930D01*
Y47891D01*
X16452Y47871D01*
X16550D01*
X16432Y47753D02*
Y47832D01*
X16511Y47753D01*
X16531D01*
X16550Y47773D01*
Y47812D01*
X16531Y47832D01*
X7972Y44617D02*
Y44499D01*
X7913D01*
X7893Y44519D01*
Y44558D01*
X7913Y44578D01*
X7972D01*
X7933D02*
X7893Y44617D01*
X7854Y44597D02*
X7834Y44617D01*
X7795D01*
X7775Y44597D01*
Y44519D01*
X7795Y44499D01*
X7834D01*
X7854Y44519D01*
Y44538D01*
X7834Y44558D01*
X7775D01*
X7736Y44637D02*
X7657D01*
X7618Y44499D02*
Y44578D01*
X7578Y44617D01*
X7539Y44578D01*
Y44499D01*
X7421Y44519D02*
X7441Y44499D01*
X7480D01*
X7500Y44519D01*
Y44538D01*
X7480Y44558D01*
X7441D01*
X7421Y44578D01*
Y44597D01*
X7441Y44617D01*
X7480D01*
X7500Y44597D01*
X7382Y44499D02*
Y44597D01*
X7362Y44617D01*
X7322D01*
X7303Y44597D01*
Y44499D01*
X7263Y44617D02*
X7224D01*
X7244D01*
Y44499D01*
X7263Y44519D01*
X24911Y50708D02*
X25029D01*
Y50649D01*
X25009Y50629D01*
X24970D01*
X24950Y50649D01*
Y50708D01*
Y50669D02*
X24911Y50629D01*
X25009Y50590D02*
X25029Y50570D01*
Y50531D01*
X25009Y50511D01*
X24989D01*
X24970Y50531D01*
X24950Y50511D01*
X24930D01*
X24911Y50531D01*
Y50570D01*
X24930Y50590D01*
X24950D01*
X24970Y50570D01*
X24989Y50590D01*
X25009D01*
X24970Y50570D02*
Y50531D01*
X24891Y50472D02*
Y50393D01*
X25029Y50354D02*
X24950D01*
X24911Y50315D01*
X24950Y50275D01*
X25029D01*
X25009Y50157D02*
X25029Y50177D01*
Y50216D01*
X25009Y50236D01*
X24989D01*
X24970Y50216D01*
Y50177D01*
X24950Y50157D01*
X24930D01*
X24911Y50177D01*
Y50216D01*
X24930Y50236D01*
X25029Y50118D02*
X24930D01*
X24911Y50098D01*
Y50059D01*
X24930Y50039D01*
X25029D01*
X25009Y50000D02*
X25029Y49980D01*
Y49941D01*
X25009Y49921D01*
X24989D01*
X24970Y49941D01*
Y49960D01*
Y49941D01*
X24950Y49921D01*
X24930D01*
X24911Y49941D01*
Y49980D01*
X24930Y50000D01*
X16432Y50725D02*
X16550D01*
Y50666D01*
X16531Y50646D01*
X16491D01*
X16472Y50666D01*
Y50725D01*
Y50686D02*
X16432Y50646D01*
X16531Y50607D02*
X16550Y50587D01*
Y50548D01*
X16531Y50528D01*
X16511D01*
X16491Y50548D01*
X16472Y50528D01*
X16452D01*
X16432Y50548D01*
Y50587D01*
X16452Y50607D01*
X16472D01*
X16491Y50587D01*
X16511Y50607D01*
X16531D01*
X16491Y50587D02*
Y50548D01*
X16413Y50489D02*
Y50410D01*
X16550Y50371D02*
X16472D01*
X16432Y50331D01*
X16472Y50292D01*
X16550D01*
X16531Y50174D02*
X16550Y50194D01*
Y50233D01*
X16531Y50253D01*
X16511D01*
X16491Y50233D01*
Y50194D01*
X16472Y50174D01*
X16452D01*
X16432Y50194D01*
Y50233D01*
X16452Y50253D01*
X16550Y50135D02*
X16452D01*
X16432Y50115D01*
Y50076D01*
X16452Y50056D01*
X16550D01*
X16432Y49938D02*
Y50017D01*
X16511Y49938D01*
X16531D01*
X16550Y49958D01*
Y49997D01*
X16531Y50017D01*
X6792Y46446D02*
Y46564D01*
X6851D01*
X6871Y46544D01*
Y46505D01*
X6851Y46485D01*
X6792D01*
X6831D02*
X6871Y46446D01*
X6910Y46544D02*
X6930Y46564D01*
X6969D01*
X6989Y46544D01*
Y46525D01*
X6969Y46505D01*
X6989Y46485D01*
Y46466D01*
X6969Y46446D01*
X6930D01*
X6910Y46466D01*
Y46485D01*
X6930Y46505D01*
X6910Y46525D01*
Y46544D01*
X6930Y46505D02*
X6969D01*
X7028Y46426D02*
X7107D01*
X7146Y46564D02*
Y46485D01*
X7185Y46446D01*
X7225Y46485D01*
Y46564D01*
X7343Y46544D02*
X7323Y46564D01*
X7284D01*
X7264Y46544D01*
Y46525D01*
X7284Y46505D01*
X7323D01*
X7343Y46485D01*
Y46466D01*
X7323Y46446D01*
X7284D01*
X7264Y46466D01*
X7382Y46564D02*
Y46466D01*
X7402Y46446D01*
X7441D01*
X7461Y46466D01*
Y46564D01*
X7500Y46446D02*
X7540D01*
X7520D01*
Y46564D01*
X7500Y46544D01*
X41319Y41028D02*
Y40910D01*
X41378D01*
X41398Y40930D01*
Y40969D01*
X41378Y40989D01*
X41319D01*
X41359D02*
X41398Y41028D01*
X41438Y40910D02*
X41516D01*
Y40930D01*
X41438Y41009D01*
Y41028D01*
X43268D02*
Y40910D01*
X43327D01*
X43347Y40930D01*
Y40969D01*
X43327Y40989D01*
X43268D01*
X43308D02*
X43347Y41028D01*
X43465Y40910D02*
X43426Y40930D01*
X43386Y40969D01*
Y41009D01*
X43406Y41028D01*
X43445D01*
X43465Y41009D01*
Y40989D01*
X43445Y40969D01*
X43386D01*
X45217Y41074D02*
Y40956D01*
X45276D01*
X45296Y40975D01*
Y41015D01*
X45276Y41034D01*
X45217D01*
X45256D02*
X45296Y41074D01*
X45414Y40956D02*
X45335D01*
Y41015D01*
X45375Y40995D01*
X45394D01*
X45414Y41015D01*
Y41054D01*
X45394Y41074D01*
X45355D01*
X45335Y41054D01*
X14123Y24684D02*
X14241D01*
Y24625D01*
X14222Y24606D01*
X14182D01*
X14163Y24625D01*
Y24684D01*
Y24645D02*
X14123Y24606D01*
Y24507D02*
X14241D01*
X14182Y24566D01*
Y24488D01*
X16781Y24684D02*
X16899D01*
Y24625D01*
X16879Y24606D01*
X16840D01*
X16820Y24625D01*
Y24684D01*
Y24645D02*
X16781Y24606D01*
X16879Y24566D02*
X16899Y24547D01*
Y24507D01*
X16879Y24488D01*
X16859D01*
X16840Y24507D01*
Y24527D01*
Y24507D01*
X16820Y24488D01*
X16800D01*
X16781Y24507D01*
Y24547D01*
X16800Y24566D01*
X19438Y24684D02*
X19556D01*
Y24625D01*
X19537Y24606D01*
X19497D01*
X19478Y24625D01*
Y24684D01*
Y24645D02*
X19438Y24606D01*
Y24488D02*
Y24566D01*
X19517Y24488D01*
X19537D01*
X19556Y24507D01*
Y24547D01*
X19537Y24566D01*
X56819Y40197D02*
X56701D01*
Y40256D01*
X56721Y40276D01*
X56760D01*
X56780Y40256D01*
Y40197D01*
Y40237D02*
X56819Y40276D01*
Y40315D02*
Y40355D01*
Y40335D01*
X56701D01*
X56721Y40315D01*
D108*
X20668Y36693D02*
X20504D01*
X20471Y36661D01*
Y36595D01*
X20504Y36562D01*
X20668D01*
X20635Y36497D02*
X20668Y36464D01*
Y36398D01*
X20635Y36365D01*
X20602D01*
X20569Y36398D01*
Y36431D01*
Y36398D01*
X20536Y36365D01*
X20504D01*
X20471Y36398D01*
Y36464D01*
X20504Y36497D01*
X20438Y36300D02*
Y36169D01*
X20668Y36103D02*
X20536D01*
X20471Y36037D01*
X20536Y35972D01*
X20668D01*
X20635Y35775D02*
X20668Y35808D01*
Y35873D01*
X20635Y35906D01*
X20602D01*
X20569Y35873D01*
Y35808D01*
X20536Y35775D01*
X20504D01*
X20471Y35808D01*
Y35873D01*
X20504Y35906D01*
X20668Y35709D02*
X20504D01*
X20471Y35677D01*
Y35611D01*
X20504Y35578D01*
X20668D01*
X20635Y35513D02*
X20668Y35480D01*
Y35414D01*
X20635Y35381D01*
X20602D01*
X20569Y35414D01*
Y35447D01*
Y35414D01*
X20536Y35381D01*
X20504D01*
X20471Y35414D01*
Y35480D01*
X20504Y35513D01*
X12189Y36710D02*
X12025D01*
X11992Y36677D01*
Y36612D01*
X12025Y36579D01*
X12189D01*
X12156Y36513D02*
X12189Y36481D01*
Y36415D01*
X12156Y36382D01*
X12124D01*
X12091Y36415D01*
Y36448D01*
Y36415D01*
X12058Y36382D01*
X12025D01*
X11992Y36415D01*
Y36481D01*
X12025Y36513D01*
X11960Y36317D02*
Y36185D01*
X12189Y36120D02*
X12058D01*
X11992Y36054D01*
X12058Y35989D01*
X12189D01*
X12156Y35792D02*
X12189Y35825D01*
Y35890D01*
X12156Y35923D01*
X12124D01*
X12091Y35890D01*
Y35825D01*
X12058Y35792D01*
X12025D01*
X11992Y35825D01*
Y35890D01*
X12025Y35923D01*
X12189Y35726D02*
X12025D01*
X11992Y35694D01*
Y35628D01*
X12025Y35595D01*
X12189D01*
X11992Y35398D02*
Y35530D01*
X12124Y35398D01*
X12156D01*
X12189Y35431D01*
Y35497D01*
X12156Y35530D01*
X3817Y33229D02*
X3653D01*
X3620Y33196D01*
Y33130D01*
X3653Y33098D01*
X3817D01*
X3784Y33032D02*
X3817Y32999D01*
Y32934D01*
X3784Y32901D01*
X3752D01*
X3719Y32934D01*
Y32966D01*
Y32934D01*
X3686Y32901D01*
X3653D01*
X3620Y32934D01*
Y32999D01*
X3653Y33032D01*
X3588Y32835D02*
Y32704D01*
X3817Y32638D02*
X3686D01*
X3620Y32573D01*
X3686Y32507D01*
X3817D01*
X3784Y32310D02*
X3817Y32343D01*
Y32409D01*
X3784Y32442D01*
X3752D01*
X3719Y32409D01*
Y32343D01*
X3686Y32310D01*
X3653D01*
X3620Y32343D01*
Y32409D01*
X3653Y32442D01*
X3817Y32245D02*
X3653D01*
X3620Y32212D01*
Y32146D01*
X3653Y32114D01*
X3817D01*
X3620Y32048D02*
Y31982D01*
Y32015D01*
X3817D01*
X3784Y32048D01*
X55019Y37774D02*
Y37610D01*
X55052Y37577D01*
X55118D01*
X55150Y37610D01*
Y37774D01*
X55216Y37577D02*
X55282D01*
X55249D01*
Y37774D01*
X55216Y37741D01*
X69279Y21267D02*
X69410D01*
X69344D01*
Y21070D01*
X69476D02*
Y21267D01*
X69574D01*
X69607Y21234D01*
Y21169D01*
X69574Y21136D01*
X69476D01*
X69672Y21103D02*
X69705Y21070D01*
X69771D01*
X69804Y21103D01*
Y21234D01*
X69771Y21267D01*
X69705D01*
X69672Y21234D01*
Y21202D01*
X69705Y21169D01*
X69804D01*
X49397Y42409D02*
X49528D01*
X49462D01*
Y42212D01*
X49594D02*
Y42409D01*
X49692D01*
X49725Y42376D01*
Y42311D01*
X49692Y42278D01*
X49594D01*
X49790Y42376D02*
X49823Y42409D01*
X49889D01*
X49922Y42376D01*
Y42343D01*
X49889Y42311D01*
X49922Y42278D01*
Y42245D01*
X49889Y42212D01*
X49823D01*
X49790Y42245D01*
Y42278D01*
X49823Y42311D01*
X49790Y42343D01*
Y42376D01*
X49823Y42311D02*
X49889D01*
X64279Y34889D02*
X64410D01*
X64344D01*
Y34693D01*
X64476D02*
Y34889D01*
X64574D01*
X64607Y34857D01*
Y34791D01*
X64574Y34758D01*
X64476D01*
X64672Y34889D02*
X64804D01*
Y34857D01*
X64672Y34725D01*
Y34693D01*
X61917Y14023D02*
X62048D01*
X61982D01*
Y13826D01*
X62113D02*
Y14023D01*
X62212D01*
X62245Y13990D01*
Y13925D01*
X62212Y13892D01*
X62113D01*
X62441Y14023D02*
X62376Y13990D01*
X62310Y13925D01*
Y13859D01*
X62343Y13826D01*
X62408D01*
X62441Y13859D01*
Y13892D01*
X62408Y13925D01*
X62310D01*
X60544Y20263D02*
Y20394D01*
Y20329D01*
X60741D01*
Y20460D02*
X60544D01*
Y20558D01*
X60577Y20591D01*
X60642D01*
X60675Y20558D01*
Y20460D01*
X60544Y20788D02*
Y20657D01*
X60642D01*
X60609Y20722D01*
Y20755D01*
X60642Y20788D01*
X60708D01*
X60741Y20755D01*
Y20689D01*
X60708Y20657D01*
X57078Y49338D02*
X57209D01*
X57144D01*
Y49141D01*
X57275D02*
Y49338D01*
X57373D01*
X57406Y49305D01*
Y49240D01*
X57373Y49207D01*
X57275D01*
X57570Y49141D02*
Y49338D01*
X57472Y49240D01*
X57603D01*
X18236Y40229D02*
Y40098D01*
Y40164D01*
X18039D01*
Y40032D02*
X18236D01*
Y39934D01*
X18203Y39901D01*
X18137D01*
X18105Y39934D01*
Y40032D01*
X18203Y39836D02*
X18236Y39803D01*
Y39737D01*
X18203Y39704D01*
X18170D01*
X18137Y39737D01*
Y39770D01*
Y39737D01*
X18105Y39704D01*
X18072D01*
X18039Y39737D01*
Y39803D01*
X18072Y39836D01*
X18006Y39639D02*
Y39508D01*
X18236Y39442D02*
X18105D01*
X18039Y39376D01*
X18105Y39311D01*
X18236D01*
X18203Y39114D02*
X18236Y39147D01*
Y39212D01*
X18203Y39245D01*
X18170D01*
X18137Y39212D01*
Y39147D01*
X18105Y39114D01*
X18072D01*
X18039Y39147D01*
Y39212D01*
X18072Y39245D01*
X18236Y39048D02*
X18072D01*
X18039Y39016D01*
Y38950D01*
X18072Y38917D01*
X18236D01*
X18203Y38852D02*
X18236Y38819D01*
Y38753D01*
X18203Y38720D01*
X18170D01*
X18137Y38753D01*
Y38786D01*
Y38753D01*
X18105Y38720D01*
X18072D01*
X18039Y38753D01*
Y38819D01*
X18072Y38852D01*
X9757Y40246D02*
Y40115D01*
Y40180D01*
X9561D01*
Y40049D02*
X9757D01*
Y39951D01*
X9725Y39918D01*
X9659D01*
X9626Y39951D01*
Y40049D01*
X9725Y39852D02*
X9757Y39820D01*
Y39754D01*
X9725Y39721D01*
X9692D01*
X9659Y39754D01*
Y39787D01*
Y39754D01*
X9626Y39721D01*
X9593D01*
X9561Y39754D01*
Y39820D01*
X9593Y39852D01*
X9528Y39656D02*
Y39525D01*
X9757Y39459D02*
X9626D01*
X9561Y39393D01*
X9626Y39328D01*
X9757D01*
X9725Y39131D02*
X9757Y39164D01*
Y39229D01*
X9725Y39262D01*
X9692D01*
X9659Y39229D01*
Y39164D01*
X9626Y39131D01*
X9593D01*
X9561Y39164D01*
Y39229D01*
X9593Y39262D01*
X9757Y39065D02*
X9593D01*
X9561Y39033D01*
Y38967D01*
X9593Y38934D01*
X9757D01*
X9561Y38737D02*
Y38869D01*
X9692Y38737D01*
X9725D01*
X9757Y38770D01*
Y38836D01*
X9725Y38869D01*
X1385Y36765D02*
Y36633D01*
Y36699D01*
X1189D01*
Y36568D02*
X1385D01*
Y36469D01*
X1353Y36437D01*
X1287D01*
X1254Y36469D01*
Y36568D01*
X1353Y36371D02*
X1385Y36338D01*
Y36273D01*
X1353Y36240D01*
X1320D01*
X1287Y36273D01*
Y36305D01*
Y36273D01*
X1254Y36240D01*
X1221D01*
X1189Y36273D01*
Y36338D01*
X1221Y36371D01*
X1156Y36174D02*
Y36043D01*
X1385Y35977D02*
X1254D01*
X1189Y35912D01*
X1254Y35846D01*
X1385D01*
X1353Y35649D02*
X1385Y35682D01*
Y35748D01*
X1353Y35781D01*
X1320D01*
X1287Y35748D01*
Y35682D01*
X1254Y35649D01*
X1221D01*
X1189Y35682D01*
Y35748D01*
X1221Y35781D01*
X1385Y35584D02*
X1221D01*
X1189Y35551D01*
Y35485D01*
X1221Y35453D01*
X1385D01*
X1189Y35387D02*
Y35321D01*
Y35354D01*
X1385D01*
X1353Y35387D01*
X20204Y33334D02*
X20335D01*
X20270D01*
Y33137D01*
X20401D02*
Y33334D01*
X20499D01*
X20532Y33301D01*
Y33236D01*
X20499Y33203D01*
X20401D01*
X20729Y33137D02*
X20598D01*
X20729Y33269D01*
Y33301D01*
X20696Y33334D01*
X20630D01*
X20598Y33301D01*
X20794Y33105D02*
X20925D01*
X20991Y33334D02*
Y33203D01*
X21057Y33137D01*
X21122Y33203D01*
Y33334D01*
X21319Y33301D02*
X21286Y33334D01*
X21221D01*
X21188Y33301D01*
Y33269D01*
X21221Y33236D01*
X21286D01*
X21319Y33203D01*
Y33170D01*
X21286Y33137D01*
X21221D01*
X21188Y33170D01*
X21385Y33334D02*
Y33170D01*
X21417Y33137D01*
X21483D01*
X21516Y33170D01*
Y33334D01*
X21581Y33301D02*
X21614Y33334D01*
X21680D01*
X21713Y33301D01*
Y33269D01*
X21680Y33236D01*
X21647D01*
X21680D01*
X21713Y33203D01*
Y33170D01*
X21680Y33137D01*
X21614D01*
X21581Y33170D01*
X11726Y33351D02*
X11857D01*
X11791D01*
Y33154D01*
X11922D02*
Y33351D01*
X12021D01*
X12054Y33318D01*
Y33253D01*
X12021Y33220D01*
X11922D01*
X12250Y33154D02*
X12119D01*
X12250Y33286D01*
Y33318D01*
X12218Y33351D01*
X12152D01*
X12119Y33318D01*
X12316Y33122D02*
X12447D01*
X12513Y33351D02*
Y33220D01*
X12578Y33154D01*
X12644Y33220D01*
Y33351D01*
X12841Y33318D02*
X12808Y33351D01*
X12742D01*
X12709Y33318D01*
Y33286D01*
X12742Y33253D01*
X12808D01*
X12841Y33220D01*
Y33187D01*
X12808Y33154D01*
X12742D01*
X12709Y33187D01*
X12906Y33351D02*
Y33187D01*
X12939Y33154D01*
X13005D01*
X13037Y33187D01*
Y33351D01*
X13234Y33154D02*
X13103D01*
X13234Y33286D01*
Y33318D01*
X13201Y33351D01*
X13136D01*
X13103Y33318D01*
X3354Y29870D02*
X3485D01*
X3419D01*
Y29673D01*
X3550D02*
Y29870D01*
X3649D01*
X3682Y29837D01*
Y29771D01*
X3649Y29738D01*
X3550D01*
X3878Y29673D02*
X3747D01*
X3878Y29804D01*
Y29837D01*
X3846Y29870D01*
X3780D01*
X3747Y29837D01*
X3944Y29640D02*
X4075D01*
X4141Y29870D02*
Y29738D01*
X4206Y29673D01*
X4272Y29738D01*
Y29870D01*
X4469Y29837D02*
X4436Y29870D01*
X4370D01*
X4337Y29837D01*
Y29804D01*
X4370Y29771D01*
X4436D01*
X4469Y29738D01*
Y29706D01*
X4436Y29673D01*
X4370D01*
X4337Y29706D01*
X4534Y29870D02*
Y29706D01*
X4567Y29673D01*
X4633D01*
X4665Y29706D01*
Y29870D01*
X4731Y29673D02*
X4797D01*
X4764D01*
Y29870D01*
X4731Y29837D01*
X24560Y36941D02*
X24429D01*
X24494D01*
Y37138D01*
X24363D02*
Y36941D01*
X24265D01*
X24232Y36974D01*
Y37040D01*
X24265Y37073D01*
X24363D01*
X24166Y37138D02*
X24101D01*
X24133D01*
Y36941D01*
X24166Y36974D01*
X24002Y37171D02*
X23871D01*
X23805Y36941D02*
Y37073D01*
X23740Y37138D01*
X23674Y37073D01*
Y36941D01*
X23478Y36974D02*
X23510Y36941D01*
X23576D01*
X23609Y36974D01*
Y37007D01*
X23576Y37040D01*
X23510D01*
X23478Y37073D01*
Y37105D01*
X23510Y37138D01*
X23576D01*
X23609Y37105D01*
X23412Y36941D02*
Y37105D01*
X23379Y37138D01*
X23314D01*
X23281Y37105D01*
Y36941D01*
X23215Y36974D02*
X23182Y36941D01*
X23117D01*
X23084Y36974D01*
Y37007D01*
X23117Y37040D01*
X23150D01*
X23117D01*
X23084Y37073D01*
Y37105D01*
X23117Y37138D01*
X23182D01*
X23215Y37105D01*
X16081Y36958D02*
X15950D01*
X16016D01*
Y37155D01*
X15885D02*
Y36958D01*
X15786D01*
X15753Y36991D01*
Y37057D01*
X15786Y37090D01*
X15885D01*
X15688Y37155D02*
X15622D01*
X15655D01*
Y36958D01*
X15688Y36991D01*
X15524Y37188D02*
X15393D01*
X15327Y36958D02*
Y37090D01*
X15262Y37155D01*
X15196Y37090D01*
Y36958D01*
X14999Y36991D02*
X15032Y36958D01*
X15098D01*
X15130Y36991D01*
Y37024D01*
X15098Y37057D01*
X15032D01*
X14999Y37090D01*
Y37122D01*
X15032Y37155D01*
X15098D01*
X15130Y37122D01*
X14934Y36958D02*
Y37122D01*
X14901Y37155D01*
X14835D01*
X14802Y37122D01*
Y36958D01*
X14606Y37155D02*
X14737D01*
X14606Y37024D01*
Y36991D01*
X14638Y36958D01*
X14704D01*
X14737Y36991D01*
X7709Y33477D02*
X7578D01*
X7644D01*
Y33674D01*
X7513D02*
Y33477D01*
X7414D01*
X7381Y33510D01*
Y33575D01*
X7414Y33608D01*
X7513D01*
X7316Y33674D02*
X7250D01*
X7283D01*
Y33477D01*
X7316Y33510D01*
X7152Y33706D02*
X7021D01*
X6955Y33477D02*
Y33608D01*
X6890Y33674D01*
X6824Y33608D01*
Y33477D01*
X6627Y33510D02*
X6660Y33477D01*
X6726D01*
X6758Y33510D01*
Y33542D01*
X6726Y33575D01*
X6660D01*
X6627Y33608D01*
Y33641D01*
X6660Y33674D01*
X6726D01*
X6758Y33641D01*
X6562Y33477D02*
Y33641D01*
X6529Y33674D01*
X6463D01*
X6430Y33641D01*
Y33477D01*
X6365Y33674D02*
X6299D01*
X6332D01*
Y33477D01*
X6365Y33510D01*
X58171Y44544D02*
Y44479D01*
Y44512D01*
X58335D01*
X58368Y44479D01*
Y44446D01*
X58335Y44413D01*
X58368Y44610D02*
Y44676D01*
Y44643D01*
X58171D01*
X58204Y44610D01*
X58368Y44872D02*
X58171D01*
X58269Y44774D01*
Y44905D01*
X22867Y48428D02*
X22960D01*
X22913D01*
Y48662D01*
X22960Y48708D01*
X23007D01*
X23053Y48662D01*
X22773Y48708D02*
X22680D01*
X22727D01*
Y48428D01*
X22773Y48475D01*
X22540D02*
X22493Y48428D01*
X22400D01*
X22353Y48475D01*
Y48522D01*
X22400Y48568D01*
X22447D01*
X22400D01*
X22353Y48615D01*
Y48662D01*
X22400Y48708D01*
X22493D01*
X22540Y48662D01*
X22260Y48755D02*
X22074D01*
X21980Y48428D02*
Y48615D01*
X21887Y48708D01*
X21794Y48615D01*
Y48428D01*
X21514Y48475D02*
X21560Y48428D01*
X21654D01*
X21700Y48475D01*
Y48522D01*
X21654Y48568D01*
X21560D01*
X21514Y48615D01*
Y48662D01*
X21560Y48708D01*
X21654D01*
X21700Y48662D01*
X21420Y48428D02*
Y48662D01*
X21374Y48708D01*
X21280D01*
X21234Y48662D01*
Y48428D01*
X21140Y48475D02*
X21094Y48428D01*
X21001D01*
X20954Y48475D01*
Y48522D01*
X21001Y48568D01*
X21047D01*
X21001D01*
X20954Y48615D01*
Y48662D01*
X21001Y48708D01*
X21094D01*
X21140Y48662D01*
X14388Y48445D02*
X14482D01*
X14435D01*
Y48679D01*
X14482Y48725D01*
X14528D01*
X14575Y48679D01*
X14295Y48725D02*
X14202D01*
X14248D01*
Y48445D01*
X14295Y48492D01*
X14062D02*
X14015Y48445D01*
X13922D01*
X13875Y48492D01*
Y48539D01*
X13922Y48585D01*
X13968D01*
X13922D01*
X13875Y48632D01*
Y48679D01*
X13922Y48725D01*
X14015D01*
X14062Y48679D01*
X13782Y48772D02*
X13595D01*
X13502Y48445D02*
Y48632D01*
X13409Y48725D01*
X13315Y48632D01*
Y48445D01*
X13035Y48492D02*
X13082Y48445D01*
X13175D01*
X13222Y48492D01*
Y48539D01*
X13175Y48585D01*
X13082D01*
X13035Y48632D01*
Y48679D01*
X13082Y48725D01*
X13175D01*
X13222Y48679D01*
X12942Y48445D02*
Y48679D01*
X12895Y48725D01*
X12802D01*
X12755Y48679D01*
Y48445D01*
X12475Y48725D02*
X12662D01*
X12475Y48539D01*
Y48492D01*
X12522Y48445D01*
X12615D01*
X12662Y48492D01*
X7609Y48431D02*
X7702D01*
X7655D01*
Y48664D01*
X7702Y48711D01*
X7749D01*
X7795Y48664D01*
X7515Y48711D02*
X7422D01*
X7469D01*
Y48431D01*
X7515Y48478D01*
X7282D02*
X7235Y48431D01*
X7142D01*
X7096Y48478D01*
Y48524D01*
X7142Y48571D01*
X7189D01*
X7142D01*
X7096Y48618D01*
Y48664D01*
X7142Y48711D01*
X7235D01*
X7282Y48664D01*
X7002Y48758D02*
X6816D01*
X6722Y48431D02*
Y48618D01*
X6629Y48711D01*
X6536Y48618D01*
Y48431D01*
X6256Y48478D02*
X6302Y48431D01*
X6396D01*
X6442Y48478D01*
Y48524D01*
X6396Y48571D01*
X6302D01*
X6256Y48618D01*
Y48664D01*
X6302Y48711D01*
X6396D01*
X6442Y48664D01*
X6162Y48431D02*
Y48664D01*
X6116Y48711D01*
X6023D01*
X5976Y48664D01*
Y48431D01*
X5883Y48711D02*
X5789D01*
X5836D01*
Y48431D01*
X5883Y48478D01*
X45172Y49455D02*
X45265D01*
X45218D01*
Y49688D01*
X45265Y49735D01*
X45312D01*
X45358Y49688D01*
X45078Y49735D02*
X44985D01*
X45032D01*
Y49455D01*
X45078Y49502D01*
X44658Y49735D02*
X44845D01*
X44658Y49549D01*
Y49502D01*
X44705Y49455D01*
X44798D01*
X44845Y49502D01*
X35723Y49241D02*
X35817D01*
X35770D01*
Y49474D01*
X35817Y49521D01*
X35863D01*
X35910Y49474D01*
X35630Y49521D02*
X35537D01*
X35583D01*
Y49241D01*
X35630Y49288D01*
X35397Y49521D02*
X35303D01*
X35350D01*
Y49241D01*
X35397Y49288D01*
X2276Y10812D02*
Y10906D01*
Y10859D01*
X2042D01*
X1996Y10906D01*
Y10952D01*
X2042Y10999D01*
X1996Y10719D02*
Y10626D01*
Y10672D01*
X2276D01*
X2229Y10719D01*
Y10486D02*
X2276Y10439D01*
Y10346D01*
X2229Y10299D01*
X2042D01*
X1996Y10346D01*
Y10439D01*
X2042Y10486D01*
X2229D01*
X2276Y20556D02*
Y20650D01*
Y20603D01*
X2042D01*
X1996Y20650D01*
Y20696D01*
X2042Y20743D01*
Y20463D02*
X1996Y20416D01*
Y20323D01*
X2042Y20276D01*
X2229D01*
X2276Y20323D01*
Y20416D01*
X2229Y20463D01*
X2182D01*
X2136Y20416D01*
Y20276D01*
X67109Y14943D02*
Y15036D01*
Y14990D01*
X66876D01*
X66829Y15036D01*
Y15083D01*
X66876Y15130D01*
X67109Y14663D02*
X67062Y14756D01*
X66969Y14850D01*
X66876D01*
X66829Y14803D01*
Y14710D01*
X66876Y14663D01*
X66922D01*
X66969Y14710D01*
Y14850D01*
X64802Y16163D02*
X64868D01*
X64835D01*
Y16327D01*
X64868Y16360D01*
X64901D01*
X64933Y16327D01*
X64605Y16163D02*
X64737D01*
Y16261D01*
X64671Y16229D01*
X64638D01*
X64605Y16261D01*
Y16327D01*
X64638Y16360D01*
X64704D01*
X64737Y16327D01*
X71874Y42165D02*
Y42072D01*
Y42118D01*
X72107D01*
X72154Y42072D01*
Y42025D01*
X72107Y41978D01*
X72154Y42398D02*
X71874D01*
X72014Y42258D01*
Y42445D01*
X62896Y25415D02*
Y25509D01*
Y25462D01*
X62663D01*
X62617Y25509D01*
Y25555D01*
X62663Y25602D01*
X62850Y25322D02*
X62896Y25275D01*
Y25182D01*
X62850Y25135D01*
X62803D01*
X62756Y25182D01*
Y25229D01*
Y25182D01*
X62710Y25135D01*
X62663D01*
X62617Y25182D01*
Y25275D01*
X62663Y25322D01*
X63955Y28251D02*
X63861D01*
X63908D01*
Y28018D01*
X63861Y27971D01*
X63815D01*
X63768Y28018D01*
X64235Y27971D02*
X64048D01*
X64235Y28157D01*
Y28204D01*
X64188Y28251D01*
X64095D01*
X64048Y28204D01*
X40622Y45576D02*
X40819D01*
Y45674D01*
X40786Y45707D01*
X40655D01*
X40622Y45674D01*
Y45576D01*
X40786Y45773D02*
X40819Y45806D01*
Y45871D01*
X40786Y45904D01*
X40655D01*
X40622Y45871D01*
Y45806D01*
X40655Y45773D01*
X40687D01*
X40720Y45806D01*
Y45904D01*
X48340Y45538D02*
X48536D01*
Y45637D01*
X48503Y45670D01*
X48372D01*
X48340Y45637D01*
Y45538D01*
X48372Y45735D02*
X48340Y45768D01*
Y45834D01*
X48372Y45866D01*
X48405D01*
X48438Y45834D01*
X48471Y45866D01*
X48503D01*
X48536Y45834D01*
Y45768D01*
X48503Y45735D01*
X48471D01*
X48438Y45768D01*
X48405Y45735D01*
X48372D01*
X48438Y45768D02*
Y45834D01*
X46527Y45538D02*
X46724D01*
Y45637D01*
X46691Y45670D01*
X46560D01*
X46527Y45637D01*
Y45538D01*
Y45735D02*
Y45866D01*
X46560D01*
X46691Y45735D01*
X46724D01*
X41437Y45767D02*
X41457Y45787D01*
X41496D01*
X41516Y45767D01*
Y45688D01*
X41496Y45669D01*
X41457D01*
X41437Y45688D01*
X41319Y45669D02*
X41398D01*
X41319Y45747D01*
Y45767D01*
X41339Y45787D01*
X41378D01*
X41398Y45767D01*
X41201Y45787D02*
X41280D01*
Y45728D01*
X41240Y45747D01*
X41221D01*
X41201Y45728D01*
Y45688D01*
X41221Y45669D01*
X41260D01*
X41280Y45688D01*
X49350Y45867D02*
X49331Y45887D01*
X49291D01*
X49272Y45867D01*
Y45788D01*
X49291Y45768D01*
X49331D01*
X49350Y45788D01*
X49468Y45768D02*
X49390D01*
X49468Y45847D01*
Y45867D01*
X49449Y45887D01*
X49409D01*
X49390Y45867D01*
X49567Y45768D02*
Y45887D01*
X49508Y45827D01*
X49586D01*
X46358Y45645D02*
X46338Y45625D01*
X46299D01*
X46279Y45645D01*
Y45724D01*
X46299Y45743D01*
X46338D01*
X46358Y45724D01*
X46476Y45743D02*
X46398D01*
X46476Y45665D01*
Y45645D01*
X46457Y45625D01*
X46417D01*
X46398Y45645D01*
X46516D02*
X46535Y45625D01*
X46575D01*
X46594Y45645D01*
Y45665D01*
X46575Y45684D01*
X46555D01*
X46575D01*
X46594Y45704D01*
Y45724D01*
X46575Y45743D01*
X46535D01*
X46516Y45724D01*
X18957Y43896D02*
X18976Y43876D01*
X19016D01*
X19036Y43896D01*
Y43975D01*
X19016Y43994D01*
X18976D01*
X18957Y43975D01*
X18839Y43994D02*
X18917D01*
X18839Y43915D01*
Y43896D01*
X18858Y43876D01*
X18898D01*
X18917Y43896D01*
X18721Y43994D02*
X18799D01*
X18721Y43915D01*
Y43896D01*
X18740Y43876D01*
X18780D01*
X18799Y43896D01*
X18681Y44014D02*
X18603D01*
X18563Y43876D02*
Y43955D01*
X18524Y43994D01*
X18485Y43955D01*
Y43876D01*
X18366Y43896D02*
X18386Y43876D01*
X18425D01*
X18445Y43896D01*
Y43915D01*
X18425Y43935D01*
X18386D01*
X18366Y43955D01*
Y43975D01*
X18386Y43994D01*
X18425D01*
X18445Y43975D01*
X18327Y43876D02*
Y43975D01*
X18307Y43994D01*
X18268D01*
X18248Y43975D01*
Y43876D01*
X18209Y43896D02*
X18189Y43876D01*
X18150D01*
X18130Y43896D01*
Y43915D01*
X18150Y43935D01*
X18170D01*
X18150D01*
X18130Y43955D01*
Y43975D01*
X18150Y43994D01*
X18189D01*
X18209Y43975D01*
X10478Y43913D02*
X10498Y43893D01*
X10537D01*
X10557Y43913D01*
Y43991D01*
X10537Y44011D01*
X10498D01*
X10478Y43991D01*
X10360Y44011D02*
X10439D01*
X10360Y43932D01*
Y43913D01*
X10380Y43893D01*
X10419D01*
X10439Y43913D01*
X10242Y44011D02*
X10321D01*
X10242Y43932D01*
Y43913D01*
X10262Y43893D01*
X10301D01*
X10321Y43913D01*
X10203Y44031D02*
X10124D01*
X10085Y43893D02*
Y43972D01*
X10045Y44011D01*
X10006Y43972D01*
Y43893D01*
X9888Y43913D02*
X9908Y43893D01*
X9947D01*
X9967Y43913D01*
Y43932D01*
X9947Y43952D01*
X9908D01*
X9888Y43972D01*
Y43991D01*
X9908Y44011D01*
X9947D01*
X9967Y43991D01*
X9849Y43893D02*
Y43991D01*
X9829Y44011D01*
X9790D01*
X9770Y43991D01*
Y43893D01*
X9652Y44011D02*
X9731D01*
X9652Y43932D01*
Y43913D01*
X9672Y43893D01*
X9711D01*
X9731Y43913D01*
X2106Y40431D02*
X2126Y40412D01*
X2165D01*
X2185Y40431D01*
Y40510D01*
X2165Y40530D01*
X2126D01*
X2106Y40510D01*
X1988Y40530D02*
X2067D01*
X1988Y40451D01*
Y40431D01*
X2008Y40412D01*
X2047D01*
X2067Y40431D01*
X1870Y40530D02*
X1949D01*
X1870Y40451D01*
Y40431D01*
X1890Y40412D01*
X1929D01*
X1949Y40431D01*
X1831Y40549D02*
X1752D01*
X1713Y40412D02*
Y40490D01*
X1673Y40530D01*
X1634Y40490D01*
Y40412D01*
X1516Y40431D02*
X1536Y40412D01*
X1575D01*
X1595Y40431D01*
Y40451D01*
X1575Y40471D01*
X1536D01*
X1516Y40490D01*
Y40510D01*
X1536Y40530D01*
X1575D01*
X1595Y40510D01*
X1477Y40412D02*
Y40510D01*
X1457Y40530D01*
X1418D01*
X1398Y40510D01*
Y40412D01*
X1359Y40530D02*
X1319D01*
X1339D01*
Y40412D01*
X1359Y40431D01*
X20748Y41477D02*
X20768Y41457D01*
X20807D01*
X20827Y41477D01*
Y41556D01*
X20807Y41575D01*
X20768D01*
X20748Y41556D01*
X20630Y41575D02*
X20709D01*
X20630Y41497D01*
Y41477D01*
X20650Y41457D01*
X20689D01*
X20709Y41477D01*
X20591Y41575D02*
X20551D01*
X20571D01*
Y41457D01*
X20591Y41477D01*
X20492Y41595D02*
X20414D01*
X20374Y41457D02*
Y41536D01*
X20335Y41575D01*
X20296Y41536D01*
Y41457D01*
X20177Y41477D02*
X20197Y41457D01*
X20236D01*
X20256Y41477D01*
Y41497D01*
X20236Y41516D01*
X20197D01*
X20177Y41536D01*
Y41556D01*
X20197Y41575D01*
X20236D01*
X20256Y41556D01*
X20138Y41457D02*
Y41556D01*
X20118Y41575D01*
X20079D01*
X20059Y41556D01*
Y41457D01*
X20020Y41477D02*
X20000Y41457D01*
X19961D01*
X19941Y41477D01*
Y41497D01*
X19961Y41516D01*
X19981D01*
X19961D01*
X19941Y41536D01*
Y41556D01*
X19961Y41575D01*
X20000D01*
X20020Y41556D01*
X12270Y41494D02*
X12289Y41474D01*
X12329D01*
X12348Y41494D01*
Y41573D01*
X12329Y41592D01*
X12289D01*
X12270Y41573D01*
X12152Y41592D02*
X12230D01*
X12152Y41514D01*
Y41494D01*
X12171Y41474D01*
X12211D01*
X12230Y41494D01*
X12112Y41592D02*
X12073D01*
X12093D01*
Y41474D01*
X12112Y41494D01*
X12014Y41612D02*
X11935D01*
X11896Y41474D02*
Y41553D01*
X11856Y41592D01*
X11817Y41553D01*
Y41474D01*
X11699Y41494D02*
X11719Y41474D01*
X11758D01*
X11778Y41494D01*
Y41514D01*
X11758Y41533D01*
X11719D01*
X11699Y41553D01*
Y41573D01*
X11719Y41592D01*
X11758D01*
X11778Y41573D01*
X11660Y41474D02*
Y41573D01*
X11640Y41592D01*
X11601D01*
X11581Y41573D01*
Y41474D01*
X11463Y41592D02*
X11542D01*
X11463Y41514D01*
Y41494D01*
X11483Y41474D01*
X11522D01*
X11542Y41494D01*
X3898Y38012D02*
X3917Y37993D01*
X3957D01*
X3976Y38012D01*
Y38091D01*
X3957Y38111D01*
X3917D01*
X3898Y38091D01*
X3780Y38111D02*
X3858D01*
X3780Y38032D01*
Y38012D01*
X3799Y37993D01*
X3839D01*
X3858Y38012D01*
X3740Y38111D02*
X3701D01*
X3721D01*
Y37993D01*
X3740Y38012D01*
X3642Y38131D02*
X3563D01*
X3524Y37993D02*
Y38072D01*
X3484Y38111D01*
X3445Y38072D01*
Y37993D01*
X3327Y38012D02*
X3347Y37993D01*
X3386D01*
X3406Y38012D01*
Y38032D01*
X3386Y38052D01*
X3347D01*
X3327Y38072D01*
Y38091D01*
X3347Y38111D01*
X3386D01*
X3406Y38091D01*
X3288Y37993D02*
Y38091D01*
X3268Y38111D01*
X3229D01*
X3209Y38091D01*
Y37993D01*
X3170Y38111D02*
X3130D01*
X3150D01*
Y37993D01*
X3170Y38012D01*
X17854Y33858D02*
X17835Y33877D01*
X17795D01*
X17776Y33858D01*
Y33779D01*
X17795Y33759D01*
X17835D01*
X17854Y33779D01*
X17972Y33759D02*
X17894D01*
X17972Y33838D01*
Y33858D01*
X17953Y33877D01*
X17913D01*
X17894Y33858D01*
X18012D02*
X18031Y33877D01*
X18071D01*
X18090Y33858D01*
Y33779D01*
X18071Y33759D01*
X18031D01*
X18012Y33779D01*
Y33858D01*
X18130Y33740D02*
X18208D01*
X18248Y33877D02*
Y33799D01*
X18287Y33759D01*
X18327Y33799D01*
Y33877D01*
X18445Y33858D02*
X18425Y33877D01*
X18386D01*
X18366Y33858D01*
Y33838D01*
X18386Y33818D01*
X18425D01*
X18445Y33799D01*
Y33779D01*
X18425Y33759D01*
X18386D01*
X18366Y33779D01*
X18484Y33877D02*
Y33779D01*
X18504Y33759D01*
X18543D01*
X18563Y33779D01*
Y33877D01*
X18602Y33858D02*
X18622Y33877D01*
X18661D01*
X18681Y33858D01*
Y33838D01*
X18661Y33818D01*
X18641D01*
X18661D01*
X18681Y33799D01*
Y33779D01*
X18661Y33759D01*
X18622D01*
X18602Y33779D01*
X9376Y33875D02*
X9356Y33894D01*
X9317D01*
X9297Y33875D01*
Y33796D01*
X9317Y33776D01*
X9356D01*
X9376Y33796D01*
X9494Y33776D02*
X9415D01*
X9494Y33855D01*
Y33875D01*
X9474Y33894D01*
X9435D01*
X9415Y33875D01*
X9533D02*
X9553Y33894D01*
X9592D01*
X9612Y33875D01*
Y33796D01*
X9592Y33776D01*
X9553D01*
X9533Y33796D01*
Y33875D01*
X9651Y33756D02*
X9730D01*
X9769Y33894D02*
Y33816D01*
X9809Y33776D01*
X9848Y33816D01*
Y33894D01*
X9966Y33875D02*
X9947Y33894D01*
X9907D01*
X9887Y33875D01*
Y33855D01*
X9907Y33835D01*
X9947D01*
X9966Y33816D01*
Y33796D01*
X9947Y33776D01*
X9907D01*
X9887Y33796D01*
X10006Y33894D02*
Y33796D01*
X10025Y33776D01*
X10065D01*
X10084Y33796D01*
Y33894D01*
X10202Y33776D02*
X10124D01*
X10202Y33855D01*
Y33875D01*
X10183Y33894D01*
X10143D01*
X10124Y33875D01*
X1004Y30393D02*
X984Y30413D01*
X945D01*
X925Y30393D01*
Y30314D01*
X945Y30295D01*
X984D01*
X1004Y30314D01*
X1122Y30295D02*
X1043D01*
X1122Y30373D01*
Y30393D01*
X1102Y30413D01*
X1063D01*
X1043Y30393D01*
X1161D02*
X1181Y30413D01*
X1220D01*
X1240Y30393D01*
Y30314D01*
X1220Y30295D01*
X1181D01*
X1161Y30314D01*
Y30393D01*
X1279Y30275D02*
X1358D01*
X1397Y30413D02*
Y30334D01*
X1437Y30295D01*
X1476Y30334D01*
Y30413D01*
X1594Y30393D02*
X1575Y30413D01*
X1535D01*
X1515Y30393D01*
Y30373D01*
X1535Y30354D01*
X1575D01*
X1594Y30334D01*
Y30314D01*
X1575Y30295D01*
X1535D01*
X1515Y30314D01*
X1634Y30413D02*
Y30314D01*
X1653Y30295D01*
X1693D01*
X1712Y30314D01*
Y30413D01*
X1752Y30295D02*
X1791D01*
X1771D01*
Y30413D01*
X1752Y30393D01*
X18688Y36339D02*
X18708Y36358D01*
Y36398D01*
X18688Y36417D01*
X18609D01*
X18590Y36398D01*
Y36358D01*
X18609Y36339D01*
X18590Y36299D02*
Y36260D01*
Y36280D01*
X18708D01*
X18688Y36299D01*
X18609Y36201D02*
X18590Y36181D01*
Y36142D01*
X18609Y36122D01*
X18688D01*
X18708Y36142D01*
Y36181D01*
X18688Y36201D01*
X18668D01*
X18649Y36181D01*
Y36122D01*
X18570Y36083D02*
Y36004D01*
X18708Y35965D02*
X18629D01*
X18590Y35925D01*
X18629Y35886D01*
X18708D01*
X18688Y35768D02*
X18708Y35788D01*
Y35827D01*
X18688Y35847D01*
X18668D01*
X18649Y35827D01*
Y35788D01*
X18629Y35768D01*
X18609D01*
X18590Y35788D01*
Y35827D01*
X18609Y35847D01*
X18708Y35729D02*
X18609D01*
X18590Y35709D01*
Y35670D01*
X18609Y35650D01*
X18708D01*
X18688Y35611D02*
X18708Y35591D01*
Y35552D01*
X18688Y35532D01*
X18668D01*
X18649Y35552D01*
Y35571D01*
Y35552D01*
X18629Y35532D01*
X18609D01*
X18590Y35552D01*
Y35591D01*
X18609Y35611D01*
X10210Y36356D02*
X10229Y36375D01*
Y36415D01*
X10210Y36434D01*
X10131D01*
X10111Y36415D01*
Y36375D01*
X10131Y36356D01*
X10111Y36316D02*
Y36277D01*
Y36297D01*
X10229D01*
X10210Y36316D01*
X10131Y36218D02*
X10111Y36198D01*
Y36159D01*
X10131Y36139D01*
X10210D01*
X10229Y36159D01*
Y36198D01*
X10210Y36218D01*
X10190D01*
X10170Y36198D01*
Y36139D01*
X10091Y36100D02*
Y36021D01*
X10229Y35982D02*
X10151D01*
X10111Y35942D01*
X10151Y35903D01*
X10229D01*
X10210Y35785D02*
X10229Y35805D01*
Y35844D01*
X10210Y35864D01*
X10190D01*
X10170Y35844D01*
Y35805D01*
X10151Y35785D01*
X10131D01*
X10111Y35805D01*
Y35844D01*
X10131Y35864D01*
X10229Y35746D02*
X10131D01*
X10111Y35726D01*
Y35687D01*
X10131Y35667D01*
X10229D01*
X10111Y35549D02*
Y35628D01*
X10190Y35549D01*
X10210D01*
X10229Y35568D01*
Y35608D01*
X10210Y35628D01*
X1838Y32874D02*
X1857Y32894D01*
Y32933D01*
X1838Y32953D01*
X1759D01*
X1739Y32933D01*
Y32894D01*
X1759Y32874D01*
X1739Y32835D02*
Y32795D01*
Y32815D01*
X1857D01*
X1838Y32835D01*
X1759Y32736D02*
X1739Y32717D01*
Y32677D01*
X1759Y32658D01*
X1838D01*
X1857Y32677D01*
Y32717D01*
X1838Y32736D01*
X1818D01*
X1798Y32717D01*
Y32658D01*
X1719Y32618D02*
Y32540D01*
X1857Y32500D02*
X1778D01*
X1739Y32461D01*
X1778Y32422D01*
X1857D01*
X1838Y32303D02*
X1857Y32323D01*
Y32362D01*
X1838Y32382D01*
X1818D01*
X1798Y32362D01*
Y32323D01*
X1778Y32303D01*
X1759D01*
X1739Y32323D01*
Y32362D01*
X1759Y32382D01*
X1857Y32264D02*
X1759D01*
X1739Y32244D01*
Y32205D01*
X1759Y32185D01*
X1857D01*
X1739Y32146D02*
Y32107D01*
Y32126D01*
X1857D01*
X1838Y32146D01*
X23110Y41594D02*
X23090Y41614D01*
X23051D01*
X23031Y41594D01*
Y41515D01*
X23051Y41495D01*
X23090D01*
X23110Y41515D01*
X23149Y41495D02*
X23189D01*
X23169D01*
Y41614D01*
X23149Y41594D01*
X23248D02*
X23268Y41614D01*
X23307D01*
X23327Y41594D01*
Y41574D01*
X23307Y41554D01*
X23327Y41535D01*
Y41515D01*
X23307Y41495D01*
X23268D01*
X23248Y41515D01*
Y41535D01*
X23268Y41554D01*
X23248Y41574D01*
Y41594D01*
X23268Y41554D02*
X23307D01*
X23366Y41476D02*
X23445D01*
X23484Y41614D02*
Y41535D01*
X23523Y41495D01*
X23563Y41535D01*
Y41614D01*
X23681Y41594D02*
X23661Y41614D01*
X23622D01*
X23602Y41594D01*
Y41574D01*
X23622Y41554D01*
X23661D01*
X23681Y41535D01*
Y41515D01*
X23661Y41495D01*
X23622D01*
X23602Y41515D01*
X23720Y41614D02*
Y41515D01*
X23740Y41495D01*
X23779D01*
X23799Y41515D01*
Y41614D01*
X23838Y41594D02*
X23858Y41614D01*
X23897D01*
X23917Y41594D01*
Y41574D01*
X23897Y41554D01*
X23878D01*
X23897D01*
X23917Y41535D01*
Y41515D01*
X23897Y41495D01*
X23858D01*
X23838Y41515D01*
X14632Y41611D02*
X14612Y41630D01*
X14573D01*
X14553Y41611D01*
Y41532D01*
X14573Y41512D01*
X14612D01*
X14632Y41532D01*
X14671Y41512D02*
X14710D01*
X14691D01*
Y41630D01*
X14671Y41611D01*
X14770D02*
X14789Y41630D01*
X14829D01*
X14848Y41611D01*
Y41591D01*
X14829Y41571D01*
X14848Y41552D01*
Y41532D01*
X14829Y41512D01*
X14789D01*
X14770Y41532D01*
Y41552D01*
X14789Y41571D01*
X14770Y41591D01*
Y41611D01*
X14789Y41571D02*
X14829D01*
X14888Y41493D02*
X14966D01*
X15006Y41630D02*
Y41552D01*
X15045Y41512D01*
X15084Y41552D01*
Y41630D01*
X15202Y41611D02*
X15183Y41630D01*
X15143D01*
X15124Y41611D01*
Y41591D01*
X15143Y41571D01*
X15183D01*
X15202Y41552D01*
Y41532D01*
X15183Y41512D01*
X15143D01*
X15124Y41532D01*
X15242Y41630D02*
Y41532D01*
X15261Y41512D01*
X15301D01*
X15321Y41532D01*
Y41630D01*
X15439Y41512D02*
X15360D01*
X15439Y41591D01*
Y41611D01*
X15419Y41630D01*
X15380D01*
X15360Y41611D01*
X6260Y38129D02*
X6240Y38149D01*
X6201D01*
X6181Y38129D01*
Y38051D01*
X6201Y38031D01*
X6240D01*
X6260Y38051D01*
X6299Y38031D02*
X6338D01*
X6319D01*
Y38149D01*
X6299Y38129D01*
X6397D02*
X6417Y38149D01*
X6457D01*
X6476Y38129D01*
Y38110D01*
X6457Y38090D01*
X6476Y38070D01*
Y38051D01*
X6457Y38031D01*
X6417D01*
X6397Y38051D01*
Y38070D01*
X6417Y38090D01*
X6397Y38110D01*
Y38129D01*
X6417Y38090D02*
X6457D01*
X6516Y38011D02*
X6594D01*
X6634Y38149D02*
Y38070D01*
X6673Y38031D01*
X6712Y38070D01*
Y38149D01*
X6830Y38129D02*
X6811Y38149D01*
X6771D01*
X6752Y38129D01*
Y38110D01*
X6771Y38090D01*
X6811D01*
X6830Y38070D01*
Y38051D01*
X6811Y38031D01*
X6771D01*
X6752Y38051D01*
X6870Y38149D02*
Y38051D01*
X6889Y38031D01*
X6929D01*
X6948Y38051D01*
Y38149D01*
X6988Y38031D02*
X7027D01*
X7008D01*
Y38149D01*
X6988Y38129D01*
X24645Y35571D02*
X24665Y35591D01*
Y35630D01*
X24645Y35650D01*
X24566D01*
X24547Y35630D01*
Y35591D01*
X24566Y35571D01*
X24547Y35532D02*
Y35492D01*
Y35512D01*
X24665D01*
X24645Y35532D01*
X24665Y35433D02*
Y35355D01*
X24645D01*
X24566Y35433D01*
X24547D01*
X24527Y35315D02*
Y35236D01*
X24665Y35197D02*
X24586D01*
X24547Y35158D01*
X24586Y35118D01*
X24665D01*
X24645Y35000D02*
X24665Y35020D01*
Y35059D01*
X24645Y35079D01*
X24625D01*
X24606Y35059D01*
Y35020D01*
X24586Y35000D01*
X24566D01*
X24547Y35020D01*
Y35059D01*
X24566Y35079D01*
X24665Y34961D02*
X24566D01*
X24547Y34941D01*
Y34902D01*
X24566Y34882D01*
X24665D01*
X24645Y34843D02*
X24665Y34823D01*
Y34784D01*
X24645Y34764D01*
X24625D01*
X24606Y34784D01*
Y34804D01*
Y34784D01*
X24586Y34764D01*
X24566D01*
X24547Y34784D01*
Y34823D01*
X24566Y34843D01*
X16167Y35588D02*
X16186Y35608D01*
Y35647D01*
X16167Y35667D01*
X16088D01*
X16068Y35647D01*
Y35608D01*
X16088Y35588D01*
X16068Y35549D02*
Y35509D01*
Y35529D01*
X16186D01*
X16167Y35549D01*
X16186Y35450D02*
Y35371D01*
X16167D01*
X16088Y35450D01*
X16068D01*
X16049Y35332D02*
Y35253D01*
X16186Y35214D02*
X16108D01*
X16068Y35175D01*
X16108Y35135D01*
X16186D01*
X16167Y35017D02*
X16186Y35037D01*
Y35076D01*
X16167Y35096D01*
X16147D01*
X16127Y35076D01*
Y35037D01*
X16108Y35017D01*
X16088D01*
X16068Y35037D01*
Y35076D01*
X16088Y35096D01*
X16186Y34978D02*
X16088D01*
X16068Y34958D01*
Y34919D01*
X16088Y34899D01*
X16186D01*
X16068Y34781D02*
Y34860D01*
X16147Y34781D01*
X16167D01*
X16186Y34801D01*
Y34840D01*
X16167Y34860D01*
X7795Y32106D02*
X7814Y32126D01*
Y32165D01*
X7795Y32185D01*
X7716D01*
X7696Y32165D01*
Y32126D01*
X7716Y32106D01*
X7696Y32067D02*
Y32028D01*
Y32047D01*
X7814D01*
X7795Y32067D01*
X7814Y31969D02*
Y31890D01*
X7795D01*
X7716Y31969D01*
X7696D01*
X7677Y31851D02*
Y31772D01*
X7814Y31733D02*
X7736D01*
X7696Y31693D01*
X7736Y31654D01*
X7814D01*
X7795Y31536D02*
X7814Y31555D01*
Y31595D01*
X7795Y31614D01*
X7775D01*
X7755Y31595D01*
Y31555D01*
X7736Y31536D01*
X7716D01*
X7696Y31555D01*
Y31595D01*
X7716Y31614D01*
X7814Y31496D02*
X7716D01*
X7696Y31477D01*
Y31437D01*
X7716Y31418D01*
X7814D01*
X7696Y31378D02*
Y31339D01*
Y31359D01*
X7814D01*
X7795Y31378D01*
X27078Y34409D02*
X27059Y34390D01*
Y34350D01*
X27078Y34331D01*
X27157D01*
X27177Y34350D01*
Y34390D01*
X27157Y34409D01*
X27177Y34449D02*
Y34488D01*
Y34468D01*
X27059D01*
X27078Y34449D01*
X27059Y34626D02*
X27078Y34586D01*
X27118Y34547D01*
X27157D01*
X27177Y34567D01*
Y34606D01*
X27157Y34626D01*
X27137D01*
X27118Y34606D01*
Y34547D01*
X27184Y37362D02*
X27204Y37382D01*
Y37421D01*
X27184Y37441D01*
X27106D01*
X27086Y37421D01*
Y37382D01*
X27106Y37362D01*
X27086Y37323D02*
Y37284D01*
Y37303D01*
X27204D01*
X27184Y37323D01*
X27204Y37146D02*
Y37225D01*
X27145D01*
X27165Y37185D01*
Y37166D01*
X27145Y37146D01*
X27106D01*
X27086Y37166D01*
Y37205D01*
X27106Y37225D01*
X27068Y41653D02*
X27048Y41634D01*
Y41594D01*
X27068Y41575D01*
X27146D01*
X27166Y41594D01*
Y41634D01*
X27146Y41653D01*
X27166Y41693D02*
Y41732D01*
Y41712D01*
X27048D01*
X27068Y41693D01*
X27166Y41850D02*
X27048D01*
X27107Y41791D01*
Y41870D01*
X27184Y40965D02*
X27204Y40984D01*
Y41024D01*
X27184Y41043D01*
X27106D01*
X27086Y41024D01*
Y40984D01*
X27106Y40965D01*
X27086Y40925D02*
Y40886D01*
Y40906D01*
X27204D01*
X27184Y40925D01*
Y40827D02*
X27204Y40807D01*
Y40768D01*
X27184Y40748D01*
X27165D01*
X27145Y40768D01*
Y40788D01*
Y40768D01*
X27125Y40748D01*
X27106D01*
X27086Y40768D01*
Y40807D01*
X27106Y40827D01*
X27068Y38110D02*
X27048Y38090D01*
Y38051D01*
X27068Y38031D01*
X27146D01*
X27166Y38051D01*
Y38090D01*
X27146Y38110D01*
X27166Y38149D02*
Y38189D01*
Y38169D01*
X27048D01*
X27068Y38149D01*
X27166Y38327D02*
Y38248D01*
X27087Y38327D01*
X27068D01*
X27048Y38307D01*
Y38268D01*
X27068Y38248D01*
X35374Y36044D02*
X35394Y36024D01*
X35433D01*
X35453Y36044D01*
Y36123D01*
X35433Y36142D01*
X35394D01*
X35374Y36123D01*
X35335Y36142D02*
X35295D01*
X35315D01*
Y36024D01*
X35335Y36044D01*
X35236Y36142D02*
X35197D01*
X35217D01*
Y36024D01*
X35236Y36044D01*
X35374Y37028D02*
X35394Y37009D01*
X35433D01*
X35453Y37028D01*
Y37107D01*
X35433Y37127D01*
X35394D01*
X35374Y37107D01*
X35335Y37127D02*
X35295D01*
X35315D01*
Y37009D01*
X35335Y37028D01*
X35236D02*
X35217Y37009D01*
X35177D01*
X35158Y37028D01*
Y37107D01*
X35177Y37127D01*
X35217D01*
X35236Y37107D01*
Y37028D01*
X35374Y38012D02*
X35394Y37993D01*
X35433D01*
X35453Y38012D01*
Y38091D01*
X35433Y38111D01*
X35394D01*
X35374Y38091D01*
X35335D02*
X35315Y38111D01*
X35276D01*
X35256Y38091D01*
Y38012D01*
X35276Y37993D01*
X35315D01*
X35335Y38012D01*
Y38032D01*
X35315Y38052D01*
X35256D01*
X35374Y38997D02*
X35394Y38977D01*
X35433D01*
X35453Y38997D01*
Y39075D01*
X35433Y39095D01*
X35394D01*
X35374Y39075D01*
X35335Y38997D02*
X35315Y38977D01*
X35276D01*
X35256Y38997D01*
Y39016D01*
X35276Y39036D01*
X35256Y39056D01*
Y39075D01*
X35276Y39095D01*
X35315D01*
X35335Y39075D01*
Y39056D01*
X35315Y39036D01*
X35335Y39016D01*
Y38997D01*
X35315Y39036D02*
X35276D01*
X35374Y40178D02*
X35394Y40158D01*
X35433D01*
X35453Y40178D01*
Y40257D01*
X35433Y40276D01*
X35394D01*
X35374Y40257D01*
X35335Y40158D02*
X35256D01*
Y40178D01*
X35335Y40257D01*
Y40276D01*
X35394Y41320D02*
X35413Y41300D01*
X35453D01*
X35473Y41320D01*
Y41398D01*
X35453Y41418D01*
X35413D01*
X35394Y41398D01*
X35276Y41300D02*
X35315Y41320D01*
X35354Y41359D01*
Y41398D01*
X35335Y41418D01*
X35295D01*
X35276Y41398D01*
Y41379D01*
X35295Y41359D01*
X35354D01*
X34154Y34784D02*
X34173Y34764D01*
X34213D01*
X34232Y34784D01*
Y34863D01*
X34213Y34883D01*
X34173D01*
X34154Y34863D01*
X34036Y34764D02*
X34114D01*
Y34823D01*
X34075Y34804D01*
X34055D01*
X34036Y34823D01*
Y34863D01*
X34055Y34883D01*
X34095D01*
X34114Y34863D01*
X52362Y37486D02*
X52342Y37505D01*
X52303D01*
X52283Y37486D01*
Y37407D01*
X52303Y37387D01*
X52342D01*
X52362Y37407D01*
X52460Y37387D02*
Y37505D01*
X52401Y37446D01*
X52480D01*
X68721Y27658D02*
X68740Y27638D01*
X68780D01*
X68799Y27658D01*
Y27737D01*
X68780Y27757D01*
X68740D01*
X68721Y27737D01*
X68681Y27658D02*
X68662Y27638D01*
X68622D01*
X68603Y27658D01*
Y27678D01*
X68622Y27698D01*
X68642D01*
X68622D01*
X68603Y27717D01*
Y27737D01*
X68622Y27757D01*
X68662D01*
X68681Y27737D01*
X60492Y28779D02*
X60472Y28799D01*
X60433D01*
X60413Y28779D01*
Y28700D01*
X60433Y28680D01*
X60472D01*
X60492Y28700D01*
X60610Y28680D02*
X60531D01*
X60610Y28759D01*
Y28779D01*
X60590Y28799D01*
X60551D01*
X60531Y28779D01*
X54449Y44783D02*
X54430Y44764D01*
Y44724D01*
X54449Y44705D01*
X54528D01*
X54548Y44724D01*
Y44764D01*
X54528Y44783D01*
X54548Y44823D02*
Y44862D01*
Y44842D01*
X54430D01*
X54449Y44823D01*
M02*
