G04*
G04 #@! TF.GenerationSoftware,Altium Limited,Altium Designer,19.0.12 (326)*
G04*
G04 Layer_Physical_Order=1*
G04 Layer_Color=255*
%FSLAX24Y24*%
%MOIN*%
G70*
G01*
G75*
%ADD13C,0.0157*%
%ADD24R,0.0512X0.0276*%
%ADD25R,0.0300X0.0600*%
%ADD26R,0.0200X0.0750*%
%ADD27R,0.0600X0.0300*%
%ADD28R,0.1500X0.0800*%
%ADD29R,0.0800X0.1500*%
%ADD30R,0.0276X0.0512*%
%ADD31R,0.1969X0.2362*%
%ADD32R,0.0472X0.0472*%
%ADD33R,0.0750X0.0550*%
%ADD34R,0.0472X0.0472*%
%ADD35R,0.0315X0.0236*%
%ADD36R,0.0236X0.0315*%
%ADD37R,0.0354X0.0512*%
%ADD38R,0.0512X0.0354*%
%ADD71C,0.0197*%
%ADD72C,0.0276*%
%ADD73C,0.1201*%
%ADD74C,0.0600*%
%ADD75C,0.0950*%
%ADD76C,0.0602*%
%ADD77R,0.0602X0.0602*%
%ADD78R,0.0709X0.0709*%
%ADD79C,0.0709*%
%ADD80C,0.0669*%
%ADD81C,0.0709*%
%ADD82R,0.0709X0.0709*%
%ADD83C,0.0594*%
%ADD84R,0.0594X0.0594*%
%ADD85C,0.0615*%
%ADD86R,0.0615X0.0615*%
%ADD87C,0.1650*%
%ADD88C,0.0644*%
%ADD89R,0.0644X0.0644*%
%ADD90C,0.0394*%
G36*
X71575Y45905D02*
X71575Y44488D01*
X71167Y44080D01*
X71135Y44093D01*
X71024Y44108D01*
X70913Y44093D01*
X70809Y44050D01*
X70720Y43982D01*
X70652Y43893D01*
X70609Y43790D01*
X70594Y43678D01*
X70609Y43567D01*
X70622Y43536D01*
X70394Y43307D01*
X70294D01*
X70275Y43353D01*
X70207Y43442D01*
X70118Y43510D01*
X70015Y43553D01*
X69904Y43568D01*
X69793Y43553D01*
X69689Y43510D01*
X69600Y43442D01*
X69532Y43353D01*
X69513Y43307D01*
X63780Y43307D01*
X63386Y43701D01*
X63386Y46535D01*
X63830Y46979D01*
X70501Y46979D01*
X71575Y45905D01*
D02*
G37*
G36*
X42427Y49980D02*
X42417Y49911D01*
X42433Y49793D01*
X42479Y49682D01*
X42551Y49588D01*
X42646Y49515D01*
X42756Y49470D01*
X42874Y49454D01*
X42992Y49470D01*
X43102Y49515D01*
X43197Y49588D01*
X43270Y49682D01*
X43315Y49793D01*
X43331Y49911D01*
X43322Y49980D01*
X44395D01*
X44386Y49911D01*
X44401Y49793D01*
X44447Y49682D01*
X44520Y49588D01*
X44614Y49515D01*
X44724Y49470D01*
X44843Y49454D01*
X44961Y49470D01*
X45071Y49515D01*
X45165Y49588D01*
X45238Y49682D01*
X45284Y49793D01*
X45299Y49911D01*
X45290Y49980D01*
X50551Y49980D01*
X61083Y49980D01*
X62559Y48504D01*
X62992Y48071D01*
Y43583D01*
X62548Y43138D01*
X60451Y43138D01*
X59980Y43609D01*
X59980Y44350D01*
X58976Y45354D01*
X53602Y45354D01*
X52386Y46570D01*
X48154Y46570D01*
X44859Y46574D01*
X44843Y46576D01*
X44826Y46574D01*
X43867Y46575D01*
X43858Y46576D01*
X43850Y46575D01*
X40074Y46579D01*
X40064Y46589D01*
X40054Y46579D01*
X37082Y46579D01*
X36850Y46811D01*
X36850Y47638D01*
X39193Y49980D01*
X40217D01*
X42427D01*
D02*
G37*
G36*
X71004Y32657D02*
X70946Y32613D01*
X70876Y32521D01*
X70831Y32414D01*
X70816Y32299D01*
X70831Y32184D01*
X70876Y32077D01*
X70946Y31985D01*
X71038Y31915D01*
X71145Y31871D01*
X71260Y31855D01*
X71375Y31871D01*
X71482Y31915D01*
X71574Y31985D01*
X71618Y32043D01*
X71968Y31693D01*
X71929Y30551D01*
X71654Y30276D01*
X67165D01*
X66890Y30551D01*
Y33031D01*
X67165Y33307D01*
X70354D01*
X71004Y32657D01*
D02*
G37*
G36*
X65869Y35706D02*
X66417Y35157D01*
X66417Y29567D01*
X65551Y28701D01*
X65551Y27677D01*
X65394Y27520D01*
X64843D01*
X64685Y27677D01*
X64685Y28701D01*
X63780Y29606D01*
X63780Y35236D01*
X64288Y35745D01*
X65869Y35706D01*
D02*
G37*
G36*
X63563Y29606D02*
X64565Y28605D01*
X64565Y27677D01*
X64565Y27677D01*
X64567Y27666D01*
X64567Y25685D01*
X63685Y24803D01*
X61968Y24803D01*
X61063Y25709D01*
X61063Y28661D01*
X61063Y29331D01*
Y29331D01*
X61339Y29606D01*
X63563Y29606D01*
D02*
G37*
G36*
X65588Y27187D02*
Y24132D01*
X65236Y23779D01*
X63504Y23779D01*
X61929Y23780D01*
X61779Y23630D01*
Y20157D01*
X61464Y19843D01*
X59606D01*
X59409Y20039D01*
Y25558D01*
X59521Y25669D01*
X60795D01*
X61779Y24685D01*
X61957D01*
X61968Y24683D01*
X61968Y24683D01*
X63685Y24683D01*
X63685Y24683D01*
X63689Y24684D01*
X63817Y24683D01*
X64449Y25315D01*
X64691Y25558D01*
Y27172D01*
X64803Y27283D01*
X65492D01*
X65588Y27187D01*
D02*
G37*
G36*
X65551Y23346D02*
X65551Y19036D01*
X64271Y17756D01*
X62435Y17756D01*
X61965Y18226D01*
X61965Y23425D01*
X62199Y23659D01*
X63504Y23659D01*
X65236Y23659D01*
X65236Y23659D01*
X65238Y23659D01*
X65551Y23346D01*
D02*
G37*
G36*
X63974Y16892D02*
X63974Y15588D01*
X63543Y15157D01*
X61654D01*
X61417Y15394D01*
Y17008D01*
X61693Y17283D01*
X63583D01*
X63974Y16892D01*
D02*
G37*
G36*
X68150Y28697D02*
X68150Y16732D01*
Y14606D01*
X67874Y14331D01*
X64449D01*
X64094Y14685D01*
X64094Y16929D01*
X65709Y18543D01*
X65709Y28465D01*
X66220Y28976D01*
X67870D01*
X68150Y28697D01*
D02*
G37*
G36*
X64305Y14213D02*
X64437D01*
X64449Y14210D01*
X64449Y14210D01*
X67874D01*
X67874Y14210D01*
X67886Y14213D01*
X68189D01*
X68307Y14331D01*
X68307Y14675D01*
X68462Y14830D01*
X69728D01*
X69912Y14646D01*
X69921D01*
X69921Y10000D01*
X69724Y9803D01*
X68071Y9803D01*
X67835Y10039D01*
Y12926D01*
X67453Y13307D01*
X67414D01*
X67408Y13313D01*
X67369Y13340D01*
X67323Y13349D01*
X67323Y13349D01*
X66457Y13349D01*
X66411Y13340D01*
X66372Y13313D01*
X66365Y13307D01*
X66339D01*
X65945Y12913D01*
Y10157D01*
X65630Y9843D01*
X61732D01*
X61417Y10157D01*
X61417Y14711D01*
X61667Y14961D01*
X63557Y14961D01*
X64305Y14213D01*
D02*
G37*
G36*
X67323Y13228D02*
X67672Y12879D01*
X67672Y8583D01*
X67475Y8386D01*
X66334D01*
X66137Y8583D01*
Y12908D01*
X66457Y13228D01*
X67323Y13228D01*
D02*
G37*
%LPC*%
G36*
X65809Y46146D02*
X64774D01*
Y44915D01*
X65809D01*
Y46146D01*
D02*
G37*
G36*
X64674D02*
X63640D01*
Y44915D01*
X64674D01*
Y46146D01*
D02*
G37*
G36*
X69904Y45728D02*
X69793Y45713D01*
X69689Y45670D01*
X69600Y45602D01*
X69532Y45513D01*
X69489Y45410D01*
X69474Y45298D01*
X69489Y45187D01*
X69532Y45084D01*
X69600Y44995D01*
X69689Y44927D01*
X69793Y44884D01*
X69904Y44869D01*
X70015Y44884D01*
X70118Y44927D01*
X70207Y44995D01*
X70275Y45084D01*
X70318Y45187D01*
X70333Y45298D01*
X70318Y45410D01*
X70275Y45513D01*
X70207Y45602D01*
X70118Y45670D01*
X70015Y45713D01*
X69904Y45728D01*
D02*
G37*
G36*
X71074Y45163D02*
Y44808D01*
X71428D01*
X71421Y44865D01*
X71380Y44964D01*
X71314Y45049D01*
X71229Y45114D01*
X71130Y45155D01*
X71074Y45163D01*
D02*
G37*
G36*
X70974Y45163D02*
X70917Y45155D01*
X70818Y45114D01*
X70733Y45049D01*
X70668Y44964D01*
X70627Y44865D01*
X70619Y44808D01*
X70974D01*
Y45163D01*
D02*
G37*
G36*
X71428Y44708D02*
X71074D01*
Y44354D01*
X71130Y44361D01*
X71229Y44402D01*
X71314Y44468D01*
X71380Y44553D01*
X71421Y44652D01*
X71428Y44708D01*
D02*
G37*
G36*
X70974D02*
X70619D01*
X70627Y44652D01*
X70668Y44553D01*
X70733Y44468D01*
X70818Y44402D01*
X70917Y44361D01*
X70974Y44354D01*
Y44708D01*
D02*
G37*
G36*
X69904Y44648D02*
X69793Y44633D01*
X69689Y44590D01*
X69600Y44522D01*
X69532Y44433D01*
X69489Y44330D01*
X69474Y44218D01*
X69489Y44107D01*
X69532Y44004D01*
X69600Y43915D01*
X69689Y43847D01*
X69793Y43804D01*
X69904Y43789D01*
X70015Y43804D01*
X70118Y43847D01*
X70207Y43915D01*
X70275Y44004D01*
X70318Y44107D01*
X70333Y44218D01*
X70318Y44330D01*
X70275Y44433D01*
X70207Y44522D01*
X70118Y44590D01*
X70015Y44633D01*
X69904Y44648D01*
D02*
G37*
G36*
X65809Y44815D02*
X64774D01*
Y43584D01*
X65809D01*
Y44815D01*
D02*
G37*
G36*
X64674D02*
X63640D01*
Y43584D01*
X64674D01*
Y44815D01*
D02*
G37*
G36*
X58728Y49791D02*
X57928D01*
Y49341D01*
X58728D01*
Y49791D01*
D02*
G37*
G36*
X57828D02*
X57028D01*
Y49341D01*
X57828D01*
Y49791D01*
D02*
G37*
G36*
X58728Y49241D02*
X57928D01*
Y48791D01*
X58728D01*
Y49241D01*
D02*
G37*
G36*
X57828D02*
X57028D01*
Y48791D01*
X57828D01*
Y49241D01*
D02*
G37*
G36*
X41184Y47521D02*
X40759D01*
Y47196D01*
X41184D01*
Y47521D01*
D02*
G37*
G36*
X40659D02*
X40234D01*
Y47196D01*
X40659D01*
Y47521D01*
D02*
G37*
G36*
X48901Y47483D02*
X48476D01*
Y47158D01*
X48901D01*
Y47483D01*
D02*
G37*
G36*
X47089D02*
X46664D01*
Y47158D01*
X47089D01*
Y47483D01*
D02*
G37*
G36*
X48376D02*
X47951D01*
Y47158D01*
X48376D01*
Y47483D01*
D02*
G37*
G36*
X46564D02*
X46139D01*
Y47158D01*
X46564D01*
Y47483D01*
D02*
G37*
G36*
X42924Y47536D02*
Y47134D01*
X43326D01*
X43317Y47203D01*
X43271Y47313D01*
X43198Y47408D01*
X43103Y47481D01*
X42993Y47527D01*
X42924Y47536D01*
D02*
G37*
G36*
X44893D02*
Y47134D01*
X45294D01*
X45285Y47203D01*
X45239Y47313D01*
X45167Y47408D01*
X45072Y47481D01*
X44961Y47527D01*
X44893Y47536D01*
D02*
G37*
G36*
X43908D02*
Y47134D01*
X44310D01*
X44301Y47203D01*
X44255Y47313D01*
X44182Y47408D01*
X44087Y47481D01*
X43977Y47527D01*
X43908Y47536D01*
D02*
G37*
G36*
X43808Y47536D02*
X43740Y47527D01*
X43629Y47481D01*
X43534Y47408D01*
X43461Y47313D01*
X43416Y47203D01*
X43407Y47134D01*
X43808D01*
Y47536D01*
D02*
G37*
G36*
X42824D02*
X42755Y47527D01*
X42645Y47481D01*
X42550Y47408D01*
X42477Y47313D01*
X42431Y47203D01*
X42422Y47134D01*
X42824D01*
Y47536D01*
D02*
G37*
G36*
X44793D02*
X44724Y47527D01*
X44613Y47481D01*
X44518Y47408D01*
X44446Y47313D01*
X44400Y47203D01*
X44391Y47134D01*
X44793D01*
Y47536D01*
D02*
G37*
G36*
X37412Y47507D02*
Y47105D01*
X37814D01*
X37805Y47174D01*
X37759Y47284D01*
X37686Y47379D01*
X37591Y47452D01*
X37481Y47498D01*
X37412Y47507D01*
D02*
G37*
G36*
X37312Y47507D02*
X37244Y47498D01*
X37133Y47452D01*
X37038Y47379D01*
X36965Y47284D01*
X36920Y47174D01*
X36911Y47105D01*
X37312D01*
Y47507D01*
D02*
G37*
G36*
X51537Y47167D02*
X51231D01*
Y46979D01*
X51537D01*
Y47167D01*
D02*
G37*
G36*
X51131D02*
X50825D01*
Y46979D01*
X51131D01*
Y47167D01*
D02*
G37*
G36*
X41184Y47096D02*
X40759D01*
Y46771D01*
X41184D01*
Y47096D01*
D02*
G37*
G36*
X40659D02*
X40234D01*
Y46771D01*
X40659D01*
Y47096D01*
D02*
G37*
G36*
X48901Y47058D02*
X48476D01*
Y46733D01*
X48901D01*
Y47058D01*
D02*
G37*
G36*
X48376D02*
X47951D01*
Y46733D01*
X48376D01*
Y47058D01*
D02*
G37*
G36*
X47089D02*
X46664D01*
Y46733D01*
X47089D01*
Y47058D01*
D02*
G37*
G36*
X46564D02*
X46139D01*
Y46733D01*
X46564D01*
Y47058D01*
D02*
G37*
G36*
X51537Y46879D02*
X51231D01*
Y46691D01*
X51537D01*
Y46879D01*
D02*
G37*
G36*
X51131D02*
X50825D01*
Y46691D01*
X51131D01*
Y46879D01*
D02*
G37*
G36*
X44793Y47034D02*
X44391D01*
X44400Y46965D01*
X44446Y46855D01*
X44518Y46760D01*
X44613Y46687D01*
X44724Y46641D01*
X44793Y46632D01*
Y47034D01*
D02*
G37*
G36*
X43808D02*
X43407D01*
X43416Y46965D01*
X43461Y46855D01*
X43534Y46760D01*
X43629Y46687D01*
X43740Y46641D01*
X43808Y46632D01*
Y47034D01*
D02*
G37*
G36*
X42824D02*
X42422D01*
X42431Y46965D01*
X42477Y46855D01*
X42550Y46760D01*
X42645Y46687D01*
X42755Y46641D01*
X42824Y46632D01*
Y47034D01*
D02*
G37*
G36*
X45294D02*
X44893D01*
Y46632D01*
X44961Y46641D01*
X45072Y46687D01*
X45167Y46760D01*
X45239Y46855D01*
X45285Y46965D01*
X45294Y47034D01*
D02*
G37*
G36*
X44310D02*
X43908D01*
Y46632D01*
X43977Y46641D01*
X44087Y46687D01*
X44182Y46760D01*
X44255Y46855D01*
X44301Y46965D01*
X44310Y47034D01*
D02*
G37*
G36*
X43326D02*
X42924D01*
Y46632D01*
X42993Y46641D01*
X43103Y46687D01*
X43198Y46760D01*
X43271Y46855D01*
X43317Y46965D01*
X43326Y47034D01*
D02*
G37*
G36*
X37814Y47005D02*
X37412D01*
Y46603D01*
X37481Y46612D01*
X37591Y46658D01*
X37686Y46731D01*
X37759Y46826D01*
X37805Y46937D01*
X37814Y47005D01*
D02*
G37*
G36*
X37312D02*
X36911D01*
X36920Y46937D01*
X36965Y46826D01*
X37038Y46731D01*
X37133Y46658D01*
X37244Y46612D01*
X37312Y46603D01*
Y47005D01*
D02*
G37*
G36*
X58318Y46200D02*
Y45853D01*
X58665D01*
X58657Y45908D01*
X58617Y46005D01*
X58553Y46088D01*
X58469Y46153D01*
X58372Y46193D01*
X58318Y46200D01*
D02*
G37*
G36*
X58218Y46200D02*
X58163Y46193D01*
X58066Y46153D01*
X57982Y46088D01*
X57918Y46005D01*
X57878Y45908D01*
X57871Y45853D01*
X58218D01*
Y46200D01*
D02*
G37*
G36*
X56202Y46006D02*
X56034D01*
Y45798D01*
X56202D01*
Y46006D01*
D02*
G37*
G36*
X55934D02*
X55766D01*
Y45798D01*
X55934D01*
Y46006D01*
D02*
G37*
G36*
X54864Y45986D02*
X54558D01*
Y45759D01*
X54864D01*
Y45986D01*
D02*
G37*
G36*
X54458D02*
X54152D01*
Y45759D01*
X54458D01*
Y45986D01*
D02*
G37*
G36*
X56202Y45698D02*
X56034D01*
Y45491D01*
X56202D01*
Y45698D01*
D02*
G37*
G36*
X55934D02*
X55766D01*
Y45491D01*
X55934D01*
Y45698D01*
D02*
G37*
G36*
X54864Y45659D02*
X54558D01*
Y45431D01*
X54864D01*
Y45659D01*
D02*
G37*
G36*
X54458D02*
X54152D01*
Y45431D01*
X54458D01*
Y45659D01*
D02*
G37*
G36*
X58665Y45753D02*
X58318D01*
Y45406D01*
X58372Y45413D01*
X58469Y45454D01*
X58553Y45518D01*
X58617Y45601D01*
X58657Y45699D01*
X58665Y45753D01*
D02*
G37*
G36*
X58218D02*
X57871D01*
X57878Y45699D01*
X57918Y45601D01*
X57982Y45518D01*
X58066Y45454D01*
X58163Y45413D01*
X58218Y45406D01*
Y45753D01*
D02*
G37*
G36*
X62659Y46146D02*
X61625D01*
Y44915D01*
X62659D01*
Y46146D01*
D02*
G37*
G36*
X61525D02*
X60491D01*
Y44915D01*
X61525D01*
Y46146D01*
D02*
G37*
G36*
X62659Y44815D02*
X61625D01*
Y43584D01*
X62659D01*
Y44815D01*
D02*
G37*
G36*
X61525D02*
X60491D01*
Y43584D01*
X61525D01*
Y44815D01*
D02*
G37*
G36*
X69313Y33131D02*
X68278D01*
Y31900D01*
X69313D01*
Y33131D01*
D02*
G37*
G36*
X68178D02*
X67144D01*
Y31900D01*
X68178D01*
Y33131D01*
D02*
G37*
G36*
X71682Y31721D02*
X71310D01*
Y31349D01*
X71682D01*
Y31721D01*
D02*
G37*
G36*
X71210D02*
X70838D01*
Y31349D01*
X71210D01*
Y31721D01*
D02*
G37*
G36*
X71682Y31249D02*
X71310D01*
Y30877D01*
X71682D01*
Y31249D01*
D02*
G37*
G36*
X71210D02*
X70838D01*
Y30877D01*
X71210D01*
Y31249D01*
D02*
G37*
G36*
X69313Y31800D02*
X68278D01*
Y30569D01*
X69313D01*
Y31800D01*
D02*
G37*
G36*
X68178D02*
X67144D01*
Y30569D01*
X68178D01*
Y31800D01*
D02*
G37*
G36*
X65929Y35343D02*
X65129D01*
Y34893D01*
X65929D01*
Y35343D01*
D02*
G37*
G36*
X65029D02*
X64229D01*
Y34893D01*
X65029D01*
Y35343D01*
D02*
G37*
G36*
X65929Y34793D02*
X65129D01*
Y34343D01*
X65929D01*
Y34793D01*
D02*
G37*
G36*
X65029D02*
X64229D01*
Y34343D01*
X65029D01*
Y34793D01*
D02*
G37*
G36*
X66163Y33131D02*
X65129D01*
Y31900D01*
X66163D01*
Y33131D01*
D02*
G37*
G36*
X65029D02*
X63994D01*
Y31900D01*
X65029D01*
Y33131D01*
D02*
G37*
G36*
X66163Y31800D02*
X65129D01*
Y30569D01*
X66163D01*
Y31800D01*
D02*
G37*
G36*
X65029D02*
X63994D01*
Y30569D01*
X65029D01*
Y31800D01*
D02*
G37*
G36*
X65168Y28468D02*
Y28121D01*
X65515D01*
X65508Y28175D01*
X65468Y28273D01*
X65403Y28356D01*
X65320Y28420D01*
X65223Y28461D01*
X65168Y28468D01*
D02*
G37*
G36*
X65068D02*
X65014Y28461D01*
X64916Y28420D01*
X64833Y28356D01*
X64769Y28273D01*
X64728Y28175D01*
X64721Y28121D01*
X65068D01*
Y28468D01*
D02*
G37*
G36*
X65515Y28021D02*
X65168D01*
Y27674D01*
X65223Y27681D01*
X65320Y27721D01*
X65403Y27786D01*
X65468Y27869D01*
X65508Y27966D01*
X65515Y28021D01*
D02*
G37*
G36*
X65068D02*
X64721D01*
X64728Y27966D01*
X64769Y27869D01*
X64833Y27786D01*
X64916Y27721D01*
X65014Y27681D01*
X65068Y27674D01*
Y28021D01*
D02*
G37*
G36*
X61694Y29076D02*
X61467D01*
Y28770D01*
X61694D01*
Y29076D01*
D02*
G37*
G36*
X61367D02*
X61140D01*
Y28770D01*
X61367D01*
Y29076D01*
D02*
G37*
G36*
X61694Y28670D02*
X61467D01*
Y28365D01*
X61694D01*
Y28670D01*
D02*
G37*
G36*
X61367D02*
X61140D01*
Y28365D01*
X61367D01*
Y28670D01*
D02*
G37*
G36*
X64168Y28468D02*
Y28121D01*
X64515D01*
X64508Y28175D01*
X64468Y28273D01*
X64403Y28356D01*
X64320Y28420D01*
X64223Y28461D01*
X64168Y28468D01*
D02*
G37*
G36*
X64068D02*
X64014Y28461D01*
X63916Y28420D01*
X63833Y28356D01*
X63769Y28273D01*
X63728Y28175D01*
X63721Y28121D01*
X64068D01*
Y28468D01*
D02*
G37*
G36*
X64515Y28021D02*
X64168D01*
Y27674D01*
X64223Y27681D01*
X64320Y27721D01*
X64403Y27786D01*
X64468Y27869D01*
X64508Y27966D01*
X64515Y28021D01*
D02*
G37*
G36*
X64068D02*
X63721D01*
X63728Y27966D01*
X63769Y27869D01*
X63833Y27786D01*
X63916Y27721D01*
X64014Y27681D01*
X64068Y27674D01*
Y28021D01*
D02*
G37*
G36*
X61714Y26675D02*
X61507D01*
Y26507D01*
X61714D01*
Y26675D01*
D02*
G37*
G36*
X61407D02*
X61199D01*
Y26507D01*
X61407D01*
Y26675D01*
D02*
G37*
G36*
X61714Y26407D02*
X61507D01*
Y26239D01*
X61714D01*
Y26407D01*
D02*
G37*
G36*
X61407D02*
X61199D01*
Y26239D01*
X61407D01*
Y26407D01*
D02*
G37*
G36*
X62767Y25649D02*
Y25302D01*
X63113D01*
X63106Y25356D01*
X63066Y25454D01*
X63002Y25537D01*
X62918Y25601D01*
X62821Y25642D01*
X62767Y25649D01*
D02*
G37*
G36*
X62667Y25649D02*
X62612Y25642D01*
X62515Y25601D01*
X62431Y25537D01*
X62367Y25454D01*
X62327Y25356D01*
X62320Y25302D01*
X62667D01*
Y25649D01*
D02*
G37*
G36*
Y25202D02*
X62320D01*
X62327Y25148D01*
X62367Y25050D01*
X62431Y24967D01*
X62515Y24903D01*
X62612Y24862D01*
X62667Y24855D01*
Y25202D01*
D02*
G37*
G36*
X63113D02*
X62767D01*
Y24855D01*
X62821Y24862D01*
X62918Y24903D01*
X63002Y24967D01*
X63066Y25050D01*
X63106Y25148D01*
X63113Y25202D01*
D02*
G37*
G36*
X62767Y24649D02*
Y24302D01*
X63113D01*
X63106Y24356D01*
X63066Y24454D01*
X63002Y24537D01*
X62918Y24601D01*
X62821Y24642D01*
X62767Y24649D01*
D02*
G37*
G36*
X62667Y24649D02*
X62612Y24642D01*
X62515Y24601D01*
X62431Y24537D01*
X62367Y24454D01*
X62327Y24356D01*
X62320Y24302D01*
X62667D01*
Y24649D01*
D02*
G37*
G36*
Y24202D02*
X62320D01*
X62327Y24148D01*
X62367Y24050D01*
X62431Y23967D01*
X62515Y23903D01*
X62612Y23862D01*
X62667Y23855D01*
Y24202D01*
D02*
G37*
G36*
X63113D02*
X62767D01*
Y23855D01*
X62821Y23862D01*
X62918Y23903D01*
X63002Y23967D01*
X63066Y24050D01*
X63106Y24148D01*
X63113Y24202D01*
D02*
G37*
G36*
X61091Y21913D02*
X60641D01*
Y21113D01*
X61091D01*
Y21913D01*
D02*
G37*
G36*
X60541D02*
X60091D01*
Y21113D01*
X60541D01*
Y21913D01*
D02*
G37*
G36*
X61091Y21013D02*
X60641D01*
Y20213D01*
X61091D01*
Y21013D01*
D02*
G37*
G36*
X60541D02*
X60091D01*
Y20213D01*
X60541D01*
Y21013D01*
D02*
G37*
G36*
X62767Y23649D02*
Y23302D01*
X63113D01*
X63106Y23356D01*
X63066Y23454D01*
X63002Y23537D01*
X62918Y23601D01*
X62821Y23642D01*
X62767Y23649D01*
D02*
G37*
G36*
X62667Y23649D02*
X62612Y23642D01*
X62515Y23601D01*
X62431Y23537D01*
X62367Y23454D01*
X62327Y23356D01*
X62320Y23302D01*
X62667D01*
Y23649D01*
D02*
G37*
G36*
Y23202D02*
X62320D01*
X62327Y23148D01*
X62367Y23050D01*
X62431Y22967D01*
X62515Y22903D01*
X62612Y22862D01*
X62667Y22855D01*
Y23202D01*
D02*
G37*
G36*
X63113D02*
X62767D01*
Y22855D01*
X62821Y22862D01*
X62918Y22903D01*
X63002Y22967D01*
X63066Y23050D01*
X63106Y23148D01*
X63113Y23202D01*
D02*
G37*
G36*
X63593Y16657D02*
Y16310D01*
X63940D01*
X63933Y16364D01*
X63893Y16462D01*
X63829Y16545D01*
X63745Y16609D01*
X63648Y16650D01*
X63593Y16657D01*
D02*
G37*
G36*
X63493Y16657D02*
X63439Y16650D01*
X63342Y16609D01*
X63258Y16545D01*
X63194Y16462D01*
X63154Y16364D01*
X63146Y16310D01*
X63493D01*
Y16657D01*
D02*
G37*
G36*
X63940Y16210D02*
X63593D01*
Y15863D01*
X63648Y15870D01*
X63745Y15910D01*
X63829Y15975D01*
X63893Y16058D01*
X63933Y16155D01*
X63940Y16210D01*
D02*
G37*
G36*
X63493D02*
X63146D01*
X63154Y16155D01*
X63194Y16058D01*
X63258Y15975D01*
X63342Y15910D01*
X63439Y15870D01*
X63493Y15863D01*
Y16210D01*
D02*
G37*
G36*
X66168Y28468D02*
Y28121D01*
X66515D01*
X66508Y28175D01*
X66468Y28273D01*
X66403Y28356D01*
X66320Y28420D01*
X66223Y28461D01*
X66168Y28468D01*
D02*
G37*
G36*
X66068D02*
X66014Y28461D01*
X65916Y28420D01*
X65833Y28356D01*
X65769Y28273D01*
X65728Y28175D01*
X65721Y28121D01*
X66068D01*
Y28468D01*
D02*
G37*
G36*
X68072Y28072D02*
X67845D01*
Y27767D01*
X68072D01*
Y28072D01*
D02*
G37*
G36*
X67745D02*
X67518D01*
Y27767D01*
X67745D01*
Y28072D01*
D02*
G37*
G36*
X66515Y28021D02*
X66168D01*
Y27674D01*
X66223Y27681D01*
X66320Y27721D01*
X66403Y27786D01*
X66468Y27869D01*
X66508Y27966D01*
X66515Y28021D01*
D02*
G37*
G36*
X66068D02*
X65721D01*
X65728Y27966D01*
X65769Y27869D01*
X65833Y27786D01*
X65916Y27721D01*
X66014Y27681D01*
X66068Y27674D01*
Y28021D01*
D02*
G37*
G36*
X68072Y27667D02*
X67845D01*
Y27361D01*
X68072D01*
Y27667D01*
D02*
G37*
G36*
X67745D02*
X67518D01*
Y27361D01*
X67745D01*
Y27667D01*
D02*
G37*
G36*
X67974Y25297D02*
X67767D01*
Y25129D01*
X67974D01*
Y25297D01*
D02*
G37*
G36*
X67667D02*
X67459D01*
Y25129D01*
X67667D01*
Y25297D01*
D02*
G37*
G36*
X67974Y25029D02*
X67767D01*
Y24861D01*
X67974D01*
Y25029D01*
D02*
G37*
G36*
X67667D02*
X67459D01*
Y24861D01*
X67667D01*
Y25029D01*
D02*
G37*
G36*
X64593Y16657D02*
Y16310D01*
X64940D01*
X64933Y16364D01*
X64893Y16462D01*
X64829Y16545D01*
X64745Y16609D01*
X64648Y16650D01*
X64593Y16657D01*
D02*
G37*
G36*
X64493Y16657D02*
X64439Y16650D01*
X64342Y16609D01*
X64258Y16545D01*
X64194Y16462D01*
X64154Y16364D01*
X64146Y16310D01*
X64493D01*
Y16657D01*
D02*
G37*
G36*
X64940Y16210D02*
X64593D01*
Y15863D01*
X64648Y15870D01*
X64745Y15910D01*
X64829Y15975D01*
X64893Y16058D01*
X64933Y16155D01*
X64940Y16210D01*
D02*
G37*
G36*
X64493D02*
X64146D01*
X64154Y16155D01*
X64194Y16058D01*
X64258Y15975D01*
X64342Y15910D01*
X64439Y15870D01*
X64493Y15863D01*
Y16210D01*
D02*
G37*
G36*
X66979Y15176D02*
Y14830D01*
X67326D01*
X67319Y14884D01*
X67279Y14981D01*
X67214Y15065D01*
X67131Y15129D01*
X67034Y15169D01*
X66979Y15176D01*
D02*
G37*
G36*
X66879Y15176D02*
X66825Y15169D01*
X66727Y15129D01*
X66644Y15065D01*
X66580Y14981D01*
X66539Y14884D01*
X66532Y14830D01*
X66879D01*
Y15176D01*
D02*
G37*
G36*
X67326Y14730D02*
X66979D01*
Y14383D01*
X67034Y14390D01*
X67131Y14430D01*
X67214Y14494D01*
X67279Y14578D01*
X67319Y14675D01*
X67326Y14730D01*
D02*
G37*
G36*
X66879D02*
X66532D01*
X66539Y14675D01*
X66580Y14578D01*
X66644Y14494D01*
X66727Y14430D01*
X66825Y14390D01*
X66879Y14383D01*
Y14730D01*
D02*
G37*
G36*
X63567Y14476D02*
X62767D01*
Y14026D01*
X63567D01*
Y14476D01*
D02*
G37*
G36*
X62667D02*
X61867D01*
Y14026D01*
X62667D01*
Y14476D01*
D02*
G37*
G36*
X66979Y14176D02*
Y13830D01*
X67326D01*
X67319Y13884D01*
X67279Y13981D01*
X67214Y14065D01*
X67131Y14129D01*
X67034Y14169D01*
X66979Y14176D01*
D02*
G37*
G36*
X66879Y14176D02*
X66825Y14169D01*
X66727Y14129D01*
X66644Y14065D01*
X66580Y13981D01*
X66539Y13884D01*
X66532Y13830D01*
X66879D01*
Y14176D01*
D02*
G37*
G36*
X63567Y13926D02*
X62767D01*
Y13476D01*
X63567D01*
Y13926D01*
D02*
G37*
G36*
X62667D02*
X61867D01*
Y13476D01*
X62667D01*
Y13926D01*
D02*
G37*
G36*
X67326Y13730D02*
X66979D01*
Y13383D01*
X67034Y13390D01*
X67131Y13430D01*
X67214Y13494D01*
X67279Y13578D01*
X67319Y13675D01*
X67326Y13730D01*
D02*
G37*
G36*
X66879D02*
X66532D01*
X66539Y13675D01*
X66580Y13578D01*
X66644Y13494D01*
X66727Y13430D01*
X66825Y13390D01*
X66879Y13383D01*
Y13730D01*
D02*
G37*
G36*
X66979Y13176D02*
Y12830D01*
X67326D01*
X67319Y12884D01*
X67279Y12981D01*
X67214Y13065D01*
X67131Y13129D01*
X67034Y13169D01*
X66979Y13176D01*
D02*
G37*
G36*
X66879Y13176D02*
X66825Y13169D01*
X66727Y13129D01*
X66644Y13065D01*
X66580Y12981D01*
X66539Y12884D01*
X66532Y12830D01*
X66879D01*
Y13176D01*
D02*
G37*
G36*
X67326Y12730D02*
X66979D01*
Y12383D01*
X67034Y12390D01*
X67131Y12430D01*
X67214Y12494D01*
X67279Y12578D01*
X67319Y12675D01*
X67326Y12730D01*
D02*
G37*
G36*
X66879D02*
X66532D01*
X66539Y12675D01*
X66580Y12578D01*
X66644Y12494D01*
X66727Y12430D01*
X66825Y12390D01*
X66879Y12383D01*
Y12730D01*
D02*
G37*
%LPD*%
D13*
X43244Y31811D02*
X45402Y29654D01*
X16968Y31811D02*
X43244D01*
X16108Y32671D02*
X16968Y31811D01*
X34874Y31181D02*
X36402Y29654D01*
X7736Y31181D02*
X34874D01*
X16108Y32671D02*
Y34663D01*
X24587Y33228D02*
X25394Y32421D01*
X24587Y33228D02*
Y34646D01*
X20321Y34522D02*
Y34943D01*
Y34522D02*
X21004Y33839D01*
Y33287D02*
Y33839D01*
X18780Y33799D02*
X19370D01*
X19882Y33287D01*
X21004D01*
X22992Y34075D02*
Y34646D01*
X22205Y33287D02*
X22992Y34075D01*
X21004Y33287D02*
X22205D01*
X22992Y34646D02*
X24587D01*
X11842Y34539D02*
Y34960D01*
Y34539D02*
X12526Y33856D01*
Y33304D02*
Y33856D01*
X10301Y33816D02*
X10892D01*
X11404Y33304D01*
X12526D01*
X14514Y34092D02*
Y34663D01*
X13726Y33304D02*
X14514Y34092D01*
X12526Y33304D02*
X13726D01*
X14514Y34663D02*
X16108D01*
X25394Y32421D02*
X47634D01*
X50402Y29654D01*
X6142Y30610D02*
Y31181D01*
X5354Y29823D02*
X6142Y30610D01*
X4154Y29823D02*
X5354D01*
X3031D02*
X4154D01*
X2520Y30335D02*
X3031Y29823D01*
X1929Y30335D02*
X2520D01*
X4154Y29823D02*
Y30374D01*
X3470Y31057D02*
X4154Y30374D01*
X3470Y31057D02*
Y31479D01*
X6142Y31181D02*
X7736D01*
X25787Y35906D02*
Y45397D01*
X29288Y48898D01*
X25787Y35906D02*
X26378Y35315D01*
X26260Y45118D02*
X29449Y48307D01*
X26260Y36614D02*
Y45118D01*
Y36614D02*
X26431Y36443D01*
X34390Y41378D02*
X34469Y41299D01*
Y41378D02*
Y42461D01*
X37362Y45354D01*
X29919Y40093D02*
Y44530D01*
X28919Y45967D02*
X30866Y47913D01*
X29419Y45310D02*
X31164Y47055D01*
X29919Y44530D02*
X31255Y45866D01*
X31460D01*
X30419Y43530D02*
X32444Y45554D01*
X30919Y43003D02*
X33428Y45512D01*
X31419Y42494D02*
X34413Y45487D01*
X31919Y41880D02*
X35397Y45357D01*
X31919Y40093D02*
Y41880D01*
X32419Y40093D02*
Y41570D01*
X36361Y45512D01*
X32419Y23858D02*
X37606D01*
X42402Y28654D01*
X31919Y28031D02*
X38937Y28031D01*
X39402Y28496D01*
X36929Y25039D02*
X40402Y28512D01*
X30906Y25039D02*
X36929Y25039D01*
X37118Y24370D02*
X41402Y28654D01*
X31417Y24370D02*
X37118D01*
X5236Y21496D02*
X36244D01*
X4410Y20669D02*
X5236Y21496D01*
X36244D02*
X43402Y28654D01*
X34370Y36181D02*
Y36260D01*
X37362Y45354D02*
Y46071D01*
X33930Y41378D02*
X34390D01*
X32919Y40368D02*
X33930Y41378D01*
X32919Y40093D02*
Y40368D01*
X34469Y41299D02*
Y41378D01*
X27205Y40039D02*
X27795Y39449D01*
X27126Y40039D02*
X27205D01*
X27795Y39449D02*
X29291D01*
X27126Y39035D02*
X29665D01*
X27156Y35315D02*
X28622D01*
X27137Y35335D02*
X27156Y35315D01*
X28622D02*
X28919Y35612D01*
Y36443D01*
X26378Y35315D02*
X27117D01*
X27137Y35335D01*
X28414Y36437D02*
X28419Y36443D01*
X27126Y36437D02*
X28414D01*
X26431Y36443D02*
X27120D01*
X27126Y36437D01*
X29449Y48307D02*
X32196D01*
X29288Y48898D02*
X32590D01*
X34370Y36102D02*
X34449Y36181D01*
X51895Y5160D02*
Y6727D01*
X48681Y9941D02*
X51895Y6727D01*
X5394Y9941D02*
X48681D01*
X50895Y5160D02*
Y6428D01*
X48366Y8957D02*
X50895Y6428D01*
X5394Y8957D02*
X48366D01*
X50895Y5160D02*
X51402Y4654D01*
X52402Y5654D02*
Y7402D01*
X48878Y10925D02*
X52402Y7402D01*
X5408Y10925D02*
X48878D01*
X51895Y5160D02*
X52402Y4654D01*
X40906Y17323D02*
X48402D01*
X39528Y18701D02*
X40906Y17323D01*
X5394Y18701D02*
X39528D01*
X40591Y20157D02*
X50402D01*
X40118Y19685D02*
X40591Y20157D01*
X5394Y19685D02*
X40118D01*
X5408Y20669D02*
X51402D01*
X43094Y3346D02*
X44402Y4654D01*
X5512Y3346D02*
X43094D01*
X2402Y6457D02*
X5512Y3346D01*
X2402Y6457D02*
Y8917D01*
X4410Y10925D01*
X34764Y4016D02*
X35402Y4654D01*
X5945Y4016D02*
X34764D01*
X3071Y6890D02*
X5945Y4016D01*
X47421Y2362D02*
X48895Y3836D01*
X30419Y2362D02*
X47421Y2362D01*
X3071Y6890D02*
Y8602D01*
X4410Y9941D01*
X6232Y4654D02*
X34402D01*
X3661Y7224D02*
X6232Y4654D01*
X3661Y7224D02*
Y8307D01*
X4311Y8957D01*
X4410D01*
X4879Y15866D02*
X34402D01*
X3504Y17241D02*
X4879Y15866D01*
X3504Y17241D02*
Y18465D01*
X3740Y18701D01*
X4410D01*
X5197Y14724D02*
X35362D01*
X35402Y14685D01*
X2874Y17047D02*
X5197Y14724D01*
X2874Y17047D02*
Y19134D01*
X3425Y19685D02*
X4410D01*
X2874Y19134D02*
X3425Y19685D01*
X48895Y5017D02*
X49402Y5524D01*
X48895Y3836D02*
Y5017D01*
X49402Y5524D02*
Y5654D01*
X39402Y28496D02*
Y28654D01*
X66468Y42058D02*
X69904D01*
X61713Y37303D02*
X66468Y42058D01*
X58425Y37303D02*
X61713D01*
X65945Y42598D02*
X71024D01*
X61398Y38051D02*
X65945Y42598D01*
X58425Y38051D02*
X61398D01*
X57809Y37427D02*
X57933Y37303D01*
X56769Y37427D02*
X57809D01*
X57933Y37303D02*
X58425D01*
X57809Y37927D02*
X57933Y38051D01*
X56769Y37927D02*
X57809D01*
X57933Y38051D02*
X58425D01*
X56769Y38427D02*
Y40413D01*
X40402Y28512D02*
Y28654D01*
X31919Y34626D02*
Y36443D01*
X30419Y35217D02*
Y36443D01*
X30919Y34626D02*
Y36443D01*
X31419Y35217D02*
Y36443D01*
X32419Y35217D02*
Y36443D01*
X28919Y40093D02*
Y42598D01*
X32590Y48898D02*
X34432Y47055D01*
X29419Y39577D02*
Y40093D01*
X29291Y39449D02*
X29419Y39577D01*
X32196Y48307D02*
X33448Y47055D01*
X29665Y39035D02*
X29919Y39289D01*
X28919Y42598D02*
Y45967D01*
X28900Y42579D02*
X28919Y42598D01*
X27126Y42579D02*
X28900D01*
X29919Y39289D02*
Y40093D01*
X34370Y36102D02*
Y36181D01*
X31738Y47913D02*
X32464Y47188D01*
X30866Y47913D02*
X31738D01*
X32464Y47055D02*
Y47188D01*
X31164Y47055D02*
X31480D01*
X29419Y40093D02*
Y45310D01*
X36361Y45512D02*
Y46071D01*
X32244Y37283D02*
X33346D01*
X34370Y36260D01*
X30419Y39108D02*
X32244Y37283D01*
X30419Y39108D02*
Y40093D01*
X34449Y36102D02*
Y36181D01*
X32441Y37677D02*
X33543D01*
X30919Y39199D02*
X32441Y37677D01*
X30919Y39199D02*
Y40093D01*
X33543Y37677D02*
X34134Y37087D01*
X34449D01*
X32707Y38071D02*
X34449D01*
X31419Y39358D02*
X32707Y38071D01*
X31419Y39358D02*
Y40093D01*
X32323Y38976D02*
X34370D01*
X31919Y39380D02*
X32323Y38976D01*
X31919Y39380D02*
Y40093D01*
X34370Y38976D02*
X34449Y39055D01*
X32419Y39449D02*
Y40093D01*
Y39449D02*
X32616Y39252D01*
X33543D02*
X34449Y40157D01*
X32616Y39252D02*
X33543D01*
X34449Y40157D02*
Y40236D01*
X31460Y45866D02*
Y46071D01*
X32444Y45554D02*
Y46071D01*
X30419Y40093D02*
Y43530D01*
X33428Y45512D02*
Y46071D01*
X30919Y40093D02*
Y43003D01*
X35397Y45357D02*
Y46071D01*
X34413Y45487D02*
Y46071D01*
X31419Y40093D02*
Y42494D01*
X48426Y45808D02*
X49528D01*
X50276D02*
X50690D01*
X51063Y46181D01*
X51181D01*
D24*
X1161Y45532D02*
D03*
Y46280D02*
D03*
X51181Y46929D02*
D03*
Y46181D02*
D03*
X58425Y38051D02*
D03*
Y37303D02*
D03*
X20807Y44705D02*
D03*
Y43957D02*
D03*
X12329Y44722D02*
D03*
Y43974D02*
D03*
X3957Y41240D02*
D03*
Y40492D02*
D03*
X18031Y41535D02*
D03*
Y42283D02*
D03*
X9553Y41552D02*
D03*
Y42300D02*
D03*
X1181Y38071D02*
D03*
Y38819D02*
D03*
X22399Y45748D02*
D03*
Y46496D02*
D03*
X13921Y45765D02*
D03*
Y46513D02*
D03*
X22992Y34646D02*
D03*
Y35394D02*
D03*
X14514Y34663D02*
D03*
Y35411D02*
D03*
X6142Y31181D02*
D03*
Y31929D02*
D03*
X24961Y45157D02*
D03*
Y45906D02*
D03*
X16482Y45174D02*
D03*
Y45922D02*
D03*
X24961Y47559D02*
D03*
Y48307D02*
D03*
X16482Y47576D02*
D03*
Y48324D02*
D03*
X24961Y49744D02*
D03*
Y50492D02*
D03*
X16482Y49761D02*
D03*
Y50509D02*
D03*
X14173Y23720D02*
D03*
Y24469D02*
D03*
X16831Y23720D02*
D03*
Y24469D02*
D03*
X19488Y23720D02*
D03*
Y24469D02*
D03*
X56769Y41161D02*
D03*
Y40413D02*
D03*
D25*
X21321Y34943D02*
D03*
X20821D02*
D03*
X20321D02*
D03*
X19821D02*
D03*
Y37143D02*
D03*
X20321D02*
D03*
X20821D02*
D03*
X21321D02*
D03*
X12842Y34960D02*
D03*
X12342D02*
D03*
X11842D02*
D03*
X11342D02*
D03*
Y37160D02*
D03*
X11842D02*
D03*
X12342D02*
D03*
X12842D02*
D03*
X4470Y31479D02*
D03*
X3970D02*
D03*
X3470D02*
D03*
X2970D02*
D03*
Y33679D02*
D03*
X3470D02*
D03*
X3970D02*
D03*
X4470D02*
D03*
D26*
X32919Y36443D02*
D03*
X32419D02*
D03*
X31919D02*
D03*
X31419D02*
D03*
X30919D02*
D03*
X30419D02*
D03*
X29919D02*
D03*
X29419D02*
D03*
X28919D02*
D03*
X28419D02*
D03*
Y40093D02*
D03*
X28919D02*
D03*
X29419D02*
D03*
X29919D02*
D03*
X30419D02*
D03*
X30919D02*
D03*
X31419D02*
D03*
X31919D02*
D03*
X32419D02*
D03*
X32919D02*
D03*
D27*
X56769Y38427D02*
D03*
Y37927D02*
D03*
Y37427D02*
D03*
Y36927D02*
D03*
X54569D02*
D03*
Y37427D02*
D03*
Y37927D02*
D03*
Y38427D02*
D03*
D28*
X70079Y21220D02*
D03*
X50197Y42362D02*
D03*
X65079Y34843D02*
D03*
X62717Y13976D02*
D03*
X57878Y49291D02*
D03*
X21004Y33287D02*
D03*
X12526Y33304D02*
D03*
X4154Y29823D02*
D03*
X23760Y36988D02*
D03*
X15281Y37005D02*
D03*
X6909Y33524D02*
D03*
D29*
X60591Y21063D02*
D03*
X18189Y39429D02*
D03*
X9711Y39446D02*
D03*
X1339Y35965D02*
D03*
D30*
X74350Y27594D02*
D03*
X75098D02*
D03*
X74350Y10787D02*
D03*
X75098D02*
D03*
X75098Y21063D02*
D03*
X74350D02*
D03*
X19823Y39528D02*
D03*
X20571D02*
D03*
X11344Y39544D02*
D03*
X12092D02*
D03*
X2972Y36063D02*
D03*
X3720D02*
D03*
X2933Y43518D02*
D03*
X2185D02*
D03*
X18898Y46496D02*
D03*
X18150D02*
D03*
X10419Y46513D02*
D03*
X9671D02*
D03*
X18150Y48012D02*
D03*
X18898D02*
D03*
X9671Y48029D02*
D03*
X10419D02*
D03*
X3661Y46280D02*
D03*
X4409D02*
D03*
X24055Y43524D02*
D03*
X23307D02*
D03*
X15577Y43541D02*
D03*
X14829D02*
D03*
X7205Y40059D02*
D03*
X6457D02*
D03*
X23287Y39488D02*
D03*
X24035D02*
D03*
X14809Y39505D02*
D03*
X15557D02*
D03*
X6437Y36024D02*
D03*
X7185D02*
D03*
X7756Y42854D02*
D03*
X7008D02*
D03*
X7008Y44567D02*
D03*
X7756D02*
D03*
X7756Y46496D02*
D03*
X7008D02*
D03*
D31*
X65079Y31850D02*
D03*
X68228D02*
D03*
X64724Y44865D02*
D03*
X61575D02*
D03*
D32*
X74266Y25394D02*
D03*
X75093D02*
D03*
X74266Y8209D02*
D03*
X75093D02*
D03*
X74266Y18819D02*
D03*
X75093D02*
D03*
D33*
X40709Y47146D02*
D03*
Y45846D02*
D03*
X48426Y47108D02*
D03*
Y45808D02*
D03*
X46614Y47108D02*
D03*
Y45808D02*
D03*
D34*
X14134Y27657D02*
D03*
Y26831D02*
D03*
X16791Y27697D02*
D03*
Y26870D02*
D03*
X19449Y27697D02*
D03*
Y26870D02*
D03*
D35*
X68583Y25079D02*
D03*
X67717D02*
D03*
X60591Y26457D02*
D03*
X61457D02*
D03*
D36*
X55984Y44882D02*
D03*
Y45748D02*
D03*
D37*
X49528Y45808D02*
D03*
X50276D02*
D03*
X18780Y43954D02*
D03*
X18031D02*
D03*
X10301Y43971D02*
D03*
X9553D02*
D03*
X1929Y40490D02*
D03*
X1181D02*
D03*
X20571Y41535D02*
D03*
X19823D02*
D03*
X12092Y41552D02*
D03*
X11344D02*
D03*
X3720Y38071D02*
D03*
X2972D02*
D03*
X18031Y33799D02*
D03*
X18780D02*
D03*
X9553Y33816D02*
D03*
X10301D02*
D03*
X1181Y30335D02*
D03*
X1929D02*
D03*
X23287Y41535D02*
D03*
X24035D02*
D03*
X14809Y41552D02*
D03*
X15557D02*
D03*
X6437Y38071D02*
D03*
X7185D02*
D03*
X35197Y36102D02*
D03*
X34449D02*
D03*
X35197Y37087D02*
D03*
X34449D02*
D03*
X35197Y38071D02*
D03*
X34449D02*
D03*
X35197Y39055D02*
D03*
X34449D02*
D03*
X35197Y40236D02*
D03*
X34449D02*
D03*
X35217Y41378D02*
D03*
X34469D02*
D03*
X33976Y34843D02*
D03*
X33228D02*
D03*
X52539Y37427D02*
D03*
X53287D02*
D03*
X68543Y27717D02*
D03*
X67795D02*
D03*
X60669Y28720D02*
D03*
X61417D02*
D03*
D38*
X18630Y36161D02*
D03*
Y35413D02*
D03*
X10151Y36178D02*
D03*
Y35430D02*
D03*
X1779Y32697D02*
D03*
Y31949D02*
D03*
X24587Y35394D02*
D03*
Y34646D02*
D03*
X16108Y35411D02*
D03*
Y34663D02*
D03*
X7736Y31929D02*
D03*
Y31181D02*
D03*
X27137Y34587D02*
D03*
Y35335D02*
D03*
X27126Y37185D02*
D03*
Y36437D02*
D03*
Y41831D02*
D03*
Y42579D02*
D03*
Y40787D02*
D03*
Y40039D02*
D03*
Y38287D02*
D03*
Y39035D02*
D03*
X54508Y44961D02*
D03*
Y45709D02*
D03*
D71*
X3568Y32259D02*
X3970Y31856D01*
X20571Y40551D02*
Y41535D01*
Y39528D02*
Y40551D01*
X19030Y37143D02*
X19821D01*
X18630Y36743D02*
X19030Y37143D01*
X18630Y36161D02*
Y36743D01*
X20419Y35723D02*
X20821Y35321D01*
X18630Y35413D02*
X18939Y35723D01*
X20821Y34943D02*
Y35321D01*
X18939Y35723D02*
X20419D01*
X18287Y36161D02*
X18630D01*
X18031Y35906D02*
X18287Y36161D01*
X18031Y33799D02*
Y35906D01*
X23307Y41555D02*
Y43524D01*
X23287Y41535D02*
X23307Y41555D01*
X18957Y43957D02*
X20802D01*
X12092Y40568D02*
Y41552D01*
Y39544D02*
Y40568D01*
X10552Y37160D02*
X11342D01*
X10151Y36759D02*
X10552Y37160D01*
X10151Y36178D02*
Y36759D01*
X11940Y35740D02*
X12342Y35338D01*
X10461Y35740D02*
X11940D01*
X10151Y35430D02*
X10461Y35740D01*
X12342Y34960D02*
Y35338D01*
X9809Y36178D02*
X10151D01*
X9553Y35922D02*
X9809Y36178D01*
X9553Y33816D02*
Y35922D01*
X14829Y41572D02*
Y43541D01*
X14809Y41552D02*
X14829Y41572D01*
X10478Y43974D02*
X12324D01*
X3720Y37087D02*
Y38071D01*
Y36063D02*
Y37087D01*
X6437Y38071D02*
X6457Y38091D01*
Y40059D01*
X2106Y40492D02*
X3952D01*
X2180Y33679D02*
X2970D01*
X1779Y33278D02*
X2180Y33679D01*
X1779Y31949D02*
X2089Y32259D01*
X3568D01*
X3970Y31479D02*
Y31856D01*
X1779Y32697D02*
Y33278D01*
X1437Y32697D02*
X1779D01*
X1181Y32441D02*
X1437Y32697D01*
X1181Y30335D02*
Y32441D01*
X14134Y27657D02*
Y28976D01*
X73013Y8210D02*
X74265D01*
X74266Y8209D01*
X15512Y30354D02*
X34701Y30354D01*
X14134Y28976D02*
X15512Y30354D01*
X16791Y28768D02*
X17677Y29654D01*
X16791Y27697D02*
Y28768D01*
X34701Y30354D02*
X35402Y29654D01*
X14134Y26831D02*
X14154Y26811D01*
Y24488D02*
Y26811D01*
Y24488D02*
X14173Y24469D01*
X16791Y26870D02*
X16811Y26850D01*
Y24488D02*
Y26850D01*
Y24488D02*
X16831Y24469D01*
X19488D02*
Y26831D01*
X19449Y26870D02*
X19488Y26831D01*
X19449Y27697D02*
Y28307D01*
X19795Y28654D02*
X34402D01*
X19449Y28307D02*
X19795Y28654D01*
X28419Y40093D02*
Y40896D01*
X39402Y38898D02*
X53601D01*
X40402Y35669D02*
X54016D01*
X17677Y29654D02*
X34402Y29654D01*
X53601Y38898D02*
X54071Y38427D01*
X54569D01*
X54016Y35669D02*
X54569Y36223D01*
Y36927D01*
X56769Y41161D02*
Y42579D01*
X32919Y35772D02*
X33228Y35463D01*
Y34843D02*
Y35463D01*
X32919Y35772D02*
Y36443D01*
X73012Y8211D02*
X73013Y8210D01*
X75093Y8209D02*
X75096Y8211D01*
Y10785D01*
X75098Y10787D01*
X72992Y10827D02*
X73012Y10807D01*
X72992Y10787D02*
Y10827D01*
X73012Y10807D02*
X74331D01*
X74350Y10787D01*
X72992Y18819D02*
X74266D01*
X75093D02*
X75096Y18822D01*
Y21060D01*
X75098Y21063D01*
X72992D02*
X74350D01*
X72992Y25394D02*
X74266D01*
X75093D02*
Y27594D01*
X60591Y26457D02*
Y27480D01*
X68583Y25079D02*
X69606D01*
X68543Y27717D02*
X69606D01*
X68543Y27717D02*
X68543Y27717D01*
X60669Y28720D02*
Y30000D01*
X48426Y45207D02*
Y45808D01*
X48179Y44961D02*
X48426Y45207D01*
X44449Y44961D02*
X48179D01*
X43858Y45551D02*
X44449Y44961D01*
X42645D02*
X42874Y45190D01*
X41024Y44961D02*
X42645D01*
X40709Y45276D02*
X41024Y44961D01*
X42874Y45190D02*
Y46100D01*
X40709Y45276D02*
Y45846D01*
X43858Y45551D02*
Y46100D01*
X45134Y45808D02*
X46614D01*
X44843Y46100D02*
X45134Y45808D01*
X55984Y43976D02*
Y44882D01*
X54508Y43976D02*
Y44961D01*
D72*
X7756Y41988D02*
Y42854D01*
X7205Y41437D02*
X7756Y41988D01*
X7205Y40059D02*
Y41437D01*
X1161Y44154D02*
X1797Y43518D01*
X1555Y41240D02*
X3957D01*
X1181Y40866D02*
X1555Y41240D01*
X1181Y40490D02*
Y40866D01*
X7008Y42854D02*
Y44567D01*
X7756Y44665D02*
Y46496D01*
X7008D02*
Y47610D01*
X1161Y44154D02*
Y45532D01*
X3957Y41240D02*
Y42953D01*
X3391Y43518D02*
X3957Y42953D01*
X2933Y43518D02*
X3391D01*
X1797D02*
X2185D01*
X1161Y46280D02*
X3661D01*
X5827Y46968D02*
Y47610D01*
X5138Y46280D02*
X5827Y46968D01*
X4409Y46280D02*
X5138D01*
X19823Y39528D02*
Y41535D01*
X18031D02*
X19823D01*
X18031Y39587D02*
X18189Y39429D01*
X18031Y39587D02*
Y41535D01*
X19823Y38583D02*
Y39528D01*
X20321Y37143D02*
Y38085D01*
X19823Y38583D02*
X20321Y38085D01*
X18031Y42283D02*
Y43954D01*
X24035Y41535D02*
X24055Y41555D01*
X20821Y36443D02*
Y37143D01*
X21870Y35394D02*
X22992D01*
X20821Y36443D02*
X21870Y35394D01*
X24587D02*
Y36161D01*
X23760Y36988D02*
X24587Y36161D01*
X22992Y35394D02*
X24587D01*
X23287Y38419D02*
X23760Y37947D01*
Y36988D02*
Y37947D01*
X23287Y38419D02*
Y39488D01*
X24035Y39488D02*
Y41535D01*
X24035Y39488D02*
X24035Y39488D01*
X24055Y41555D02*
Y43524D01*
X24961Y44429D02*
Y45157D01*
X24055Y43524D02*
X24961Y44429D01*
X22894Y50492D02*
X24961D01*
X22264Y49862D02*
X22894Y50492D01*
X22264Y47607D02*
Y49862D01*
X24961Y45906D02*
Y47559D01*
Y48307D02*
Y49744D01*
X20695Y48012D02*
X21092Y47615D01*
X20680Y48012D02*
X21085Y47607D01*
X18898Y48012D02*
X20680D01*
X22399Y45174D02*
Y45748D01*
X21929Y44705D02*
X22399Y45174D01*
X20807Y44705D02*
X21929D01*
X18346D02*
X20807D01*
X18031Y44390D02*
X18346Y44705D01*
X18031Y43954D02*
Y44390D01*
X18898Y46496D02*
X22399D01*
X18150Y46496D02*
Y48012D01*
Y46496D02*
X18150Y46496D01*
X11344Y39544D02*
Y41552D01*
X9553D02*
X11344D01*
X9553Y39604D02*
X9711Y39446D01*
X9553Y39604D02*
Y41552D01*
X11344Y38600D02*
Y39544D01*
X11842Y37160D02*
Y38102D01*
X11344Y38600D02*
X11842Y38102D01*
X9553Y42300D02*
Y43971D01*
X15557Y41552D02*
X15577Y41572D01*
X12342Y36460D02*
Y37160D01*
X13392Y35411D02*
X14514D01*
X12342Y36460D02*
X13392Y35411D01*
X16108D02*
Y36178D01*
X15281Y37005D02*
X16108Y36178D01*
X14514Y35411D02*
X16108D01*
X14809Y38436D02*
X15281Y37964D01*
Y37005D02*
Y37964D01*
X14809Y38436D02*
Y39505D01*
X15557Y39505D02*
Y41552D01*
X15557Y39505D02*
X15557Y39505D01*
X15577Y41572D02*
Y43541D01*
X16482Y44446D02*
Y45174D01*
X15577Y43541D02*
X16482Y44446D01*
X14415Y50509D02*
X16482D01*
X13785Y49879D02*
X14415Y50509D01*
X13785Y47624D02*
Y49879D01*
X16482Y45922D02*
Y47576D01*
Y48324D02*
Y49761D01*
X12217Y48029D02*
X12614Y47632D01*
X12202Y48029D02*
X12606Y47624D01*
X10419Y48029D02*
X12202D01*
X13921Y45191D02*
Y45765D01*
X13451Y44722D02*
X13921Y45191D01*
X12329Y44722D02*
X13451D01*
X9868D02*
X12329D01*
X9553Y44407D02*
X9868Y44722D01*
X9553Y43971D02*
Y44407D01*
X10419Y46513D02*
X13921D01*
X9671Y46513D02*
Y48029D01*
Y46513D02*
X9671Y46513D01*
X7205Y38091D02*
Y40059D01*
X7185Y38071D02*
X7205Y38091D01*
X6909Y33524D02*
Y34482D01*
X6437Y34955D02*
X6909Y34482D01*
X6437Y34955D02*
Y36024D01*
X6909Y33524D02*
X7736Y32697D01*
Y31929D02*
Y32697D01*
X6142Y31929D02*
X7736D01*
X5020D02*
X6142D01*
X7185Y36024D02*
X7185Y36024D01*
Y38071D01*
X1181Y38819D02*
Y40490D01*
X2972Y36063D02*
Y38071D01*
Y35118D02*
Y36063D01*
X1181Y36122D02*
X1339Y35965D01*
X1181Y36122D02*
Y38071D01*
X2972D01*
X3970Y32978D02*
X5020Y31929D01*
X3970Y32978D02*
Y33679D01*
X2972Y35118D02*
X3470Y34620D01*
Y33679D02*
Y34620D01*
X74350Y35827D02*
X74350Y35827D01*
X74350Y27594D02*
Y35827D01*
X14173Y22490D02*
Y23720D01*
X16821Y22490D02*
Y23720D01*
X16811Y22480D02*
X16821Y22490D01*
Y23720D02*
X16831D01*
X19488Y22480D02*
Y23720D01*
X35217Y41378D02*
X35886D01*
X35217D02*
X35242Y41403D01*
X27126Y37185D02*
X27913D01*
X27205Y40787D02*
X27638Y41220D01*
X27126Y40787D02*
X27205D01*
X27126Y41831D02*
X28110D01*
X50197Y40748D02*
Y42362D01*
X70079Y19921D02*
Y21220D01*
X53297Y36427D02*
X53307Y36417D01*
X53297Y36427D02*
Y37417D01*
X53583Y38150D02*
X53615D01*
X53837Y37927D01*
X54569D01*
X53287Y37427D02*
X54569D01*
X51614D02*
X52539D01*
X53287D02*
X53297Y37417D01*
X35197Y36102D02*
X35886D01*
X35197Y37087D02*
X35886D01*
X35197Y38071D02*
X35886D01*
X35197Y39055D02*
X35886D01*
X35197Y40236D02*
X35886D01*
X27962Y38465D02*
X27994D01*
X27795Y38298D02*
X27962Y38465D01*
X27137Y38298D02*
X27795D01*
X27126Y38287D02*
X27137Y38298D01*
X33228Y33740D02*
Y34843D01*
X27126Y41831D02*
X27155Y41860D01*
X33976Y34843D02*
X34902D01*
X27137Y33760D02*
Y34587D01*
D73*
X1772Y49409D02*
D03*
X53402Y20654D02*
D03*
X32902Y7654D02*
D03*
X33402Y26654D02*
D03*
X1772Y1772D02*
D03*
X75000D02*
D03*
X66879Y48791D02*
D03*
D74*
X58268Y45803D02*
D03*
Y44803D02*
D03*
X66929Y14780D02*
D03*
Y13780D02*
D03*
Y12780D02*
D03*
X63543Y16260D02*
D03*
X64543D02*
D03*
X62717Y25252D02*
D03*
Y24252D02*
D03*
Y23252D02*
D03*
X64118Y28071D02*
D03*
X65118D02*
D03*
X66118D02*
D03*
D75*
X4982Y49311D02*
D03*
X7852D02*
D03*
X14632Y49325D02*
D03*
X11762D02*
D03*
X23110Y49308D02*
D03*
X20240D02*
D03*
D76*
X7008Y47610D02*
D03*
X13787Y47624D02*
D03*
X22266Y47607D02*
D03*
D77*
X5827Y47610D02*
D03*
X12606Y47624D02*
D03*
X21085Y47607D02*
D03*
D78*
X42874Y46100D02*
D03*
X31460Y46071D02*
D03*
D79*
X43858Y46100D02*
D03*
X44843D02*
D03*
X42874Y47084D02*
D03*
X43858D02*
D03*
X44843D02*
D03*
X37362Y47055D02*
D03*
X36361D02*
D03*
Y46071D02*
D03*
X33448Y47055D02*
D03*
X32444Y46071D02*
D03*
X33428D02*
D03*
X37362D02*
D03*
X31480Y47055D02*
D03*
X32464D02*
D03*
X34413Y46071D02*
D03*
X34432Y47055D02*
D03*
X35397D02*
D03*
Y46071D02*
D03*
X5394Y8957D02*
D03*
Y9941D02*
D03*
X5408Y10925D02*
D03*
X4410Y7972D02*
D03*
Y8957D02*
D03*
X5394Y18701D02*
D03*
Y19685D02*
D03*
X5408Y20669D02*
D03*
X4410Y17717D02*
D03*
Y18701D02*
D03*
D80*
X42874Y49911D02*
D03*
X44843D02*
D03*
X31460Y49882D02*
D03*
X37362D02*
D03*
X1575Y7972D02*
D03*
Y10925D02*
D03*
Y17717D02*
D03*
Y20669D02*
D03*
D81*
X4410Y9941D02*
D03*
Y10925D02*
D03*
Y19685D02*
D03*
Y20669D02*
D03*
D82*
X5394Y7972D02*
D03*
Y17717D02*
D03*
D83*
X36402Y4654D02*
D03*
X35402D02*
D03*
X36402Y5654D02*
D03*
X35402D02*
D03*
Y28654D02*
D03*
Y29654D02*
D03*
X34402Y5654D02*
D03*
Y29654D02*
D03*
X37402Y4654D02*
D03*
Y5654D02*
D03*
X38402Y4654D02*
D03*
Y5654D02*
D03*
X39402Y4654D02*
D03*
Y5654D02*
D03*
X40402Y4654D02*
D03*
Y5654D02*
D03*
X41402Y4654D02*
D03*
Y5654D02*
D03*
X42402Y4654D02*
D03*
Y5654D02*
D03*
X43402Y4654D02*
D03*
Y5654D02*
D03*
X44402Y4654D02*
D03*
Y5654D02*
D03*
X45402Y4654D02*
D03*
Y5654D02*
D03*
X46402Y4654D02*
D03*
Y5654D02*
D03*
X47402Y4654D02*
D03*
Y5654D02*
D03*
X48402Y4654D02*
D03*
Y5654D02*
D03*
X49402Y4654D02*
D03*
Y5654D02*
D03*
X50402Y4654D02*
D03*
Y5654D02*
D03*
X51402Y4654D02*
D03*
Y5654D02*
D03*
X52402Y4654D02*
D03*
Y5654D02*
D03*
X36402Y28654D02*
D03*
Y29654D02*
D03*
X37402Y28654D02*
D03*
Y29654D02*
D03*
X38402Y28654D02*
D03*
Y29654D02*
D03*
X39402Y28654D02*
D03*
Y29654D02*
D03*
X40402Y28654D02*
D03*
Y29654D02*
D03*
X41402Y28654D02*
D03*
Y29654D02*
D03*
X42402Y28654D02*
D03*
Y29654D02*
D03*
X43402Y28654D02*
D03*
Y29654D02*
D03*
X44402Y28654D02*
D03*
Y29654D02*
D03*
X45402Y28654D02*
D03*
Y29654D02*
D03*
X46402Y28654D02*
D03*
Y29654D02*
D03*
X47402Y28654D02*
D03*
Y29654D02*
D03*
X48402Y28654D02*
D03*
Y29654D02*
D03*
X49402Y28654D02*
D03*
Y29654D02*
D03*
X50402Y28654D02*
D03*
Y29654D02*
D03*
X51402Y28654D02*
D03*
Y29654D02*
D03*
X52402Y28654D02*
D03*
Y29654D02*
D03*
D84*
X34402Y4654D02*
D03*
Y28654D02*
D03*
D85*
X69904Y45298D02*
D03*
Y44218D02*
D03*
Y43138D02*
D03*
Y42058D02*
D03*
X71024Y44758D02*
D03*
Y43678D02*
D03*
Y42598D02*
D03*
Y41518D02*
D03*
D86*
X69904Y40978D02*
D03*
D87*
X70464Y38218D02*
D03*
Y48058D02*
D03*
D88*
X71260Y32299D02*
D03*
D89*
Y31299D02*
D03*
D90*
X6457Y39114D02*
D03*
X19724Y43954D02*
D03*
X23307Y42557D02*
D03*
X11220Y43974D02*
D03*
X14803Y42576D02*
D03*
X20571Y40551D02*
D03*
X19030Y37143D02*
D03*
X20492Y35689D02*
D03*
X12092Y40568D02*
D03*
X10552Y37160D02*
D03*
X12014Y35706D02*
D03*
X2180Y33679D02*
D03*
X3720Y37087D02*
D03*
X2854Y40492D02*
D03*
X3642Y32224D02*
D03*
X56102Y46772D02*
D03*
X46063Y47953D02*
D03*
X52559Y49134D02*
D03*
X48425Y47953D02*
D03*
X41929Y49134D02*
D03*
X60827D02*
D03*
X57283Y46772D02*
D03*
X56693Y47953D02*
D03*
X38976D02*
D03*
X50197Y49134D02*
D03*
X50787Y47953D02*
D03*
X54331D02*
D03*
X37795D02*
D03*
X53740Y49134D02*
D03*
X46654D02*
D03*
X49016D02*
D03*
X51968Y47953D02*
D03*
X53150D02*
D03*
X47835Y49134D02*
D03*
X54921Y46772D02*
D03*
X44882Y47953D02*
D03*
X42520D02*
D03*
X44291Y49134D02*
D03*
X56102D02*
D03*
X59646Y46772D02*
D03*
Y49134D02*
D03*
X57874Y47953D02*
D03*
X43110Y49134D02*
D03*
X59055Y47953D02*
D03*
X55512D02*
D03*
X54921Y49134D02*
D03*
X43701Y47953D02*
D03*
X40748Y49134D02*
D03*
X58465Y46772D02*
D03*
X49606Y47953D02*
D03*
X53740Y46772D02*
D03*
X51378Y49134D02*
D03*
X39567D02*
D03*
X45472D02*
D03*
X65591Y12441D02*
D03*
X62126D02*
D03*
X68189Y10709D02*
D03*
X64724D02*
D03*
X65157Y11575D02*
D03*
X64724Y12441D02*
D03*
X63858D02*
D03*
X69488Y11575D02*
D03*
X63858Y10709D02*
D03*
X65157Y13307D02*
D03*
X69055Y10709D02*
D03*
X62126D02*
D03*
X62559Y11575D02*
D03*
X68622Y13307D02*
D03*
X63425Y11575D02*
D03*
X68189Y12441D02*
D03*
X69055Y14173D02*
D03*
X69488Y13307D02*
D03*
X65591Y10709D02*
D03*
X68622Y11575D02*
D03*
X62992Y10709D02*
D03*
Y12441D02*
D03*
X64291Y13307D02*
D03*
X69055Y12441D02*
D03*
X64291Y11575D02*
D03*
X59980Y23819D02*
D03*
Y22480D02*
D03*
X60650Y23819D02*
D03*
X64331Y24488D02*
D03*
X60315Y23150D02*
D03*
X65000Y24488D02*
D03*
X61319Y22480D02*
D03*
X60984Y23150D02*
D03*
X60315Y24488D02*
D03*
X60650Y25157D02*
D03*
Y22480D02*
D03*
X61319Y23819D02*
D03*
X60984Y24488D02*
D03*
X59980Y25157D02*
D03*
X74350Y35827D02*
D03*
X31919Y28031D02*
D03*
X30906Y25039D02*
D03*
X31417Y24370D02*
D03*
X32419Y23858D02*
D03*
X14173Y22490D02*
D03*
X16811Y22480D02*
D03*
X19488D02*
D03*
X35886Y41378D02*
D03*
X27913Y37185D02*
D03*
X27638Y41220D02*
D03*
X28419Y40896D02*
D03*
X28110Y41831D02*
D03*
X50197Y40748D02*
D03*
X70079Y19921D02*
D03*
X48402Y17323D02*
D03*
X41339Y17992D02*
D03*
Y18663D02*
D03*
X50402Y20157D02*
D03*
X51417Y20669D02*
D03*
X41339Y19331D02*
D03*
X30419Y2362D02*
D03*
X34402Y15866D02*
D03*
X35402Y14685D02*
D03*
X36842Y17082D02*
D03*
Y16303D02*
D03*
X36212Y16783D02*
D03*
X3189Y15551D02*
D03*
X2559D02*
D03*
X3189Y16142D02*
D03*
X2559D02*
D03*
X40402Y35669D02*
D03*
X39402Y38898D02*
D03*
X53307Y36417D02*
D03*
X53583Y38150D02*
D03*
X51614Y37427D02*
D03*
X56024Y13898D02*
D03*
X61929Y16310D02*
D03*
X56769Y42579D02*
D03*
X31919Y34626D02*
D03*
X30419Y35217D02*
D03*
X30919Y34626D02*
D03*
X31419Y35217D02*
D03*
X32419D02*
D03*
X35886Y36102D02*
D03*
Y37087D02*
D03*
Y38071D02*
D03*
Y39055D02*
D03*
Y40236D02*
D03*
X27994Y38465D02*
D03*
X33228Y33740D02*
D03*
X34902Y34843D02*
D03*
X27137Y33760D02*
D03*
X73012Y8211D02*
D03*
X72992Y10827D02*
D03*
Y18819D02*
D03*
Y21063D02*
D03*
Y25394D02*
D03*
X66879Y8780D02*
D03*
X67244Y9291D02*
D03*
X66575D02*
D03*
X62515Y15863D02*
D03*
Y16732D02*
D03*
X62612Y18701D02*
D03*
X63439Y18386D02*
D03*
Y19094D02*
D03*
X60591Y27480D02*
D03*
X69606Y25079D02*
D03*
Y27717D02*
D03*
X60669Y30000D02*
D03*
X58633Y7037D02*
D03*
X57863D02*
D03*
X58976Y7717D02*
D03*
X58268D02*
D03*
X57520D02*
D03*
X36173Y16059D02*
D03*
X36826Y15594D02*
D03*
X45433Y41811D02*
D03*
X43484D02*
D03*
X41535D02*
D03*
X55984Y43976D02*
D03*
X54508D02*
D03*
M02*
