G04*
G04 #@! TF.GenerationSoftware,Altium Limited,Altium Designer,19.0.12 (326)*
G04*
G04 Layer_Color=255*
%FSLAX24Y24*%
%MOIN*%
G70*
G01*
G75*
%ADD24R,0.0512X0.0276*%
%ADD25R,0.0300X0.0600*%
%ADD26R,0.0200X0.0750*%
%ADD27R,0.0600X0.0300*%
%ADD28R,0.1500X0.0800*%
%ADD29R,0.0800X0.1500*%
%ADD30R,0.0276X0.0512*%
%ADD31R,0.1969X0.2362*%
%ADD32R,0.0472X0.0472*%
%ADD33R,0.0750X0.0550*%
%ADD34R,0.0472X0.0472*%
%ADD35R,0.0315X0.0236*%
%ADD36R,0.0236X0.0315*%
%ADD37R,0.0354X0.0512*%
%ADD38R,0.0512X0.0354*%
%ADD73C,0.1201*%
%ADD74C,0.0600*%
%ADD75C,0.0950*%
%ADD76C,0.0602*%
%ADD77R,0.0602X0.0602*%
%ADD78R,0.0709X0.0709*%
%ADD79C,0.0709*%
%ADD80C,0.0669*%
%ADD81C,0.0709*%
%ADD82R,0.0709X0.0709*%
%ADD83C,0.0594*%
%ADD84R,0.0594X0.0594*%
%ADD85C,0.0615*%
%ADD86R,0.0615X0.0615*%
%ADD87C,0.1650*%
%ADD88C,0.0644*%
%ADD89R,0.0644X0.0644*%
D24*
X1161Y45532D02*
D03*
Y46280D02*
D03*
X51181Y46929D02*
D03*
Y46181D02*
D03*
X58425Y38051D02*
D03*
Y37303D02*
D03*
X20807Y44705D02*
D03*
Y43957D02*
D03*
X12329Y44722D02*
D03*
Y43974D02*
D03*
X3957Y41240D02*
D03*
Y40492D02*
D03*
X18031Y41535D02*
D03*
Y42283D02*
D03*
X9553Y41552D02*
D03*
Y42300D02*
D03*
X1181Y38071D02*
D03*
Y38819D02*
D03*
X22399Y45748D02*
D03*
Y46496D02*
D03*
X13921Y45765D02*
D03*
Y46513D02*
D03*
X22992Y34646D02*
D03*
Y35394D02*
D03*
X14514Y34663D02*
D03*
Y35411D02*
D03*
X6142Y31181D02*
D03*
Y31929D02*
D03*
X24961Y45157D02*
D03*
Y45906D02*
D03*
X16482Y45174D02*
D03*
Y45922D02*
D03*
X24961Y47559D02*
D03*
Y48307D02*
D03*
X16482Y47576D02*
D03*
Y48324D02*
D03*
X24961Y49744D02*
D03*
Y50492D02*
D03*
X16482Y49761D02*
D03*
Y50509D02*
D03*
X14173Y23720D02*
D03*
Y24469D02*
D03*
X16831Y23720D02*
D03*
Y24469D02*
D03*
X19488Y23720D02*
D03*
Y24469D02*
D03*
X56769Y41161D02*
D03*
Y40413D02*
D03*
D25*
X21321Y34943D02*
D03*
X20821D02*
D03*
X20321D02*
D03*
X19821D02*
D03*
Y37143D02*
D03*
X20321D02*
D03*
X20821D02*
D03*
X21321D02*
D03*
X12842Y34960D02*
D03*
X12342D02*
D03*
X11842D02*
D03*
X11342D02*
D03*
Y37160D02*
D03*
X11842D02*
D03*
X12342D02*
D03*
X12842D02*
D03*
X4470Y31479D02*
D03*
X3970D02*
D03*
X3470D02*
D03*
X2970D02*
D03*
Y33679D02*
D03*
X3470D02*
D03*
X3970D02*
D03*
X4470D02*
D03*
D26*
X32919Y36443D02*
D03*
X32419D02*
D03*
X31919D02*
D03*
X31419D02*
D03*
X30919D02*
D03*
X30419D02*
D03*
X29919D02*
D03*
X29419D02*
D03*
X28919D02*
D03*
X28419D02*
D03*
Y40093D02*
D03*
X28919D02*
D03*
X29419D02*
D03*
X29919D02*
D03*
X30419D02*
D03*
X30919D02*
D03*
X31419D02*
D03*
X31919D02*
D03*
X32419D02*
D03*
X32919D02*
D03*
D27*
X56769Y38427D02*
D03*
Y37927D02*
D03*
Y37427D02*
D03*
Y36927D02*
D03*
X54569D02*
D03*
Y37427D02*
D03*
Y37927D02*
D03*
Y38427D02*
D03*
D28*
X70079Y21220D02*
D03*
X50197Y42362D02*
D03*
X65079Y34843D02*
D03*
X62717Y13976D02*
D03*
X57878Y49291D02*
D03*
X21004Y33287D02*
D03*
X12526Y33304D02*
D03*
X4154Y29823D02*
D03*
X23760Y36988D02*
D03*
X15281Y37005D02*
D03*
X6909Y33524D02*
D03*
D29*
X60591Y21063D02*
D03*
X18189Y39429D02*
D03*
X9711Y39446D02*
D03*
X1339Y35965D02*
D03*
D30*
X74350Y27594D02*
D03*
X75098D02*
D03*
X74350Y10787D02*
D03*
X75098D02*
D03*
X75098Y21063D02*
D03*
X74350D02*
D03*
X19823Y39528D02*
D03*
X20571D02*
D03*
X11344Y39544D02*
D03*
X12092D02*
D03*
X2972Y36063D02*
D03*
X3720D02*
D03*
X2933Y43518D02*
D03*
X2185D02*
D03*
X18898Y46496D02*
D03*
X18150D02*
D03*
X10419Y46513D02*
D03*
X9671D02*
D03*
X18150Y48012D02*
D03*
X18898D02*
D03*
X9671Y48029D02*
D03*
X10419D02*
D03*
X3661Y46280D02*
D03*
X4409D02*
D03*
X24055Y43524D02*
D03*
X23307D02*
D03*
X15577Y43541D02*
D03*
X14829D02*
D03*
X7205Y40059D02*
D03*
X6457D02*
D03*
X23287Y39488D02*
D03*
X24035D02*
D03*
X14809Y39505D02*
D03*
X15557D02*
D03*
X6437Y36024D02*
D03*
X7185D02*
D03*
X7756Y42854D02*
D03*
X7008D02*
D03*
X7008Y44567D02*
D03*
X7756D02*
D03*
X7756Y46496D02*
D03*
X7008D02*
D03*
D31*
X65079Y31850D02*
D03*
X68228D02*
D03*
X64724Y44865D02*
D03*
X61575D02*
D03*
D32*
X74266Y25394D02*
D03*
X75093D02*
D03*
X74266Y8209D02*
D03*
X75093D02*
D03*
X74266Y18819D02*
D03*
X75093D02*
D03*
D33*
X40709Y47146D02*
D03*
Y45846D02*
D03*
X48426Y47108D02*
D03*
Y45808D02*
D03*
X46614Y47108D02*
D03*
Y45808D02*
D03*
D34*
X14134Y27657D02*
D03*
Y26831D02*
D03*
X16791Y27697D02*
D03*
Y26870D02*
D03*
X19449Y27697D02*
D03*
Y26870D02*
D03*
D35*
X68583Y25079D02*
D03*
X67717D02*
D03*
X60591Y26457D02*
D03*
X61457D02*
D03*
D36*
X55984Y44882D02*
D03*
Y45748D02*
D03*
D37*
X49528Y45808D02*
D03*
X50276D02*
D03*
X18780Y43954D02*
D03*
X18031D02*
D03*
X10301Y43971D02*
D03*
X9553D02*
D03*
X1929Y40490D02*
D03*
X1181D02*
D03*
X20571Y41535D02*
D03*
X19823D02*
D03*
X12092Y41552D02*
D03*
X11344D02*
D03*
X3720Y38071D02*
D03*
X2972D02*
D03*
X18031Y33799D02*
D03*
X18780D02*
D03*
X9553Y33816D02*
D03*
X10301D02*
D03*
X1181Y30335D02*
D03*
X1929D02*
D03*
X23287Y41535D02*
D03*
X24035D02*
D03*
X14809Y41552D02*
D03*
X15557D02*
D03*
X6437Y38071D02*
D03*
X7185D02*
D03*
X35197Y36102D02*
D03*
X34449D02*
D03*
X35197Y37087D02*
D03*
X34449D02*
D03*
X35197Y38071D02*
D03*
X34449D02*
D03*
X35197Y39055D02*
D03*
X34449D02*
D03*
X35197Y40236D02*
D03*
X34449D02*
D03*
X35217Y41378D02*
D03*
X34469D02*
D03*
X33976Y34843D02*
D03*
X33228D02*
D03*
X52539Y37427D02*
D03*
X53287D02*
D03*
X68543Y27717D02*
D03*
X67795D02*
D03*
X60669Y28720D02*
D03*
X61417D02*
D03*
D38*
X18630Y36161D02*
D03*
Y35413D02*
D03*
X10151Y36178D02*
D03*
Y35430D02*
D03*
X1779Y32697D02*
D03*
Y31949D02*
D03*
X24587Y35394D02*
D03*
Y34646D02*
D03*
X16108Y35411D02*
D03*
Y34663D02*
D03*
X7736Y31929D02*
D03*
Y31181D02*
D03*
X27137Y34587D02*
D03*
Y35335D02*
D03*
X27126Y37185D02*
D03*
Y36437D02*
D03*
Y41831D02*
D03*
Y42579D02*
D03*
Y40787D02*
D03*
Y40039D02*
D03*
Y38287D02*
D03*
Y39035D02*
D03*
X54508Y44961D02*
D03*
Y45709D02*
D03*
D73*
X1772Y49409D02*
D03*
X53402Y20654D02*
D03*
X32902Y7654D02*
D03*
X33402Y26654D02*
D03*
X1772Y1772D02*
D03*
X75000D02*
D03*
X66879Y48791D02*
D03*
D74*
X58268Y45803D02*
D03*
Y44803D02*
D03*
X66929Y14780D02*
D03*
Y13780D02*
D03*
Y12780D02*
D03*
X63543Y16260D02*
D03*
X64543D02*
D03*
X62717Y25252D02*
D03*
Y24252D02*
D03*
Y23252D02*
D03*
X64118Y28071D02*
D03*
X65118D02*
D03*
X66118D02*
D03*
D75*
X4982Y49311D02*
D03*
X7852D02*
D03*
X14632Y49325D02*
D03*
X11762D02*
D03*
X23110Y49308D02*
D03*
X20240D02*
D03*
D76*
X7008Y47610D02*
D03*
X13787Y47624D02*
D03*
X22266Y47607D02*
D03*
D77*
X5827Y47610D02*
D03*
X12606Y47624D02*
D03*
X21085Y47607D02*
D03*
D78*
X42874Y46100D02*
D03*
X31460Y46071D02*
D03*
D79*
X43858Y46100D02*
D03*
X44843D02*
D03*
X42874Y47084D02*
D03*
X43858D02*
D03*
X44843D02*
D03*
X37362Y47055D02*
D03*
X36361D02*
D03*
Y46071D02*
D03*
X33448Y47055D02*
D03*
X32444Y46071D02*
D03*
X33428D02*
D03*
X37362D02*
D03*
X31480Y47055D02*
D03*
X32464D02*
D03*
X34413Y46071D02*
D03*
X34432Y47055D02*
D03*
X35397D02*
D03*
Y46071D02*
D03*
X5394Y8957D02*
D03*
Y9941D02*
D03*
X5408Y10925D02*
D03*
X4410Y7972D02*
D03*
Y8957D02*
D03*
X5394Y18701D02*
D03*
Y19685D02*
D03*
X5408Y20669D02*
D03*
X4410Y17717D02*
D03*
Y18701D02*
D03*
D80*
X42874Y49911D02*
D03*
X44843D02*
D03*
X31460Y49882D02*
D03*
X37362D02*
D03*
X1575Y7972D02*
D03*
Y10925D02*
D03*
Y17717D02*
D03*
Y20669D02*
D03*
D81*
X4410Y9941D02*
D03*
Y10925D02*
D03*
Y19685D02*
D03*
Y20669D02*
D03*
D82*
X5394Y7972D02*
D03*
Y17717D02*
D03*
D83*
X36402Y4654D02*
D03*
X35402D02*
D03*
X36402Y5654D02*
D03*
X35402D02*
D03*
Y28654D02*
D03*
Y29654D02*
D03*
X34402Y5654D02*
D03*
Y29654D02*
D03*
X37402Y4654D02*
D03*
Y5654D02*
D03*
X38402Y4654D02*
D03*
Y5654D02*
D03*
X39402Y4654D02*
D03*
Y5654D02*
D03*
X40402Y4654D02*
D03*
Y5654D02*
D03*
X41402Y4654D02*
D03*
Y5654D02*
D03*
X42402Y4654D02*
D03*
Y5654D02*
D03*
X43402Y4654D02*
D03*
Y5654D02*
D03*
X44402Y4654D02*
D03*
Y5654D02*
D03*
X45402Y4654D02*
D03*
Y5654D02*
D03*
X46402Y4654D02*
D03*
Y5654D02*
D03*
X47402Y4654D02*
D03*
Y5654D02*
D03*
X48402Y4654D02*
D03*
Y5654D02*
D03*
X49402Y4654D02*
D03*
Y5654D02*
D03*
X50402Y4654D02*
D03*
Y5654D02*
D03*
X51402Y4654D02*
D03*
Y5654D02*
D03*
X52402Y4654D02*
D03*
Y5654D02*
D03*
X36402Y28654D02*
D03*
Y29654D02*
D03*
X37402Y28654D02*
D03*
Y29654D02*
D03*
X38402Y28654D02*
D03*
Y29654D02*
D03*
X39402Y28654D02*
D03*
Y29654D02*
D03*
X40402Y28654D02*
D03*
Y29654D02*
D03*
X41402Y28654D02*
D03*
Y29654D02*
D03*
X42402Y28654D02*
D03*
Y29654D02*
D03*
X43402Y28654D02*
D03*
Y29654D02*
D03*
X44402Y28654D02*
D03*
Y29654D02*
D03*
X45402Y28654D02*
D03*
Y29654D02*
D03*
X46402Y28654D02*
D03*
Y29654D02*
D03*
X47402Y28654D02*
D03*
Y29654D02*
D03*
X48402Y28654D02*
D03*
Y29654D02*
D03*
X49402Y28654D02*
D03*
Y29654D02*
D03*
X50402Y28654D02*
D03*
Y29654D02*
D03*
X51402Y28654D02*
D03*
Y29654D02*
D03*
X52402Y28654D02*
D03*
Y29654D02*
D03*
D84*
X34402Y4654D02*
D03*
Y28654D02*
D03*
D85*
X69904Y45298D02*
D03*
Y44218D02*
D03*
Y43138D02*
D03*
Y42058D02*
D03*
X71024Y44758D02*
D03*
Y43678D02*
D03*
Y42598D02*
D03*
Y41518D02*
D03*
D86*
X69904Y40978D02*
D03*
D87*
X70464Y38218D02*
D03*
Y48058D02*
D03*
D88*
X71260Y32299D02*
D03*
D89*
Y31299D02*
D03*
M02*
