<?xml version="1.0" encoding="UTF-8"?>
<svg xmlns="http://www.w3.org/2000/svg" xmlns:xlink="http://www.w3.org/1999/xlink" width="56pt" height="73pt" viewBox="0 0 56 73" version="1.1">
<g id="surface4561">
<path style=" stroke:none;fill-rule:evenodd;fill:rgb(45.098039%,45.098039%,87.058824%);fill-opacity:1;" d="M 42.8125 64.261719 L 46.5 64.261719 L 46.5 62.273438 L 42.8125 62.273438 Z "/>
<path style=" stroke:none;fill-rule:evenodd;fill:rgb(45.098039%,45.098039%,87.058824%);fill-opacity:1;" d="M 42.8125 69.65625 L 46.5 69.65625 L 46.5 67.667969 L 42.8125 67.667969 Z "/>
<path style=" stroke:none;fill-rule:evenodd;fill:rgb(45.098039%,45.098039%,87.058824%);fill-opacity:1;" d="M 14.746094 64.261719 L 18.433594 64.261719 L 18.433594 62.273438 L 14.746094 62.273438 Z "/>
<path style=" stroke:none;fill-rule:evenodd;fill:rgb(45.098039%,45.098039%,87.058824%);fill-opacity:1;" d="M 14.746094 69.65625 L 18.433594 69.65625 L 18.433594 67.667969 L 14.746094 67.667969 Z "/>
<path style=" stroke:none;fill-rule:evenodd;fill:rgb(45.098039%,45.098039%,87.058824%);fill-opacity:1;" d="M 28.78125 64.261719 L 32.46875 64.261719 L 32.46875 62.273438 L 28.78125 62.273438 Z "/>
<path style=" stroke:none;fill-rule:evenodd;fill:rgb(45.098039%,45.098039%,87.058824%);fill-opacity:1;" d="M 28.78125 69.65625 L 32.46875 69.65625 L 32.46875 67.667969 L 28.78125 67.667969 Z "/>
<path style=" stroke:none;fill-rule:evenodd;fill:rgb(45.098039%,45.098039%,87.058824%);fill-opacity:1;" d="M 8.375 6.4375 L 10.363281 6.4375 L 10.363281 2.75 L 8.375 2.75 Z "/>
<path style=" stroke:none;fill-rule:evenodd;fill:rgb(45.098039%,45.098039%,87.058824%);fill-opacity:1;" d="M 2.988281 6.4375 L 4.976563 6.4375 L 4.976563 2.75 L 2.988281 2.75 Z "/>
<path style=" stroke:none;fill-rule:evenodd;fill:rgb(45.098039%,45.098039%,87.058824%);fill-opacity:1;" d="M 46.210938 6.4375 L 48.199219 6.4375 L 48.199219 2.75 L 46.210938 2.75 Z "/>
<path style=" stroke:none;fill-rule:evenodd;fill:rgb(45.098039%,45.098039%,87.058824%);fill-opacity:1;" d="M 51.597656 6.4375 L 53.585938 6.4375 L 53.585938 2.75 L 51.597656 2.75 Z "/>
<path style=" stroke:none;fill-rule:evenodd;fill:rgb(45.098039%,45.098039%,87.058824%);fill-opacity:1;" d="M 15.597656 56.941406 L 17.585938 56.941406 L 17.585938 53.253906 L 15.597656 53.253906 Z "/>
<path style=" stroke:none;fill-rule:evenodd;fill:rgb(45.098039%,45.098039%,87.058824%);fill-opacity:1;" d="M 10.210938 56.941406 L 12.199219 56.941406 L 12.199219 53.253906 L 10.210938 53.253906 Z "/>
<path style=" stroke:none;fill-rule:evenodd;fill:rgb(45.098039%,45.098039%,87.058824%);fill-opacity:1;" d="M 29.628906 56.941406 L 31.617188 56.941406 L 31.617188 53.253906 L 29.628906 53.253906 Z "/>
<path style=" stroke:none;fill-rule:evenodd;fill:rgb(45.098039%,45.098039%,87.058824%);fill-opacity:1;" d="M 24.246094 56.941406 L 26.234375 56.941406 L 26.234375 53.253906 L 24.246094 53.253906 Z "/>
<path style=" stroke:none;fill-rule:evenodd;fill:rgb(45.098039%,45.098039%,87.058824%);fill-opacity:1;" d="M 43.664063 56.609375 L 45.652344 56.609375 L 45.652344 52.921875 L 43.664063 52.921875 Z "/>
<path style=" stroke:none;fill-rule:evenodd;fill:rgb(45.098039%,45.098039%,87.058824%);fill-opacity:1;" d="M 38.277344 56.609375 L 40.265625 56.609375 L 40.265625 52.921875 L 38.277344 52.921875 Z "/>
<path style=" stroke:none;fill-rule:evenodd;fill:rgb(45.098039%,45.098039%,87.058824%);fill-opacity:1;" d="M 7.949219 22.875 L 10.496094 22.875 L 10.496094 19.1875 L 7.949219 19.1875 Z "/>
<path style=" stroke:none;fill-rule:evenodd;fill:rgb(45.098039%,45.098039%,87.058824%);fill-opacity:1;" d="M 2.566406 22.875 L 5.113281 22.875 L 5.113281 19.1875 L 2.566406 19.1875 Z "/>
<path style=" stroke:none;fill-rule:evenodd;fill:rgb(45.098039%,45.098039%,87.058824%);fill-opacity:1;" d="M 45.929688 22.917969 L 48.476563 22.917969 L 48.476563 19.230469 L 45.929688 19.230469 Z "/>
<path style=" stroke:none;fill-rule:evenodd;fill:rgb(45.098039%,45.098039%,87.058824%);fill-opacity:1;" d="M 51.316406 22.917969 L 53.863281 22.917969 L 53.863281 19.230469 L 51.316406 19.230469 Z "/>
<path style=" stroke:none;fill-rule:evenodd;fill:rgb(45.098039%,45.098039%,87.058824%);fill-opacity:1;" d="M 10.070313 44.707031 L 12.339844 44.707031 L 12.339844 42.160156 L 10.070313 42.160156 Z "/>
<path style=" stroke:none;fill-rule:evenodd;fill:rgb(45.098039%,45.098039%,87.058824%);fill-opacity:1;" d="M 15.457031 44.707031 L 17.726563 44.707031 L 17.726563 42.160156 L 15.457031 42.160156 Z "/>
<path style=" stroke:none;fill-rule:evenodd;fill:rgb(45.098039%,45.098039%,87.058824%);fill-opacity:1;" d="M 12.765625 39.035156 L 15.035156 39.035156 L 15.035156 36.488281 L 12.765625 36.488281 Z "/>
<path style=" stroke:none;fill-rule:evenodd;fill:rgb(45.098039%,45.098039%,87.058824%);fill-opacity:1;" d="M 24.105469 44.707031 L 26.375 44.707031 L 26.375 42.160156 L 24.105469 42.160156 Z "/>
<path style=" stroke:none;fill-rule:evenodd;fill:rgb(45.098039%,45.098039%,87.058824%);fill-opacity:1;" d="M 29.488281 44.707031 L 31.757813 44.707031 L 31.757813 42.160156 L 29.488281 42.160156 Z "/>
<path style=" stroke:none;fill-rule:evenodd;fill:rgb(45.098039%,45.098039%,87.058824%);fill-opacity:1;" d="M 26.796875 39.035156 L 29.066406 39.035156 L 29.066406 36.488281 L 26.796875 36.488281 Z "/>
<path style=" stroke:none;fill-rule:evenodd;fill:rgb(45.098039%,45.098039%,87.058824%);fill-opacity:1;" d="M 38.136719 44.707031 L 40.40625 44.707031 L 40.40625 42.160156 L 38.136719 42.160156 Z "/>
<path style=" stroke:none;fill-rule:evenodd;fill:rgb(45.098039%,45.098039%,87.058824%);fill-opacity:1;" d="M 43.523438 44.707031 L 45.792969 44.707031 L 45.792969 42.160156 L 43.523438 42.160156 Z "/>
<path style=" stroke:none;fill-rule:evenodd;fill:rgb(45.098039%,45.098039%,87.058824%);fill-opacity:1;" d="M 40.828125 39.035156 L 43.097656 39.035156 L 43.097656 36.488281 L 40.828125 36.488281 Z "/>
</g>
</svg>
