<?xml version="1.0" encoding="UTF-8"?>
<svg xmlns="http://www.w3.org/2000/svg" xmlns:xlink="http://www.w3.org/1999/xlink" width="589pt" height="338pt" viewBox="0 0 589 338" version="1.1">
<g id="surface7899">
<path style=" stroke:none;fill-rule:evenodd;fill:rgb(45.098039%,45.098039%,87.058824%);fill-opacity:1;" d="M 26.792969 53.207031 L 30.480469 53.207031 L 30.480469 51.21875 L 26.792969 51.21875 Z "/>
<path style=" stroke:none;fill-rule:evenodd;fill:rgb(45.098039%,45.098039%,87.058824%);fill-opacity:1;" d="M 26.792969 47.820313 L 30.480469 47.820313 L 30.480469 45.832031 L 26.792969 45.832031 Z "/>
<path style=" stroke:none;fill-rule:evenodd;fill:rgb(45.098039%,45.098039%,87.058824%);fill-opacity:1;" d="M 386.9375 43.148438 L 390.625 43.148438 L 390.625 41.160156 L 386.9375 41.160156 Z "/>
<path style=" stroke:none;fill-rule:evenodd;fill:rgb(45.098039%,45.098039%,87.058824%);fill-opacity:1;" d="M 386.9375 48.535156 L 390.625 48.535156 L 390.625 46.546875 L 386.9375 46.546875 Z "/>
<path style=" stroke:none;fill-rule:evenodd;fill:rgb(45.098039%,45.098039%,87.058824%);fill-opacity:1;" d="M 439.09375 107.070313 L 442.78125 107.070313 L 442.78125 105.082031 L 439.09375 105.082031 Z "/>
<path style=" stroke:none;fill-rule:evenodd;fill:rgb(45.098039%,45.098039%,87.058824%);fill-opacity:1;" d="M 439.09375 112.453125 L 442.78125 112.453125 L 442.78125 110.464844 L 439.09375 110.464844 Z "/>
<path style=" stroke:none;fill-rule:evenodd;fill:rgb(45.098039%,45.098039%,87.058824%);fill-opacity:1;" d="M 168.242188 59.160156 L 171.929688 59.160156 L 171.929688 57.171875 L 168.242188 57.171875 Z "/>
<path style=" stroke:none;fill-rule:evenodd;fill:rgb(45.098039%,45.098039%,87.058824%);fill-opacity:1;" d="M 168.242188 64.546875 L 171.929688 64.546875 L 171.929688 62.558594 L 168.242188 62.558594 Z "/>
<path style=" stroke:none;fill-rule:evenodd;fill:rgb(45.098039%,45.098039%,87.058824%);fill-opacity:1;" d="M 107.203125 59.039063 L 110.890625 59.039063 L 110.890625 57.050781 L 107.203125 57.050781 Z "/>
<path style=" stroke:none;fill-rule:evenodd;fill:rgb(45.098039%,45.098039%,87.058824%);fill-opacity:1;" d="M 107.203125 64.421875 L 110.890625 64.421875 L 110.890625 62.433594 L 107.203125 62.433594 Z "/>
<path style=" stroke:none;fill-rule:evenodd;fill:rgb(45.098039%,45.098039%,87.058824%);fill-opacity:1;" d="M 46.925781 84.109375 L 50.613281 84.109375 L 50.613281 82.121094 L 46.925781 82.121094 Z "/>
<path style=" stroke:none;fill-rule:evenodd;fill:rgb(45.098039%,45.098039%,87.058824%);fill-opacity:1;" d="M 46.925781 89.496094 L 50.613281 89.496094 L 50.613281 87.507813 L 46.925781 87.507813 Z "/>
<path style=" stroke:none;fill-rule:evenodd;fill:rgb(45.098039%,45.098039%,87.058824%);fill-opacity:1;" d="M 148.257813 81.984375 L 151.945313 81.984375 L 151.945313 79.996094 L 148.257813 79.996094 Z "/>
<path style=" stroke:none;fill-rule:evenodd;fill:rgb(45.098039%,45.098039%,87.058824%);fill-opacity:1;" d="M 148.257813 76.597656 L 151.945313 76.597656 L 151.945313 74.609375 L 148.257813 74.609375 Z "/>
<path style=" stroke:none;fill-rule:evenodd;fill:rgb(45.098039%,45.098039%,87.058824%);fill-opacity:1;" d="M 87.214844 81.863281 L 90.902344 81.863281 L 90.902344 79.875 L 87.214844 79.875 Z "/>
<path style=" stroke:none;fill-rule:evenodd;fill:rgb(45.098039%,45.098039%,87.058824%);fill-opacity:1;" d="M 87.214844 76.476563 L 90.902344 76.476563 L 90.902344 74.488281 L 87.214844 74.488281 Z "/>
<path style=" stroke:none;fill-rule:evenodd;fill:rgb(45.098039%,45.098039%,87.058824%);fill-opacity:1;" d="M 26.9375 106.925781 L 30.625 106.925781 L 30.625 104.9375 L 26.9375 104.9375 Z "/>
<path style=" stroke:none;fill-rule:evenodd;fill:rgb(45.098039%,45.098039%,87.058824%);fill-opacity:1;" d="M 26.9375 101.539063 L 30.625 101.539063 L 30.625 99.550781 L 26.9375 99.550781 Z "/>
<path style=" stroke:none;fill-rule:evenodd;fill:rgb(45.098039%,45.098039%,87.058824%);fill-opacity:1;" d="M 179.707031 51.652344 L 183.394531 51.652344 L 183.394531 49.664063 L 179.707031 49.664063 Z "/>
<path style=" stroke:none;fill-rule:evenodd;fill:rgb(45.098039%,45.098039%,87.058824%);fill-opacity:1;" d="M 179.707031 46.265625 L 183.394531 46.265625 L 183.394531 44.277344 L 179.707031 44.277344 Z "/>
<path style=" stroke:none;fill-rule:evenodd;fill:rgb(45.098039%,45.098039%,87.058824%);fill-opacity:1;" d="M 118.664063 51.527344 L 122.351563 51.527344 L 122.351563 49.539063 L 118.664063 49.539063 Z "/>
<path style=" stroke:none;fill-rule:evenodd;fill:rgb(45.098039%,45.098039%,87.058824%);fill-opacity:1;" d="M 118.664063 46.144531 L 122.351563 46.144531 L 122.351563 44.15625 L 118.664063 44.15625 Z "/>
<path style=" stroke:none;fill-rule:evenodd;fill:rgb(45.098039%,45.098039%,87.058824%);fill-opacity:1;" d="M 183.976563 131.585938 L 187.664063 131.585938 L 187.664063 129.597656 L 183.976563 129.597656 Z "/>
<path style=" stroke:none;fill-rule:evenodd;fill:rgb(45.098039%,45.098039%,87.058824%);fill-opacity:1;" d="M 183.976563 126.199219 L 187.664063 126.199219 L 187.664063 124.210938 L 183.976563 124.210938 Z "/>
<path style=" stroke:none;fill-rule:evenodd;fill:rgb(45.098039%,45.098039%,87.058824%);fill-opacity:1;" d="M 122.933594 131.464844 L 126.621094 131.464844 L 126.621094 129.476563 L 122.933594 129.476563 Z "/>
<path style=" stroke:none;fill-rule:evenodd;fill:rgb(45.098039%,45.098039%,87.058824%);fill-opacity:1;" d="M 122.933594 126.078125 L 126.621094 126.078125 L 126.621094 124.089844 L 122.933594 124.089844 Z "/>
<path style=" stroke:none;fill-rule:evenodd;fill:rgb(45.098039%,45.098039%,87.058824%);fill-opacity:1;" d="M 62.65625 156.535156 L 66.34375 156.535156 L 66.34375 154.546875 L 62.65625 154.546875 Z "/>
<path style=" stroke:none;fill-rule:evenodd;fill:rgb(45.098039%,45.098039%,87.058824%);fill-opacity:1;" d="M 62.65625 151.148438 L 66.34375 151.148438 L 66.34375 149.160156 L 62.65625 149.160156 Z "/>
<path style=" stroke:none;fill-rule:evenodd;fill:rgb(45.098039%,45.098039%,87.058824%);fill-opacity:1;" d="M 198.152344 55.90625 L 201.839844 55.90625 L 201.839844 53.917969 L 198.152344 53.917969 Z "/>
<path style=" stroke:none;fill-rule:evenodd;fill:rgb(45.098039%,45.098039%,87.058824%);fill-opacity:1;" d="M 198.152344 50.511719 L 201.839844 50.511719 L 201.839844 48.523438 L 198.152344 48.523438 Z "/>
<path style=" stroke:none;fill-rule:evenodd;fill:rgb(45.098039%,45.098039%,87.058824%);fill-opacity:1;" d="M 137.105469 55.785156 L 140.792969 55.785156 L 140.792969 53.796875 L 137.105469 53.796875 Z "/>
<path style=" stroke:none;fill-rule:evenodd;fill:rgb(45.098039%,45.098039%,87.058824%);fill-opacity:1;" d="M 137.105469 50.398438 L 140.792969 50.398438 L 140.792969 48.410156 L 137.105469 48.410156 Z "/>
<path style=" stroke:none;fill-rule:evenodd;fill:rgb(45.098039%,45.098039%,87.058824%);fill-opacity:1;" d="M 198.152344 38.613281 L 201.839844 38.613281 L 201.839844 36.625 L 198.152344 36.625 Z "/>
<path style=" stroke:none;fill-rule:evenodd;fill:rgb(45.098039%,45.098039%,87.058824%);fill-opacity:1;" d="M 198.152344 33.226563 L 201.839844 33.226563 L 201.839844 31.238281 L 198.152344 31.238281 Z "/>
<path style=" stroke:none;fill-rule:evenodd;fill:rgb(45.098039%,45.098039%,87.058824%);fill-opacity:1;" d="M 137.105469 38.488281 L 140.792969 38.488281 L 140.792969 36.5 L 137.105469 36.5 Z "/>
<path style=" stroke:none;fill-rule:evenodd;fill:rgb(45.098039%,45.098039%,87.058824%);fill-opacity:1;" d="M 137.105469 33.105469 L 140.792969 33.105469 L 140.792969 31.117188 L 137.105469 31.117188 Z "/>
<path style=" stroke:none;fill-rule:evenodd;fill:rgb(45.098039%,45.098039%,87.058824%);fill-opacity:1;" d="M 198.152344 22.878906 L 201.839844 22.878906 L 201.839844 20.890625 L 198.152344 20.890625 Z "/>
<path style=" stroke:none;fill-rule:evenodd;fill:rgb(45.098039%,45.098039%,87.058824%);fill-opacity:1;" d="M 198.152344 17.496094 L 201.839844 17.496094 L 201.839844 15.507813 L 198.152344 15.507813 Z "/>
<path style=" stroke:none;fill-rule:evenodd;fill:rgb(45.098039%,45.098039%,87.058824%);fill-opacity:1;" d="M 137.105469 22.757813 L 140.792969 22.757813 L 140.792969 20.769531 L 137.105469 20.769531 Z "/>
<path style=" stroke:none;fill-rule:evenodd;fill:rgb(45.098039%,45.098039%,87.058824%);fill-opacity:1;" d="M 137.105469 17.371094 L 140.792969 17.371094 L 140.792969 15.382813 L 137.105469 15.382813 Z "/>
<path style=" stroke:none;fill-rule:evenodd;fill:rgb(45.098039%,45.098039%,87.058824%);fill-opacity:1;" d="M 120.480469 210.253906 L 124.167969 210.253906 L 124.167969 208.265625 L 120.480469 208.265625 Z "/>
<path style=" stroke:none;fill-rule:evenodd;fill:rgb(45.098039%,45.098039%,87.058824%);fill-opacity:1;" d="M 120.480469 204.859375 L 124.167969 204.859375 L 124.167969 202.871094 L 120.480469 202.871094 Z "/>
<path style=" stroke:none;fill-rule:evenodd;fill:rgb(45.098039%,45.098039%,87.058824%);fill-opacity:1;" d="M 139.617188 210.253906 L 143.304688 210.253906 L 143.304688 208.265625 L 139.617188 208.265625 Z "/>
<path style=" stroke:none;fill-rule:evenodd;fill:rgb(45.098039%,45.098039%,87.058824%);fill-opacity:1;" d="M 139.617188 204.859375 L 143.304688 204.859375 L 143.304688 202.871094 L 139.617188 202.871094 Z "/>
<path style=" stroke:none;fill-rule:evenodd;fill:rgb(45.098039%,45.098039%,87.058824%);fill-opacity:1;" d="M 158.746094 210.253906 L 162.433594 210.253906 L 162.433594 208.265625 L 158.746094 208.265625 Z "/>
<path style=" stroke:none;fill-rule:evenodd;fill:rgb(45.098039%,45.098039%,87.058824%);fill-opacity:1;" d="M 158.746094 204.859375 L 162.433594 204.859375 L 162.433594 202.871094 L 158.746094 202.871094 Z "/>
<path style=" stroke:none;fill-rule:evenodd;fill:rgb(45.098039%,45.098039%,87.058824%);fill-opacity:1;" d="M 427.171875 84.675781 L 430.859375 84.675781 L 430.859375 82.6875 L 427.171875 82.6875 Z "/>
<path style=" stroke:none;fill-rule:evenodd;fill:rgb(45.098039%,45.098039%,87.058824%);fill-opacity:1;" d="M 427.171875 90.0625 L 430.859375 90.0625 L 430.859375 88.074219 L 427.171875 88.074219 Z "/>
<path style=" stroke:none;fill-rule:evenodd;fill:rgb(45.098039%,45.098039%,87.058824%);fill-opacity:1;" d="M 172.707031 130.613281 L 174.867188 130.613281 L 174.867188 126.292969 L 172.707031 126.292969 Z "/>
<path style=" stroke:none;fill-rule:evenodd;fill:rgb(45.098039%,45.098039%,87.058824%);fill-opacity:1;" d="M 169.109375 130.613281 L 171.269531 130.613281 L 171.269531 126.292969 L 169.109375 126.292969 Z "/>
<path style=" stroke:none;fill-rule:evenodd;fill:rgb(45.098039%,45.098039%,87.058824%);fill-opacity:1;" d="M 165.507813 130.613281 L 167.667969 130.613281 L 167.667969 126.292969 L 165.507813 126.292969 Z "/>
<path style=" stroke:none;fill-rule:evenodd;fill:rgb(45.098039%,45.098039%,87.058824%);fill-opacity:1;" d="M 161.90625 130.613281 L 164.066406 130.613281 L 164.066406 126.292969 L 161.90625 126.292969 Z "/>
<path style=" stroke:none;fill-rule:evenodd;fill:rgb(45.098039%,45.098039%,87.058824%);fill-opacity:1;" d="M 161.90625 114.773438 L 164.066406 114.773438 L 164.066406 110.453125 L 161.90625 110.453125 Z "/>
<path style=" stroke:none;fill-rule:evenodd;fill:rgb(45.098039%,45.098039%,87.058824%);fill-opacity:1;" d="M 165.507813 114.773438 L 167.667969 114.773438 L 167.667969 110.453125 L 165.507813 110.453125 Z "/>
<path style=" stroke:none;fill-rule:evenodd;fill:rgb(45.098039%,45.098039%,87.058824%);fill-opacity:1;" d="M 169.109375 114.773438 L 171.269531 114.773438 L 171.269531 110.453125 L 169.109375 110.453125 Z "/>
<path style=" stroke:none;fill-rule:evenodd;fill:rgb(45.098039%,45.098039%,87.058824%);fill-opacity:1;" d="M 172.707031 114.773438 L 174.867188 114.773438 L 174.867188 110.453125 L 172.707031 110.453125 Z "/>
<path style=" stroke:none;fill-rule:evenodd;fill:rgb(45.098039%,45.098039%,87.058824%);fill-opacity:1;" d="M 111.660156 130.492188 L 113.820313 130.492188 L 113.820313 126.171875 L 111.660156 126.171875 Z "/>
<path style=" stroke:none;fill-rule:evenodd;fill:rgb(45.098039%,45.098039%,87.058824%);fill-opacity:1;" d="M 108.058594 130.492188 L 110.21875 130.492188 L 110.21875 126.171875 L 108.058594 126.171875 Z "/>
<path style=" stroke:none;fill-rule:evenodd;fill:rgb(45.098039%,45.098039%,87.058824%);fill-opacity:1;" d="M 104.460938 130.492188 L 106.621094 130.492188 L 106.621094 126.171875 L 104.460938 126.171875 Z "/>
<path style=" stroke:none;fill-rule:evenodd;fill:rgb(45.098039%,45.098039%,87.058824%);fill-opacity:1;" d="M 100.859375 130.492188 L 103.019531 130.492188 L 103.019531 126.171875 L 100.859375 126.171875 Z "/>
<path style=" stroke:none;fill-rule:evenodd;fill:rgb(45.098039%,45.098039%,87.058824%);fill-opacity:1;" d="M 100.859375 114.652344 L 103.019531 114.652344 L 103.019531 110.332031 L 100.859375 110.332031 Z "/>
<path style=" stroke:none;fill-rule:evenodd;fill:rgb(45.098039%,45.098039%,87.058824%);fill-opacity:1;" d="M 104.460938 114.652344 L 106.621094 114.652344 L 106.621094 110.332031 L 104.460938 110.332031 Z "/>
<path style=" stroke:none;fill-rule:evenodd;fill:rgb(45.098039%,45.098039%,87.058824%);fill-opacity:1;" d="M 108.058594 114.652344 L 110.21875 114.652344 L 110.21875 110.332031 L 108.058594 110.332031 Z "/>
<path style=" stroke:none;fill-rule:evenodd;fill:rgb(45.098039%,45.098039%,87.058824%);fill-opacity:1;" d="M 111.660156 114.652344 L 113.820313 114.652344 L 113.820313 110.332031 L 111.660156 110.332031 Z "/>
<path style=" stroke:none;fill-rule:evenodd;fill:rgb(45.098039%,45.098039%,87.058824%);fill-opacity:1;" d="M 51.378906 155.554688 L 53.539063 155.554688 L 53.539063 151.234375 L 51.378906 151.234375 Z "/>
<path style=" stroke:none;fill-rule:evenodd;fill:rgb(45.098039%,45.098039%,87.058824%);fill-opacity:1;" d="M 47.78125 155.554688 L 49.941406 155.554688 L 49.941406 151.234375 L 47.78125 151.234375 Z "/>
<path style=" stroke:none;fill-rule:evenodd;fill:rgb(45.098039%,45.098039%,87.058824%);fill-opacity:1;" d="M 44.179688 155.554688 L 46.339844 155.554688 L 46.339844 151.234375 L 44.179688 151.234375 Z "/>
<path style=" stroke:none;fill-rule:evenodd;fill:rgb(45.098039%,45.098039%,87.058824%);fill-opacity:1;" d="M 40.582031 155.554688 L 42.742188 155.554688 L 42.742188 151.234375 L 40.582031 151.234375 Z "/>
<path style=" stroke:none;fill-rule:evenodd;fill:rgb(45.098039%,45.098039%,87.058824%);fill-opacity:1;" d="M 40.582031 139.714844 L 42.742188 139.714844 L 42.742188 135.394531 L 40.582031 135.394531 Z "/>
<path style=" stroke:none;fill-rule:evenodd;fill:rgb(45.098039%,45.098039%,87.058824%);fill-opacity:1;" d="M 44.179688 139.714844 L 46.339844 139.714844 L 46.339844 135.394531 L 44.179688 135.394531 Z "/>
<path style=" stroke:none;fill-rule:evenodd;fill:rgb(45.098039%,45.098039%,87.058824%);fill-opacity:1;" d="M 47.78125 139.714844 L 49.941406 139.714844 L 49.941406 135.394531 L 47.78125 135.394531 Z "/>
<path style=" stroke:none;fill-rule:evenodd;fill:rgb(45.098039%,45.098039%,87.058824%);fill-opacity:1;" d="M 51.378906 139.714844 L 53.539063 139.714844 L 53.539063 135.394531 L 51.378906 135.394531 Z "/>
<path style=" stroke:none;fill-rule:evenodd;fill:rgb(45.098039%,45.098039%,87.058824%);fill-opacity:1;" d="M 256.574219 120.351563 L 258.015625 120.351563 L 258.015625 114.953125 L 256.574219 114.953125 Z "/>
<path style=" stroke:none;fill-rule:evenodd;fill:rgb(45.098039%,45.098039%,87.058824%);fill-opacity:1;" d="M 252.972656 120.351563 L 254.414063 120.351563 L 254.414063 114.953125 L 252.972656 114.953125 Z "/>
<path style=" stroke:none;fill-rule:evenodd;fill:rgb(45.098039%,45.098039%,87.058824%);fill-opacity:1;" d="M 249.375 120.351563 L 250.816406 120.351563 L 250.816406 114.953125 L 249.375 114.953125 Z "/>
<path style=" stroke:none;fill-rule:evenodd;fill:rgb(45.098039%,45.098039%,87.058824%);fill-opacity:1;" d="M 245.773438 120.351563 L 247.214844 120.351563 L 247.214844 114.953125 L 245.773438 114.953125 Z "/>
<path style=" stroke:none;fill-rule:evenodd;fill:rgb(45.098039%,45.098039%,87.058824%);fill-opacity:1;" d="M 242.171875 120.351563 L 243.613281 120.351563 L 243.613281 114.953125 L 242.171875 114.953125 Z "/>
<path style=" stroke:none;fill-rule:evenodd;fill:rgb(45.098039%,45.098039%,87.058824%);fill-opacity:1;" d="M 238.574219 120.351563 L 240.015625 120.351563 L 240.015625 114.953125 L 238.574219 114.953125 Z "/>
<path style=" stroke:none;fill-rule:evenodd;fill:rgb(45.098039%,45.098039%,87.058824%);fill-opacity:1;" d="M 234.972656 120.351563 L 236.414063 120.351563 L 236.414063 114.953125 L 234.972656 114.953125 Z "/>
<path style=" stroke:none;fill-rule:evenodd;fill:rgb(45.098039%,45.098039%,87.058824%);fill-opacity:1;" d="M 231.375 120.351563 L 232.816406 120.351563 L 232.816406 114.953125 L 231.375 114.953125 Z "/>
<path style=" stroke:none;fill-rule:evenodd;fill:rgb(45.098039%,45.098039%,87.058824%);fill-opacity:1;" d="M 227.773438 120.351563 L 229.214844 120.351563 L 229.214844 114.953125 L 227.773438 114.953125 Z "/>
<path style=" stroke:none;fill-rule:evenodd;fill:rgb(45.098039%,45.098039%,87.058824%);fill-opacity:1;" d="M 224.171875 120.351563 L 225.613281 120.351563 L 225.613281 114.953125 L 224.171875 114.953125 Z "/>
<path style=" stroke:none;fill-rule:evenodd;fill:rgb(45.098039%,45.098039%,87.058824%);fill-opacity:1;" d="M 224.171875 94.074219 L 225.613281 94.074219 L 225.613281 88.675781 L 224.171875 88.675781 Z "/>
<path style=" stroke:none;fill-rule:evenodd;fill:rgb(45.098039%,45.098039%,87.058824%);fill-opacity:1;" d="M 227.773438 94.074219 L 229.214844 94.074219 L 229.214844 88.675781 L 227.773438 88.675781 Z "/>
<path style=" stroke:none;fill-rule:evenodd;fill:rgb(45.098039%,45.098039%,87.058824%);fill-opacity:1;" d="M 231.375 94.074219 L 232.816406 94.074219 L 232.816406 88.675781 L 231.375 88.675781 Z "/>
<path style=" stroke:none;fill-rule:evenodd;fill:rgb(45.098039%,45.098039%,87.058824%);fill-opacity:1;" d="M 234.972656 94.074219 L 236.414063 94.074219 L 236.414063 88.675781 L 234.972656 88.675781 Z "/>
<path style=" stroke:none;fill-rule:evenodd;fill:rgb(45.098039%,45.098039%,87.058824%);fill-opacity:1;" d="M 238.574219 94.074219 L 240.015625 94.074219 L 240.015625 88.675781 L 238.574219 88.675781 Z "/>
<path style=" stroke:none;fill-rule:evenodd;fill:rgb(45.098039%,45.098039%,87.058824%);fill-opacity:1;" d="M 242.171875 94.074219 L 243.613281 94.074219 L 243.613281 88.675781 L 242.171875 88.675781 Z "/>
<path style=" stroke:none;fill-rule:evenodd;fill:rgb(45.098039%,45.098039%,87.058824%);fill-opacity:1;" d="M 245.773438 94.074219 L 247.214844 94.074219 L 247.214844 88.675781 L 245.773438 88.675781 Z "/>
<path style=" stroke:none;fill-rule:evenodd;fill:rgb(45.098039%,45.098039%,87.058824%);fill-opacity:1;" d="M 249.375 94.074219 L 250.816406 94.074219 L 250.816406 88.675781 L 249.375 88.675781 Z "/>
<path style=" stroke:none;fill-rule:evenodd;fill:rgb(45.098039%,45.098039%,87.058824%);fill-opacity:1;" d="M 252.972656 94.074219 L 254.414063 94.074219 L 254.414063 88.675781 L 252.972656 88.675781 Z "/>
<path style=" stroke:none;fill-rule:evenodd;fill:rgb(45.098039%,45.098039%,87.058824%);fill-opacity:1;" d="M 256.574219 94.074219 L 258.015625 94.074219 L 258.015625 88.675781 L 256.574219 88.675781 Z "/>
<path style=" stroke:none;fill-rule:evenodd;fill:rgb(45.098039%,45.098039%,87.058824%);fill-opacity:1;" d="M 426.851563 104.449219 L 431.171875 104.449219 L 431.171875 102.289063 L 426.851563 102.289063 Z "/>
<path style=" stroke:none;fill-rule:evenodd;fill:rgb(45.098039%,45.098039%,87.058824%);fill-opacity:1;" d="M 426.851563 108.046875 L 431.171875 108.046875 L 431.171875 105.886719 L 426.851563 105.886719 Z "/>
<path style=" stroke:none;fill-rule:evenodd;fill:rgb(45.098039%,45.098039%,87.058824%);fill-opacity:1;" d="M 426.851563 111.648438 L 431.171875 111.648438 L 431.171875 109.488281 L 426.851563 109.488281 Z "/>
<path style=" stroke:none;fill-rule:evenodd;fill:rgb(45.098039%,45.098039%,87.058824%);fill-opacity:1;" d="M 426.851563 115.25 L 431.171875 115.25 L 431.171875 113.089844 L 426.851563 113.089844 Z "/>
<path style=" stroke:none;fill-rule:evenodd;fill:rgb(45.098039%,45.098039%,87.058824%);fill-opacity:1;" d="M 411.011719 115.25 L 415.332031 115.25 L 415.332031 113.089844 L 411.011719 113.089844 Z "/>
<path style=" stroke:none;fill-rule:evenodd;fill:rgb(45.098039%,45.098039%,87.058824%);fill-opacity:1;" d="M 411.011719 111.648438 L 415.332031 111.648438 L 415.332031 109.488281 L 411.011719 109.488281 Z "/>
<path style=" stroke:none;fill-rule:evenodd;fill:rgb(45.098039%,45.098039%,87.058824%);fill-opacity:1;" d="M 411.011719 108.046875 L 415.332031 108.046875 L 415.332031 105.886719 L 411.011719 105.886719 Z "/>
<path style=" stroke:none;fill-rule:evenodd;fill:rgb(45.098039%,45.098039%,87.058824%);fill-opacity:1;" d="M 411.011719 104.449219 L 415.332031 104.449219 L 415.332031 102.289063 L 411.011719 102.289063 Z "/>
<path style=" stroke:none;fill-rule:evenodd;fill:rgb(45.098039%,45.098039%,87.058824%);fill-opacity:1;" d="M 519.445313 230.140625 L 530.246094 230.140625 L 530.246094 224.378906 L 519.445313 224.378906 Z "/>
<path style=" stroke:none;fill-rule:evenodd;fill:rgb(45.098039%,45.098039%,87.058824%);fill-opacity:1;" d="M 376.296875 77.917969 L 387.097656 77.917969 L 387.097656 72.15625 L 376.296875 72.15625 Z "/>
<path style=" stroke:none;fill-rule:evenodd;fill:rgb(45.098039%,45.098039%,87.058824%);fill-opacity:1;" d="M 483.445313 132.054688 L 494.246094 132.054688 L 494.246094 126.292969 L 483.445313 126.292969 Z "/>
<path style=" stroke:none;fill-rule:evenodd;fill:rgb(45.098039%,45.098039%,87.058824%);fill-opacity:1;" d="M 466.4375 282.296875 L 477.238281 282.296875 L 477.238281 276.535156 L 466.4375 276.535156 Z "/>
<path style=" stroke:none;fill-rule:evenodd;fill:rgb(45.098039%,45.098039%,87.058824%);fill-opacity:1;" d="M 431.597656 28.027344 L 442.398438 28.027344 L 442.398438 22.265625 L 431.597656 22.265625 Z "/>
<path style=" stroke:none;fill-rule:evenodd;fill:rgb(45.098039%,45.098039%,87.058824%);fill-opacity:1;" d="M 166.105469 143.257813 L 176.90625 143.257813 L 176.90625 137.496094 L 166.105469 137.496094 Z "/>
<path style=" stroke:none;fill-rule:evenodd;fill:rgb(45.098039%,45.098039%,87.058824%);fill-opacity:1;" d="M 105.0625 143.132813 L 115.863281 143.132813 L 115.863281 137.371094 L 105.0625 137.371094 Z "/>
<path style=" stroke:none;fill-rule:evenodd;fill:rgb(45.098039%,45.098039%,87.058824%);fill-opacity:1;" d="M 44.785156 168.199219 L 55.585938 168.199219 L 55.585938 162.4375 L 44.785156 162.4375 Z "/>
<path style=" stroke:none;fill-rule:evenodd;fill:rgb(45.098039%,45.098039%,87.058824%);fill-opacity:1;" d="M 185.949219 116.609375 L 196.75 116.609375 L 196.75 110.847656 L 185.949219 110.847656 Z "/>
<path style=" stroke:none;fill-rule:evenodd;fill:rgb(45.098039%,45.098039%,87.058824%);fill-opacity:1;" d="M 124.898438 116.488281 L 135.699219 116.488281 L 135.699219 110.726563 L 124.898438 110.726563 Z "/>
<path style=" stroke:none;fill-rule:evenodd;fill:rgb(45.098039%,45.098039%,87.058824%);fill-opacity:1;" d="M 64.621094 141.550781 L 75.421875 141.550781 L 75.421875 135.789063 L 64.621094 135.789063 Z "/>
<path style=" stroke:none;fill-rule:evenodd;fill:rgb(45.098039%,45.098039%,87.058824%);fill-opacity:1;" d="M 453.652344 233.789063 L 459.414063 233.789063 L 459.414063 222.988281 L 453.652344 222.988281 Z "/>
<path style=" stroke:none;fill-rule:evenodd;fill:rgb(45.098039%,45.098039%,87.058824%);fill-opacity:1;" d="M 148.359375 101.554688 L 154.121094 101.554688 L 154.121094 90.753906 L 148.359375 90.753906 Z "/>
<path style=" stroke:none;fill-rule:evenodd;fill:rgb(45.098039%,45.098039%,87.058824%);fill-opacity:1;" d="M 87.316406 101.433594 L 93.078125 101.433594 L 93.078125 90.632813 L 87.316406 90.632813 Z "/>
<path style=" stroke:none;fill-rule:evenodd;fill:rgb(45.098039%,45.098039%,87.058824%);fill-opacity:1;" d="M 27.039063 126.496094 L 32.800781 126.496094 L 32.800781 115.695313 L 27.039063 115.695313 Z "/>
<path style=" stroke:none;fill-rule:evenodd;fill:rgb(45.098039%,45.098039%,87.058824%);fill-opacity:1;" d="M 554.601563 183.210938 L 556.589844 183.210938 L 556.589844 179.523438 L 554.601563 179.523438 Z "/>
<path style=" stroke:none;fill-rule:evenodd;fill:rgb(45.098039%,45.098039%,87.058824%);fill-opacity:1;" d="M 559.988281 183.210938 L 561.976563 183.210938 L 561.976563 179.523438 L 559.988281 179.523438 Z "/>
<path style=" stroke:none;fill-rule:evenodd;fill:rgb(45.098039%,45.098039%,87.058824%);fill-opacity:1;" d="M 554.601563 304.21875 L 556.589844 304.21875 L 556.589844 300.53125 L 554.601563 300.53125 Z "/>
<path style=" stroke:none;fill-rule:evenodd;fill:rgb(45.098039%,45.098039%,87.058824%);fill-opacity:1;" d="M 559.988281 304.21875 L 561.976563 304.21875 L 561.976563 300.53125 L 559.988281 300.53125 Z "/>
<path style=" stroke:none;fill-rule:evenodd;fill:rgb(45.098039%,45.098039%,87.058824%);fill-opacity:1;" d="M 559.988281 230.234375 L 561.976563 230.234375 L 561.976563 226.546875 L 559.988281 226.546875 Z "/>
<path style=" stroke:none;fill-rule:evenodd;fill:rgb(45.098039%,45.098039%,87.058824%);fill-opacity:1;" d="M 554.601563 230.234375 L 556.589844 230.234375 L 556.589844 226.546875 L 554.601563 226.546875 Z "/>
<path style=" stroke:none;fill-rule:evenodd;fill:rgb(45.098039%,45.098039%,87.058824%);fill-opacity:1;" d="M 162.007813 97.285156 L 163.996094 97.285156 L 163.996094 93.597656 L 162.007813 93.597656 Z "/>
<path style=" stroke:none;fill-rule:evenodd;fill:rgb(45.098039%,45.098039%,87.058824%);fill-opacity:1;" d="M 167.394531 97.285156 L 169.382813 97.285156 L 169.382813 93.597656 L 167.394531 93.597656 Z "/>
<path style=" stroke:none;fill-rule:evenodd;fill:rgb(45.098039%,45.098039%,87.058824%);fill-opacity:1;" d="M 100.960938 97.167969 L 102.949219 97.167969 L 102.949219 93.480469 L 100.960938 93.480469 Z "/>
<path style=" stroke:none;fill-rule:evenodd;fill:rgb(45.098039%,45.098039%,87.058824%);fill-opacity:1;" d="M 106.34375 97.167969 L 108.332031 97.167969 L 108.332031 93.480469 L 106.34375 93.480469 Z "/>
<path style=" stroke:none;fill-rule:evenodd;fill:rgb(45.098039%,45.098039%,87.058824%);fill-opacity:1;" d="M 40.679688 122.234375 L 42.667969 122.234375 L 42.667969 118.546875 L 40.679688 118.546875 Z "/>
<path style=" stroke:none;fill-rule:evenodd;fill:rgb(45.098039%,45.098039%,87.058824%);fill-opacity:1;" d="M 46.066406 122.234375 L 48.054688 122.234375 L 48.054688 118.546875 L 46.066406 118.546875 Z "/>
<path style=" stroke:none;fill-rule:evenodd;fill:rgb(45.098039%,45.098039%,87.058824%);fill-opacity:1;" d="M 40.402344 68.554688 L 42.390625 68.554688 L 42.390625 64.867188 L 40.402344 64.867188 Z "/>
<path style=" stroke:none;fill-rule:evenodd;fill:rgb(45.098039%,45.098039%,87.058824%);fill-opacity:1;" d="M 35.015625 68.554688 L 37.003906 68.554688 L 37.003906 64.867188 L 35.015625 64.867188 Z "/>
<path style=" stroke:none;fill-rule:evenodd;fill:rgb(45.098039%,45.098039%,87.058824%);fill-opacity:1;" d="M 155.347656 47.113281 L 157.335938 47.113281 L 157.335938 43.425781 L 155.347656 43.425781 Z "/>
<path style=" stroke:none;fill-rule:evenodd;fill:rgb(45.098039%,45.098039%,87.058824%);fill-opacity:1;" d="M 149.964844 47.113281 L 151.953125 47.113281 L 151.953125 43.425781 L 149.964844 43.425781 Z "/>
<path style=" stroke:none;fill-rule:evenodd;fill:rgb(45.098039%,45.098039%,87.058824%);fill-opacity:1;" d="M 94.300781 46.992188 L 96.289063 46.992188 L 96.289063 43.304688 L 94.300781 43.304688 Z "/>
<path style=" stroke:none;fill-rule:evenodd;fill:rgb(45.098039%,45.098039%,87.058824%);fill-opacity:1;" d="M 88.914063 46.992188 L 90.902344 46.992188 L 90.902344 43.304688 L 88.914063 43.304688 Z "/>
<path style=" stroke:none;fill-rule:evenodd;fill:rgb(45.098039%,45.098039%,87.058824%);fill-opacity:1;" d="M 149.964844 36.199219 L 151.953125 36.199219 L 151.953125 32.511719 L 149.964844 32.511719 Z "/>
<path style=" stroke:none;fill-rule:evenodd;fill:rgb(45.098039%,45.098039%,87.058824%);fill-opacity:1;" d="M 155.347656 36.199219 L 157.335938 36.199219 L 157.335938 32.511719 L 155.347656 32.511719 Z "/>
<path style=" stroke:none;fill-rule:evenodd;fill:rgb(45.098039%,45.098039%,87.058824%);fill-opacity:1;" d="M 88.914063 36.078125 L 90.902344 36.078125 L 90.902344 32.390625 L 88.914063 32.390625 Z "/>
<path style=" stroke:none;fill-rule:evenodd;fill:rgb(45.098039%,45.098039%,87.058824%);fill-opacity:1;" d="M 94.300781 36.078125 L 96.289063 36.078125 L 96.289063 32.390625 L 94.300781 32.390625 Z "/>
<path style=" stroke:none;fill-rule:evenodd;fill:rgb(45.098039%,45.098039%,87.058824%);fill-opacity:1;" d="M 45.640625 48.671875 L 47.628906 48.671875 L 47.628906 44.984375 L 45.640625 44.984375 Z "/>
<path style=" stroke:none;fill-rule:evenodd;fill:rgb(45.098039%,45.098039%,87.058824%);fill-opacity:1;" d="M 51.027344 48.671875 L 53.015625 48.671875 L 53.015625 44.984375 L 51.027344 44.984375 Z "/>
<path style=" stroke:none;fill-rule:evenodd;fill:rgb(45.098039%,45.098039%,87.058824%);fill-opacity:1;" d="M 192.480469 68.511719 L 194.46875 68.511719 L 194.46875 64.824219 L 192.480469 64.824219 Z "/>
<path style=" stroke:none;fill-rule:evenodd;fill:rgb(45.098039%,45.098039%,87.058824%);fill-opacity:1;" d="M 187.09375 68.511719 L 189.082031 68.511719 L 189.082031 64.824219 L 187.09375 64.824219 Z "/>
<path style=" stroke:none;fill-rule:evenodd;fill:rgb(45.098039%,45.098039%,87.058824%);fill-opacity:1;" d="M 131.4375 68.390625 L 133.425781 68.390625 L 133.425781 64.703125 L 131.4375 64.703125 Z "/>
<path style=" stroke:none;fill-rule:evenodd;fill:rgb(45.098039%,45.098039%,87.058824%);fill-opacity:1;" d="M 126.050781 68.390625 L 128.039063 68.390625 L 128.039063 64.703125 L 126.050781 64.703125 Z "/>
<path style=" stroke:none;fill-rule:evenodd;fill:rgb(45.098039%,45.098039%,87.058824%);fill-opacity:1;" d="M 71.160156 93.460938 L 73.148438 93.460938 L 73.148438 89.773438 L 71.160156 89.773438 Z "/>
<path style=" stroke:none;fill-rule:evenodd;fill:rgb(45.098039%,45.098039%,87.058824%);fill-opacity:1;" d="M 65.773438 93.460938 L 67.761719 93.460938 L 67.761719 89.773438 L 65.773438 89.773438 Z "/>
<path style=" stroke:none;fill-rule:evenodd;fill:rgb(45.098039%,45.098039%,87.058824%);fill-opacity:1;" d="M 186.949219 97.574219 L 188.9375 97.574219 L 188.9375 93.886719 L 186.949219 93.886719 Z "/>
<path style=" stroke:none;fill-rule:evenodd;fill:rgb(45.098039%,45.098039%,87.058824%);fill-opacity:1;" d="M 192.335938 97.574219 L 194.324219 97.574219 L 194.324219 93.886719 L 192.335938 93.886719 Z "/>
<path style=" stroke:none;fill-rule:evenodd;fill:rgb(45.098039%,45.098039%,87.058824%);fill-opacity:1;" d="M 125.90625 97.449219 L 127.894531 97.449219 L 127.894531 93.761719 L 125.90625 93.761719 Z "/>
<path style=" stroke:none;fill-rule:evenodd;fill:rgb(45.098039%,45.098039%,87.058824%);fill-opacity:1;" d="M 131.292969 97.449219 L 133.28125 97.449219 L 133.28125 93.761719 L 131.292969 93.761719 Z "/>
<path style=" stroke:none;fill-rule:evenodd;fill:rgb(45.098039%,45.098039%,87.058824%);fill-opacity:1;" d="M 65.628906 122.511719 L 67.617188 122.511719 L 67.617188 118.824219 L 65.628906 118.824219 Z "/>
<path style=" stroke:none;fill-rule:evenodd;fill:rgb(45.098039%,45.098039%,87.058824%);fill-opacity:1;" d="M 71.015625 122.511719 L 73.003906 122.511719 L 73.003906 118.824219 L 71.015625 118.824219 Z "/>
<path style=" stroke:none;fill-rule:evenodd;fill:rgb(45.098039%,45.098039%,87.058824%);fill-opacity:1;" d="M 75.125 73.335938 L 77.113281 73.335938 L 77.113281 69.648438 L 75.125 69.648438 Z "/>
<path style=" stroke:none;fill-rule:evenodd;fill:rgb(45.098039%,45.098039%,87.058824%);fill-opacity:1;" d="M 69.742188 73.335938 L 71.730469 73.335938 L 71.730469 69.648438 L 69.742188 69.648438 Z "/>
<path style=" stroke:none;fill-rule:evenodd;fill:rgb(45.098039%,45.098039%,87.058824%);fill-opacity:1;" d="M 69.742188 61.003906 L 71.730469 61.003906 L 71.730469 57.316406 L 69.742188 57.316406 Z "/>
<path style=" stroke:none;fill-rule:evenodd;fill:rgb(45.098039%,45.098039%,87.058824%);fill-opacity:1;" d="M 75.125 61.003906 L 77.113281 61.003906 L 77.113281 57.316406 L 75.125 57.316406 Z "/>
<path style=" stroke:none;fill-rule:evenodd;fill:rgb(45.098039%,45.098039%,87.058824%);fill-opacity:1;" d="M 75.125 47.113281 L 77.113281 47.113281 L 77.113281 43.425781 L 75.125 43.425781 Z "/>
<path style=" stroke:none;fill-rule:evenodd;fill:rgb(45.098039%,45.098039%,87.058824%);fill-opacity:1;" d="M 69.742188 47.113281 L 71.730469 47.113281 L 71.730469 43.425781 L 69.742188 43.425781 Z "/>
<path style=" stroke:none;fill-rule:evenodd;fill:rgb(45.098039%,45.098039%,87.058824%);fill-opacity:1;" d="M 481.757813 159.226563 L 495.933594 159.226563 L 495.933594 142.21875 L 481.757813 142.21875 Z "/>
<path style=" stroke:none;fill-rule:evenodd;fill:rgb(45.098039%,45.098039%,87.058824%);fill-opacity:1;" d="M 504.429688 159.226563 L 518.605469 159.226563 L 518.605469 142.21875 L 504.429688 142.21875 Z "/>
<path style=" stroke:none;fill-rule:evenodd;fill:rgb(45.098039%,45.098039%,87.058824%);fill-opacity:1;" d="M 479.199219 65.519531 L 493.375 65.519531 L 493.375 48.511719 L 479.199219 48.511719 Z "/>
<path style=" stroke:none;fill-rule:evenodd;fill:rgb(45.098039%,45.098039%,87.058824%);fill-opacity:1;" d="M 456.527344 65.519531 L 470.703125 65.519531 L 470.703125 48.511719 L 456.527344 48.511719 Z "/>
<path style=" stroke:none;fill-rule:evenodd;fill:rgb(45.098039%,45.098039%,87.058824%);fill-opacity:1;" d="M 553.292969 198.90625 L 556.691406 198.90625 L 556.691406 195.507813 L 553.292969 195.507813 Z "/>
<path style=" stroke:none;fill-rule:evenodd;fill:rgb(45.098039%,45.098039%,87.058824%);fill-opacity:1;" d="M 559.246094 198.90625 L 562.644531 198.90625 L 562.644531 195.507813 L 559.246094 195.507813 Z "/>
<path style=" stroke:none;fill-rule:evenodd;fill:rgb(45.098039%,45.098039%,87.058824%);fill-opacity:1;" d="M 553.292969 322.636719 L 556.691406 322.636719 L 556.691406 319.238281 L 553.292969 319.238281 Z "/>
<path style=" stroke:none;fill-rule:evenodd;fill:rgb(45.098039%,45.098039%,87.058824%);fill-opacity:1;" d="M 559.246094 322.636719 L 562.644531 322.636719 L 562.644531 319.238281 L 559.246094 319.238281 Z "/>
<path style=" stroke:none;fill-rule:evenodd;fill:rgb(45.098039%,45.098039%,87.058824%);fill-opacity:1;" d="M 553.292969 246.246094 L 556.691406 246.246094 L 556.691406 242.847656 L 553.292969 242.847656 Z "/>
<path style=" stroke:none;fill-rule:evenodd;fill:rgb(45.098039%,45.098039%,87.058824%);fill-opacity:1;" d="M 559.246094 246.246094 L 562.644531 246.246094 L 562.644531 242.847656 L 559.246094 242.847656 Z "/>
<path style=" stroke:none;fill-rule:evenodd;fill:rgb(45.098039%,45.098039%,87.058824%);fill-opacity:1;" d="M 310.679688 42.570313 L 316.078125 42.570313 L 316.078125 38.609375 L 310.679688 38.609375 Z "/>
<path style=" stroke:none;fill-rule:evenodd;fill:rgb(45.098039%,45.098039%,87.058824%);fill-opacity:1;" d="M 310.679688 51.933594 L 316.078125 51.933594 L 316.078125 47.972656 L 310.679688 47.972656 Z "/>
<path style=" stroke:none;fill-rule:evenodd;fill:rgb(45.098039%,45.098039%,87.058824%);fill-opacity:1;" d="M 366.242188 42.84375 L 371.640625 42.84375 L 371.640625 38.882813 L 366.242188 38.882813 Z "/>
<path style=" stroke:none;fill-rule:evenodd;fill:rgb(45.098039%,45.098039%,87.058824%);fill-opacity:1;" d="M 366.242188 52.207031 L 371.640625 52.207031 L 371.640625 48.246094 L 366.242188 48.246094 Z "/>
<path style=" stroke:none;fill-rule:evenodd;fill:rgb(45.098039%,45.098039%,87.058824%);fill-opacity:1;" d="M 353.199219 42.84375 L 358.597656 42.84375 L 358.597656 38.882813 L 353.199219 38.882813 Z "/>
<path style=" stroke:none;fill-rule:evenodd;fill:rgb(45.098039%,45.098039%,87.058824%);fill-opacity:1;" d="M 353.199219 52.207031 L 358.597656 52.207031 L 358.597656 48.246094 L 353.199219 48.246094 Z "/>
<path style=" stroke:none;fill-rule:evenodd;fill:rgb(45.098039%,45.098039%,87.058824%);fill-opacity:1;" d="M 120.34375 182.613281 L 123.742188 182.613281 L 123.742188 179.214844 L 120.34375 179.214844 Z "/>
<path style=" stroke:none;fill-rule:evenodd;fill:rgb(45.098039%,45.098039%,87.058824%);fill-opacity:1;" d="M 120.34375 188.558594 L 123.742188 188.558594 L 123.742188 185.160156 L 120.34375 185.160156 Z "/>
<path style=" stroke:none;fill-rule:evenodd;fill:rgb(45.098039%,45.098039%,87.058824%);fill-opacity:1;" d="M 139.472656 182.324219 L 142.871094 182.324219 L 142.871094 178.925781 L 139.472656 178.925781 Z "/>
<path style=" stroke:none;fill-rule:evenodd;fill:rgb(45.098039%,45.098039%,87.058824%);fill-opacity:1;" d="M 139.472656 188.277344 L 142.871094 188.277344 L 142.871094 184.878906 L 139.472656 184.878906 Z "/>
<path style=" stroke:none;fill-rule:evenodd;fill:rgb(45.098039%,45.098039%,87.058824%);fill-opacity:1;" d="M 158.609375 182.324219 L 162.007813 182.324219 L 162.007813 178.925781 L 158.609375 178.925781 Z "/>
<path style=" stroke:none;fill-rule:evenodd;fill:rgb(45.098039%,45.098039%,87.058824%);fill-opacity:1;" d="M 158.609375 188.277344 L 162.007813 188.277344 L 162.007813 184.878906 L 158.609375 184.878906 Z "/>
<path style=" stroke:none;fill-rule:evenodd;fill:rgb(45.098039%,45.098039%,87.058824%);fill-opacity:1;" d="M 512.941406 200.324219 L 515.210938 200.324219 L 515.210938 198.625 L 512.941406 198.625 Z "/>
<path style=" stroke:none;fill-rule:evenodd;fill:rgb(45.098039%,45.098039%,87.058824%);fill-opacity:1;" d="M 506.703125 200.324219 L 508.972656 200.324219 L 508.972656 198.625 L 506.703125 198.625 Z "/>
<path style=" stroke:none;fill-rule:evenodd;fill:rgb(45.098039%,45.098039%,87.058824%);fill-opacity:1;" d="M 455.398438 190.402344 L 457.667969 190.402344 L 457.667969 188.703125 L 455.398438 188.703125 Z "/>
<path style=" stroke:none;fill-rule:evenodd;fill:rgb(45.098039%,45.098039%,87.058824%);fill-opacity:1;" d="M 461.632813 190.402344 L 463.902344 190.402344 L 463.902344 188.703125 L 461.632813 188.703125 Z "/>
<path style=" stroke:none;fill-rule:evenodd;fill:rgb(45.098039%,45.098039%,87.058824%);fill-opacity:1;" d="M 422.511719 58.027344 L 424.210938 58.027344 L 424.210938 55.757813 L 422.511719 55.757813 Z "/>
<path style=" stroke:none;fill-rule:evenodd;fill:rgb(45.098039%,45.098039%,87.058824%);fill-opacity:1;" d="M 422.511719 51.792969 L 424.210938 51.792969 L 424.210938 49.523438 L 422.511719 49.523438 Z "/>
<path style=" stroke:none;fill-rule:evenodd;fill:rgb(45.098039%,45.098039%,87.058824%);fill-opacity:1;" d="M 375.605469 52.070313 L 378.152344 52.070313 L 378.152344 48.382813 L 375.605469 48.382813 Z "/>
<path style=" stroke:none;fill-rule:evenodd;fill:rgb(45.098039%,45.098039%,87.058824%);fill-opacity:1;" d="M 380.988281 52.070313 L 383.535156 52.070313 L 383.535156 48.382813 L 380.988281 48.382813 Z "/>
<path style=" stroke:none;fill-rule:evenodd;fill:rgb(45.098039%,45.098039%,87.058824%);fill-opacity:1;" d="M 154.21875 65.417969 L 156.765625 65.417969 L 156.765625 61.730469 L 154.21875 61.730469 Z "/>
<path style=" stroke:none;fill-rule:evenodd;fill:rgb(45.098039%,45.098039%,87.058824%);fill-opacity:1;" d="M 148.824219 65.417969 L 151.371094 65.417969 L 151.371094 61.730469 L 148.824219 61.730469 Z "/>
<path style=" stroke:none;fill-rule:evenodd;fill:rgb(45.098039%,45.098039%,87.058824%);fill-opacity:1;" d="M 93.167969 65.296875 L 95.714844 65.296875 L 95.714844 61.609375 L 93.167969 61.609375 Z "/>
<path style=" stroke:none;fill-rule:evenodd;fill:rgb(45.098039%,45.098039%,87.058824%);fill-opacity:1;" d="M 87.785156 65.296875 L 90.332031 65.296875 L 90.332031 61.609375 L 87.785156 61.609375 Z "/>
<path style=" stroke:none;fill-rule:evenodd;fill:rgb(45.098039%,45.098039%,87.058824%);fill-opacity:1;" d="M 32.890625 90.359375 L 35.4375 90.359375 L 35.4375 86.671875 L 32.890625 86.671875 Z "/>
<path style=" stroke:none;fill-rule:evenodd;fill:rgb(45.098039%,45.098039%,87.058824%);fill-opacity:1;" d="M 27.503906 90.359375 L 30.050781 90.359375 L 30.050781 86.671875 L 27.503906 86.671875 Z "/>
<path style=" stroke:none;fill-rule:evenodd;fill:rgb(45.098039%,45.098039%,87.058824%);fill-opacity:1;" d="M 167.113281 82.835938 L 169.660156 82.835938 L 169.660156 79.148438 L 167.113281 79.148438 Z "/>
<path style=" stroke:none;fill-rule:evenodd;fill:rgb(45.098039%,45.098039%,87.058824%);fill-opacity:1;" d="M 161.726563 82.835938 L 164.273438 82.835938 L 164.273438 79.148438 L 161.726563 79.148438 Z "/>
<path style=" stroke:none;fill-rule:evenodd;fill:rgb(45.098039%,45.098039%,87.058824%);fill-opacity:1;" d="M 106.066406 82.710938 L 108.613281 82.710938 L 108.613281 79.023438 L 106.066406 79.023438 Z "/>
<path style=" stroke:none;fill-rule:evenodd;fill:rgb(45.098039%,45.098039%,87.058824%);fill-opacity:1;" d="M 100.679688 82.710938 L 103.226563 82.710938 L 103.226563 79.023438 L 100.679688 79.023438 Z "/>
<path style=" stroke:none;fill-rule:evenodd;fill:rgb(45.098039%,45.098039%,87.058824%);fill-opacity:1;" d="M 45.785156 107.773438 L 48.332031 107.773438 L 48.332031 104.085938 L 45.785156 104.085938 Z "/>
<path style=" stroke:none;fill-rule:evenodd;fill:rgb(45.098039%,45.098039%,87.058824%);fill-opacity:1;" d="M 40.402344 107.773438 L 42.949219 107.773438 L 42.949219 104.085938 L 40.402344 104.085938 Z "/>
<path style=" stroke:none;fill-rule:evenodd;fill:rgb(45.098039%,45.098039%,87.058824%);fill-opacity:1;" d="M 148.824219 138.535156 L 151.371094 138.535156 L 151.371094 134.847656 L 148.824219 134.847656 Z "/>
<path style=" stroke:none;fill-rule:evenodd;fill:rgb(45.098039%,45.098039%,87.058824%);fill-opacity:1;" d="M 154.21875 138.535156 L 156.765625 138.535156 L 156.765625 134.847656 L 154.21875 134.847656 Z "/>
<path style=" stroke:none;fill-rule:evenodd;fill:rgb(45.098039%,45.098039%,87.058824%);fill-opacity:1;" d="M 87.785156 138.410156 L 90.332031 138.410156 L 90.332031 134.722656 L 87.785156 134.722656 Z "/>
<path style=" stroke:none;fill-rule:evenodd;fill:rgb(45.098039%,45.098039%,87.058824%);fill-opacity:1;" d="M 93.167969 138.410156 L 95.714844 138.410156 L 95.714844 134.722656 L 93.167969 134.722656 Z "/>
<path style=" stroke:none;fill-rule:evenodd;fill:rgb(45.098039%,45.098039%,87.058824%);fill-opacity:1;" d="M 27.503906 163.472656 L 30.050781 163.472656 L 30.050781 159.785156 L 27.503906 159.785156 Z "/>
<path style=" stroke:none;fill-rule:evenodd;fill:rgb(45.098039%,45.098039%,87.058824%);fill-opacity:1;" d="M 32.890625 163.472656 L 35.4375 163.472656 L 35.4375 159.785156 L 32.890625 159.785156 Z "/>
<path style=" stroke:none;fill-rule:evenodd;fill:rgb(45.098039%,45.098039%,87.058824%);fill-opacity:1;" d="M 186.667969 82.835938 L 189.214844 82.835938 L 189.214844 79.148438 L 186.667969 79.148438 Z "/>
<path style=" stroke:none;fill-rule:evenodd;fill:rgb(45.098039%,45.098039%,87.058824%);fill-opacity:1;" d="M 192.054688 82.835938 L 194.601563 82.835938 L 194.601563 79.148438 L 192.054688 79.148438 Z "/>
<path style=" stroke:none;fill-rule:evenodd;fill:rgb(45.098039%,45.098039%,87.058824%);fill-opacity:1;" d="M 125.628906 82.710938 L 128.175781 82.710938 L 128.175781 79.023438 L 125.628906 79.023438 Z "/>
<path style=" stroke:none;fill-rule:evenodd;fill:rgb(45.098039%,45.098039%,87.058824%);fill-opacity:1;" d="M 131.011719 82.710938 L 133.558594 82.710938 L 133.558594 79.023438 L 131.011719 79.023438 Z "/>
<path style=" stroke:none;fill-rule:evenodd;fill:rgb(45.098039%,45.098039%,87.058824%);fill-opacity:1;" d="M 65.347656 107.773438 L 67.894531 107.773438 L 67.894531 104.085938 L 65.347656 104.085938 Z "/>
<path style=" stroke:none;fill-rule:evenodd;fill:rgb(45.098039%,45.098039%,87.058824%);fill-opacity:1;" d="M 70.734375 107.773438 L 73.28125 107.773438 L 73.28125 104.085938 L 70.734375 104.085938 Z "/>
<path style=" stroke:none;fill-rule:evenodd;fill:rgb(45.098039%,45.098039%,87.058824%);fill-opacity:1;" d="M 272.421875 121.953125 L 274.96875 121.953125 L 274.96875 118.265625 L 272.421875 118.265625 Z "/>
<path style=" stroke:none;fill-rule:evenodd;fill:rgb(45.098039%,45.098039%,87.058824%);fill-opacity:1;" d="M 267.035156 121.953125 L 269.582031 121.953125 L 269.582031 118.265625 L 267.035156 118.265625 Z "/>
<path style=" stroke:none;fill-rule:evenodd;fill:rgb(45.098039%,45.098039%,87.058824%);fill-opacity:1;" d="M 272.421875 114.859375 L 274.96875 114.859375 L 274.96875 111.171875 L 272.421875 111.171875 Z "/>
<path style=" stroke:none;fill-rule:evenodd;fill:rgb(45.098039%,45.098039%,87.058824%);fill-opacity:1;" d="M 267.035156 114.859375 L 269.582031 114.859375 L 269.582031 111.171875 L 267.035156 111.171875 Z "/>
<path style=" stroke:none;fill-rule:evenodd;fill:rgb(45.098039%,45.098039%,87.058824%);fill-opacity:1;" d="M 272.421875 107.773438 L 274.96875 107.773438 L 274.96875 104.085938 L 272.421875 104.085938 Z "/>
<path style=" stroke:none;fill-rule:evenodd;fill:rgb(45.098039%,45.098039%,87.058824%);fill-opacity:1;" d="M 267.035156 107.773438 L 269.582031 107.773438 L 269.582031 104.085938 L 267.035156 104.085938 Z "/>
<path style=" stroke:none;fill-rule:evenodd;fill:rgb(45.098039%,45.098039%,87.058824%);fill-opacity:1;" d="M 272.421875 100.691406 L 274.96875 100.691406 L 274.96875 97.003906 L 272.421875 97.003906 Z "/>
<path style=" stroke:none;fill-rule:evenodd;fill:rgb(45.098039%,45.098039%,87.058824%);fill-opacity:1;" d="M 267.035156 100.691406 L 269.582031 100.691406 L 269.582031 97.003906 L 267.035156 97.003906 Z "/>
<path style=" stroke:none;fill-rule:evenodd;fill:rgb(45.098039%,45.098039%,87.058824%);fill-opacity:1;" d="M 272.421875 92.1875 L 274.96875 92.1875 L 274.96875 88.5 L 272.421875 88.5 Z "/>
<path style=" stroke:none;fill-rule:evenodd;fill:rgb(45.098039%,45.098039%,87.058824%);fill-opacity:1;" d="M 267.035156 92.1875 L 269.582031 92.1875 L 269.582031 88.5 L 267.035156 88.5 Z "/>
<path style=" stroke:none;fill-rule:evenodd;fill:rgb(45.098039%,45.098039%,87.058824%);fill-opacity:1;" d="M 272.566406 83.964844 L 275.113281 83.964844 L 275.113281 80.277344 L 272.566406 80.277344 Z "/>
<path style=" stroke:none;fill-rule:evenodd;fill:rgb(45.098039%,45.098039%,87.058824%);fill-opacity:1;" d="M 267.179688 83.964844 L 269.726563 83.964844 L 269.726563 80.277344 L 267.179688 80.277344 Z "/>
<path style=" stroke:none;fill-rule:evenodd;fill:rgb(45.098039%,45.098039%,87.058824%);fill-opacity:1;" d="M 263.628906 131.015625 L 266.175781 131.015625 L 266.175781 127.328125 L 263.628906 127.328125 Z "/>
<path style=" stroke:none;fill-rule:evenodd;fill:rgb(45.098039%,45.098039%,87.058824%);fill-opacity:1;" d="M 258.242188 131.015625 L 260.789063 131.015625 L 260.789063 127.328125 L 258.242188 127.328125 Z "/>
<path style=" stroke:none;fill-rule:evenodd;fill:rgb(45.098039%,45.098039%,87.058824%);fill-opacity:1;" d="M 397.28125 112.410156 L 399.828125 112.410156 L 399.828125 108.722656 L 397.28125 108.722656 Z "/>
<path style=" stroke:none;fill-rule:evenodd;fill:rgb(45.098039%,45.098039%,87.058824%);fill-opacity:1;" d="M 402.667969 112.410156 L 405.214844 112.410156 L 405.214844 108.722656 L 402.667969 108.722656 Z "/>
<path style=" stroke:none;fill-rule:evenodd;fill:rgb(45.098039%,45.098039%,87.058824%);fill-opacity:1;" d="M 512.511719 182.324219 L 515.058594 182.324219 L 515.058594 178.636719 L 512.511719 178.636719 Z "/>
<path style=" stroke:none;fill-rule:evenodd;fill:rgb(45.098039%,45.098039%,87.058824%);fill-opacity:1;" d="M 507.125 182.324219 L 509.671875 182.324219 L 509.671875 178.636719 L 507.125 178.636719 Z "/>
<path style=" stroke:none;fill-rule:evenodd;fill:rgb(45.098039%,45.098039%,87.058824%);fill-opacity:1;" d="M 455.820313 175.101563 L 458.367188 175.101563 L 458.367188 171.414063 L 455.820313 171.414063 Z "/>
<path style=" stroke:none;fill-rule:evenodd;fill:rgb(45.098039%,45.098039%,87.058824%);fill-opacity:1;" d="M 461.203125 175.101563 L 463.75 175.101563 L 463.75 171.414063 L 461.203125 171.414063 Z "/>
<path style=" stroke:none;fill-rule:evenodd;fill:rgb(45.098039%,45.098039%,87.058824%);fill-opacity:1;" d="M 152.570313 120.957031 L 156.257813 120.957031 L 156.257813 118.410156 L 152.570313 118.410156 Z "/>
<path style=" stroke:none;fill-rule:evenodd;fill:rgb(45.098039%,45.098039%,87.058824%);fill-opacity:1;" d="M 152.570313 126.34375 L 156.257813 126.34375 L 156.257813 123.796875 L 152.570313 123.796875 Z "/>
<path style=" stroke:none;fill-rule:evenodd;fill:rgb(45.098039%,45.098039%,87.058824%);fill-opacity:1;" d="M 91.519531 120.835938 L 95.207031 120.835938 L 95.207031 118.289063 L 91.519531 118.289063 Z "/>
<path style=" stroke:none;fill-rule:evenodd;fill:rgb(45.098039%,45.098039%,87.058824%);fill-opacity:1;" d="M 91.519531 126.222656 L 95.207031 126.222656 L 95.207031 123.675781 L 91.519531 123.675781 Z "/>
<path style=" stroke:none;fill-rule:evenodd;fill:rgb(45.098039%,45.098039%,87.058824%);fill-opacity:1;" d="M 31.242188 145.898438 L 34.929688 145.898438 L 34.929688 143.351563 L 31.242188 143.351563 Z "/>
<path style=" stroke:none;fill-rule:evenodd;fill:rgb(45.098039%,45.098039%,87.058824%);fill-opacity:1;" d="M 31.242188 151.285156 L 34.929688 151.285156 L 34.929688 148.738281 L 31.242188 148.738281 Z "/>
<path style=" stroke:none;fill-rule:evenodd;fill:rgb(45.098039%,45.098039%,87.058824%);fill-opacity:1;" d="M 195.460938 126.480469 L 199.148438 126.480469 L 199.148438 123.933594 L 195.460938 123.933594 Z "/>
<path style=" stroke:none;fill-rule:evenodd;fill:rgb(45.098039%,45.098039%,87.058824%);fill-opacity:1;" d="M 195.460938 131.867188 L 199.148438 131.867188 L 199.148438 129.320313 L 195.460938 129.320313 Z "/>
<path style=" stroke:none;fill-rule:evenodd;fill:rgb(45.098039%,45.098039%,87.058824%);fill-opacity:1;" d="M 134.410156 126.359375 L 138.097656 126.359375 L 138.097656 123.8125 L 134.410156 123.8125 Z "/>
<path style=" stroke:none;fill-rule:evenodd;fill:rgb(45.098039%,45.098039%,87.058824%);fill-opacity:1;" d="M 134.410156 131.742188 L 138.097656 131.742188 L 138.097656 129.195313 L 134.410156 129.195313 Z "/>
<path style=" stroke:none;fill-rule:evenodd;fill:rgb(45.098039%,45.098039%,87.058824%);fill-opacity:1;" d="M 74.132813 151.429688 L 77.820313 151.429688 L 77.820313 148.882813 L 74.132813 148.882813 Z "/>
<path style=" stroke:none;fill-rule:evenodd;fill:rgb(45.098039%,45.098039%,87.058824%);fill-opacity:1;" d="M 74.132813 156.8125 L 77.820313 156.8125 L 77.820313 154.265625 L 74.132813 154.265625 Z "/>
<path style=" stroke:none;fill-rule:evenodd;fill:rgb(45.098039%,45.098039%,87.058824%);fill-opacity:1;" d="M 213.820313 132.289063 L 217.507813 132.289063 L 217.507813 129.742188 L 213.820313 129.742188 Z "/>
<path style=" stroke:none;fill-rule:evenodd;fill:rgb(45.098039%,45.098039%,87.058824%);fill-opacity:1;" d="M 213.820313 126.90625 L 217.507813 126.90625 L 217.507813 124.359375 L 213.820313 124.359375 Z "/>
<path style=" stroke:none;fill-rule:evenodd;fill:rgb(45.098039%,45.098039%,87.058824%);fill-opacity:1;" d="M 213.742188 113.585938 L 217.429688 113.585938 L 217.429688 111.039063 L 213.742188 111.039063 Z "/>
<path style=" stroke:none;fill-rule:evenodd;fill:rgb(45.098039%,45.098039%,87.058824%);fill-opacity:1;" d="M 213.742188 118.972656 L 217.429688 118.972656 L 217.429688 116.425781 L 213.742188 116.425781 Z "/>
<path style=" stroke:none;fill-rule:evenodd;fill:rgb(45.098039%,45.098039%,87.058824%);fill-opacity:1;" d="M 213.742188 80.132813 L 217.429688 80.132813 L 217.429688 77.585938 L 213.742188 77.585938 Z "/>
<path style=" stroke:none;fill-rule:evenodd;fill:rgb(45.098039%,45.098039%,87.058824%);fill-opacity:1;" d="M 213.742188 74.75 L 217.429688 74.75 L 217.429688 72.203125 L 213.742188 72.203125 Z "/>
<path style=" stroke:none;fill-rule:evenodd;fill:rgb(45.098039%,45.098039%,87.058824%);fill-opacity:1;" d="M 213.742188 87.652344 L 217.429688 87.652344 L 217.429688 85.105469 L 213.742188 85.105469 Z "/>
<path style=" stroke:none;fill-rule:evenodd;fill:rgb(45.098039%,45.098039%,87.058824%);fill-opacity:1;" d="M 213.742188 93.035156 L 217.429688 93.035156 L 217.429688 90.488281 L 213.742188 90.488281 Z "/>
<path style=" stroke:none;fill-rule:evenodd;fill:rgb(45.098039%,45.098039%,87.058824%);fill-opacity:1;" d="M 213.742188 105.652344 L 217.429688 105.652344 L 217.429688 103.105469 L 213.742188 103.105469 Z "/>
<path style=" stroke:none;fill-rule:evenodd;fill:rgb(45.098039%,45.098039%,87.058824%);fill-opacity:1;" d="M 213.742188 100.265625 L 217.429688 100.265625 L 217.429688 97.71875 L 213.742188 97.71875 Z "/>
<path style=" stroke:none;fill-rule:evenodd;fill:rgb(45.098039%,45.098039%,87.058824%);fill-opacity:1;" d="M 410.890625 57.597656 L 414.578125 57.597656 L 414.578125 55.050781 L 410.890625 55.050781 Z "/>
<path style=" stroke:none;fill-rule:evenodd;fill:rgb(45.098039%,45.098039%,87.058824%);fill-opacity:1;" d="M 410.890625 52.210938 L 414.578125 52.210938 L 414.578125 49.664063 L 410.890625 49.664063 Z "/>
</g>
</svg>
